<svg id="_ëîé_1" data-name="‘ëîé_1" xmlns="http://www.w3.org/2000/svg" viewBox="0 0 2707.33 1895.13"><defs><style>.cls-1{fill:#f5efd9;}.cls-2{fill:#fff;}.cls-10,.cls-12,.cls-13,.cls-15,.cls-16,.cls-17,.cls-18,.cls-19,.cls-21,.cls-22,.cls-24,.cls-25,.cls-27,.cls-29,.cls-3,.cls-30,.cls-31,.cls-32,.cls-33,.cls-34,.cls-35,.cls-5,.cls-6{fill:none;}.cls-3,.cls-31,.cls-34{stroke:#e3d2b7;}.cls-10,.cls-12,.cls-13,.cls-15,.cls-16,.cls-17,.cls-18,.cls-19,.cls-21,.cls-22,.cls-24,.cls-25,.cls-27,.cls-29,.cls-3,.cls-30,.cls-31,.cls-32,.cls-33,.cls-34,.cls-35,.cls-5{stroke-miterlimit:10;}.cls-12,.cls-17,.cls-18,.cls-29,.cls-3,.cls-30,.cls-5{stroke-width:6.5px;}.cls-4{fill:#efdfc0;}.cls-35,.cls-5{stroke:#e2ad00;}.cls-10,.cls-16,.cls-19,.cls-21,.cls-22,.cls-24,.cls-25,.cls-29,.cls-30,.cls-5,.cls-6{stroke-linecap:round;}.cls-12,.cls-15,.cls-21,.cls-29,.cls-6{stroke:#66293c;}.cls-6{stroke-linejoin:round;}.cls-10,.cls-19,.cls-21,.cls-33,.cls-34,.cls-6{stroke-width:5.42px;}.cls-7{fill:#b4702f;}.cls-8{fill:#d9af00;}.cls-9{fill:#5d2d3c;}.cls-10,.cls-24,.cls-30{stroke:#b4702f;}.cls-11{fill:#a0d6ff;}.cls-13,.cls-18,.cls-19,.cls-22{stroke:#fff;}.cls-13,.cls-31{stroke-width:4.87px;}.cls-14{fill:#e3d2b7;}.cls-15{stroke-width:4.33px;}.cls-16{stroke:#d9af00;stroke-width:2.24px;}.cls-17{stroke:#f5efd9;}.cls-20{fill:#66293c;}.cls-22{stroke-width:5.63px;}.cls-23{fill:#ffafb1;}.cls-24{stroke-width:3.25px;}.cls-25,.cls-27,.cls-32{stroke:#c06c18;}.cls-25{stroke-width:3.38px;}.cls-26{fill:#56303c;}.cls-27{stroke-width:3.69px;}.cls-28{fill:#c06c18;}.cls-32{stroke-width:3.79px;}.cls-33{stroke:#a0d6ff;}.cls-35{stroke-width:10.83px;}</style></defs><g id="DOOR_WITH_LANDSCAPE" data-name="DOOR WITH LANDSCAPE"><path class="cls-1" d="M1886.83,1365,1215,1474.42V688.49c0-185.53,150.41-335.93,335.94-335.93h0c185.53,0,335.94,150.4,335.94,335.93Z"/><circle class="cls-2" cx="1597.1" cy="515.43" r="72.6"/><path class="cls-3" d="M1886.83,914.53a195.71,195.71,0,0,1-253.28-79.87,4.24,4.24,0,0,0-7.37,0A195.86,195.86,0,0,1,1417,929.22"/><line class="cls-3" x1="1416.98" y1="1018.17" x2="1886.83" y2="1018.17"/><line class="cls-3" x1="1629.87" y1="832.52" x2="1629.87" y2="1159.06"/><line class="cls-3" x1="1596.48" y1="909.77" x2="1596.48" y2="1002.65"/><line class="cls-3" x1="1548.89" y1="931.26" x2="1548.89" y2="1002.65"/><line class="cls-3" x1="1501.3" y1="946.62" x2="1501.3" y2="1002.65"/><line class="cls-3" x1="1453.7" y1="949.69" x2="1453.7" y2="1002.65"/><line class="cls-3" x1="1662.5" y1="909.77" x2="1662.5" y2="1002.65"/><line class="cls-3" x1="1710.09" y1="931.26" x2="1710.09" y2="1002.65"/><line class="cls-3" x1="1757.68" y1="946.62" x2="1757.68" y2="1002.65"/><line class="cls-3" x1="1805.28" y1="949.69" x2="1805.28" y2="1002.65"/><line class="cls-3" x1="1849.8" y1="949.69" x2="1849.8" y2="1002.65"/><path class="cls-3" d="M1629.87,1077.83v-12.41a47.24,47.24,0,0,1,47.24-47.25"/><path class="cls-3" d="M1629.87,1077.83v-12.41a47.25,47.25,0,0,0-47.25-47.25"/><polygon class="cls-4" points="1697.02 1159.06 1242.01 1159.06 1784.91 1188.02 1464.99 1431.78 1886.83 1365.03 1886.83 1159.06 1697.02 1159.06"/><path class="cls-5" d="M1200.22,1330.1V676.78c0-188.31,154.73-339.43,345.6-339.43h0c59.26,0,118.11,13.18,166.85,39.11"/><path class="cls-5" d="M1748.8,396.47q11.21,8,21.7,16.87"/><path class="cls-4" d="M1545.33,635.18H1317.18c0-20.24,20.78-36.64,46.42-36.64a57.3,57.3,0,0,1,16.49,2.38c8.51-12.46,21.56-20.43,36.19-20.43,22,0,40.38,18,45.19,42.14,8.45-5.94,22.07-10.64,37.44-10.64C1524.55,612,1545.33,625.06,1545.33,635.18Z"/><polyline class="cls-6" points="1469.11 546.74 1477.46 555.09 1485.9 546.65"/><polygon class="cls-7" points="1214.95 725.06 1319.04 725.06 1214.95 827.92 1214.95 725.06"/><polygon class="cls-2" points="1513 1073.06 1513 1159.06 1214.96 1159.06 1214.96 827.92 1319.04 725.06 1416.98 827.92 1416.98 1028.73 1513 1073.06"/><path class="cls-8" d="M1463.46,1074.74h0a20.13,20.13,0,0,1,20.13,20.13v64.19a0,0,0,0,1,0,0h-40.25a0,0,0,0,1,0,0v-64.19A20.13,20.13,0,0,1,1463.46,1074.74Z"/><path class="cls-9" d="M1483.58,1094.87v64.19h-6.14V1096.4c0-5.56-.71-10.59-4.36-14.24a20.06,20.06,0,0,0-14.23-5.89,19.82,19.82,0,0,0-4,.41,20.12,20.12,0,0,1,28.76,18.19Z"/><line class="cls-10" x1="1420.05" y1="1028.73" x2="1516.07" y2="1073.06"/><circle class="cls-11" cx="1317.18" cy="802.84" r="20.21"/><rect class="cls-11" x="1259.13" y="880.55" width="40.25" height="61.5"/><line class="cls-12" x1="1299.38" y1="880.55" x2="1299.38" y2="942.06"/><rect class="cls-11" x="1334.36" y="974.21" width="40.25" height="61.5"/><line class="cls-12" x1="1374.61" y1="974.21" x2="1374.61" y2="1035.71"/><rect class="cls-11" x="1259.13" y="974.21" width="40.25" height="61.5"/><line class="cls-12" x1="1299.38" y1="974.21" x2="1299.38" y2="1035.71"/><rect class="cls-11" x="1334.36" y="880.55" width="40.25" height="61.5"/><line class="cls-12" x1="1374.61" y1="880.55" x2="1374.61" y2="942.06"/><line class="cls-13" x1="1334.36" y1="899.9" x2="1371.04" y2="899.9"/><path class="cls-14" d="M1886.83,1159.06c0-49.61-44.09-89.83-98.48-89.83s-98.48,40.22-98.48,89.83Z"/><path class="cls-11" d="M1222.63,1048h8.1c29.34,0,53.13,22.1,53.13,49.36v1.6h5c29.35,0,56.2,25.17,56.2,52.43v7.67H1222.63Z"/><path class="cls-8" d="M1215,1039.52h8.11a53.13,53.13,0,0,1,53.13,53.13v1.72h5a53.13,53.13,0,0,1,53.13,53.13v11.56H1215Z"/><path class="cls-8" d="M1886.83,1232V1365l-166,27c-3.33-84.21,65.18-156.16,154.27-160Q1881,1231.76,1886.83,1232Z"/><path class="cls-8" d="M1683.85,1319.54c16.19,34.67,10.57,71.52,10.57,71.52s-31.86-19.36-48-54-10.57-71.52-10.57-71.52S1667.67,1284.87,1683.85,1319.54Z"/><line class="cls-15" x1="1696.9" y1="1258.75" x2="1696.9" y2="1391.25"/><line class="cls-15" x1="1727.99" y1="1316.25" x2="1696.9" y2="1354.12"/><circle class="cls-2" cx="1696.9" cy="1221.66" r="28.02" transform="translate(-366.83 1557.7) rotate(-45)"/><line class="cls-16" x1="1696.9" y1="1193.64" x2="1696.9" y2="1249.68"/><line class="cls-16" x1="1668.88" y1="1221.66" x2="1724.92" y2="1221.66"/><line class="cls-16" x1="1677.08" y1="1201.84" x2="1716.71" y2="1241.47"/><line class="cls-16" x1="1677.08" y1="1241.47" x2="1716.71" y2="1201.84"/><circle class="cls-2" cx="1696.9" cy="1221.66" r="10.37"/><circle class="cls-9" cx="1696.9" cy="1221.66" r="5.6"/><circle class="cls-2" cx="1751.66" cy="1290.46" r="28.02" transform="translate(-399.45 1616.58) rotate(-45)"/><line class="cls-16" x1="1751.66" y1="1262.44" x2="1751.66" y2="1318.48"/><line class="cls-16" x1="1723.64" y1="1290.46" x2="1779.68" y2="1290.46"/><line class="cls-16" x1="1731.85" y1="1270.65" x2="1771.47" y2="1310.28"/><line class="cls-16" x1="1731.85" y1="1310.28" x2="1771.47" y2="1270.65"/><circle class="cls-2" cx="1751.66" cy="1290.46" r="10.37"/><circle class="cls-9" cx="1751.66" cy="1290.46" r="5.6"/><path class="cls-9" d="M1772.47,1360.39c-20.2,19.33-47,24.08-47,24.08s5.93-26.59,26.13-45.92,47-24.08,47-24.08S1792.67,1341.06,1772.47,1360.39Z"/><circle class="cls-7" cx="1315.57" cy="1224.85" r="14.65" transform="translate(-480.78 1289) rotate(-45)"/><path class="cls-14" d="M1349.35,1418.6c-9.87,22.53-30,35.46-30,35.46s-4.17-23.6,5.7-46.13,30-35.46,30-35.46S1359.23,1396.07,1349.35,1418.6Z"/><path class="cls-14" d="M1282.58,1418.6c9.88,22.53,30.06,35.46,30.06,35.46s4.17-23.6-5.7-46.13-30-35.46-30-35.46S1272.71,1396.07,1282.58,1418.6Z"/><path class="cls-14" d="M1349.35,1349.71c-9.87,22.53-30,35.46-30,35.46s-4.17-23.6,5.7-46.13,30-35.46,30-35.46S1359.23,1327.18,1349.35,1349.71Z"/><path class="cls-14" d="M1282.58,1349.71c9.88,22.53,30.06,35.46,30.06,35.46s4.17-23.6-5.7-46.13-30-35.46-30-35.46S1272.71,1327.18,1282.58,1349.71Z"/><path class="cls-14" d="M1349.35,1280.82c-9.87,22.53-30,35.46-30,35.46s-4.17-23.6,5.7-46.13,30-35.46,30-35.46S1359.23,1258.29,1349.35,1280.82Z"/><path class="cls-14" d="M1282.58,1280.82c9.88,22.53,30.06,35.46,30.06,35.46s4.17-23.6-5.7-46.13-30-35.46-30-35.46S1272.71,1258.29,1282.58,1280.82Z"/><line class="cls-17" x1="740.96" y1="1555.77" x2="1921.28" y2="1358.89"/><line class="cls-17" x1="1544.75" y1="1557.31" x2="1816.08" y2="1466.46"/></g><g id="LOCKER"><rect class="cls-1" x="438.98" y="1043.75" width="246.16" height="474.34" rx="27.8"/><line class="cls-17" x1="683.82" y1="1028.32" x2="440.31" y2="1028.32"/><line class="cls-18" x1="472.26" y1="1271.13" x2="651.87" y2="1271.13"/><circle class="cls-18" cx="562.07" cy="1215.84" r="10.62"/><line class="cls-18" x1="472.26" y1="1381.67" x2="651.87" y2="1381.67"/><circle class="cls-18" cx="562.07" cy="1326.38" r="10.62"/><circle class="cls-18" cx="562.07" cy="1435.38" r="10.62"/><line class="cls-18" x1="472.26" y1="1159.06" x2="651.87" y2="1159.06"/><circle class="cls-18" cx="562.07" cy="1103.77" r="10.62" transform="translate(-379.61 299.11) rotate(-22.5)"/></g><g id="YOUNG_MAN" data-name="YOUNG MAN"><path id="CHAIR_BACK" data-name="CHAIR BACK" class="cls-7" d="M871.06,1192.24H981.51L896,866.14H709.16l66.14,252.21A99,99,0,0,0,871.06,1192.24Z"/><g id="MAN"><g id="LEGS"><g id="LEGS-2" data-name="LEGS"><path class="cls-8" d="M1033.94,1458.06a24.34,24.34,0,0,1-29.86-24.42l14.43-212.76a29.05,29.05,0,0,0-29-31l-129.1-.15c-52-.08-73.39-66.68-31.21-97l8.52-6.13H1067a69.56,69.56,0,0,1,68.51,57.5l40.65,231a40,40,0,0,0,2.74,9.06C1147.26,1420.82,1111,1423,1111,1423Z"/><path class="cls-19" d="M1126.4,1139.39l-34.85,248.13a35.12,35.12,0,0,0,29.21,40.1l10.73,1.7"/><path class="cls-20" d="M893.15,1101.39l-86.28,26.87s-.74,12.73,1.46,19.91Z"/></g><g id="SHOES"><path class="cls-7" d="M1217.87,1415.45l-104.28,24.16L1111,1423s36.28-2.15,67.93-38.85a39.92,39.92,0,0,0,30.07,23.4l8.69,1.44A3.31,3.31,0,0,1,1217.87,1415.45Z"/><path class="cls-21" d="M1189.74,1391.68h-9.16v-9.15a9.16,9.16,0,0,1,9.16-9.16h0a9.16,9.16,0,0,1,9.15,9.16h0A9.15,9.15,0,0,1,1189.74,1391.68Z"/><path class="cls-7" d="M1111.26,1424.69l25.38,9.15-102.7,24.22a24.36,24.36,0,0,1-26.82-11.9s57.52-6.29,84.32-48.53h0A35.15,35.15,0,0,0,1111.26,1424.69Z"/><path class="cls-19" d="M1110.4,1410h-9.16v-9.16a9.16,9.16,0,0,1,9.16-9.16h0a9.16,9.16,0,0,1,9.16,9.16h0A9.16,9.16,0,0,1,1110.4,1410Z"/></g></g><g id="BODY"><path class="cls-11" d="M819.24,1032.31l-31.4-13.83a47.05,47.05,0,0,1-29.74-43.75c0-.72,0-1.45,0-2.18a47,47,0,0,1,15-32.31l85.37-89c21.52-23.56,39.22-30,66.67-29l90.75,3.19A35.31,35.31,0,0,1,1048,871.87l-73.41,220.86H931.48a69.15,69.15,0,0,0-20.55,3.12l-102.51,31.93a5.58,5.58,0,0,1-7.12-6.47Z"/><line class="cls-19" x1="846.72" y1="973.07" x2="835.59" y2="965.57"/><path class="cls-19" d="M945.55,1082.48l20.2-31.49-119-77.92,70.69-56.94c15.66-13.54,25.25-30.92,22.76-46.74"/><line class="cls-19" x1="928.05" y1="1074.49" x2="947.91" y2="1043.75"/><line class="cls-19" x1="1027.93" y1="933.95" x2="896.11" y2="933.95"/><line class="cls-22" x1="1021.55" y1="951.51" x2="873.76" y2="951.51"/></g><g id="HAND"><path class="cls-23" d="M969.57,1051l23.21,28.23a19.78,19.78,0,0,1,3.61,14.17L994,1118.82a2.25,2.25,0,0,1-3.07,1.79l-17.76-5.24a10,10,0,0,1-6.2-10l.62-7-17.19-14.21a2.68,2.68,0,0,1-.53-3.55Z"/><path class="cls-24" d="M990.78,1097.22l-2.22,21.12c-.19,1.46-3.2,2.15-4.56,1.6"/><path class="cls-24" d="M983.91,1094.84l-2.08,21.91a2.25,2.25,0,0,1-3.08,1.79"/><path class="cls-24" d="M977.44,1093l-1.61,19.58c-.19,1.46-3.12,2.14-3.12,2.14"/></g><g id="HEAD"><g id="HEAD-2" data-name="HEAD"><path class="cls-23" d="M1053.85,772.24a14.59,14.59,0,0,0,3.18,9.5l3.47,4.36a2.86,2.86,0,0,1-1.45,4.54l-5.75,1.64-.15,10.29a17.81,17.81,0,0,1-17.91,17.55l-10.73-.06L1000.74,892l-3.08-16.09a59.17,59.17,0,0,0-43.58-46.24l-30.18-7.39,11.57,0a25.43,25.43,0,0,0,25.46-24.09l9.45-5.35a13,13,0,0,1,10.13-21.06h2.62a13,13,0,0,1,11.93,7.88,25.7,25.7,0,0,0,16.07-23.85v-6.66a11.61,11.61,0,0,0-5-9.54l25.87-3.43a19.63,19.63,0,0,1,22.2,19.62Z"/><path class="cls-7" d="M1024.51,820.06l-5.8,17.56-19.19-30a31.69,31.69,0,0,0,22.56,12.27Z"/><path class="cls-25" d="M978.9,780.38a9.16,9.16,0,0,1,9.16,9.16"/><line class="cls-25" x1="980.65" y1="787.73" x2="985.18" y2="782.87"/><path class="cls-7" d="M1037.89,758.56h12.51a0,0,0,0,1,0,0v3.07a3.85,3.85,0,0,1-3.85,3.85h-13.85a0,0,0,0,1,0,0v-1.72A5.2,5.2,0,0,1,1037.89,758.56Z" transform="translate(-108.56 176.58) rotate(-9.21)"/><ellipse class="cls-26" cx="1041.65" cy="773.77" rx="2.64" ry="3.2"/><path class="cls-27" d="M1053,799.45c-2.72,0-6.82-3.08-7.68-6.74"/></g><path id="HAIR" class="cls-28" d="M1060.22,727.88a17.54,17.54,0,0,1-29.88,12.46,17.55,17.55,0,0,1-20.82,2.9,11.5,11.5,0,0,1,1.27,3.09,11.88,11.88,0,0,1,.34,2.81v7.21a25.74,25.74,0,0,1-16.07,23.31,13,13,0,0,0-11.93-7.89h-2.62a13,13,0,0,0-10.13,21.06l-9.45,5.35-3.22-40.76c-.19-15,6.31-23.27,15.83-28.07,0-.48-.06-1-.06-1.47a17.53,17.53,0,0,1,31-11.2,17.52,17.52,0,0,1,25.83-1.26,17.54,17.54,0,0,1,29.88,12.46Z"/></g></g><g id="WHEEL_CHAIR" data-name="WHEEL CHAIR"><polygon class="cls-21" points="1019.57 1462.85 1220.94 1413.91 1224.14 1426.68 1022.76 1475.63 1019.57 1462.85"/><circle class="cls-29" cx="833.56" cy="1287.48" r="17.12" transform="translate(-666.24 966.51) rotate(-45)"/><path class="cls-29" d="M648.47,837.68H668a43.64,43.64,0,0,1,42,31.77l66.33,245A105.39,105.39,0,0,0,878,1192.24H981.51"/><path class="cls-19" d="M1051.62,1192.24c-6.83-17.57-16-36.13-27.32-52"/><ellipse class="cls-30" cx="834.81" cy="1291.74" rx="209.92" ry="236.23"/><path class="cls-21" d="M855.32,1041.35H783a7.68,7.68,0,0,1-7.68-7.68h0A7.67,7.67,0,0,1,783,1026"/></g></g><g id="FLOWERS"><circle class="cls-31" cx="536.93" cy="898.61" r="18.26" transform="translate(-507.14 974.25) rotate(-63.28)"/><path class="cls-31" d="M518.67,896.2,493.13,979a26.9,26.9,0,0,0,25.7,34.83H555A26.9,26.9,0,0,0,580.73,979l-25.54-82.8"/><line class="cls-32" x1="549.17" y1="874.76" x2="513.31" y2="997.65"/><path class="cls-8" d="M552.81,838.46c.17,5.75,10.84,14.16,10.84,14.16s10.17-9,10-14.78a10.42,10.42,0,0,0-20.84.62Z"/><path class="cls-8" d="M574.66,872.29c-.17-5.76-10.84-14.17-10.84-14.17s-10.17,9-10,14.78a10.42,10.42,0,0,0,20.84-.61Z"/><path class="cls-8" d="M579.72,844.47c-5.75.17-14.16,10.85-14.16,10.85s9,10.16,14.78,10a10.42,10.42,0,1,0-.62-20.84Z"/><path class="cls-8" d="M547.75,866.27c5.75-.17,14.16-10.84,14.16-10.84s-9-10.17-14.78-10a10.42,10.42,0,1,0,.62,20.84Z"/><circle class="cls-7" cx="563.73" cy="855.37" r="6.5" transform="translate(-187.6 158.98) rotate(-13.79)"/><line class="cls-32" x1="550.02" y1="972.35" x2="522.49" y2="860.32"/><path class="cls-4" d="M498.63,810.37c.4,6,11.94,14.47,11.94,14.47s10.34-9.87,9.94-15.92a11,11,0,0,0-21.88,1.45Z"/><path class="cls-4" d="M522.89,845.09C522.49,839,511,830.61,511,830.61s-10.34,9.88-9.94,15.92a11,11,0,1,0,21.88-1.44Z"/><path class="cls-4" d="M527.15,815.66c-6,.4-14.47,11.94-14.47,11.94s9.87,10.34,15.91,9.94a11,11,0,0,0-1.44-21.88Z"/><path class="cls-4" d="M494.37,839.79c6-.39,14.47-11.94,14.47-11.94s-9.87-10.33-15.91-9.94a11,11,0,1,0,1.44,21.88Z"/><circle class="cls-7" cx="510.76" cy="827.73" r="6.84" transform="translate(-461.01 868.54) rotate(-60.73)"/><path class="cls-31" d="M518.67,898.61a18.26,18.26,0,1,0,36.52,0"/></g><g id="LAMP"><circle class="cls-1" cx="781.71" cy="602.42" r="40.43" transform="translate(-197.02 729.2) rotate(-45)"/><path class="cls-33" d="M866.26,603.27H697.16a13.54,13.54,0,0,1-11.89-20l47.85-87.78a26.26,26.26,0,0,1,23.06-13.69h51.06a26.26,26.26,0,0,1,23.06,13.69l47.85,87.78A13.54,13.54,0,0,1,866.26,603.27Z"/><polygon class="cls-33" points="838.4 603.27 723.48 603.27 762.08 481.78 799.8 481.78 838.4 603.27"/><line class="cls-33" x1="782" y1="481.78" x2="782" y2="603.27"/><line class="cls-34" x1="781.71" y1="461.26" x2="781.71" y2="370.98"/></g><g id="BIG_HAND" data-name="BIG HAND"><g id="HAND-2" data-name="HAND"><path class="cls-9" d="M1898.66,669.52l-47.14-4.27,6.7,33.9a44.5,44.5,0,0,0,32.88,34.52l17.13,4.27Z"/><path class="cls-23" d="M1891.65,1402.55l-26.32-263.62-22.89-8a158.43,158.43,0,0,1-106.25-149.58V710.72a10.27,10.27,0,0,1,10.26-10.26h12.76a44.8,44.8,0,0,1,43.4,33.69l29,127.27a50.21,50.21,0,0,0,48.95,39.05h0a50.21,50.21,0,0,0,49.07-60.89l-34.37-158-21.24-11.13a69.24,69.24,0,0,1-29.81-40.12l-11.2-40.48a7.39,7.39,0,0,1,10.1-8.73L1942.58,625A35,35,0,0,1,1962,646.84l5.59,18.41L2026,672.7a25.43,25.43,0,0,1,20.33,15.64l10.21,25.06,46,14.08a52.44,52.44,0,0,1,37.09,50.34l-1.14,321.47,115.18,234.39Z"/><path class="cls-2" d="M1736.19,743.65c9.11,0,16.49,7.88,16.49,11.72a38.1,38.1,0,0,1-16.49,4Z"/><line class="cls-29" x1="1970.63" y1="666.78" x2="2001.5" y2="776.49"/><line class="cls-29" x1="2061.1" y1="718" x2="2080.5" y2="789.33"/><path class="cls-29" d="M1737.93,710.34c14.35,0,26,10.91,26,24.37s-11.64,24.38-26,24.38"/><path class="cls-29" d="M1871,595.84c-8.6,7.58-20.44,9.11-28.61,3"/><path class="cls-29" d="M1922.32,1142.1s-43.53,7-79.88-11.15"/><polygon class="cls-11" points="1831.56 1413.98 2284.73 1327.77 2331.8 1458.78 1831.56 1461.85 1831.56 1413.98"/><line class="cls-33" x1="1881.97" y1="1477.83" x2="1881.97" y2="1539.1"/><circle class="cls-18" cx="2245.79" cy="1395.58" r="27.42" transform="translate(-329.04 1996.77) rotate(-45)"/></g><g id="PENCIL"><path class="cls-7" d="M1893.35,995.81l-25.52,4.66a18.36,18.36,0,0,1-21.36-14.76L1757.35,498a30.83,30.83,0,0,1,.51-13.38l10.9-41.51,3.37-12.84a5.27,5.27,0,0,1,9.09-1.66L1789,440l25.51,37.22a30.89,30.89,0,0,1,4.89,11.89l88.69,485.37A18.36,18.36,0,0,1,1893.35,995.81Z"/><path class="cls-2" d="M1818.06,484.07l-10.84-6.37a3.71,3.71,0,0,0-5,.91l-6.82,9.36a3,3,0,0,1-4,.74l-9.71-6.32a3.7,3.7,0,0,0-5,.91l-6.53,8.95a3,3,0,0,1-4,.74l-8.91-5.8c.15-.88.34-1.74.57-2.6l10.9-41.51,3.38-12.83a5.26,5.26,0,0,1,9.08-1.67L1789,440l25.51,37.22A30.45,30.45,0,0,1,1818.06,484.07Z"/><line class="cls-35" x1="1842.96" y1="966.57" x2="1904.6" y2="955.32"/><path class="cls-11" d="M1907.28,969.44l-61.64,11.26,2.21,12.21a31.34,31.34,0,0,0,36.46,25.24h0a31.33,31.33,0,0,0,25.2-36.39Z"/><path class="cls-19" d="M1882.81,1009.25h0a24.19,24.19,0,0,0,19.45-28.09"/><line class="cls-19" x1="1792.28" y1="614.52" x2="1815.12" y2="739.53"/><line class="cls-19" x1="1788.36" y1="591.88" x2="1789.66" y2="599"/><path class="cls-8" d="M1789,440l-1,1.5a12.16,12.16,0,0,1-16.89,3.21l-2.35-1.6,4-15.74a4.24,4.24,0,0,1,7.72-1.18Z"/></g></g></svg>