<svg id="_ëîé_1" data-name="‘ëîé_1" xmlns="http://www.w3.org/2000/svg" xmlns:xlink="http://www.w3.org/1999/xlink" viewBox="0 0 2706.01 1894.21"><defs><style>.cls-1,.cls-11,.cls-13,.cls-14,.cls-15,.cls-17,.cls-18,.cls-19,.cls-20,.cls-21,.cls-22,.cls-23,.cls-25,.cls-26,.cls-27,.cls-28,.cls-29,.cls-31,.cls-32,.cls-33,.cls-34,.cls-35,.cls-36,.cls-5,.cls-6,.cls-9{fill:none;}.cls-2{fill:#ffafb1;}.cls-3{fill:#f5efd9;}.cls-4{fill:#ede0c4;}.cls-13,.cls-14,.cls-17,.cls-5,.cls-6{stroke:#d9af00;}.cls-11,.cls-13,.cls-18,.cls-19,.cls-20,.cls-21,.cls-22,.cls-23,.cls-25,.cls-26,.cls-27,.cls-28,.cls-29,.cls-32,.cls-33,.cls-34,.cls-35,.cls-5,.cls-6{stroke-linecap:round;}.cls-11,.cls-13,.cls-14,.cls-15,.cls-17,.cls-18,.cls-19,.cls-20,.cls-21,.cls-22,.cls-23,.cls-25,.cls-26,.cls-27,.cls-29,.cls-31,.cls-32,.cls-33,.cls-34,.cls-35,.cls-5,.cls-6,.cls-9{stroke-miterlimit:10;}.cls-14,.cls-23,.cls-5{stroke-width:3.79px;}.cls-6{stroke-width:2.16px;}.cls-7{fill:#fff;}.cls-8{fill:#d9af00;}.cls-9{stroke:#ede0c4;stroke-width:8.12px;}.cls-10{fill:#56303c;}.cls-11{stroke:#f5efd9;stroke-width:3.25px;}.cls-12{fill:#b4702f;}.cls-13,.cls-20,.cls-31,.cls-32{stroke-width:5.95px;}.cls-15,.cls-18,.cls-19,.cls-21,.cls-22,.cls-23,.cls-26,.cls-27,.cls-28,.cls-33,.cls-35{stroke:#56303c;}.cls-15,.cls-18{stroke-width:5.52px;}.cls-16{clip-path:url(#clip-path);}.cls-17{stroke-width:2.71px;}.cls-19,.cls-29{stroke-width:4.9px;}.cls-20,.cls-25,.cls-29{stroke:#fff;}.cls-21{stroke-width:5.41px;}.cls-22{stroke-width:4.08px;}.cls-24{fill:#a0d6ff;}.cls-25{stroke-width:5px;}.cls-26{stroke-width:6.13px;}.cls-27{stroke-width:3.98px;}.cls-28,.cls-36{stroke-linejoin:round;}.cls-28{stroke-width:3.68px;}.cls-30{clip-path:url(#clip-path-2);}.cls-31,.cls-32,.cls-34{stroke:#8cd6ff;}.cls-33{stroke-width:4.33px;}.cls-34{stroke-width:4.87px;}.cls-35{stroke-width:6.23px;}.cls-36{stroke:#b4702f;stroke-width:3.85px;}</style><clipPath id="clip-path"><path class="cls-1" d="M1982.06,630.09a102.53,102.53,0,0,0,51.26,19c15.44,1.33,25,14.18,25,27.39a26.74,26.74,0,0,1-9.33,20.33,287.84,287.84,0,0,1-105.38,58.64V871.63h-61.12L1868,769.56c-6.27.17-25,.17-31.54,0L1681.9,675.4a12.61,12.61,0,0,0-18.21,5.94L1549.83,955.83l-53.67-20.74,83.57-370.68a103,103,0,0,1,15.38-64.63,103,103,0,0,1,140.6-47.69Z"/></clipPath><clipPath id="clip-path-2"><rect class="cls-2" x="658.67" y="749.12" width="210.9" height="210.9" rx="31.4"/></clipPath></defs><g id="PLANTS"><ellipse class="cls-3" cx="560.4" cy="1436.88" rx="104.68" ry="145.33"/><path class="cls-4" d="M732.65,1582.63H283.15c0-52,42.84-94.1,95.68-94.1a97.12,97.12,0,0,1,32.33,5.51c28.76-59.27,85.46-99.6,150.72-99.6C656.19,1394.44,732.65,1478.69,732.65,1582.63Z"/><path class="cls-3" d="M2379.24,1583.26H1947.06c0-57.25,44.43-105.64,105.42-121.34,28.08-90.89,86.74-153.43,154.55-153.43C2302.14,1308.49,2379.24,1431.51,2379.24,1583.26Z"/><line class="cls-5" x1="411.6" y1="1415.92" x2="411.6" y2="1576.49"/><line class="cls-5" x1="384.54" y1="1471.45" x2="411.6" y2="1506.54"/><line class="cls-5" x1="411.6" y1="1576.49" x2="460.99" y2="1528.94"/><circle class="cls-3" cx="411.6" cy="1378.61" r="27.06"/><line class="cls-6" x1="411.6" y1="1351.55" x2="411.6" y2="1405.67"/><line class="cls-6" x1="438.66" y1="1378.61" x2="384.54" y2="1378.61"/><line class="cls-6" x1="430.73" y1="1359.48" x2="392.46" y2="1397.75"/><line class="cls-6" x1="430.73" y1="1397.75" x2="392.46" y2="1359.48"/><circle class="cls-7" cx="411.6" cy="1378.61" r="10.01"/><circle class="cls-8" cx="411.6" cy="1378.61" r="5.41"/><circle class="cls-3" cx="361.68" cy="1446.54" r="27.06"/><line class="cls-6" x1="361.68" y1="1419.48" x2="361.68" y2="1473.6"/><line class="cls-6" x1="388.74" y1="1446.54" x2="334.62" y2="1446.54"/><line class="cls-6" x1="380.81" y1="1427.41" x2="342.54" y2="1465.67"/><line class="cls-6" x1="380.81" y1="1465.67" x2="342.54" y2="1427.41"/><circle class="cls-7" cx="361.68" cy="1446.54" r="10.01"/><circle class="cls-8" cx="361.68" cy="1446.54" r="5.41"/><circle class="cls-7" cx="486.81" cy="1502.81" r="27.06"/><line class="cls-6" x1="486.81" y1="1475.75" x2="486.81" y2="1529.87"/><line class="cls-6" x1="513.87" y1="1502.81" x2="459.75" y2="1502.81"/><line class="cls-6" x1="505.95" y1="1483.67" x2="467.68" y2="1521.94"/><line class="cls-6" x1="505.95" y1="1521.94" x2="467.68" y2="1483.67"/><circle class="cls-7" cx="486.81" cy="1502.81" r="10.01"/><circle class="cls-8" cx="486.81" cy="1502.81" r="5.41"/><line class="cls-5" x1="2175.8" y1="1476.31" x2="2175.8" y2="1581.08"/><line class="cls-5" x1="2202.86" y1="1518.03" x2="2175.8" y2="1553.13"/><circle class="cls-7" cx="2175.8" cy="1439.01" r="27.06"/><line class="cls-6" x1="2175.8" y1="1411.95" x2="2175.8" y2="1466.07"/><line class="cls-6" x1="2148.74" y1="1439.01" x2="2202.86" y2="1439.01"/><line class="cls-6" x1="2156.66" y1="1419.87" x2="2194.93" y2="1458.14"/><line class="cls-6" x1="2156.66" y1="1458.14" x2="2194.93" y2="1419.87"/><circle class="cls-7" cx="2175.8" cy="1439.01" r="10.01"/><circle class="cls-8" cx="2175.8" cy="1439.01" r="5.41"/><circle class="cls-7" cx="2225.72" cy="1493.13" r="27.06"/><line class="cls-6" x1="2225.72" y1="1466.07" x2="2225.72" y2="1520.19"/><line class="cls-6" x1="2198.66" y1="1493.13" x2="2252.78" y2="1493.13"/><line class="cls-6" x1="2206.58" y1="1473.99" x2="2244.85" y2="1512.26"/><line class="cls-6" x1="2206.58" y1="1512.26" x2="2244.85" y2="1473.99"/><circle class="cls-7" cx="2225.72" cy="1493.13" r="10.01"/><circle class="cls-8" cx="2225.72" cy="1493.13" r="5.41"/><path class="cls-4" d="M2453.54,1583.26H2222.08c0-25.51,30.86-46.19,68.94-46.19a94.77,94.77,0,0,1,36.77,7.12,68.95,68.95,0,0,1,125.75,39.07Z"/></g><g id="HOUSE"><path class="cls-4" d="M1714.87,1582.63H980.68a78.91,78.91,0,0,1-78.92-78.91V833.08a62.06,62.06,0,0,1,31.13-53.79l384-220.64a62.06,62.06,0,0,1,61.81,0l384,220.64a62,62,0,0,1,31.12,53.79v670.64A78.91,78.91,0,0,1,1714.87,1582.63Z"/><circle class="cls-3" cx="1342.58" cy="735.77" r="78.47" transform="translate(-127.04 1164.85) rotate(-45)"/><line class="cls-9" x1="1342.58" y1="657.3" x2="1342.58" y2="814.25"/><line class="cls-9" x1="1262.58" y1="735.77" x2="1419.52" y2="735.77"/><path class="cls-3" d="M1348.46,900.23h0a174.45,174.45,0,0,1,174.45,174.45v507.59a0,0,0,0,1,0,0H1174a0,0,0,0,1,0,0V1074.69a174.45,174.45,0,0,1,174.45-174.45Z"/></g><path id="HEART" class="cls-2" d="M1401.05,346.69l-47.94,47.95-47.95-47.95a22.59,22.59,0,0,1,0-32h0a22.6,22.6,0,0,1,32,0l16,16,16-16a22.59,22.59,0,0,1,32,0h0A22.59,22.59,0,0,1,1401.05,346.69Z"/><g id="WOMAN"><g id="HAIR"><path class="cls-10" d="M1607.6,817.27l-209.94-.92c-26.43-.11-40.17-31.53-22.33-51l11-12a42.65,42.65,0,0,0-4-51.19l-6-6.85a48.29,48.29,0,0,1,2-66.05h0a42.64,42.64,0,0,0,4.5-54.82l-.51-.72a100,100,0,0,1-18.57-58V499.22c0-66,63.34-113.45,126.66-95h0A163,163,0,0,1,1607.6,560.72Z"/><path class="cls-11" d="M1440.1,819.3c-23.34-.1-35.48-27.85-19.72-45.06l9.67-10.57a37.65,37.65,0,0,0-3.52-45.2l-5.34-6.05a42.65,42.65,0,0,1,1.73-58.33h0"/><path class="cls-11" d="M1446.93,763.67a37.66,37.66,0,0,0-3.52-45.2"/></g><g id="LEGS"><g id="LEGS-2" data-name="LEGS"><path class="cls-12" d="M2099.5,1382.45V1535h-73c-.08-.53-.17-1-.27-1.58l-28.8-150.94Z"/><path class="cls-10" d="M2099.5,1535v34.11a12.69,12.69,0,0,1-12.68,12.69h-92.35a1.63,1.63,0,0,1-.24-3.24l15-2.28a23.1,23.1,0,0,0,19.39-25.91l-2.08-15.37Z"/><line class="cls-13" x1="1992.74" y1="1582.55" x2="2099.5" y2="1582.55"/><path class="cls-14" d="M2026.76,1556h-7.58a7.57,7.57,0,0,1-7.57-7.57h0a7.57,7.57,0,0,1,7.57-7.58h0a7.58,7.58,0,0,1,7.58,7.58Z"/><path class="cls-14" d="M2027.24,1556h7.58a7.57,7.57,0,0,0,7.57-7.57h0a7.57,7.57,0,0,0-7.57-7.58h0a7.58,7.58,0,0,0-7.58,7.58Z"/><polygon class="cls-10" points="1997.42 1382.45 2099.5 1382.45 2099.5 1407.38 1997.42 1382.45"/><polygon class="cls-12" points="1944.28 1382.45 1923.33 1534.97 1835.73 1534.97 1835.99 1382.45 1944.28 1382.45"/><path class="cls-10" d="M1923.33,1535l-4.16,30.58a19.2,19.2,0,0,1-19,16.62H1789a1.54,1.54,0,0,1-.29-3.06l16.1-3a37.69,37.69,0,0,0,30.67-35.21l.29-5.89Z"/><line class="cls-13" x1="1786.83" y1="1582.55" x2="1918.23" y2="1582.55"/><path class="cls-14" d="M1824.62,1540.89h0a7.58,7.58,0,0,1,7.58,7.58V1556a0,0,0,0,1,0,0h-7.58a7.58,7.58,0,0,1-7.58-7.58v0A7.58,7.58,0,0,1,1824.62,1540.89Z"/><path class="cls-14" d="M1832.68,1556h7.57a7.57,7.57,0,0,0,7.58-7.57h0a7.58,7.58,0,0,0-7.58-7.58h0a7.57,7.57,0,0,0-7.57,7.58Z"/><polygon class="cls-10" points="1835.73 1382.45 1944.28 1382.45 1941.69 1401.28 1835.73 1382.45"/></g><g id="PANTS"><path class="cls-8" d="M2116.87,816.46v566H1835.73l.71-271.8V769.56C2012.77,774.12,2021.73,666,2021.73,666l8.72,4.76A166,166,0,0,1,2116.87,816.46Z"/><line class="cls-15" x1="1947.07" y1="1382.45" x2="1947.07" y2="875.75"/><path class="cls-15" d="M2080.77,778.72a53.31,53.31,0,0,1-68.58-31.37"/><path class="cls-15" d="M2085.39,790.94a66.48,66.48,0,0,1-85.49-39.1"/></g></g><g id="BODY"><path class="cls-2" d="M1982.06,630.09a102.53,102.53,0,0,0,51.26,19c15.44,1.33,25,14.18,25,27.39a26.74,26.74,0,0,1-9.33,20.33,287.84,287.84,0,0,1-105.38,58.64V871.63h-61.12l-19.09-102.07c-6.28.17-20.37.17-26.94,0l-156-95a11.14,11.14,0,0,0-16.09,5.24L1552.74,948.82a7.78,7.78,0,0,1-10,4.28l-46.59-18,83.57-370.68a103,103,0,0,1,15.38-64.63,103,103,0,0,1,140.6-47.69Z"/><g class="cls-16"><line class="cls-17" x1="1563.41" y1="997.82" x2="1563.41" y2="413.94"/><line class="cls-17" x1="1534.94" y1="997.82" x2="1534.94" y2="413.94"/><line class="cls-17" x1="1592.73" y1="997.82" x2="1592.73" y2="413.94"/><line class="cls-17" x1="1622.06" y1="997.82" x2="1622.06" y2="413.94"/><line class="cls-17" x1="1651.39" y1="997.82" x2="1651.39" y2="413.94"/><line class="cls-17" x1="1680.72" y1="997.82" x2="1680.72" y2="413.94"/><line class="cls-17" x1="1710.05" y1="997.82" x2="1710.05" y2="413.94"/><line class="cls-17" x1="1739.37" y1="997.82" x2="1739.37" y2="413.94"/><line class="cls-17" x1="1447.37" y1="997.82" x2="1447.37" y2="413.94"/><line class="cls-17" x1="1476.69" y1="997.82" x2="1476.69" y2="413.94"/><line class="cls-17" x1="1506.02" y1="997.82" x2="1506.02" y2="413.94"/><line class="cls-17" x1="1767.87" y1="668.46" x2="1417.57" y2="668.46"/><line class="cls-17" x1="1767.87" y1="639.13" x2="1417.57" y2="639.13"/><line class="cls-17" x1="1767.87" y1="609.8" x2="1417.57" y2="609.8"/><line class="cls-17" x1="1767.87" y1="580.48" x2="1417.57" y2="580.48"/><line class="cls-17" x1="1767.87" y1="551.15" x2="1417.57" y2="551.15"/><line class="cls-17" x1="1767.87" y1="521.82" x2="1417.57" y2="521.82"/><line class="cls-17" x1="1767.87" y1="492.49" x2="1417.57" y2="492.49"/><line class="cls-17" x1="1767.87" y1="463.16" x2="1419.23" y2="463.16"/><line class="cls-17" x1="1767.87" y1="433.84" x2="1417.57" y2="433.84"/><line class="cls-17" x1="1767.87" y1="903.26" x2="1417.57" y2="903.26"/><line class="cls-17" x1="1767.87" y1="932.89" x2="1417.57" y2="932.89"/><line class="cls-17" x1="1767.87" y1="873.93" x2="1417.57" y2="873.93"/><line class="cls-17" x1="1767.87" y1="844.6" x2="1417.57" y2="844.6"/><line class="cls-17" x1="1767.87" y1="815.27" x2="1417.57" y2="815.27"/><line class="cls-17" x1="1767.87" y1="785.95" x2="1417.57" y2="785.95"/><line class="cls-17" x1="1767.87" y1="756.62" x2="1417.57" y2="756.62"/><line class="cls-17" x1="1767.87" y1="727.29" x2="1417.57" y2="727.29"/><line class="cls-17" x1="1767.87" y1="697.96" x2="1419.23" y2="697.96"/><line class="cls-17" x1="1886.07" y1="997.82" x2="1886.07" y2="413.94"/><line class="cls-17" x1="1857.61" y1="997.82" x2="1857.61" y2="413.94"/><line class="cls-17" x1="1915.4" y1="997.82" x2="1915.4" y2="413.94"/><line class="cls-17" x1="1944.73" y1="997.82" x2="1944.73" y2="413.94"/><line class="cls-17" x1="1974.06" y1="997.82" x2="1974.06" y2="413.94"/><line class="cls-17" x1="2003.38" y1="997.82" x2="2003.38" y2="413.94"/><line class="cls-17" x1="2032.71" y1="997.82" x2="2032.71" y2="413.94"/><line class="cls-17" x1="2062.04" y1="997.82" x2="2062.04" y2="413.94"/><line class="cls-17" x1="1770.03" y1="997.82" x2="1770.03" y2="413.94"/><line class="cls-17" x1="1799.36" y1="997.82" x2="1799.36" y2="413.94"/><line class="cls-17" x1="1828.69" y1="997.82" x2="1828.69" y2="413.94"/><line class="cls-17" x1="2090.54" y1="668.46" x2="1740.24" y2="668.46"/><line class="cls-17" x1="2090.54" y1="639.13" x2="1740.24" y2="639.13"/><line class="cls-17" x1="2090.54" y1="609.8" x2="1740.24" y2="609.8"/><line class="cls-17" x1="2090.54" y1="580.48" x2="1740.24" y2="580.48"/><line class="cls-17" x1="2090.54" y1="551.15" x2="1740.24" y2="551.15"/><line class="cls-17" x1="2090.54" y1="521.82" x2="1740.24" y2="521.82"/><line class="cls-17" x1="2090.54" y1="492.49" x2="1740.24" y2="492.49"/><line class="cls-17" x1="2090.54" y1="463.16" x2="1741.89" y2="463.16"/><line class="cls-17" x1="2090.54" y1="433.84" x2="1740.24" y2="433.84"/><line class="cls-17" x1="2090.54" y1="903.26" x2="1740.24" y2="903.26"/><line class="cls-17" x1="2090.54" y1="932.89" x2="1740.24" y2="932.89"/><line class="cls-17" x1="2090.54" y1="873.93" x2="1740.24" y2="873.93"/><line class="cls-17" x1="2090.54" y1="844.6" x2="1740.24" y2="844.6"/><line class="cls-17" x1="2090.54" y1="815.27" x2="1740.24" y2="815.27"/><line class="cls-17" x1="2090.54" y1="785.95" x2="1740.24" y2="785.95"/><line class="cls-17" x1="2090.54" y1="756.62" x2="1740.24" y2="756.62"/><line class="cls-17" x1="2090.54" y1="727.29" x2="1740.24" y2="727.29"/><line class="cls-17" x1="2090.54" y1="697.96" x2="1741.89" y2="697.96"/></g><path class="cls-7" d="M1619.8,460.61v67.07A20.48,20.48,0,0,1,1601,548.09l-17.13,1.37-11.7,48.69L1549.54,573c-4.68-5.23-6.47-14.88-4.45-25.27l25.21-76.56A19.45,19.45,0,0,1,1590.46,458Z"/><polygon class="cls-7" points="1552.16 950.21 1495.58 935.48 1503.88 900.86 1572.63 900.86 1552.16 950.21"/><polygon class="cls-7" points="1882.48 876.23 1943.59 876.23 1943.59 842.97 1878.03 842.97 1882.48 876.23"/><path class="cls-18" d="M1946.66,764.24V663a80,80,0,0,0-28.5-61.21"/><polyline class="cls-18" points="1746.65 572.69 1845.4 659.27 1850.55 717.08"/><path class="cls-19" d="M1568.52,549.24l32.18.25a20.26,20.26,0,0,0,20.43-20.26V475.91"/><path class="cls-20" d="M1695,670c-21,11.55-46.52,5.51-57-13.49"/></g><g id="HEAD"><path class="cls-12" d="M1545.09,547.71,1509,537.07l-3.09,10.7a27.34,27.34,0,0,1-41.18,15.32l-10-6.5-18.87,3.2a4.86,4.86,0,0,1-5.6-4l-2.88-17-17.71-11.52a52.7,52.7,0,0,1-17.2-18.32c31.55,2.13,64.23-10.72,89.33-35.19l12.09,22.58c15.89,29.68,59.59,25.88,70.12-6.1Z"/><path class="cls-10" d="M1438.4,535.11a5.14,5.14,0,1,0-5.19-5.09A5.14,5.14,0,0,0,1438.4,535.11Z"/><path class="cls-21" d="M1461.68,551.69a9,9,0,0,1-9,9"/></g><g id="HANDS"><path class="cls-12" d="M1474,1035.43a5.16,5.16,0,0,0,8.12,5.12l30.86-16.53c5.3-3.5,15.71-19.18,18.23-25L1557,939.79l-44.57-8.86a25.67,25.67,0,0,0-26.31,10.88l-25.65,38.29a3.42,3.42,0,0,0,4,5.16l13.79-4.91a4,4,0,0,1,5.26,4.41Z"/><line class="cls-22" x1="1484.56" y1="1036.57" x2="1496.18" y2="999.26"/><line class="cls-22" x1="1497.48" y1="1030.42" x2="1505.71" y2="1002.84"/><line class="cls-22" x1="1510.57" y1="1023.83" x2="1515.16" y2="1006.48"/><line class="cls-22" x1="1480.63" y1="979.56" x2="1509.3" y2="964.61"/><path class="cls-12" d="M1905.81,974.17a5.12,5.12,0,0,0,9.41,1.47l23.09-39.4a32.39,32.39,0,0,0,5.28-17.74V874.7h-61.11l-10.67,54.36a3.39,3.39,0,0,0,5.64,3.14l10.63-9.9a4,4,0,0,1,6.53,2Z"/></g></g><g id="CHILD"><g id="HAND"><path class="cls-2" d="M1307.93,1250.84a21.24,21.24,0,0,1,20.3-20.17l105.18-4.56a16.08,16.08,0,0,0,11.71-5.83l43.13-52.29,5.27-30.35a3.46,3.46,0,0,1,5.92-1.82,3.41,3.41,0,0,1,1,2.15l.73,10.31a2.12,2.12,0,0,0,3.75,1.2l17.55-21.36a5.25,5.25,0,0,1,7.41-.71l7,5.82a13.81,13.81,0,0,1,3.12,17.55L1525.83,1173l-47.52,83.16a33.77,33.77,0,0,1-29.32,17H1329.15a21.25,21.25,0,0,1-21.22-22.29Z"/><line class="cls-23" x1="1529.52" y1="1130.17" x2="1519.45" y2="1143.55"/><line class="cls-23" x1="1535.39" y1="1134.26" x2="1525.3" y2="1147.66"/><line class="cls-23" x1="1539.39" y1="1139.31" x2="1530.8" y2="1150.73"/></g><g id="DRESS"><path class="cls-24" d="M1387.31,1241.21l105.58,275a48.6,48.6,0,0,1-45.37,66H1291.77c-58.85,0-99.89-58.37-80-113.75l81.37-226.24C1308.92,1198.41,1370.63,1197.76,1387.31,1241.21Z"/><path class="cls-7" d="M1380.45,1228.68a22.69,22.69,0,0,1-8.89,1.79c-10.16,0-18.66-6.56-20.85-15.37-2.19,8.81-10.69,15.37-20.85,15.37a21.51,21.51,0,0,1-19.51-11.71,51.14,51.14,0,0,1,39.84-8.85l1.06.21A48.87,48.87,0,0,1,1380.45,1228.68Z"/></g><g id="LEGS-3" data-name="LEGS"><path class="cls-2" d="M1108.52,1569.46a7.05,7.05,0,0,0,4.17,12.74l336.25.08a47.64,47.64,0,0,0,44.48-64.71l-.43-1.12a49.63,49.63,0,0,0-46.36-32h-68a224.75,224.75,0,0,0-114.36,31.27l-61,36c-4.11,3-6.51,1.2-8.16-3.64l-4-11.8A17,17,0,0,0,1165,1528Z"/><path class="cls-25" d="M1391.66,1586.1c33.42,0,56.45-36.23,44.47-69.95l-.43-1.22c-7.45-21-25.84-34.65-46.35-34.65"/><path class="cls-24" d="M1156.75,1561.33a29.43,29.43,0,0,1-8.67,20.88h-35.39a7.06,7.06,0,0,1-4.17-12.75l39.55-29A29.37,29.37,0,0,1,1156.75,1561.33Z"/><line class="cls-26" x1="1098.65" y1="1577.7" x2="1175.39" y2="1521.7"/><line class="cls-26" x1="1149.61" y1="1540.44" x2="1197.05" y2="1546.63"/></g><g id="TOY"><path class="cls-7" d="M1466.69,1484.75H1300.17c-11.6,0-15.39-14.36-5.09-19.28l44-21a69.81,69.81,0,0,1-2.06-16.94q0-1.87.09-3.72H1309c-10.38,0-13.77-12.84-4.55-17.23l39.65-18.91c-12.44-9.4-20.29-23.22-20.29-38.61a45.32,45.32,0,0,1,5.59-21.76,18.3,18.3,0,1,1,23.1-22.17,67.83,67.83,0,0,1,59.82-.92,18.3,18.3,0,1,1,24.57,22.45,45.44,45.44,0,0,1,5.94,22.4c0,15.41-7.86,29.23-20.33,38.65l40,18.87c9.31,4.39,5.89,17.23-4.59,17.23h-28.31c.06,1.23.1,2.47.1,3.72a69.26,69.26,0,0,1-2.09,17l44.26,20.9C1482.23,1470.39,1478.4,1484.75,1466.69,1484.75Z"/><path class="cls-27" d="M1425.24,1313.11a13.37,13.37,0,0,1,12.62-9.23,13,13,0,0,1,6.47,1.71"/><path class="cls-27" d="M1339.75,1313.11a13.27,13.27,0,0,0-12.52-9.23,12.92,12.92,0,0,0-6.43,1.71"/><path class="cls-4" d="M1408.18,1370.08c0,12.2-11.13,22.1-24.86,22.1s-24.86-9.9-24.86-22.1,11.13-16.45,24.86-16.45S1408.18,1357.88,1408.18,1370.08Z"/><circle class="cls-10" cx="1406.26" cy="1352.46" r="3.32"/><circle class="cls-10" cx="1361.08" cy="1352.46" r="3.32"/><path class="cls-10" d="M1392.05,1363.39c0,2.27-2.88,5.92-6.73,6.91v3.79a2,2,0,0,1-4,0v-3.8c-3.86-1-6.74-4.63-6.74-6.9,0-2.64,3.91-4.79,8.73-4.79S1392.05,1360.75,1392.05,1363.39Z"/></g><g id="HAND-2" data-name="HAND"><path class="cls-2" d="M1402.19,1484.75h-48.12a24.3,24.3,0,0,1-15.52-5.59l-72.51-60a51.8,51.8,0,0,1-15.72-57.45l44-122.48a17.56,17.56,0,0,1,33.82,9l-24.89,119a23.58,23.58,0,0,0,4.16,18.9l54.83,73.69h22.92a2.4,2.4,0,0,1,1.3,4.43l-4.5,2.89a2,2,0,0,0-.18,3.28Z"/><line class="cls-23" x1="1377.91" y1="1478.65" x2="1387.49" y2="1484.75"/><line class="cls-23" x1="1369.38" y1="1481.03" x2="1375.21" y2="1484.75"/></g><g id="HEAD-2" data-name="HEAD"><g id="HAIR-2" data-name="HAIR"><path class="cls-8" d="M1397.17,1115.58c0,14.53-19.56,26.52-44.87,28.33-10.52,18.3-32.13,30.84-57.09,30.84-1.42,0-2.82,0-4.22-.12a28.55,28.55,0,1,1-9.31-22.35,77.55,77.55,0,0,1-.41-8.14c0-19,7-35.63,21.72-44.58,9.26-7.57,24.91-12.55,42.66-12.55C1374.1,1087,1397.17,1099.8,1397.17,1115.58Z"/><circle class="cls-8" cx="1218.15" cy="1200.68" r="14.28" transform="translate(-230.28 2110.38) rotate(-76.72)"/></g><g id="HEAD-3" data-name="HEAD"><path class="cls-2" d="M1306.28,1190.53c8.22,4,19.29,5.25,32.87,5.25,33.66,0,57.13-7.85,57.13-36.36,0-14.11-19.69-44.75-43.76-59.14a49.48,49.48,0,0,1,3.54,18.41c0,20.28-12.28,38-30.67,47.89-2.49-6.07-9-10.4-16.62-10.4-9.78,0-17.71,7.11-17.71,15.89C1291.06,1181.83,1297.6,1186.29,1306.28,1190.53Z"/><polyline class="cls-28" points="1372.13 1139.31 1384.08 1150.37 1378.97 1156.18"/><circle class="cls-10" cx="1361.86" cy="1147.32" r="3.68"/><circle class="cls-10" cx="1382.71" cy="1136.89" r="2.76"/><path class="cls-23" d="M1305,1168.78c5.63-.71,10.71,2.82,11.35,7.87"/><line class="cls-23" x1="1308.77" y1="1176.65" x2="1312.21" y2="1171.13"/></g></g></g><g id="MAN"><g id="LEGS-4" data-name="LEGS"><path class="cls-10" d="M665.08,636.94a117.9,117.9,0,0,0-54.91,99.66V1541a41.57,41.57,0,0,0,41.57,41.56h264.4a63.88,63.88,0,0,1-63.88-63.88V769.56Z"/><path class="cls-24" d="M918.25,1582.2H742.12l-1.32-17.75,111.7-43.75A65.9,65.9,0,0,0,913,1582C914.76,1582.13,916.49,1582.2,918.25,1582.2Z"/><path class="cls-24" d="M617,1582.2H777.18a39.24,39.24,0,0,1-38.75-33.06l-2.32-14.54-118.65,29.85Z"/><line class="cls-26" x1="721.36" y1="1551.44" x2="736.18" y2="1546.39"/><line class="cls-26" x1="726.57" y1="1565.33" x2="744.87" y2="1558.55"/><line class="cls-26" x1="842.96" y1="1546.22" x2="861.26" y2="1539.44"/><line class="cls-26" x1="849.91" y1="1560.12" x2="868.21" y2="1553.33"/><path class="cls-29" d="M606.91,751.68,737,1541.1a49.49,49.49,0,0,0,48.83,41.45"/><line class="cls-26" x1="913.04" y1="1582.2" x2="610.17" y2="1582.2"/></g><g id="PRESENT"><rect class="cls-2" x="658.67" y="749.12" width="210.9" height="210.9" rx="31.4"/><g class="cls-30"><line class="cls-17" x1="703.98" y1="1272.15" x2="703.98" y2="688.27"/><line class="cls-17" x1="675.51" y1="1272.15" x2="675.51" y2="688.27"/><line class="cls-17" x1="733.31" y1="1272.15" x2="733.31" y2="688.27"/><line class="cls-17" x1="762.64" y1="1272.15" x2="762.64" y2="688.27"/><line class="cls-17" x1="791.96" y1="1272.15" x2="791.96" y2="688.27"/><line class="cls-17" x1="821.29" y1="1272.15" x2="821.29" y2="688.27"/><line class="cls-17" x1="850.62" y1="1272.15" x2="850.62" y2="688.27"/><line class="cls-17" x1="879.95" y1="1272.15" x2="879.95" y2="688.27"/><line class="cls-17" x1="587.94" y1="1272.15" x2="587.94" y2="688.27"/><line class="cls-17" x1="617.27" y1="1272.15" x2="617.27" y2="688.27"/><line class="cls-17" x1="646.6" y1="1272.15" x2="646.6" y2="688.27"/><line class="cls-17" x1="908.44" y1="942.79" x2="558.15" y2="942.79"/><line class="cls-17" x1="908.44" y1="913.46" x2="558.15" y2="913.46"/><line class="cls-17" x1="908.44" y1="884.13" x2="558.15" y2="884.13"/><line class="cls-17" x1="908.44" y1="854.8" x2="558.15" y2="854.8"/><line class="cls-17" x1="908.44" y1="825.48" x2="558.15" y2="825.48"/><line class="cls-17" x1="908.44" y1="796.15" x2="558.15" y2="796.15"/><line class="cls-17" x1="908.44" y1="766.82" x2="558.15" y2="766.82"/><line class="cls-17" x1="908.44" y1="737.49" x2="559.8" y2="737.49"/><line class="cls-17" x1="908.44" y1="708.16" x2="558.15" y2="708.16"/><line class="cls-17" x1="908.44" y1="1177.59" x2="558.15" y2="1177.59"/><line class="cls-17" x1="908.44" y1="1207.22" x2="558.15" y2="1207.22"/><line class="cls-17" x1="908.44" y1="1148.26" x2="558.15" y2="1148.26"/><line class="cls-17" x1="908.44" y1="1118.93" x2="558.15" y2="1118.93"/><line class="cls-17" x1="908.44" y1="1089.6" x2="558.15" y2="1089.6"/><line class="cls-17" x1="908.44" y1="1060.27" x2="558.15" y2="1060.27"/><line class="cls-17" x1="908.44" y1="1030.95" x2="558.15" y2="1030.95"/><line class="cls-17" x1="908.44" y1="1001.62" x2="558.15" y2="1001.62"/><line class="cls-17" x1="908.44" y1="972.29" x2="559.8" y2="972.29"/><line class="cls-17" x1="1026.65" y1="1272.15" x2="1026.65" y2="688.27"/><line class="cls-17" x1="998.18" y1="1272.15" x2="998.18" y2="688.27"/><line class="cls-17" x1="1055.97" y1="1272.15" x2="1055.97" y2="688.27"/><line class="cls-17" x1="1085.3" y1="1272.15" x2="1085.3" y2="688.27"/><line class="cls-17" x1="1114.63" y1="1272.15" x2="1114.63" y2="688.27"/><line class="cls-17" x1="1143.96" y1="1272.15" x2="1143.96" y2="688.27"/><line class="cls-17" x1="1173.28" y1="1272.15" x2="1173.28" y2="688.27"/><line class="cls-17" x1="1202.61" y1="1272.15" x2="1202.61" y2="688.27"/><line class="cls-17" x1="910.6" y1="1272.15" x2="910.6" y2="688.27"/><line class="cls-17" x1="939.93" y1="1272.15" x2="939.93" y2="688.27"/><line class="cls-17" x1="969.26" y1="1272.15" x2="969.26" y2="688.27"/><line class="cls-17" x1="1231.11" y1="942.79" x2="880.81" y2="942.79"/><line class="cls-17" x1="1231.11" y1="913.46" x2="880.81" y2="913.46"/><line class="cls-17" x1="1231.11" y1="884.13" x2="880.81" y2="884.13"/><line class="cls-17" x1="1231.11" y1="854.8" x2="880.81" y2="854.8"/><line class="cls-17" x1="1231.11" y1="825.48" x2="880.81" y2="825.48"/><line class="cls-17" x1="1231.11" y1="796.15" x2="880.81" y2="796.15"/><line class="cls-17" x1="1231.11" y1="766.82" x2="880.81" y2="766.82"/><line class="cls-17" x1="1231.11" y1="737.49" x2="882.47" y2="737.49"/><line class="cls-17" x1="1231.11" y1="708.16" x2="880.81" y2="708.16"/><line class="cls-17" x1="1231.11" y1="1177.59" x2="880.81" y2="1177.59"/><line class="cls-17" x1="1231.11" y1="1207.22" x2="880.81" y2="1207.22"/><line class="cls-17" x1="1231.11" y1="1148.26" x2="880.81" y2="1148.26"/><line class="cls-17" x1="1231.11" y1="1118.93" x2="880.81" y2="1118.93"/><line class="cls-17" x1="1231.11" y1="1089.6" x2="880.81" y2="1089.6"/><line class="cls-17" x1="1231.11" y1="1060.27" x2="880.81" y2="1060.27"/><line class="cls-17" x1="1231.11" y1="1030.95" x2="880.81" y2="1030.95"/><line class="cls-17" x1="1231.11" y1="1001.62" x2="880.81" y2="1001.62"/><line class="cls-17" x1="1231.11" y1="972.29" x2="882.47" y2="972.29"/></g><line class="cls-20" x1="760.24" y1="856.34" x2="655.44" y2="856.34"/><path class="cls-31" d="M759.44,856.34h-18.1a18.09,18.09,0,0,1-18.09-18.1h0a18.09,18.09,0,0,1,18.09-18.09h0a18.1,18.1,0,0,1,18.1,18.09Z"/><path class="cls-31" d="M760.24,856.34h18.1a18.09,18.09,0,0,0,18.09-18.1h0a18.09,18.09,0,0,0-18.09-18.09h0a18.09,18.09,0,0,0-18.1,18.09Z"/><polyline class="cls-32" points="742.88 878.74 760.24 854.8 777.27 895.21"/><line class="cls-20" x1="762.64" y1="901.21" x2="762.64" y2="965.08"/><line class="cls-20" x1="762.64" y1="746.27" x2="762.64" y2="807.06"/></g><g id="BODY-2" data-name="BODY"><path class="cls-8" d="M1141.65,540.63A101,101,0,0,1,1092,627.71L885.11,743.52a30.26,30.26,0,0,0-15.48,26.41v153l-76.85-22.36L775.14,740.13c-89.85-45.33-110-103.19-110-103.19L821.72,488.37c71.11-67.44,169.06-77.88,244.35-47.41l11,5.53a101.09,101.09,0,0,1,64.61,94.14Z"/><path class="cls-12" d="M832.91,1003.66l-28.36-24A12.15,12.15,0,0,1,802.8,963l4.46-5.75a23.11,23.11,0,0,0,.61-27.46L797.49,915c-12-17-3.25-27.43,19.55-33.17,9.66-2.43,23.12-2.67,35.58,3.64,12.86,6.52,18,13.4,18,27.82l2.19,22.93a20.83,20.83,0,0,1-3.49,13.67Z"/><line class="cls-33" x1="844.14" y1="961.74" x2="822.91" y2="993.78"/><line class="cls-33" x1="832.65" y1="952.34" x2="811.42" y2="984.38"/><path class="cls-18" d="M1013.88,541.19l-210,133.7c-24.11,15.36-32,38.07-30.71,68.92"/><line class="cls-18" x1="993.04" y1="538.62" x2="991.58" y2="554.97"/><path class="cls-24" d="M1027.71,428l89.16-.4A26.33,26.33,0,0,1,1143.16,451l10.06,79.42a29.26,29.26,0,0,1-7.32,23.31l-6.25,6.91-1.41-16.4a122.23,122.23,0,0,0-77.64-103.51Z"/><path class="cls-34" d="M792.13,865.17s35.73-24.84,74.43,1.53"/></g><g id="HEAD-4" data-name="HEAD"><g id="HEAD-5" data-name="HEAD"><path class="cls-12" d="M1269.15,523.55l.32-.12-39,39.5a6.57,6.57,0,0,1-9.67-.38l-9.25-11a41.84,41.84,0,0,1-56.21-30.6l-16.07-78.76a26.51,26.51,0,0,1,12-27.82L1178.86,401c36-22.25,81.93-7.18,94.15,33.31l10.9,36.13A51.62,51.62,0,0,1,1269.15,523.55Z"/><path class="cls-10" d="M1226.76,531.1a5.54,5.54,0,1,1,6-5A5.53,5.53,0,0,1,1226.76,531.1Z"/><path class="cls-10" d="M1240.09,507.74h19.13a0,0,0,0,1,0,0v2.64a9.54,9.54,0,0,1-9.54,9.54H1229a0,0,0,0,1,0,0v-1.13a11.05,11.05,0,0,1,11.05-11.05Z" transform="translate(585.65 -660.18) rotate(38.27)"/><path class="cls-35" d="M1172.33,427.19s3.51,15.69-10.1,20"/><line class="cls-35" x1="1160.03" y1="432.65" x2="1171.88" y2="437.61"/></g><path id="HAIR-3" data-name="HAIR" class="cls-10" d="M1299,518.22c-9.46,4.37-29.21-18.26-44.1-50.52a208.15,208.15,0,0,1-8.41-21.09l-4.8,6.31a42.84,42.84,0,0,1-45.35,15.42l-8.21-2.23a40.58,40.58,0,0,0-17.61,33l-.18,16.13,5.45,2.4a73.22,73.22,0,0,1,35.76,34l-31.45,17.18a17.54,17.54,0,0,1-25.8-13.5L1145,470.54l29.86-13.8A23.75,23.75,0,0,0,1187,426.45l-.19-.5a24.26,24.26,0,0,0-26.52-15c-.08-.21-.14-.39-.19-.53L1184,397.05c17.77-8.41,33.21-11.14,46.12-9.09l-2.4-5.33a3.12,3.12,0,0,1,5.68-2.57l2.75,6.11,4.88-6.71a3.11,3.11,0,0,1,5,3.65l-5.59,7.7c9.46,3.86,15.2,8.79,23.11,18.73,8.21,9.92,17.65,25.09,25.61,42.34C1304.1,484.15,1308.5,513.85,1299,518.22Z"/><path id="SMILE" class="cls-36" d="M1195,560.54s-5-9-2.58-18.88"/></g></g></svg>