<svg id="Fathers_day_illustration" data-name="Fathers day illustration" xmlns="http://www.w3.org/2000/svg" viewBox="0 0 745.19 745.19"><defs><style>.cls-1{fill:#f4ba92;}.cls-2{fill:#f36b64;}.cls-3{fill:#fff;}.cls-4{fill:#d14747;}.cls-5{fill:#3793c9;}.cls-10,.cls-11,.cls-12,.cls-19,.cls-20,.cls-22,.cls-23,.cls-24,.cls-25,.cls-6,.cls-9{fill:none;stroke-linecap:round;stroke-linejoin:round;}.cls-6{stroke:#992b2b;}.cls-10,.cls-11,.cls-12,.cls-23,.cls-6{stroke-width:4.9px;}.cls-7{fill:#564239;}.cls-8{fill:#f0998b;}.cls-10,.cls-22,.cls-9{stroke:#e09c6e;}.cls-9{stroke-width:5.23px;}.cls-11{stroke:#564239;}.cls-12{stroke:#473135;}.cls-13{fill:#473135;}.cls-14{fill:#cc4744;}.cls-15{fill:#f97d7c;}.cls-16{fill:#f99085;}.cls-17{fill:#ffdf5a;}.cls-18{fill:#313163;}.cls-19{stroke:#313163;}.cls-19,.cls-24{stroke-width:4.19px;}.cls-20{stroke:#f0998b;stroke-width:1.71px;}.cls-21{fill:#ffb85a;}.cls-22,.cls-25{stroke-width:3.27px;}.cls-23,.cls-25{stroke:#bf6c66;}.cls-24{stroke:#3b7ab5;}</style></defs><path class="cls-1" d="M493,230.61s-18.41,3.24-26.78,19.56,19.25,7.33,19.25,7.33S514.21,243,493,230.61Z"/><path class="cls-2" d="M728.82,409C721.19,333.15,658.4,280.73,617,259.07c-18.41-9.63-54-27.21-81.2-19.67s-21,87,.73,103.17c-73.24-28.46-145.13-26.79-145.13-26.79H313.19S191,311.6,88.21,394.47C52,423.67,27.94,461.65,18.52,499.74h0C1.25,569.85,33.59,641.22,131.74,663h0c109.67,30.87,413.54,28.68,402-42.27-10.77-66-29.92-130.91-1.36-132.16C581.28,486.77,739.5,514.92,728.82,409ZM93.65,516.8h0c-6.49-.31-12.87-.84-19.25-1.78C80.68,515.75,87.06,516.49,93.65,516.8Zm-19.77-1.88c-1.47-.21-3-.42-4.4-.63C70.84,514.39,72.41,514.71,73.88,514.92Zm-27.53-5.76c1,.21,2,.52,3,.73A9.8,9.8,0,0,1,46.35,509.16Zm-22.7-7.32c.52.21,1.15.41,1.67.62A5.4,5.4,0,0,1,23.65,501.84Zm5.23,1.88c.63.21,1.36.42,2,.63A7.65,7.65,0,0,1,28.88,503.72Zm5.44,2c.63.21,1.36.42,2,.63C35.58,506.13,34.84,505.92,34.32,505.71Zm6.8,2.09c.74.21,1.68.42,2.41.63C42.8,508.22,42,508,41.12,507.8Zm27.73,6.28c-4.29-.63-8.58-1.57-12.76-2.41C60.27,512.51,64.67,513.45,68.85,514.08Zm-14.23-2.72c-1.15-.21-2.2-.52-3.35-.73A25.74,25.74,0,0,1,54.62,511.36Z"/><path class="cls-3" d="M348.77,399.92l-.63,1.77c-9.42,24.7-40.5,33.49-60.9,16.75-12-9.73-23.23-22.61-29.09-39-16.53-45.73,38.3-66.35,38.3-66.35s70.84-13.81,96.69,6.7c12.13,9.52,19,28.36,19.77,48.87,1,33.59-38.3,52.42-64.14,31.29Z"/><path class="cls-4" d="M591.85,490.53c-24.07-.52-45.83-2.3-59.23-1.67-12.14.52-15.69,12.45-14.86,31.18l-.52-.1s-5.76-44.26-10.88-57,7.95,8.89,24.69,17.47C547,488.55,588.71,490.43,591.85,490.53Z"/><path class="cls-4" d="M361.85,641.43C422,615.69,484.28,589.53,501,519.83c-56.09,26.27-108.62,52.43-168.47,78.59-18.63,7.43-37.46,18.63-56.09,29.93-41.54,15.59-83.08,16.74-125.88,19.77L131.74,663c95.12,26.9,336.63,28.68,391.36-17.58-32.33,19.78-94.6,26.79-154.87,26.79C350.76,672.3,345.84,648.33,361.85,641.43Z"/><path class="cls-1" d="M592.06,490.53c9-83.39-2.62-125.36-2.62-125.36l-70.21-63.09c-4-27.21-37.57-64.88-23.44-74.51,14.33-9.73,44.16-7.11,77,5.34C665.2,268.07,721.4,333.26,729,409.23,736.57,485.62,655.68,492.1,592.06,490.53Z"/><path class="cls-5" d="M199,343.93c-8.48,14.44,3.66,43.32,21.45,34,5.23-2.82,14.86-9.42,25.32-17.58-8.89-8.27-16.32-23-19.78-37.25C213.68,330.22,202.37,338.07,199,343.93Z"/><path class="cls-1" d="M308.17,311.7c3.76-11.72-25.33-17.37-44.48-7.95,0,0-19.77,9-37.67,19.46,3.46,14.23,10.89,29,19.78,37.26a331.05,331.05,0,0,0,27.52-23.55C286.4,324.05,306.49,316.83,308.17,311.7Z"/><path class="cls-6" d="M115.42,516.8s-8.79-9.63-10-19.88"/><circle class="cls-7" cx="357.98" cy="181.74" r="51.48"/><path class="cls-1" d="M389.37,344.46s6.7,28.77-21,48c-25.33,17.58-71.79,6.38-94.29-24.91a29.84,29.84,0,0,1-5.44-17.79l1.05-52.21C269.76,297.58,390.21,291,389.37,344.46Z"/><path class="cls-8" d="M302.62,336.5c24.28,26.27,55,30.66,86.43,25.64a45.42,45.42,0,0,0,.32-17.79,28.79,28.79,0,0,0-2.3-12.24C362.27,349.37,331.19,352.41,302.62,336.5Z"/><path class="cls-1" d="M403.08,203.61C427.88,284.5,417.83,347.39,351,352c-40.08,2.83-88.32-27.42-108-94.18s-11.31-116.67,43.74-132.89C342.07,108.49,382.78,137.06,403.08,203.61Z"/><path class="cls-7" d="M268.93,341.53s7.53-27.21-8.69-62.27c-8.16-17.58,16.12-13.08,11.93-61.11-3.14-35.36,24.59-15.59,84.34-29.61,37.36-8.79,43.53-100.14-33.8-84.86-50,9.94-108.72,28.25-117.82,88.21C197.25,241.59,260.45,322.9,268.93,341.53Z"/><path class="cls-1" d="M280.75,255.72c5.13,13.71-1.05,28.57-13.6,33.28s-26.9-2.52-32-16.22,1-28.57,13.6-33.28S275.62,242.12,280.75,255.72Z"/><path class="cls-9" d="M243.08,257.81s4.92-7.43,13.29.32c5.44,7.11-1.88,12.24-1.88,12.24a9.24,9.24,0,0,0,9.2,4.08"/><path class="cls-10" d="M366.77,230.61a266.6,266.6,0,0,0,16.84,30.87,10.84,10.84,0,0,1-4,15.27l-4.92,2.51"/><path class="cls-11" d="M372.63,213.34a16.15,16.15,0,0,1,11.72-8.48"/><path class="cls-11" d="M331,223.7a23.57,23.57,0,0,0-20-2.2"/><path class="cls-12" d="M332.34,245.26s-8.16-4.61-12,3.24"/><path class="cls-13" d="M327.21,250.49a3.88,3.88,0,1,1-3.87-4.19C325.43,246.2,327.21,248.19,327.21,250.49Z"/><path class="cls-12" d="M386.65,228.93s-6.07-4.6-9,3.25"/><path class="cls-13" d="M384.35,233.43a3.89,3.89,0,1,1-3.88-4.18A3.94,3.94,0,0,1,384.35,233.43Z"/><path class="cls-14" d="M374,305.22a48.54,48.54,0,0,0-.84-14.45c-4,1.89-10.78,3-21.87,1.05-14.23-2.51-14.55,7-9,15.59C352.12,303.23,363.73,304.59,374,305.22Z"/><path class="cls-15" d="M342.07,307.41c4.81,7.43,14.13,14,23,10.89,6-2.1,8.27-7.54,8.9-13C363.73,304.59,352.12,303.23,342.07,307.41Z"/><path class="cls-16" d="M322.4,279.68a11.63,11.63,0,0,1-12,10.89,11.2,11.2,0,0,1-10.88-11.72,11.77,11.77,0,0,1,12-11A11.56,11.56,0,0,1,322.4,279.68Z"/><path class="cls-16" d="M415.32,267.13a11.4,11.4,0,0,1-6.49,1.67A11.19,11.19,0,0,1,398,257.08a11.81,11.81,0,0,1,15.28-10.46C414.27,253.84,415,260.53,415.32,267.13Z"/><path class="cls-5" d="M234,92c25.84-3.25,51.06-13.82,70-30.35-3.87-3.66-7.74-7.32-11.72-10.88a125.82,125.82,0,0,1-53.89,16C236.91,74.38,235.34,82.85,234,92Z"/><path class="cls-17" d="M238.48,66.74a126.32,126.32,0,0,0,53.89-16c-19.78-18.31-36.94-33.8-39-33.8C250.61,16.93,244.55,35.66,238.48,66.74Z"/><path class="cls-2" d="M234,92c-1.68,10.36-3.35,21.66-4.92,33.69,36.1-5.34,70.84-17.89,100.45-39.87-7.84-7.43-16.63-15.8-25.42-24.06C284.94,78.35,259.82,88.82,234,92Z"/><path class="cls-17" d="M351,106.29c-4.92-4.71-12.46-12-21.46-20.51-29.71,21.87-64.35,34.53-100.45,39.87-.73,5.76-1.47,11.72-2.09,17.69-.53,5.33-1.26,10.77-1.68,16.42,0,0,85.7,0,131.22-48.13C356.41,111.63,354.42,109.64,351,106.29Z"/><path class="cls-18" d="M118,501.21c-2.09,6-4.39,12.14-7.22,18.31,0,0,54.94,60.27,114.38,54.2s45.41-33.48,45.41-33.48a311.3,311.3,0,0,0,.73-44.16C225.08,523.6,169,530.4,118,501.21Z"/><path class="cls-5" d="M223,362.35a72.07,72.07,0,0,0-20-10.15c-26.68-7.74-65.5,31-70.53,54.1a33.69,33.69,0,0,0-.41,7.95c.52,9.21,1.36,43.22-14,86.85,51.07,29.2,107.05,22.29,153.41-5A451,451,0,0,0,260.35,419C255,396.36,242,375.85,223,362.35Z"/><path class="cls-5" d="M209.39,407.14a182.64,182.64,0,0,1-33.49-11.51l-16.43,44.89s17.16,6.9,41.86,8.37A71,71,0,0,0,209.39,407.14Z"/><path class="cls-1" d="M301.68,421.79c4.39-6.07-4.4-2.83-4.4-2.83s7.33-7,8.58-12.35c2.1-8.47-5.44-2.4-5.44-2.4s4.71-4.92,3.88-7.43c-1.47-4.61-8,.31-8,.31s3.35-4.29.21-6.59-16.64,7.43-18.41,7.32,4.7-3,2.61-6.38C279,388.61,267,393.85,261,400.86a26.57,26.57,0,0,1-17.58,9.1c-7.74.73-19.15.63-34.11-2.93a71.48,71.48,0,0,1-7.95,41.65c17.47,1,38.72-.52,60.38-9.11a44.44,44.44,0,0,1,6.59-2.09C276.67,435.81,296.76,428.48,301.68,421.79Z"/><path class="cls-19" d="M201.33,448.89s-25-1.47-44-10.89"/><path class="cls-20" d="M296.24,397.09s-7,6-13.19,8.37"/><path class="cls-20" d="M300.42,404.21s-5.86,8-13.81,10.77"/><path class="cls-20" d="M297.28,419a55.63,55.63,0,0,1-8.37,4.08"/><path class="cls-8" d="M214.51,370.72s8.48,18.31-11,23.75-33.38-3.45-44.16-11.92,20.4-2.41,28.56-3.67S210.43,371.45,214.51,370.72Z"/><path class="cls-1" d="M194.11,282.19c31.6,37.78,41.23,76.81,10.78,95.86-14.55,9-53.16,17.89-75.14-15.7-29.09-25-39.66-45.1-14.65-71.26C140.32,264.72,167.22,251,194.11,282.19Z"/><path class="cls-7" d="M141.37,341.63a31.43,31.43,0,0,1,12.24-25.22l.32-.21c31-24.27,10-65.71-26.58-50.64-5,2-10.57,3.76-15.49,7.43C72.93,302.6,99.3,344.66,99.3,358.58A38.85,38.85,0,0,1,97.84,370c-2.3,8.26,27,39.66,51.17,19.67,3.76-3.14-2.2-25-11.51-23.75s3.76-17.16,3.87-23.44Z"/><path class="cls-12" d="M163.66,327.19s-5.76-2.09-8.37,3.77"/><path class="cls-12" d="M188.14,309.71s-.73-6.59,4.29-6.38"/><path class="cls-10" d="M199.76,331.79c4.29,1.47,4.71,5.13,2.93,7.54"/><path class="cls-12" d="M169.94,338.18s-4.92-2.51-6.07,6.38"/><path class="cls-12" d="M201.75,313.48s-4.92-2.51-6.07,6.38"/><path class="cls-15" d="M190.34,370.72c3.56,1.47,7.64,1.47,11-1.78a11.56,11.56,0,0,0,3.35-10.25A40.37,40.37,0,0,0,190.34,370.72Z"/><path class="cls-14" d="M184.06,361.62a4.48,4.48,0,0,0,.32,4.71,14.37,14.37,0,0,0,6,4.39,39.82,39.82,0,0,1,14.44-12c-.52-4.92-2-8.17-4.29-8.17C191.07,350.52,186.05,357.75,184.06,361.62Z"/><path class="cls-1" d="M149.43,352c5.23,6.49,4.91,15.49-.84,20.09s-14.65,3.35-19.88-3.14-4.92-15.49.83-20.09S144.19,345.61,149.43,352Z"/><path class="cls-7" d="M155.39,293.7s21.14,3.88,37.88-4.18c5.23-2.41,4.08-8.16,3.14-13.81-3.87-21.25-49.7-27.31-80.68-5.34C79.32,296,155.39,293.7,155.39,293.7Z"/><path class="cls-9" d="M132.79,358.69s.73-5.86,7-3.25c4.39,3.56.63,7.85.63,7.85a6.07,6.07,0,0,0,6.38,1.26"/><path class="cls-7" d="M209,302.49s0-29.61-22.08-36.2c-16.74-5,6.49,23.23,6.49,23.23S200.07,293.18,209,302.49Z"/><path class="cls-17" d="M602.21,372.29s17.79,2.93,24.9,5.55,9.53-46.26-12.45-72.21-66.45-21.55-66.45-21.55l-.52,63Z"/><path class="cls-21" d="M614.66,305.63c-9-10.56-21.66-16.11-33.59-19a91.52,91.52,0,0,1,9.73,4.92C618.22,312,629.94,345.19,623,376.58a22.09,22.09,0,0,1,4,1.26C634.23,380.56,636.74,331.58,614.66,305.63Z"/><path class="cls-1" d="M498.2,408.5a209.74,209.74,0,0,0-9.74,20.09s-22.7,8.37-27.52,27.83c-2.4,9.52,4.29,2.62,5.65,1.15a1.37,1.37,0,0,1,.21-.31,1.37,1.37,0,0,0-.21.31c-.62.74-2.51,3.67-2.4,11.93.1,10.15,9.52-8.26,9.52-8.26a34.15,34.15,0,0,0,1.88,17.05c3,8.27,6.18-11.82,6.18-11.82s4,10.25,9.52,12.34c4,1.57-1.36-9.1-.73-10.88S508,463.12,515,451.4c1.47-2.51,7.33-8.9,15.91-17.48C523.52,421.68,513,411.84,498.2,408.5Z"/><path class="cls-17" d="M568.83,332.53S528,354,498.3,408.39c14.65,3.35,25.32,13.19,32.65,25.53,15.9-15.69,41.23-38.61,66.76-57C621,359.94,585.15,321.33,568.83,332.53Z"/><path class="cls-1" d="M398.79,397.51c-3.35,29.4,4.39,52.21,10.36,58.39,6.48,6.7,6,0,6,0s2.62,4,5.44,4.18c3.56.21,2.09-4.18,2.09-4.18s3.46,4.92,5.55,2.82,0-6.38,0-6.38,3.56,6,5.65,2.83-1.78-13.29-.63-16.85,3.88,5.65,6.39,4.18,1-11.19-3.14-18.2c-1.89-3.14-1-11.93,2.82-22.29C426,394.26,413.44,392.49,398.79,397.51Z"/><path class="cls-17" d="M458.43,309.61S419.71,330.75,405,370.72a107.26,107.26,0,0,0-6.17,26.68c14.65-5,27.2-3.24,40.39,4.4,4.71-12.87,13.81-28.36,27.52-38.61C491.6,344.87,479.26,294.44,458.43,309.61Z"/><path class="cls-1" d="M571,307.41c-6.81,37.15-33.91,56.82-69.38,54-32.65-2.51-55.36-30.56-46.15-64,14.76-53.37,35.68-67.39,68-61.64S578.87,264.61,571,307.41Z"/><path class="cls-7" d="M568.1,318.71a87.16,87.16,0,0,0,3-11.4c6-32.86-6.17-54.1-26.79-64.77C526.24,277.28,541.31,303.33,568.1,318.71Z"/><path class="cls-7" d="M561.29,257.5s-66.76,20.72-86.32.84c-13.61-13.82,16.74-26.37,36.31-24.91C524.57,234.37,551.77,239.4,561.29,257.5Z"/><path class="cls-10" d="M477,312.33c-.1,5.23,7.12,6,7.12,6"/><path class="cls-15" d="M491.18,336.82c1.57,3.45,4.4,6.48,9.21,6.38a11.74,11.74,0,0,0,9.53-5A42.3,42.3,0,0,0,491.18,336.82Z"/><path class="cls-14" d="M493,325.83a4.24,4.24,0,0,0-3,3.56,14.3,14.3,0,0,0,1.25,7.32,40.41,40.41,0,0,1,18.63,1.36c3-3.87,4.19-7.22,2.51-8.79C505.83,322.79,497.15,324.47,493,325.83Z"/><path class="cls-12" d="M478,291.82s-3-6.8-7.64-4.6"/><path class="cls-13" d="M473.6,291.4a4,4,0,0,1-5.54,1.47,4.19,4.19,0,0,1-1.05-5.65,4.06,4.06,0,0,1,5.55-1.47C474.34,286.8,474.76,289.41,473.6,291.4Z"/><path class="cls-12" d="M520.9,304.17s-3-6.8-7.64-4.61"/><path class="cls-13" d="M516.51,303.65a4.06,4.06,0,0,1-5.55,1.46,4.18,4.18,0,0,1-1-5.65,4,4,0,0,1,5.54-1.47C517.34,299,517.76,301.55,516.51,303.65Z"/><path class="cls-12" d="M481.45,276.23s-2-3-7.32-4.4"/><path class="cls-12" d="M525.61,285.33a11.52,11.52,0,0,0-9.31-.42"/><path class="cls-7" d="M572.28,284.71c-15.8,11.82-17.68,34.32-13.92,53.15A73,73,0,0,0,571,307.41,81.78,81.78,0,0,0,572.28,284.71Z"/><path class="cls-1" d="M548,308.67c-1.88,8.16,2.41,16,9.63,17.68s14.65-3.45,16.54-11.51-2.41-16-9.63-17.68S549.89,300.61,548,308.67Z"/><path class="cls-9" d="M565.9,307.41s-3.35-5-7.64.21c-2.41,5.23,2.93,7.33,2.93,7.33a6,6,0,0,1-5.23,3.87"/><path class="cls-22" d="M597.6,377s9.42-8.37,9-18.52"/><path class="cls-1" d="M466.59,457.57a1.23,1.23,0,0,0,.21-.31A.36.36,0,0,1,466.59,457.57Z"/><path class="cls-20" d="M481.77,466.57s-.63-2.93.83-4.39l2.93-2.93"/><path class="cls-20" d="M473.71,461.34a13.28,13.28,0,0,1,4.39-7.74"/><path class="cls-20" d="M466.91,457.26a27.29,27.29,0,0,1,4.81-7.43"/><path class="cls-20" d="M428.19,452.34a32.51,32.51,0,0,1-3.66-11.41"/><path class="cls-20" d="M422.64,455.9a76.11,76.11,0,0,1-5.75-13"/><path class="cls-20" d="M415.11,455.9A31.87,31.87,0,0,1,409.67,445"/><path class="cls-23" d="M605.35,372s26.79,13.91,26.68-6.81"/><path class="cls-7" d="M535.24,238.14s-26.79-16.85-38.82-14.44-7.22,13.92-3.88,17.47S535.24,238.14,535.24,238.14Z"/><path class="cls-1" d="M507.4,223.18s-6.48.42-3.76,4.18c2.51,3.77,17.47,3.25,24.48,5.55s11.2-4.92,11.2-4.92"/><path class="cls-24" d="M244.23,383.49s-9.42-11.51-13-14.44"/><path class="cls-1" d="M505.83,508.43c-1.88-6.7-7.84-2.51-7.84-2.51,2.51-3.46,2.82-9.21-1.68-10.89s-16.64,7.43-16.64,7.43c7.43-8.58-.31-13.7-12-8.79-11.3,4.71-36.41,12.87-37.88,12.25s5.76-10.26,2.09-14.76-17.79,4.71-29.82,13.29c-11.09,7.95-31.39,16.12-34.11,17.27-172.35,48.87-239.32,5.65-252.29-4.92-34.33,1.67-66.76-4.71-96.9-16.85C1.46,570.06,33.8,641.43,132,663.19c82.46,18.32,179.25-9.1,247-38.92H379c90.62-36.94,122.12-86.12,124.52-93.55,2.83-8.69-1.25-9.94-1.25-9.94S507.72,515.13,505.83,508.43Z"/><path class="cls-25" d="M479.46,502.46s-22.7,15.49-31.07,17.9"/><path class="cls-25" d="M497.88,505.92s-20,18.1-37.46,29.4"/><path class="cls-25" d="M502.07,520.67a139,139,0,0,1-31.6,30.14"/></svg>