<svg id="_ëîé_1" data-name="‘ëîé_1" xmlns="http://www.w3.org/2000/svg" xmlns:xlink="http://www.w3.org/1999/xlink" viewBox="0 0 2706.01 1894.21"><defs><style>.cls-1{fill:#ffafb1;}.cls-2{fill:#ede0c4;}.cls-3{fill:#d9af00;}.cls-4{fill:#56303c;}.cls-5{fill:#b4702f;}.cls-12,.cls-14,.cls-15,.cls-6,.cls-7,.cls-9{fill:none;}.cls-14,.cls-6{stroke:#56303c;}.cls-12,.cls-14,.cls-15,.cls-6,.cls-7{stroke-linecap:round;}.cls-12,.cls-14,.cls-6,.cls-7,.cls-9{stroke-miterlimit:10;}.cls-12,.cls-6,.cls-7{stroke-width:7.06px;}.cls-7,.cls-9{stroke:#fff;}.cls-8{clip-path:url(#clip-path);}.cls-9{stroke-width:3.65px;}.cls-10{fill:#fff;}.cls-11{fill:#a0d6ff;}.cls-12{stroke:#a0d6ff;}.cls-13{fill:#8cd6ff;}.cls-14,.cls-15{stroke-width:6.47px;}.cls-15{stroke:#8cd6ff;stroke-linejoin:round;}</style><clipPath id="clip-path"><path class="cls-1" d="M1640.58,983.39l-499.35,352.45,48.56-167.43-133.41-1.09V804.74c0-49-51.73-78.2-92.69-57.42,93.83-66.78,209.49-108.41,334.62-108.41,141.91,0,271.66,48.15,371.17,127.75a149,149,0,0,1-28.9,216.73Z"/></clipPath></defs><path id="OLD_WOMAN_HAIR" data-name="OLD WOMAN HAIR" class="cls-2" d="M1554.9,584.77c10.41,16.44,16.21,34.7,16.21,53.93,0,72.29-81.95,130.91-183,130.91S1205,711,1205,638.7c0-36,20.31-68.59,53.18-92.25-19.93-57.28-49.71-166,137.76-166,250.07,0,158.92,193.86,158.92,203.39Z"/><g id="GIRL"><path id="BODY" class="cls-3" d="M756.71,733.67l12.91-94.29,729.52,28.17,450.18,27.53c113.86,5.06,191.81,116.9,157.16,225.47l-134.07,420-331.94,5.57L1517.36,1096.4a234.13,234.13,0,0,1-24.14-103.17l-.15-92.13Z"/><g id="HEAD"><path id="HAIR" class="cls-4" d="M1706.42,615a153.3,153.3,0,0,1-48.92,2.21,102.5,102.5,0,0,1,35,77.41c0,56.5-45.33,102.31-101.26,102.31S1490,751.07,1490,694.57c0-54.61,42.36-99.24,95.71-102.15-36.25-21.14-67.07-53.06-88.3-87.12-45.19-72.53,55.63-124.86,149.63-174.57,77.53-41,172.63,49.71,198,113.31C1874.72,518.53,1792.28,597,1706.42,615Z"/><g id="HEAD-2" data-name="HEAD"><path class="cls-5" d="M1774.49,586.34l22.52,54.3a81.57,81.57,0,0,0,68.93,50.05l20.13,1.58-145.58,320.45L1642.57,679h0a69.94,69.94,0,0,1-81.87-54.31l-33.34-159.25s41.37,66.45,177.11,36.9c12-2.6,24.09,4,31,14.1l11.51,17-2.17-14a33.19,33.19,0,0,1,20.54-36h0a33.21,33.21,0,0,1,42.77,17.78l2.81,6.56a33.2,33.2,0,0,1-15,42.44l-10.32,5.44A24.11,24.11,0,0,0,1774.49,586.34Z"/><path class="cls-6" d="M1630.46,553.65c1-5.51,6.27-11.2,13.85-14.23a27.14,27.14,0,0,1,10.91-2A16.43,16.43,0,0,1,1664,540"/><path class="cls-6" d="M1553.18,564.75c2.72-4.74,9.09-8.07,16.51-8.07s13.6,3.23,16.39,7.86"/><path class="cls-6" d="M1610.07,620s21.33,6.16,42.66-16.33"/><line class="cls-6" x1="1646.05" y1="599.19" x2="1662.53" y2="608.38"/><path class="cls-6" d="M1542,532.41l26.69-.48A27.32,27.32,0,0,1,1596,553.6l8,37.65a9.48,9.48,0,0,0,9.93,7.92l10.19-.63"/><path class="cls-6" d="M1780.45,502.22s-19.73,6.06-11.41,32.72"/><line class="cls-6" x1="1785.76" y1="520" x2="1769.73" y2="515.2"/><path class="cls-4" d="M1642.57,679s42.62-8.28,63.23-38.55l-46.64,95.09Z"/></g><path id="HAIR-2" data-name="HAIR" class="cls-4" d="M1870.93,743.26a58.48,58.48,0,0,1,20.86,44.9c0,32.24-25.87,58.37-57.77,58.37s-57.77-26.13-57.77-58.37a58.5,58.5,0,0,1,20.86-44.9A102.29,102.29,0,0,1,1732.76,648c0-56.5,45.34-102.31,101.26-102.31S1935.28,591.48,1935.28,648A102.28,102.28,0,0,1,1870.93,743.26Z"/></g></g><g id="PLAID"><path class="cls-2" d="M1874.28,1069.46l73.26,254.65c40,139.06-64.37,277.69-209.06,277.69H990.92a408.45,408.45,0,0,1-392.73-296.23L459.5,820.26c-26-90.88,42.27-181.35,136.79-181.35H1302.4C1567.69,638.91,1800.94,814.52,1874.28,1069.46Z"/><path class="cls-6" d="M1525.59,1068.18l-505.8,357.73c-60.81,43-39.26,139.52,33.7,154.49"/><line class="cls-7" x1="1376.61" y1="1197.42" x2="1477.04" y2="1170.66"/></g><g id="GIRL_S_HANDS" data-name="GIRL&apos;S HANDS"><polygon class="cls-3" points="1866.03 1233.21 1926.11 934.33 2102.08 934.33 1971.8 1342.46 1866.03 1233.21"/><line class="cls-7" x1="1866.03" y1="1233.21" x2="1926.11" y2="934.33"/><path class="cls-4" d="M1950.59,1433.16l-472.92,40.78,476.68-108.21,1,.78A214.38,214.38,0,0,1,1950.59,1433.16Z"/><path class="cls-5" d="M1851.89,1236.9,1448.5,1380.58a56.14,56.14,0,0,0-30.1,25.35l-47.32,84,60.25,21.68a26,26,0,0,0,31.42-11.58l14.92-26.11,427.77-73.71a84.78,84.78,0,0,0,66.36-57.77h0c17.53-54.93-23.7-111-81.36-110.55l-10.71.08A84.94,84.94,0,0,0,1851.89,1236.9Z"/><line class="cls-6" x1="1389.43" y1="1493.62" x2="1427.53" y2="1425.97"/><line class="cls-6" x1="1407.77" y1="1499.12" x2="1445.87" y2="1431.47"/><line class="cls-6" x1="1427.95" y1="1506.46" x2="1466.05" y2="1438.81"/><path class="cls-6" d="M1539.5,1465.75c16.7-2.87,26.51-15.24,30.81-31.63"/><line class="cls-7" x1="1891.57" y1="938" x2="1911.6" y2="1006.52"/><path class="cls-5" d="M771.93,638.91,769.62,636a83.86,83.86,0,0,0-65.34-31.29H635.4a32.08,32.08,0,0,0-30,20.62l-17.6,46a14.62,14.62,0,0,0,13.65,19.84h61.15a28.57,28.57,0,0,0,25.79-16.3l8.92-18.78a30.16,30.16,0,0,1,27.24-17.22Z"/><line class="cls-6" x1="669.21" y1="638.55" x2="653.75" y2="689.37"/><line class="cls-6" x1="647.2" y1="638.55" x2="631.74" y2="689.37"/><line class="cls-6" x1="623.35" y1="638.55" x2="607.89" y2="689.37"/></g><g id="OLD_WOMAN" data-name="OLD WOMAN"><g id="VEST"><path class="cls-1" d="M1640.58,983.39l-499.35,352.45,48.56-167.43-133.41-1.09V804.74c0-49-51.73-78.2-92.69-57.42,93.83-66.78,209.49-108.41,334.62-108.41,141.91,0,271.66,48.15,371.17,127.75a149,149,0,0,1-28.9,216.73Z"/><g class="cls-8"><line class="cls-9" x1="1186.19" y1="1366.61" x2="1186.19" y2="609.76"/><line class="cls-9" x1="1149.29" y1="1366.61" x2="1149.29" y2="609.76"/><line class="cls-9" x1="1224.21" y1="1366.61" x2="1224.21" y2="609.76"/><line class="cls-9" x1="1262.22" y1="1366.61" x2="1262.22" y2="609.76"/><line class="cls-9" x1="1300.24" y1="1366.61" x2="1300.24" y2="609.76"/><line class="cls-9" x1="1338.26" y1="1366.61" x2="1338.26" y2="609.76"/><line class="cls-9" x1="1376.27" y1="1366.61" x2="1376.27" y2="609.76"/><line class="cls-9" x1="1414.29" y1="1366.61" x2="1414.29" y2="609.76"/><line class="cls-9" x1="1035.77" y1="1366.61" x2="1035.77" y2="609.76"/><line class="cls-9" x1="1073.79" y1="1366.61" x2="1073.79" y2="609.76"/><line class="cls-9" x1="1111.81" y1="1366.61" x2="1111.81" y2="609.76"/><line class="cls-9" x1="1451.23" y1="939.68" x2="997.16" y2="939.68"/><line class="cls-9" x1="1451.23" y1="901.66" x2="997.16" y2="901.66"/><line class="cls-9" x1="1451.23" y1="863.64" x2="997.16" y2="863.64"/><line class="cls-9" x1="1451.23" y1="825.63" x2="997.16" y2="825.63"/><line class="cls-9" x1="1451.23" y1="787.61" x2="997.16" y2="787.61"/><line class="cls-9" x1="1451.23" y1="749.6" x2="997.16" y2="749.6"/><line class="cls-9" x1="1451.23" y1="711.58" x2="997.16" y2="711.58"/><line class="cls-9" x1="1451.23" y1="673.56" x2="999.3" y2="673.56"/><line class="cls-9" x1="1451.23" y1="1244.03" x2="997.16" y2="1244.03"/><line class="cls-9" x1="1451.23" y1="1282.45" x2="997.16" y2="1282.45"/><line class="cls-9" x1="1451.23" y1="1206.02" x2="997.16" y2="1206.02"/><line class="cls-9" x1="1451.23" y1="1168" x2="997.16" y2="1168"/><line class="cls-9" x1="1451.23" y1="1129.99" x2="997.16" y2="1129.99"/><line class="cls-9" x1="1451.23" y1="1091.97" x2="997.16" y2="1091.97"/><line class="cls-9" x1="1451.23" y1="1053.95" x2="997.16" y2="1053.95"/><line class="cls-9" x1="1451.23" y1="1015.94" x2="997.16" y2="1015.94"/><line class="cls-9" x1="1451.23" y1="977.92" x2="999.3" y2="977.92"/><line class="cls-9" x1="1604.45" y1="1366.61" x2="1604.45" y2="609.76"/><line class="cls-9" x1="1567.55" y1="1366.61" x2="1567.55" y2="609.76"/><line class="cls-9" x1="1642.46" y1="1366.61" x2="1642.46" y2="609.76"/><line class="cls-9" x1="1680.48" y1="1366.61" x2="1680.48" y2="609.76"/><line class="cls-9" x1="1718.49" y1="1366.61" x2="1718.49" y2="609.76"/><line class="cls-9" x1="1756.51" y1="1366.61" x2="1756.51" y2="609.76"/><line class="cls-9" x1="1794.53" y1="1366.61" x2="1794.53" y2="609.76"/><line class="cls-9" x1="1832.54" y1="1366.61" x2="1832.54" y2="609.76"/><line class="cls-9" x1="1454.03" y1="1366.61" x2="1454.03" y2="609.76"/><line class="cls-9" x1="1492.04" y1="1366.61" x2="1492.04" y2="609.76"/><line class="cls-9" x1="1530.06" y1="1366.61" x2="1530.06" y2="609.76"/><line class="cls-9" x1="1869.48" y1="939.68" x2="1415.41" y2="939.68"/><line class="cls-9" x1="1869.48" y1="901.66" x2="1415.41" y2="901.66"/><line class="cls-9" x1="1869.48" y1="863.64" x2="1415.41" y2="863.64"/><line class="cls-9" x1="1869.48" y1="825.63" x2="1415.41" y2="825.63"/><line class="cls-9" x1="1869.48" y1="787.61" x2="1415.41" y2="787.61"/><line class="cls-9" x1="1869.48" y1="749.6" x2="1415.41" y2="749.6"/><line class="cls-9" x1="1869.48" y1="711.58" x2="1415.41" y2="711.58"/><line class="cls-9" x1="1869.48" y1="673.56" x2="1417.55" y2="673.56"/><line class="cls-9" x1="1869.48" y1="1244.03" x2="1415.41" y2="1244.03"/><line class="cls-9" x1="1869.48" y1="1282.45" x2="1415.41" y2="1282.45"/><line class="cls-9" x1="1869.48" y1="1206.02" x2="1415.41" y2="1206.02"/><line class="cls-9" x1="1869.48" y1="1168" x2="1415.41" y2="1168"/><line class="cls-9" x1="1869.48" y1="1129.99" x2="1415.41" y2="1129.99"/><line class="cls-9" x1="1869.48" y1="1091.97" x2="1415.41" y2="1091.97"/><line class="cls-9" x1="1869.48" y1="1053.95" x2="1415.41" y2="1053.95"/><line class="cls-9" x1="1869.48" y1="1015.94" x2="1415.41" y2="1015.94"/><line class="cls-9" x1="1869.48" y1="977.92" x2="1417.55" y2="977.92"/></g></g><g id="COLLAR"><path class="cls-10" d="M1553.18,694.67l-159,351.21L1180,651.49a563.13,563.13,0,0,1,118.36-12.58C1390,638.91,1476.54,659,1553.18,694.67Z"/><line class="cls-6" x1="1362.54" y1="829.89" x2="1389.6" y2="829.89"/><circle class="cls-11" cx="1389.6" cy="832.62" r="17.15" transform="translate(-212.85 595.16) rotate(-22.5)"/><line class="cls-6" x1="1362.54" y1="936.29" x2="1389.6" y2="936.29"/><circle class="cls-11" cx="1389.6" cy="935.52" r="17.15"/><path class="cls-12" d="M1536.85,740.54c-15.23,28.47-43.75,47.62-76.41,47.62-35.22,0-65.62-22.28-79.74-54.49-14.13,32.21-44.53,54.49-79.75,54.49-31.5,0-53.64-17.81-69.23-44.62"/><line class="cls-12" x1="1380.7" y1="733.67" x2="1380.7" y2="788.16"/><line class="cls-6" x1="1394.15" y1="1042.21" x2="1394.15" y2="1105.13"/></g><g id="HAND"><line class="cls-6" x1="1196.74" y1="1132.11" x2="1288.83" y2="1389.55"/><line class="cls-6" x1="1209.81" y1="1344.64" x2="1235.28" y2="1072.73"/><path class="cls-3" d="M1184.29,1034.09c0,13.33-24.14,33.53-24.14,33.53s-24.14-20.2-24.14-33.53a24.14,24.14,0,0,1,48.28,0Z"/><path class="cls-3" d="M1136,1113.88c0-13.33,24.14-33.52,24.14-33.52s24.14,20.19,24.14,33.52a24.14,24.14,0,1,1-48.28,0Z"/><path class="cls-3" d="M1122.4,1049.85c13.33,0,33.52,24.14,33.52,24.14s-20.19,24.13-33.52,24.13a24.14,24.14,0,1,1,0-48.27Z"/><path class="cls-3" d="M1197.9,1098.12c-13.33,0-33.52-24.13-33.52-24.13s20.19-24.14,33.52-24.14a24.14,24.14,0,1,1,0,48.27Z"/><circle class="cls-4" cx="1160.15" cy="1073.99" r="14.45"/><path class="cls-3" d="M1259.11,950.25c0,13.33-24.14,33.52-24.14,33.52s-24.14-20.19-24.14-33.52a24.14,24.14,0,1,1,48.28,0Z"/><path class="cls-3" d="M1210.83,1030c0-13.33,24.14-33.52,24.14-33.52s24.14,20.19,24.14,33.52a24.14,24.14,0,1,1-48.28,0Z"/><path class="cls-3" d="M1197.22,966c13.33,0,33.52,24.13,33.52,24.13s-20.19,24.14-33.52,24.14a24.14,24.14,0,1,1,0-48.27Z"/><path class="cls-3" d="M1272.72,1014.28c-13.33,0-33.52-24.14-33.52-24.14S1259.39,966,1272.72,966a24.14,24.14,0,1,1,0,48.27Z"/><circle class="cls-4" cx="1234.97" cy="990.14" r="15.06"/><path class="cls-4" d="M1337.73,1066.06c0,12.15-22,30.55-22,30.55s-22-18.4-22-30.55a22,22,0,0,1,44,0Z"/><path class="cls-4" d="M1293.75,1138.76c0-12.14,22-30.54,22-30.54s22,18.4,22,30.54a22,22,0,1,1-44,0Z"/><path class="cls-4" d="M1281.34,1080.42c12.15,0,30.55,22,30.55,22s-18.4,22-30.55,22a22,22,0,0,1,0-44Z"/><path class="cls-4" d="M1350.14,1124.4c-12.15,0-30.55-22-30.55-22s18.4-22,30.55-22a22,22,0,0,1,0,44Z"/><circle class="cls-13" cx="1315.74" cy="1102.41" r="13.72" transform="translate(-321.72 587.43) rotate(-22.5)"/><path class="cls-10" d="M1189.79,1168.41l-48.56,167.43-107.41,75.81c-127.34,89.88-303.09-1.19-303.09-157.05v-90.92c0-158.31,91.74-315.83,233-416.36,41-20.78,92.69,8.41,92.69,57.42v362.58Z"/><path class="cls-5" d="M1141.23,1335.84s-45.7-54.37-6.88-130.85a67.26,67.26,0,0,1,60.05-36.58h45.21a132.35,132.35,0,0,1,72.11,21.37l28.58,18.57a21.15,21.15,0,0,1,4.62,31.4l-42.14,49.81a21.36,21.36,0,0,1-29.38,3.09l-10.11-7.84a40.56,40.56,0,0,0-48.24-1.07Z"/><line class="cls-14" x1="1282.89" y1="1203.51" x2="1341.53" y2="1242.76"/><line class="cls-14" x1="1268.22" y1="1220.02" x2="1326.86" y2="1259.27"/><line class="cls-14" x1="1251.71" y1="1240.2" x2="1310.35" y2="1279.45"/><path class="cls-12" d="M904.36,1167.32h152s-72.07,99.52,10.34,221.11"/><circle class="cls-12" cx="1088.46" cy="1324.37" r="11.47"/><line class="cls-12" x1="963.69" y1="1167.32" x2="919.18" y2="1130.68"/></g><g id="HEAD-3" data-name="HEAD"><path class="cls-5" d="M1485,690.67l-53.11,25.8a75.3,75.3,0,0,1-65.86,0L1313,690.67a75.36,75.36,0,0,1-40.69-83.78h-17.09a32.64,32.64,0,0,1-32.64-32.64V564.17a32.65,32.65,0,0,1,62.34-13.56l4.85-21.65c49.34-4.55,90.24-33.46,106.27-72.53V414.59a3.24,3.24,0,0,1,6.47,0v33.29c13,42.36,54.49,74.69,105.72,80.7l17.44,77.83A75.36,75.36,0,0,1,1485,690.67Z"/><ellipse class="cls-2" cx="1358.3" cy="528.82" rx="25.59" ry="9.34" transform="translate(-95.4 422.14) rotate(-17.08)"/><ellipse class="cls-2" cx="1444.92" cy="528.82" rx="9.34" ry="25.59" transform="translate(515.14 1754.77) rotate(-72.92)"/><path class="cls-6" d="M1437.46,581.67c2.72-4.74,9.09-8.06,16.51-8.06h7.47"/><path class="cls-6" d="M1360.54,581.67c-2.72-4.74-9.09-8.06-16.51-8.06h-7.46"/><path class="cls-6" d="M1371.85,640.39s26,12.24,54.54,0"/><line class="cls-6" x1="1424.16" y1="633.18" x2="1433.77" y2="646.73"/><line class="cls-6" x1="1374.86" y1="632.87" x2="1364.24" y2="645.83"/><path class="cls-6" d="M1383.24,684.07a29.1,29.1,0,0,1,28.76-.3"/><path class="cls-6" d="M1414.57,545.53c-5.27,10.59-12.15,36.14-2,59.23"/><path class="cls-6" d="M1380.23,615.88c0-8.15,8.41-14.76,18.77-14.76s18.77,6.61,18.77,14.76"/><path class="cls-6" d="M1269.44,577.64s2.94-20.42-24.71-24.28"/><line class="cls-6" x1="1251.1" y1="574.86" x2="1262.28" y2="562.41"/><line class="cls-15" x1="1379.57" y1="581.67" x2="1417.35" y2="581.67"/><path class="cls-12" d="M1322.8,547.83h40.55a16.23,16.23,0,0,1,16.23,16.23v27.8a16.87,16.87,0,0,1-16.87,16.87h-39.9a16.23,16.23,0,0,1-16.23-16.23V564.05A16.23,16.23,0,0,1,1322.8,547.83Z"/><path class="cls-12" d="M1436.53,547.83h40.55a16.23,16.23,0,0,1,16.23,16.23v27.8a16.87,16.87,0,0,1-16.87,16.87h-39.9a16.23,16.23,0,0,1-16.23-16.23V564.05A16.23,16.23,0,0,1,1436.53,547.83Z"/></g></g></svg>