<svg id="Fathers_day_illustration" data-name="Fathers day illustration" xmlns="http://www.w3.org/2000/svg" viewBox="0 0 745.19 745.19"><defs><style>.cls-1{fill:#3793c9;}.cls-11,.cls-12,.cls-14,.cls-2,.cls-23,.cls-24,.cls-7,.cls-8{fill:none;stroke-linecap:round;stroke-linejoin:round;}.cls-2{stroke:#3b7ab5;}.cls-11,.cls-14,.cls-2{stroke-width:3.27px;}.cls-3{fill:#f4ba92;}.cls-4{fill:#564239;}.cls-5{fill:#f36b64;}.cls-6{fill:#db928a;}.cls-7{stroke:#564239;}.cls-7,.cls-8{stroke-width:4.9px;}.cls-8{stroke:#e09c6e;}.cls-9{fill:#f97d7c;}.cls-10{fill:#cc4744;}.cls-11{stroke:#cc4744;}.cls-12{stroke:#f0998b;stroke-width:1.63px;}.cls-13{fill:#f99085;}.cls-14{stroke:#bf6c66;}.cls-15{fill:#f0998b;}.cls-16{fill:#ffdf5a;}.cls-17{fill:#ff975a;}.cls-18{fill:#db6c4d;}.cls-19{fill:#ffb85a;}.cls-20{fill:#6d554e;}.cls-21{fill:#8cc3e6;}.cls-22{fill:#fff;}.cls-23{stroke:#ebebf7;stroke-width:4.69px;}.cls-24{stroke:#a6a6b2;stroke-width:1.79px;}</style></defs><path class="cls-1" d="M578.52,663.1c.29,16.64-86.32,31.63-193.55,33.48s-194.33-10-194.63-26.57,85.35-46.61,192.58-46.61C761.17,623.4,578.23,646.56,578.52,663.1Z"/><path class="cls-2" d="M552.83,636.05s33.08,1.07,33.67,7.59S546,655.71,552.83,660.18s-9.93,10.61-27,13"/><path class="cls-3" d="M544.36,183.75c-4.57-4.67-14.79,4.28-14.79,4.28S538.43,180,534,174.9,517.31,180,517.31,180c2.82-5.26,8.46-15,1.85-16.64s-20.24,10.21-20.24,10.21,8.46-13.52-2.14-14.3c-10.42-.78-88.65,92-178.86,143-3.6,2-7,3.79-10.41,5.64-72.79,38.73-110,33.38-110,33.38-18.88,24.42-1.17,134.58,49.53,131.56,33.86-1.94,80.57-36.78,112.1-63.83C379.81,391.12,394,376.72,394,376.72,511.18,269.29,548.93,188.52,544.36,183.75Z"/><path class="cls-4" d="M615.11,309.77c7.68-49.63,1.07-69.77,1.07-69.77-25.89-14.5-141,44.18-141,44.18A398.46,398.46,0,0,0,461.36,352c-2.63,22.58,1.94,45.25,6,62.18,15,3.21,33.38,3.21,47.49-6.13-.39-10.12-3.12-19.85-.1-26.95,8.76-21.12,33.86-49.34,33.86-49.34-.68,15.28,8,39.41,15.86,59.55,17.81,6.33,38,2.34,54.6-8.17C614.81,363.78,610.53,339,615.11,309.77Z"/><path class="cls-3" d="M623.28,403.77c-1.07-6-2.72-12.84-4.38-20.53-16.64,10.51-36.78,14.5-54.59,8.17,4.09,10.71,8.08,20.34,10.12,27,1.56,5,1.65,11.19,1.46,17.61h0c-.58,18.29-4.09,38.83,13.23,39.61,34.35,1.46,35-40.1,35.33-59.75C624.74,412.43,623.28,408.34,623.28,403.77Z"/><path class="cls-3" d="M514.88,408.15c-14,9.34-32.51,9.34-47.49,6.13,2.72,11.48,5.16,20.34,5.16,24.81,0,3.8-3.31,9.25-7,14.89-7.1,11-16,23.16-8.08,29.1,12.07,8.85,54.69-17.13,59.46-27.73,1.65-3.51,1.26-10.9.39-19.76C516.53,427.42,515.27,417.69,514.88,408.15Z"/><path class="cls-5" d="M618.22,170.42c6.42-15.67,9.93-32.31,8.86-49-22.19-10.5-48.08-14.59-69.68-11.48-23.65,3.41-48.17,29.49-92.06,38.93-10.6,19.75-15,43.4-30.94,57.6,11.77-.09,21.31-.77,21.31-.77s1,57.8,13.72,78.62S608.59,263,616,239.9l-11.19-44.08c-3.11,5-6.52,9.73-10,14.4,3.5-4.67,6.91-9.44,10-14.4l-7.1-28.13A70.8,70.8,0,0,1,618.22,170.42Z"/><path class="cls-3" d="M700.35,210.71c-8.17-25.4-30.07-60.24-55.08-78.73a107.5,107.5,0,0,0-18.1-10.61c1.07,16.65-2.43,33.19-8.85,49a70.6,70.6,0,0,1,24.81,12.26c21.7,16.64,23.84,21.8,26.18,34.45,1.07,5.55-3.41,14.21,0,17,2.72,2.24,5-5.94,7.39-5.55,3.6.49,4,6.62,6.33,14.89s6.32,3.11,6.13-2c0,0,.78,5.93,4,4.28s2-9.05,2-9.05.19,5.64,2.62,4.67,2.44-9.44,2.44-9.44-1.76,4.67.29,3.31S704.15,225.3,700.35,210.71Z"/><path class="cls-3" d="M405.4,207c-19,29.48-23.06,52.06-23.06,52.06s16.44-11.39,34.74-24.91c4.38-3.21,8.85-6.62,13.23-9.93C420.39,220.63,411.73,215.09,405.4,207Z"/><path class="cls-5" d="M465.05,194.16c6.91-9,.39-28.61,3-41.06,1.95-9.44-7.4-3.21-7.4-3.21s-19.85,8.66-46.41,44.27C411,198.54,408,202.82,405.4,207c6.33,8.08,15.08,13.62,24.91,17.22C445.69,212.36,460.19,200.59,465.05,194.16Z"/><path class="cls-3" d="M475.17,155h0a25.14,25.14,0,0,0,26.76,21.21,55.13,55.13,0,0,0,20.44-5.35l.58-.29a34.88,34.88,0,0,0,17.32-42L536,116.12C536.19,116,474.1,127.7,475.17,155Z"/><path class="cls-6" d="M523,139.28c-17.9,6.42-31.43,12.65-46.9,18.78a25.78,25.78,0,0,0,9.24,13.24A118.69,118.69,0,0,0,523,139.28Z"/><path class="cls-3" d="M548,91.11c-.49,39.51-23.16,68.7-62.37,72.69-40.49,4.09-60.73-32.79-59.85-78.72.58-38.54,23.84-55,61.79-58.78C531.61,21.92,548.45,53.16,548,91.11Z"/><path class="cls-4" d="M471.57,88.58c-4.86-15.57-10-14.5-12.65-13.52-25.59,8.85-40.09-4-39.6-10.32,1.55-19.36,12.74-34.35,27.24-38.83,6.62-2,15.38,3,20.24,1.37C506.41,13.85,535,33.8,544.85,55c7.1,15.28,10.6,42.82-5.06,72.3,0,0-22.48-1.07-29.78-22.19C510.2,105,480,116,471.57,88.58Z"/><path class="cls-3" d="M520.62,100c-.1,8.85-7.11,16.34-15.67,16.54s-15.37-6.62-15.28-15.47,7.11-16.35,15.57-16.64A15,15,0,0,1,520.62,100Z"/><path class="cls-7" d="M445.69,113.88s.58-8,7.3-6"/><path class="cls-3" d="M428.76,115.15s1.07,5.06-.59,19.17A44.64,44.64,0,0,0,438,134"/><path class="cls-7" d="M437.42,97.44a13,13,0,0,1,5.35-5.94"/><path class="cls-8" d="M510.3,95.39s-3.89-1.75-7,1.07-1.76,9.25,1.84,9.73c0,0,.39,3.31-1.94,4.58"/><path class="cls-9" d="M460.58,147.75c3.31,1.36,7.1,1.36,10.21-1.66a10.74,10.74,0,0,0,3.12-9.53A38.42,38.42,0,0,0,460.58,147.75Z"/><path class="cls-10" d="M454.74,139.28a4.18,4.18,0,0,0,.29,4.38,13.4,13.4,0,0,0,5.55,4.09A37,37,0,0,1,474,136.56c-.49-4.58-1.85-7.59-4-7.59C461.26,129,456.68,135.78,454.74,139.28Z"/><path class="cls-11" d="M455.81,205.65s-1.17-13,.19-17.13"/><path class="cls-12" d="M689.06,241.46s0-10.12-2.72-14.6"/><path class="cls-12" d="M695.1,238.34s-.1-11.29-1.85-15.08"/><path class="cls-12" d="M699.77,235.42s1.16-7.78-.59-13.72"/><path class="cls-3" d="M382.34,259.07s16.44-11.39,34.74-24.91c4.38-3.21,8.85-6.62,13.23-9.93"/><path class="cls-8" d="M385.45,256.93c5.55-3.89,18.1-12.75,31.63-22.77,4.38-3.21,8.85-6.62,13.23-9.93"/><path class="cls-3" d="M622.79,176.36s2.83-6.72-1.16-10c-3.51-2.92-8.18,1.07-8.18,1.07s3.8-9.44-2-11.87c-5.94-2.63-11.29,3.6-11.29,3.6s-.39-12.07-11.39-6.42c-3.79,1.95-11.28,13.33-27,25.88-7.79,6.33-8.37-2.43-10.7-6.42-3.12-5.25-11.29-7.88-11.29,7.79,0,13.52-4.58,19.65-4.58,19.65h0c-16.25,17-32.5,43.4-84.46,85.54-36.4,29.48-70.07,46-101.79,55.66-47.1,14.21-89.91,12.85-130.88,14.79h0a17.69,17.69,0,0,1,1-6.42h0c1.36-4.77,4.28-8.86,8-12.75,11.87-12.16,33-21.8,44.18-39.6,16.35-25.89-1.65-55-1.65-55l9.53-11s-18.68-17-38.44-56.44-110-41-137.79,18c-27.73,58.58,27.25,94,26.76,133.32v.58a73.2,73.2,0,0,1-1.26,12.55h0c0,.2-.1.3-.1.49-.58,3.31-5.64,23.74-33.28,54.59-54.59,61-62.08,145-52.64,223.91s272.37,100.72,321.51,52.94-37.56-114.63-35.91-153.26c6-20.44,19.76-27.93,19.76-27.93,12.65-6.23,26.37-13.92,40.57-22.77,51.58-31.92,109.77-79,145.78-128.26,54.49-74.63,88.35-130.78,94.68-154.92C631.75,171.3,622.79,176.36,622.79,176.36Z"/><path class="cls-7" d="M222.94,208.37a27.47,27.47,0,0,1,12.95-1.56"/><path class="cls-13" d="M231.51,257.61a10.81,10.81,0,0,1-11.19,10.12,10.4,10.4,0,0,1-10.12-10.9,11,11,0,0,1,11.19-10.22A10.69,10.69,0,0,1,231.51,257.61Z"/><path class="cls-7" d="M238.61,220.83s-7.1-3.6-11.19,9.24"/><path class="cls-4" d="M232,130.52c16.84,16.06,13.24,43.89-5.93,57-8.37,5.74-20.53,13.91-37.66,24.91-9.44,6-6.13,18.78-8,26.66-4.87,20.53-17.81,16.64-17.81,16.64l-2.72,9.63c-2,34.45-31.43,50.51-31.43,50.51-.2-1.07-.39-1.95-.69-3a28.87,28.87,0,0,0-.68-2.82,18.56,18.56,0,0,0-1-3.11,12.91,12.91,0,0,0-1.07-2.73c-1.07-2.92-2.34-5.64-3.7-8.66-.39-1-1-1.95-1.46-2.92a1,1,0,0,1-.19-.48c-1-1.76-1.85-3.51-2.73-5.36-2.62-4.86-5.35-9.92-8.07-15.08-.49-1.07-1.07-2-1.56-3.11-1.56-3.12-3.12-6.33-4.57-9.64A123.9,123.9,0,0,1,98,245.84c-.59-2.24-1.27-4.58-1.75-6.91a71.1,71.1,0,0,1-.49-26.18A77.23,77.23,0,0,1,99,200.39a80.49,80.49,0,0,1,3.5-8.66,66.3,66.3,0,0,1,7.69-12.65,18.21,18.21,0,0,1,2-2.72c1-1.27,2-2.34,3.12-3.51,8.27-8.95,26.17-19.17,44.86-27.15,19-8.27,21.31-23.16,43.59-25.1A36,36,0,0,1,232,130.52Z"/><path class="cls-3" d="M134,253.62c.59,10.51,9.05,18.68,19,18.39s17.61-9.05,17-19.56-9-18.88-19-18.49C141,234.16,133.42,243.11,134,253.62Z"/><path class="cls-8" d="M142.86,250.8s.58-5.55,7-6.13,8.18,6.42,6.62,10.41c0,0,1.07,5.94,6.13,5.55"/><path class="cls-4" d="M240.17,222.09a4.48,4.48,0,0,1-1,6.33c-1.94,1.36-4.76.58-6.22-1.56a4.49,4.49,0,0,1,1-6.33A4.55,4.55,0,0,1,240.17,222.09Z"/><path class="cls-14" d="M600.12,159s-7.88,23.07-21.6,36.79"/><path class="cls-14" d="M613.45,167.4s-8.37,24.91-15.86,35.52"/><path class="cls-14" d="M622.79,176.36s-7.39,23.54-14.69,35.51"/><path class="cls-8" d="M467.39,270.94c-5.06,4.48-10.51,9.05-16.54,13.92-36.4,29.48-70.07,46-101.79,55.66h0c-59.56,17.9-112.2,11.09-162.8,17.22-19.46,2.34-36.49,6.23-51.48,12.56"/><path class="cls-15" d="M353.63,573.38c-13.13-21.21-26.27-41-25.59-56.24,3.7-12.85,10.51-20.44,15.08-24.43-39.7,12.36-79.31,28.13-119,33.77,20.53,2.92,81.06-10.61,90.5,2.14,34.55,47.2,60,111.81,23.45,137-40,27.45-139.74,24.43-172.72,22.29,79,14,171.46,9,198.7-17.52C393.33,641.6,373.58,605.69,353.63,573.38Z"/><path class="cls-10" d="M251.26,284.66a32.52,32.52,0,0,0-.58-9.34c-2.63,1.27-6.91,1.85-14.21.58-9.05-1.65-9.44,4.58-5.74,10C237.15,283.4,244.74,284.18,251.26,284.66Z"/><path class="cls-9" d="M230.83,285.93c3.11,4.77,9,8.95,14.79,7,3.89-1.36,5.25-4.86,5.74-8.37C244.74,284.18,237.15,283.4,230.83,285.93Z"/><path class="cls-8" d="M70,654.73S45,581,70,487.26"/><path class="cls-16" d="M407.54,696.58s-60.14,2.63-80.28,2.72c-21.7,0-86.9-2.72-86.9-2.72a56,56,0,0,1-55.85-55.86V623.4A35.65,35.65,0,0,1,220,587.88H445.2a35.66,35.66,0,0,1,35.52,35.52h0A73.41,73.41,0,0,1,407.54,696.58Z"/><path class="cls-16" d="M495.51,558.79A64.62,64.62,0,1,1,431,494.17,64.62,64.62,0,0,1,495.51,558.79Z"/><path class="cls-17" d="M492.59,539.62s7.79,7.1,16.54,15.47c5.26,5.06,9.25,12.07,16.64,13.82,20.05,4.47-33.18,8.85-33.18,8.85S484.22,536.4,492.59,539.62Z"/><path class="cls-18" d="M525.77,573.38l-38.53,17,5.35-12.55C492.59,577.76,520,572.9,525.77,573.38Z"/><path class="cls-19" d="M373.09,587.88a65.53,65.53,0,0,0,22.09,24.82,64.64,64.64,0,0,0,35.52,10.6s-51.28,13-83.39-35.52h25.78Z"/><path class="cls-20" d="M446.76,561.9h0a7,7,0,0,1-7-7V551.2a7,7,0,0,1,7-7h0a7,7,0,0,1,7,7v3.69A7,7,0,0,1,446.76,561.9Z"/><path class="cls-19" d="M382.83,618.44H235.11a10.08,10.08,0,0,1-10-10h0a10.08,10.08,0,0,1,10-10H367.26a10.11,10.11,0,0,1,9.24,5.94Z"/><path class="cls-1" d="M519.16,475.29s-10.61,12.17-4,17.52S531.91,488.33,519.16,475.29Z"/><path class="cls-21" d="M594.48,493.39s-13.72,15.67-5.16,22.48S610.92,510.13,594.48,493.39Z"/><path class="cls-1" d="M619.68,484.93s-9.63,11-3.6,15.66C621.92,505.46,631.16,496.6,619.68,484.93Z"/><path class="cls-21" d="M548.25,585.45s-9.63,11-3.6,15.67C550.59,606,559.74,597.22,548.25,585.45Z"/><path class="cls-22" d="M349.06,338.38c5.55-1.56,9.92-1.36,14.5,2.14,6.61,5.06,15.57,14.89,20,32.79,7.4,30.17.68,60.14,8.57,57.51s3.6-6,11.29-8.27,9.92-1.07,15.47-8.37,13-2.82,18.78-12.26,12.16-14.89,16.35-20.53c4-5.64,4,5.25,4.76-13,.59-18.3-11.38-62.57-26.17-73-12.36-8.76-46.22,15.27-88.65,34-8.37,3.6-10,6.71-13.33,13.52C330.76,343,341.27,340.52,349.06,338.38Z"/><path class="cls-23" d="M405.4,413.7s1.46-44.77-10.51-67.93"/><path class="cls-23" d="M434.5,405.91s-1.95-59.65-14.79-76.48"/><path class="cls-23" d="M356.16,323.78s14.4-4.48,26.08,5.65"/><path class="cls-24" d="M183,94.42s9,6,10.41,20.14"/><path class="cls-24" d="M197.84,94.42a20.08,20.08,0,0,1,5.54,12.26"/><path class="cls-5" d="M180.22,142.69A33.28,33.28,0,0,1,119,128.87C126.12,135.87,147.14,152.22,180.22,142.69Z"/><path class="cls-16" d="M184.7,118.65A32.54,32.54,0,0,1,183,137.33a27.89,27.89,0,0,1-2.73,5.36c-33,9.53-54.1-6.72-61.3-13.82a34,34,0,0,1,2.14-16.35,29.07,29.07,0,0,1,2-4C123.1,108.34,148.89,92.67,184.7,118.65Z"/><path class="cls-1" d="M164.46,93.93a32.82,32.82,0,0,1,20.24,24.72C148.79,92.77,123,108.43,123,108.43A33.23,33.23,0,0,1,164.46,93.93Z"/></svg>