<svg id="_ëîé_1" data-name="‘ëîé_1" xmlns="http://www.w3.org/2000/svg" viewBox="0 0 2707.33 1895.13"><defs><style>.cls-1{fill:#f5efd9;}.cls-2{fill:#ede0c4;}.cls-12,.cls-13,.cls-15,.cls-16,.cls-17,.cls-18,.cls-19,.cls-20,.cls-21,.cls-22,.cls-3,.cls-7,.cls-9{fill:none;}.cls-3{stroke:#b4702f;}.cls-13,.cls-15,.cls-16,.cls-18,.cls-20,.cls-21,.cls-22,.cls-3,.cls-7{stroke-miterlimit:10;}.cls-16,.cls-18,.cls-19,.cls-3,.cls-7{stroke-width:6.5px;}.cls-4{fill:#b4702f;}.cls-5{fill:#d9af00;}.cls-6{fill:#56303c;}.cls-13,.cls-15,.cls-7{stroke:#56303c;}.cls-8{fill:#a0d6ff;}.cls-12,.cls-17,.cls-19,.cls-9{stroke:#fff;stroke-linejoin:round;}.cls-12,.cls-13,.cls-15,.cls-16,.cls-17,.cls-18,.cls-19,.cls-20,.cls-22,.cls-9{stroke-linecap:round;}.cls-9{stroke-width:7.41px;}.cls-10{fill:#fff;}.cls-11{fill:#ffafb1;}.cls-12{stroke-width:6.87px;}.cls-13{stroke-width:3.79px;}.cls-14{fill:#e2ad00;}.cls-15{stroke-width:4.87px;}.cls-16,.cls-21,.cls-22{stroke:#a0d6ff;}.cls-17{stroke-width:7.31px;}.cls-18,.cls-20{stroke:#d9af00;}.cls-20,.cls-21,.cls-22{stroke-width:5.42px;}</style></defs><g id="CLOUDS"><path class="cls-1" d="M723.63,606.6C723.63,495.81,817,406,932.25,406s208.62,89.81,208.62,200.6Z"/><path class="cls-2" d="M503,708.11c9.3-61.75,86.32-139.67,181.84-154.4,78.64-12.13,151.25,23.34,183,57.81a99.71,99.71,0,0,1-4.54-29.79c0-61.9,56.86-112.08,127-112.08,32.59,0,62.32,10.84,84.79,28.65C1081.87,396.43,1163.31,316,1262.78,316c103.9,0,188.14,87.78,188.14,196.06a205.73,205.73,0,0,1-1.74,26.79,160.3,160.3,0,0,1,90-27.16c84.23,0,152.51,63.1,152.51,140.94a131.26,131.26,0,0,1-12.29,55.49Z"/><path class="cls-2" d="M2218.25,485.27H1775.16A96.11,96.11,0,0,1,1762,436.59q0-3.84.3-7.61a96.6,96.6,0,0,1,188.4-21.45,92.35,92.35,0,0,1,26-3.67c43.09,0,78.26,29.06,80.18,65.52,18.27-8.67,42.56-14,69.22-14C2166.48,455.42,2201.45,467.58,2218.25,485.27Z"/><circle class="cls-2" cx="1711.7" cy="457.68" r="27.59"/></g><g id="TREE"><ellipse class="cls-2" cx="2091.27" cy="940.27" rx="128.56" ry="205.13"/><line class="cls-3" x1="2086.87" y1="853.39" x2="2086.87" y2="1268.31"/><path class="cls-3" d="M2086.87,1018.75h9.8a56.08,56.08,0,0,0,56.09-56.08"/></g><g id="HOUSE"><polygon class="cls-4" points="1227.35 944.48 1227.35 1419 502.99 1419 502.99 944.62 865.17 673.12 865.43 672.93 904 701.87 1227.35 944.48"/><rect class="cls-5" x="1227.35" y="944.48" width="752.71" height="474.52"/><polygon class="cls-6" points="1980.06 944.48 1980.06 1089.56 1818.96 1089.31 1791.51 994 1227.35 961.67 1227.35 944.48 1980.06 944.48"/><rect class="cls-2" x="870.83" y="1062.39" width="190.21" height="356.61"/><polyline class="cls-7" points="864.68 1419.2 864.68 1062.39 1061.04 1062.39"/><rect class="cls-6" x="865.43" y="1062.39" width="33.51" height="356.61"/><ellipse class="cls-7" cx="932.25" cy="1279.11" rx="15.25" ry="15.06"/><path class="cls-8" d="M1999.54,944.48l-367.82-276a81.12,81.12,0,0,0-48.67-16.22H837.9l389.45,292.2Z"/><path class="cls-6" d="M865.43,672.93,503,944.62l-30.56-.08a8,8,0,0,1-4.8-14.46L837.9,652.27Z"/><line class="cls-9" x1="1223.45" y1="946.43" x2="834" y2="654.22"/><rect class="cls-10" x="591.58" y="1062.39" width="146.37" height="48.46"/><rect class="cls-11" x="591.58" y="1110.85" width="146.37" height="123.98"/><rect class="cls-6" x="591.58" y="1062.39" width="24.55" height="172.44"/><line class="cls-7" x1="737.95" y1="1110.85" x2="593.53" y2="1110.85"/><rect class="cls-10" x="1353.6" y="1062.39" width="150.76" height="172.44"/><rect class="cls-8" x="1353.6" y="1062.39" width="150.76" height="36.08"/><line class="cls-7" x1="1498.02" y1="1110.85" x2="1353.6" y2="1110.85"/><rect class="cls-6" x="1478.52" y="1062.39" width="25.84" height="172.23"/><circle class="cls-7" cx="856.12" cy="839.48" r="60.88"/><line class="cls-7" x1="856.12" y1="778.6" x2="856.12" y2="900.36"/><line class="cls-7" x1="917" y1="839.48" x2="795.24" y2="839.48"/></g><g id="MAN"><g id="LEGS"><polygon class="cls-4" points="2007.49 1283.89 1805.66 1283.89 1832.98 1112.51 1980.08 1113.06 2007.49 1283.89"/><polygon class="cls-6" points="1847.43 1123.49 1832.98 1112.51 1980.09 1113.06 1986.57 1153.45 1847.43 1123.49"/><polyline class="cls-12" points="1909.52 1282.75 1924.3 1193.07 1951.09 1187.33"/></g><g id="VEST"><path class="cls-11" d="M1953.8,1126.07h-97.07a39.66,39.66,0,0,1-39.72-36.76l-11.67-170.39a39.6,39.6,0,0,1,39.73-42.1h120.4a39.59,39.59,0,0,1,39.72,42.1l-11.66,170.39A39.66,39.66,0,0,1,1953.8,1126.07Z"/><line class="cls-12" x1="1815.96" y1="1073.94" x2="1996.41" y2="1073.94"/><line class="cls-12" x1="1813.11" y1="1009.16" x2="2003.74" y2="1009.16"/><line class="cls-12" x1="1812.85" y1="950.01" x2="2004.79" y2="950.01"/><path class="cls-5" d="M1960.8,879.63h-98.54l3.29-14.49a13.63,13.63,0,0,1,13.33-10.57h65.3a13.63,13.63,0,0,1,13.33,10.57Z"/></g><g id="HEAD"><path id="HAIR" class="cls-6" d="M1952.08,795.25c3.15,8.84-11.18,32.27-11.18,32.27l-34.52,3.26-3.22-29.41a54.44,54.44,0,0,1-16.3-5.13c-15.71-7.69-25.11-20.62-21-28.89,3.89-7.8,18.46-8.65,33.3-2.23Z"/><g id="HEAD-2" data-name="HEAD"><path class="cls-4" d="M1933.76,854.54l-1.4-5c6.28-.11,9.75-4.46,11.18-10.8l0-.09a13.9,13.9,0,0,0-10.64-16.6l-1.59-.36a14.83,14.83,0,0,0-8.24.54l-6.4,2.33c-13.55-9.79-3.58-27.08-3.58-27.08-35.15,6.72-33.17-17.92-33.17-17.92L1858,813.07a4.28,4.28,0,0,0,1.3,6l7,4.41-6,13.91c-2,4.42-2.72,6.55,2.5,10.58l20.34,6.63Z"/><path class="cls-6" d="M1866.3,823.45l8.35,4.28a20.33,20.33,0,0,1,11.08,18v8.76l-21.77-.4a8.54,8.54,0,0,1-7.44-12.56Z"/><path class="cls-6" d="M1885.2,809.92a4.15,4.15,0,0,1-5.07,2.84,4.08,4.08,0,0,1-2.18-5.35,4.15,4.15,0,0,1,5.07-2.84A4.09,4.09,0,0,1,1885.2,809.92Z"/><path class="cls-13" d="M1934.07,832.44a7.89,7.89,0,0,0-10.52,3.52"/></g><g id="CAP"><path class="cls-8" d="M1889,763.69c17.24-14.23,41.44-18.94,60,2.88,19,22.25,17,44.19-7.55,59.53Z"/><ellipse class="cls-5" cx="1973.36" cy="757.04" rx="15.14" ry="14.99"/><rect class="cls-14" x="1913.37" y="747.99" width="9.05" height="89.65" transform="translate(-66.04 1401.83) rotate(-39.52)"/></g></g><g id="HAND"><path class="cls-4" d="M1587.82,717.63a4.31,4.31,0,0,0-5.08,6.21l19.06,33.41a27.44,27.44,0,0,0,10.77,11.32l21.87,7.69a11.14,11.14,0,0,0,12.14-3.24L1662,755.18a13.43,13.43,0,0,0-1.19-17.4L1635.41,712a2.88,2.88,0,0,0-4.71,2.78l2.73,11.9a3.34,3.34,0,0,1-4.21,3.92Z"/><path class="cls-10" d="M1874.31,909.78a44.08,44.08,0,0,1-5.2,20.78c-14.44,27.15-51.62,32.09-72.78,9.66l-133-134.16a27.41,27.41,0,0,1-7.82-16.66l-.39.46-7.7-6.66a8.71,8.71,0,0,1-.91-12.3l14.89-17.25a8.72,8.72,0,0,1,12.3-.9l7.41,6.39a27.38,27.38,0,0,1,17.59,4.87l156.66,109.4A44.48,44.48,0,0,1,1874.31,909.78Z"/><path class="cls-15" d="M1709.72,849.53A27.94,27.94,0,1,1,1749,889.25"/><path class="cls-15" d="M1809.08,951.87c18.11,9.49,41.27,4.6,55.23-11.18"/></g></g><g id="BOAT"><path class="cls-8" d="M2263.53,1248.31v58.6a55.28,55.28,0,0,0-51.21-38.94l-1.61,0H2113v-19.63a19.64,19.64,0,0,1,19.64-19.65h111.28A19.64,19.64,0,0,1,2263.53,1248.31Z"/><path class="cls-6" d="M2263.53,1248.31v58.6a55.28,55.28,0,0,0-51.21-38.94v-19.66a19.64,19.64,0,0,1,19.64-19.65h11.93A19.64,19.64,0,0,1,2263.53,1248.31Z"/><path class="cls-1" d="M1611.14,1414.39H1414.39a65.25,65.25,0,0,1,0-130.5h196.75a65.25,65.25,0,1,0,0,130.5Z"/><path class="cls-2" d="M2263.53,1349.15a65.25,65.25,0,0,1-65.25,65.24H1611.14a65.25,65.25,0,0,1,0-130.5h587.14A65.25,65.25,0,0,1,2263.53,1349.15Z"/></g><g id="WATER"><path class="cls-10" d="M426.78,1397a144.6,144.6,0,0,1,83.51-26.39h.35a144.56,144.56,0,0,1,83.74,26.79l11.24,8a76.65,76.65,0,0,0,88.64,0l14-10a145.47,145.47,0,0,1,168.18,0l10.89,7.72a76.69,76.69,0,0,0,88.66,0l12.41-8.82a145.47,145.47,0,0,1,168.21,0l10.89,7.72a76.65,76.65,0,0,0,88.64,0l14-10a145.48,145.48,0,0,1,168.18,0l11.5,8.16a76.78,76.78,0,0,0,88.09.38l12.86-9a144.57,144.57,0,0,1,83.05-26.08h.64a144.56,144.56,0,0,1,83.45,26.79l11.5,8.16a76.67,76.67,0,0,0,88.64,0l14-10a145.48,145.48,0,0,1,168.18,0l10.89,7.73a76.69,76.69,0,0,0,88.66,0l12.41-8.82a145.47,145.47,0,0,1,168.21,0v189.85H426.78Z"/><path class="cls-16" d="M446.53,1429.06a111,111,0,0,1,128,.3l11.23,8a111,111,0,0,0,128.42,0l14-10a111,111,0,0,1,128.42,0l10.88,7.72a111,111,0,0,0,128.44,0l12.41-8.81a111,111,0,0,1,128.44,0l10.88,7.72a111,111,0,0,0,128.42,0l14-10a111,111,0,0,1,128.42,0l11.49,8.15a111,111,0,0,0,127.62.55l12.86-9a111,111,0,0,1,127.62.55l11.5,8.15a111,111,0,0,0,128.41,0l14-10a110.94,110.94,0,0,1,128.41,0l10.89,7.72a110.94,110.94,0,0,0,128.43,0l12.42-8.82a111,111,0,0,1,128.43,0"/><path class="cls-16" d="M446.53,1490.71a111,111,0,0,1,128,.3l11.23,8a111,111,0,0,0,128.42,0l14-10a111,111,0,0,1,128.42,0l10.88,7.72a111,111,0,0,0,128.44,0l12.41-8.81a111,111,0,0,1,128.44,0l10.88,7.72a111,111,0,0,0,128.42,0l14-10a111,111,0,0,1,128.42,0l11.49,8.15a111,111,0,0,0,127.62.55l12.86-9a111,111,0,0,1,127.62.55l11.5,8.15a110.94,110.94,0,0,0,128.41,0l14-10a110.94,110.94,0,0,1,128.41,0l10.89,7.72a110.94,110.94,0,0,0,128.43,0l12.42-8.81a110.94,110.94,0,0,1,128.43,0"/><path class="cls-16" d="M446.53,1550.41a111,111,0,0,1,128,.31l11.23,8a111,111,0,0,0,128.42,0l14-10a111,111,0,0,1,128.42,0l10.88,7.72a111,111,0,0,0,128.44,0l12.41-8.82a111,111,0,0,1,128.44,0l10.88,7.73a111,111,0,0,0,128.42,0l14-10a111,111,0,0,1,128.42,0l11.49,8.16a111,111,0,0,0,127.62.54l12.86-9a111,111,0,0,1,127.62.55l11.5,8.15a110.94,110.94,0,0,0,128.41,0l14-10a111,111,0,0,1,128.41,0l10.89,7.72a110.94,110.94,0,0,0,128.43,0l12.42-8.81a110.94,110.94,0,0,1,128.43,0"/></g><g id="GIRL"><g id="HEAD-3" data-name="HEAD"><g id="HAIR-2" data-name="HAIR"><path class="cls-6" d="M1786.23,1103.56,1772.82,1117a22.78,22.78,0,0,1-32.19,0l-11.89-11.9a33.35,33.35,0,0,1-8.24,21,33.9,33.9,0,0,1-9.21,7.34l-1.75,1-20.84,11.43-1.29-2a25.77,25.77,0,0,1-2.32-23.06c-7.26-8.53-9.73-19.36-5.42-28.35a22.32,22.32,0,0,1,9.35-9.83,39.05,39.05,0,0,1-14.19-3.88,36.69,36.69,0,0,1-14.15-11.4,28.27,28.27,0,0,1,29.43-3l19.54,9.36a33.27,33.27,0,0,1,19.06,28.56l11.92-11.92a22.76,22.76,0,0,1,32.19,0Z"/><line class="cls-17" x1="1730.44" y1="1096.26" x2="1730.44" y2="1110.85"/></g><g id="HEAD-4" data-name="HEAD"><path class="cls-4" d="M1648,1156.6l2.13-12.23a7,7,0,0,0-3.89-7.55l-9.78-4.69a9.32,9.32,0,0,1-4.38-12.42l6.1-12.74-3.18-4.57a2.81,2.81,0,0,1,1-4.1l5.15-2.77a11.76,11.76,0,0,0,5.06-5.26s0,0,0,0l6.12-12.79a28.08,28.08,0,0,1,8.3-10.23,36.69,36.69,0,0,0,14.15,11.4,39.05,39.05,0,0,0,14.19,3.88,22.32,22.32,0,0,0-9.35,9.83c-3.87,8.06-2.28,17.6,3.32,25.64a10.91,10.91,0,0,1,7-2.54,11,11,0,0,1,4.71,1.07,10.9,10.9,0,0,1,6.19,9.83,10.76,10.76,0,0,1-1.08,4.7,10.89,10.89,0,0,1-14.53,5.12l-1.26-.61a25.84,25.84,0,0,0,3.4,8.2l1.29,2Z"/><path class="cls-6" d="M1652.64,1099.73c-.93,2-.47,4.13,1,4.85s3.49-.28,4.43-2.24.48-4.13-1-4.85S1653.58,1097.77,1652.64,1099.73Z"/><path class="cls-6" d="M1656.32,1087.73c-.84.84.89,3.94,3.86,6.91s6.07,4.7,6.91,3.86-.89-3.93-3.86-6.91S1657.16,1086.89,1656.32,1087.73Z"/><path class="cls-13" d="M1685.65,1126.5s2.31-5.55,8.25-1.27"/></g></g><g id="BODY"><path class="cls-11" d="M1588.27,1283.48h156.8c-12.14-41.84-29.49-87.88-38-116a34.29,34.29,0,0,0-61-9.61Z"/><line class="cls-12" x1="1672.69" y1="1222.2" x2="1641.89" y2="1281.94"/></g></g><g id="WOMAN"><g id="BODY-2" data-name="BODY"><path class="cls-10" d="M1259.25,753.72l40.6-155.29c9.74-28.82,13.86-36.67,52-43.77l42.28-7.79c20.21,0,37.46,8.78,40.75,28.73l37.35,226.08a74,74,0,0,1-73.47,82.39h-45.48C1285,884.07,1242.72,819.94,1259.25,753.72Z"/><path class="cls-8" d="M1379.7,554.16a11.43,11.43,0,0,1-1.89-4.29l16.31-3c19.66,0,36.53,8.32,40.45,27.13l4.38,26.27Z"/></g><g id="LEGS-2" data-name="LEGS"><path class="cls-6" d="M1301.91,779.85,1411.6,670.46a68.56,68.56,0,0,1,48.4-20h26.68a68.54,68.54,0,0,1,62.4,40.18L1637,884.07H1494.82l-23.48-40.92h0a62.5,62.5,0,0,1-58.66,40.92H1345C1290.59,884.07,1263.39,818.26,1301.91,779.85Z"/><path class="cls-10" d="M1659.12,884.07a34.35,34.35,0,0,1-31.27-20.13l-9.45-20.79-78.05,24.71h0a16.21,16.21,0,0,0,16.21,16.21Z"/><path class="cls-10" d="M1601.34,884.07a34.34,34.34,0,0,1-31.26-20.13l-9.45-20.79-78.06,24.71h0a16.21,16.21,0,0,0,16.21,16.21Z"/><path class="cls-18" d="M1493.26,690.64l76.31,172.18a36.26,36.26,0,0,0,33,21.25h47.1"/><line class="cls-19" x1="1429.02" y1="750.05" x2="1483.98" y2="870.96"/><line class="cls-20" x1="1615.59" y1="858.68" x2="1628.83" y2="854.87"/><line class="cls-20" x1="1559.09" y1="860.62" x2="1574.28" y2="854.87"/><path class="cls-18" d="M1482,869c3.63,8,11.59,15.05,20.36,15.05h151.06"/></g><g id="HAND-2" data-name="HAND"><path class="cls-10" d="M1338.42,558.64h0a29.65,29.65,0,0,1,29.6,31.23l-3.74,65.07L1454,652.6l3.26,34.3-109.54,27.51a36.64,36.64,0,0,1-45.46-38.22l6.72-91.38A29.66,29.66,0,0,1,1338.42,558.64Z"/><path class="cls-21" d="M1457.25,686.9l-109.54,27.51a36.64,36.64,0,0,1-45.46-38.22l1.92-26"/><polyline class="cls-21" points="1368.02 597.79 1364.28 654.94 1453.99 652.6"/><line class="cls-21" x1="1349.19" y1="657.43" x2="1364.28" y2="654.94"/><path class="cls-4" d="M1454,650.17h30.92A17.48,17.48,0,0,1,1497,655l17,15a2,2,0,0,1-.32,3.15l-13.06,10a8.86,8.86,0,0,1-10.47-.8l-5.75-5-27.18,12.41Z"/></g><g id="HEAD-5" data-name="HEAD"><g id="HAIR-3" data-name="HAIR"><path class="cls-6" d="M1462.1,525.44c-.89,16-15.27,33.07-28.51,40.76L1381,546.34c-3.32,14.95-21.48,26.39-43.38,26.39-11.66,0-22.27-3.25-30.14-8.55a36,36,0,0,1-49.12.62l-40.75-37-.81.91a21.38,21.38,0,0,1-30.19,1.73l-5.27-4.7,4.7-5.27a21.38,21.38,0,0,1,30.19-1.73l.65.57,23.49-26.79a44.62,44.62,0,0,1,63.75-3.77l3.91,3.55,2-2.35a39.51,39.51,0,0,1,56.45-3.33l8.46,7.68a49.05,49.05,0,0,1,41.25-18.23C1443,477.59,1463.53,499.68,1462.1,525.44Z"/><line class="cls-22" x1="1216.23" y1="514.87" x2="1216.23" y2="532.64"/></g><g id="HEAD-6" data-name="HEAD"><path class="cls-4" d="M1441.49,544.49l-4.85,6.37a17.2,17.2,0,0,0-3.42,12.07l.54,5.38a1.68,1.68,0,0,1-1.76,1.83l-8.74-.52-6.91,7.63c-7.25,7-20,3.39-26-5l-9.63-14.75a17.84,17.84,0,0,1-1.83-16,11,11,0,1,1,15.44-12.41c17.51,6.3,35.66,5.3,51-3A22.65,22.65,0,0,1,1441.49,544.49Z"/><path class="cls-13" d="M1428,546.46a34.84,34.84,0,0,1-11.81-2.14"/><path class="cls-6" d="M1416,556.88a3,3,0,0,1-.34-4.52,3.74,3.74,0,0,1,4.86-.93,3,3,0,0,1,.34,4.52A3.73,3.73,0,0,1,1416,556.88Z"/><path class="cls-13" d="M1383.16,527.75c3,.65,4.79,4.22,4,8"/></g></g></g><g id="CAT"><polygon id="SHADOW" class="cls-6" points="1133.5 650.55 983.9 652.27 1057.04 707.15 1133.5 650.55"/><g id="CAT-2" data-name="CAT"><path class="cls-5" d="M1164.13,600V710.41h-94.44a29.85,29.85,0,0,1-29-29.84V611.27a7.13,7.13,0,0,0-7.13-7.13,9.57,9.57,0,1,1,0-19.13h5.72a23,23,0,0,1,23,23v66.52a18.94,18.94,0,0,0,7.47,15.09V651.13A51.17,51.17,0,0,1,1120.86,600Z"/><path class="cls-5" d="M1177.6,703.1c0,6.1-6.08,9.87-13.58,9.87s-13.59-3.77-13.59-9.87S1156.51,692,1164,692,1177.6,697,1177.6,703.1Z"/><line class="cls-13" x1="1159.01" y1="709.27" x2="1159.01" y2="710.69"/><line class="cls-13" x1="1168.45" y1="709.27" x2="1168.45" y2="710.69"/><path class="cls-4" d="M1146.88,703.1c0,6.1-6.08,9.87-13.58,9.87s-13.59-3.77-13.59-9.87S1125.79,692,1133.3,692,1146.88,697,1146.88,703.1Z"/><line class="cls-13" x1="1128.28" y1="709.27" x2="1128.28" y2="710.69"/><line class="cls-13" x1="1137.73" y1="709.27" x2="1137.73" y2="710.69"/><path class="cls-13" d="M1163.34,691.45c-7.5,0-13.58,4.95-13.58,11.06V656l8-5.47"/><path class="cls-5" d="M1149.65,626.45c-19.42,4.22-35.29,3.14-40.65-15.28q-.29-.95-.51-1.95c-.11-.67-.19-1.33-.25-2-2.09-20.51,10.23-38.38,29.69-42.6s37.73,7,43.27,26.86c.17.6.32,1.19.47,1.81,0,0,0,0,0,0,.09.65.17,1.3.23,1.93C1183.73,614.6,1169.13,622.24,1149.65,626.45Z"/><path class="cls-13" d="M1152.21,626.45c-19.42,4.22-37.85,3.14-43.21-15.28"/><ellipse class="cls-4" cx="1159.1" cy="590.99" rx="16.46" ry="17.71" transform="translate(-94.32 242.11) rotate(-11.46)"/><path class="cls-4" d="M1178.36,561.67l-.28,21.87a36.16,36.16,0,0,0-19.87-17.69L1169.6,558A5.63,5.63,0,0,1,1178.36,561.67Z"/><path class="cls-13" d="M1167.29,569.65c1.54-5.48,6.41-8.71,9.81-8.71"/><path class="cls-4" d="M1122.94,571.51a38.26,38.26,0,0,0-14.5,25.15l-9.12-21.86A5.64,5.64,0,0,1,1106,568Z"/><path class="cls-13" d="M1113.33,581c-3.55-4.44-9.29-5.53-12.43-4.21"/><path class="cls-6" d="M1133.44,598a2.88,2.88,0,1,1-3.39-2.25A2.88,2.88,0,0,1,1133.44,598Z"/><path class="cls-6" d="M1162,592.23a2.88,2.88,0,0,1-5.65,1.14,2.88,2.88,0,1,1,5.65-1.14Z"/><line class="cls-13" x1="1148.67" y1="606.6" x2="1145.59" y2="607.22"/><path class="cls-13" d="M1153.12,611.85a4.88,4.88,0,0,1-5.76-3.82"/><path class="cls-13" d="M1143.7,613.76a4.9,4.9,0,0,0,3.82-5.76"/></g></g></svg>