<svg id="Fathers_day_illustration" data-name="Fathers day illustration" xmlns="http://www.w3.org/2000/svg" viewBox="0 0 745.19 745.19"><defs><style>.cls-1{fill:#3793c9;}.cls-2{fill:#f36b64;}.cls-3{fill:#ffdf5a;}.cls-4{fill:#3b7ab5;}.cls-5{fill:#fff;}.cls-6{fill:#ffc1bb;}.cls-7{fill:#8cc3e6;}.cls-12,.cls-13,.cls-14,.cls-15,.cls-16,.cls-17,.cls-18,.cls-19,.cls-8{fill:none;}.cls-8{stroke:#fcaba7;}.cls-12,.cls-13,.cls-14,.cls-15,.cls-17,.cls-18,.cls-19,.cls-8{stroke-linecap:round;stroke-linejoin:round;}.cls-13,.cls-15,.cls-17,.cls-18,.cls-19,.cls-8{stroke-width:4.95px;}.cls-9{fill:#fcaba7;}.cls-10{fill:#336b99;}.cls-11{fill:#313163;}.cls-12,.cls-14{stroke:#f0998b;}.cls-12{stroke-width:1.65px;}.cls-13{stroke:#cc4744;}.cls-14{stroke-width:3.3px;}.cls-15{stroke:#313163;}.cls-17{stroke:#ffdf5a;}.cls-18{stroke:#a35a58;}.cls-19{stroke:#db928a;}.cls-20{fill:#f0998b;}</style></defs><path class="cls-1" d="M240.1,292.1s-14.8-8.4-16.5-22.4c-1.7-14.2,14.8-14.8,19.3-5.6,0,0,6.9-9,15.9-1.6S254.4,288.5,240.1,292.1Z"/><path class="cls-2" d="M469.3,182.5s-22.2-12.6-24.8-33.6c-2.6-21.2,22.2-22.3,28.9-8.4,0,0,10.3-13.6,23.8-2.5C511,149.2,490.9,177.1,469.3,182.5Z"/><path class="cls-3" d="M438.4,107.6s-12.9-2.3-17.7-12,7-14.5,12.6-8.9c0,0,2.7-8.3,11.2-5.2S448,101.4,438.4,107.6Z"/><path class="cls-1" d="M204.9,671.6s28.3,1.7,85.1-4.2c57.1-6,79.5-1.4,144.3,2s126.1-4,143.4-8.7-104.5-78.8-167-89.6S204.9,671.6,204.9,671.6Z"/><path class="cls-4" d="M368.8,576.1c-69,21.7-163.9,95.3-163.9,95.3s28.3,1.7,85.1-4.2c9-1,17.1-1.6,24.7-2C341.1,641.5,360.3,610.8,368.8,576.1Z"/><path class="cls-4" d="M410.8,571c-13.4-2.4-30.6,1.1-49.5,7.8,11.5,17.6,21.5,36.8,35.2,58,10.8,13.7,24.4,24.1,38.7,32.6,64.6,3.3,125.4-4.1,142.5-8.7C595.1,655.9,473.2,581.8,410.8,571Z"/><path class="cls-1" d="M665.7,523.8c-2.8-117.9-86.2-178.3-152.1-204.4-5.9-2.4-11.7-4.4-17.2-6.2-6-2-11.8-3.6-17.2-5-19.6-4.9-33.2-11.8-42.6-19.4L302.3,300.7c-4.7,4.8-11.6,9.7-21.6,13.7-9.6,3.9-31.4,14.1-57.4,30.2h0l-.1.1C161.6,383.1,76.8,455.3,79.5,557c2,76.5,61.3,111.6,125.6,114.4l-.1.1s11.3.6,34-.3h0c13.2-.5,30.3-1.7,51.2-4,2.5-.2,4.9-.5,7.3-.8,6.1-.5,11.9-1,17.4-1.4h0c40.6-2.5,65,1.2,119.7,4.1,65.1,3.4,126.5-4,143.5-8.7h0a9.44,9.44,0,0,1-.3-.9C639.3,648.2,667.4,593.2,665.7,523.8Z"/><path class="cls-4" d="M575.7,653.1h0c-7.6-24.8-20.9-68.3-33.4-111.9,5.6-5.4,6.8-14.8,6.8-14.8-38.1-132.1.9-189.6.9-189.6l-17.5-9.1a210.78,210.78,0,0,0-14.9,43.9c-5.7,25.3-26.9,44.1-52.9,45.4-45.9,2.4-119,4-190.6-3.5-33.6-3.5-57.4-34.8-50.8-67.8.1-.3.1-.6.2-1l-14.7,12.4s-7.2,166.8,8.2,207.8c7.1,18.9,13.6,53,18.7,84.4,1.2,7.6,2.4,15.1,3.3,22.1,13.2-.5,30.3-1.7,51.2-4,57.1-6,79.5-1.4,144.3,2,65.1,3.4,126.5-4,143.5-8.7h0C577.3,658.4,576.6,655.8,575.7,653.1Z"/><path class="cls-5" d="M453.8,299.2A69.52,69.52,0,0,1,433,339.9a41.46,41.46,0,0,1-62-4.6c-4.6-6.1-8.2-10.6-8.2-10.6h0c-13.8,25.6-49.2,29.5-68,7.4A74.66,74.66,0,0,1,283,313.5c8.9-3.9,15.1-8.4,19.4-12.8l134.2-12A81.66,81.66,0,0,0,453.8,299.2Z"/><path class="cls-6" d="M414.7,223.3a61.42,61.42,0,0,1-7.2-5c-20.1-16.2-25.8-42.5-34.7-56.9-10.2-16.4-23.5-18.7-36.7-11.7-12.2,6.4-39.7,38.4-84.2,38,4.3,13.4,8.4,24.9,11.9,34.7,2.8,7.5,5.4,14,7.7,19.3a201.26,201.26,0,0,0,9.3,19.5c.9,1.4,1.5,2.5,2,3.1,8.4,11.1,18,18.5,28.2,22.6a9.09,9.09,0,0,1-.8,1.8c34.6,15.7,78.5,7,112.9-15.7-7.7-13.5-7.6-27.7-8-38.4C414.9,230.7,414.8,226.8,414.7,223.3Z"/><path class="cls-7" d="M436.2,288.3a20,20,0,0,1-1.6-1.4,6.81,6.81,0,0,1-1.2-1.2,2.76,2.76,0,0,0-.8-.6,17.88,17.88,0,0,1-1.3-1.4l-.4-.4c-.4-.4-.8-.9-1.2-1.3a47.37,47.37,0,0,1-6.5-9c-34.4,22.6-78.3,31.3-112.9,15.7a37.15,37.15,0,0,1-4.1,7.4h0c-.8,1.1-1.6,2.1-2.6,3.3a12,12,0,0,0-1,1.1l-.2.2c4.3,6.3,21.4,25.5,65.9,23.7,40.7-1.6,63.3-28.9,68.4-35.7C436.5,288.6,436.4,288.4,436.2,288.3Z"/><path class="cls-3" d="M414.7,223.3a61.42,61.42,0,0,1-7.2-5c-20.1-16.2-34-24.3-42.9-38.5-10.2-16.3-15.2-37-28.4-30-12.2,6.4-39.7,38.4-84.2,38h-.1c-6.8-.2-25.9-2.4-32.7-25.5-6.3-21.2,14.4-20.8,15.8-33.8,2.6-24.6,5.6-37.7,49.8-45.1,28.7-4.7,35.3-11.7,60.5-9.3,26.4,2.5,71.9,17.9,69.5,98.4,0,0-.1,2.1-.2,6.1v.5C414.3,186.9,414.1,202.2,414.7,223.3Z"/><path class="cls-6" d="M402.6,190.8c-.6,10.9-9.4,19.4-19.7,19.1s-18.2-9.4-17.7-20.3,9.3-19.6,19.7-19.2C395.2,170.6,403.1,179.8,402.6,190.8Z"/><path class="cls-8" d="M388.6,179.7s-8.5-.3-8.8,7.1c-.3,7.1,6.9,7.1,6.9,7.1a7.53,7.53,0,0,1-4.1,6.9"/><path class="cls-9" d="M367.9,218.7a11.2,11.2,0,0,1-11.6,10.5,10.87,10.87,0,0,1-10.5-11.3,11.36,11.36,0,0,1,11.6-10.6A10.88,10.88,0,0,1,367.9,218.7Z"/><path class="cls-9" d="M287.5,251.5a10.91,10.91,0,0,1-6.8,9.7,201.26,201.26,0,0,1-9.3-19.5,10,10,0,0,1,5.5-1.3A10.77,10.77,0,0,1,287.5,251.5Z"/><path class="cls-5" d="M483.9,449.7c-20.7,3.6-46.7,3.1-58.9,2.5a6.74,6.74,0,0,1-6.5-7.3h0a6.84,6.84,0,0,1,7-6.4c11.6.2,36.5.2,56.6-2.5a6.84,6.84,0,0,1,7.7,6.7v.2A7.12,7.12,0,0,1,483.9,449.7Z"/><path class="cls-10" d="M482.3,550.8s47.8,6.9,38.2-36.7c-9.7-44.2,32.5-14.5,28.5,12.1C545.2,552.8,510.9,557.2,482.3,550.8Z"/><path class="cls-11" d="M455.8,641.3c-14.4,10.6-33.5,16-52.1,14.8,8.4,7.1,16.5,12.4,23.9,12.9,21.4,1,37.2-1,44.5-5C478.5,660.4,467.8,655.3,455.8,641.3Z"/><path class="cls-6" d="M455.8,641.3c-2.3-2.7-4.5-5.6-6.8-8.9-1.6-2.3-3.9-6.2-6.8-11.1-10.6,17.1-26.9,24.4-45.5,28.7,2.4,2.1,4.6,4.2,7,6.1C422.4,657.3,441.4,651.9,455.8,641.3Z"/><path class="cls-11" d="M442.3,621.4c-7.3-12.2-18.9-30.9-33.9-47.5-15.5-17.1-68.6-17.9-92.5-11.2L300.8,633s37.3-11.2,57.1-10.4c11.2.4,25.1,14.8,39.1,27.4C415.4,645.7,431.7,638.5,442.3,621.4Z"/><path class="cls-2" d="M408.7,336.7c-8.5-3.9-17.9-5-30.2-2.8-3.8,8.3-9.7,18.1-19.4,29.8-25.2,30.4-75.6,44.1-116.2,43.1-22.4,17.6-48.1,29.6-67.5,48.4,3,3.3,4.9,5.3,4.9,5.3s-4.3,14.7-8.6,35.1c-3.8,17.9-7.6,40.1-8.7,60.9,8.6,11.8,25.3,26.7,57.4,32.6,56.7,10.4,109.9-18.8,112.7-30.7s-4.2-43.7-4.2-43.7c-.8-8.9-.8-32.5,33.1-69.3C391.3,413.7,404,366.1,408.7,336.7Z"/><path class="cls-11" d="M444.3,499.1c-20.3-3.4-52.6-9.8-86.2,2.4-8.9,3.2-29.2,13.3-29.2,13.3s7,31.8,4.2,43.7-56,41.1-112.7,30.7c-32.1-6-48.8-20.8-57.4-32.6-1.9,35.4,9.3,71.7,56.7,87.9,90.3,31,145-60.9,162.8-85.1,12-16.5,29.9-20.7,51.7-18.4C442.8,527.9,446.9,513.1,444.3,499.1Z"/><path class="cls-6" d="M491.5,504.2c-.5-19.3-16.5-3.4-32.6-3.3-3.6,0-8.6-.8-14.6-1.8,2.6,14.1-1.4,28.8-10.1,41.7a180.48,180.48,0,0,1,23.2,4.4,18.65,18.65,0,0,0,19.5-6.8C483.5,529.5,491.8,515.8,491.5,504.2Z"/><path class="cls-6" d="M458.8,500.9c-3.6,0-8.6-.8-14.6-1.8,2.6,14.1-1.4,28.8-10.1,41.7,3.9.4,7.9,1.1,12.1,1.9,10.8-12.8,19.9-24.7,22.1-43.5A29.13,29.13,0,0,1,458.8,500.9Z"/><path class="cls-11" d="M491.5,504.2c-.4-15.3-10.7-8.5-23.1-4.9-2.3,18.8-11.3,30.7-22.1,43.5,3.6.8,7.3,1.5,11.2,2.5a18.65,18.65,0,0,0,19.5-6.8C483.5,529.5,491.8,515.8,491.5,504.2Z"/><path class="cls-6" d="M408.6,336.6a234.91,234.91,0,0,0,2.7-25.1c0-5.4-.8-5.9-.8-5.9-.5-5.9-2.9-6.9-2.9-6.9-.9-4.7-3.6-4.3-3.6-4.3s-.2-3.5-3.4-3.6-5.2,25.2-8,24.6,1.1-13.7-4.9-12.4c-4.3,1,0,10.9-9.1,31C390.7,331.7,400.2,332.9,408.6,336.6Z"/><path class="cls-12" d="M404.1,294.4a47,47,0,0,1-1,18.1"/><path class="cls-12" d="M407.7,298.7a37.94,37.94,0,0,1-.5,15.1"/><line class="cls-13" x1="180.4" y1="460.6" x2="184.2" y2="443.5"/><path class="cls-6" d="M278.7,660.6c25.5-8.8,48.7-22.8,65.5-41.4,3.3-3.6,13.4-15.9,6.7-18,0,0,2.6-8.7-6.8-7.6a4.91,4.91,0,0,0-3.6-5.8c-4.7-1.3-8.5,2.8-8.5,2.8s-.2-4.1-4.1-4.3-14.1,9.2-20.5,10.3,4.7-10.1-1.6-13.5c-2.5-1.3-10.1,8.4-19.1,15.3-7.1,5.6-23.1,8.7-41.3,8.2C244.4,631.3,258.6,649.9,278.7,660.6Z"/><path class="cls-6" d="M330.4,566.4s10.5-7.5,22.9-28c11.1-18.7,11.7-29.8,11.7-29.8h0s-23.8-14.8-30.9-21.5c0,0-5.4,4.6-29.3-10.2s-36-18.7-39.8-15.9a5.08,5.08,0,0,0-1.5,6.8s-5.3-2-8.6,0-.2,7.9-.2,7.9-4.5-2.1-7.3,1,1.5,8.2,1.5,8.2-7.6-.3-4.5,6.4c2.7,6.6,34.1,40.5,86,75.1Z"/><path class="cls-1" d="M91.8,487.6A176.51,176.51,0,0,0,79.5,557c2.8,105.9,115.3,132.5,199.1,103.7-20.2-10.7-34.3-29.2-33.5-54.1-14.7-.4-30.7-3.1-44.9-8.9-17.3-7.1-31.7-18.7-36.6-36.1C135.3,541.3,112.5,515.6,91.8,487.6Z"/><path class="cls-7" d="M245,606.6a143,143,0,0,1-23-2.5c-4.1,24.3,3.8,47.8,20.1,65.4a195.22,195.22,0,0,0,36.4-8.8C258.5,650,244.2,631.4,245,606.6Z"/><path class="cls-1" d="M638.4,624.3c-28.2,36.5-78.8,51-154.3,26-24-7.9-50.8-20-80.4-36.7a825.29,825.29,0,0,1-73.4-47.2s10.5-7.5,22.9-28c6.7-11.2,9.4-19.5,10.7-24.6a27.66,27.66,0,0,0,1-5.3s2.5,1.4,6.9,3.5c25.2,12.7,113.8,54.1,159,36.6,15.2-5.9,19.4-17,18.6-28.5C584.7,548.8,620.6,583.3,638.4,624.3Z"/><path class="cls-7" d="M371.7,512c-4.4-2.1-6.9-3.5-6.9-3.5a47.65,47.65,0,0,1-1,5.3c-1.3,5-4.1,13.4-10.7,24.6-12.3,20.6-22.9,28-22.9,28,8.5,6.1,16.8,11.8,25,17.3a193.06,193.06,0,0,0,38.2-61.3C384.2,518.2,376.6,514.5,371.7,512Z"/><path class="cls-14" d="M350.7,601.2a70.59,70.59,0,0,1-19.5,20.1"/><path class="cls-14" d="M343.9,593.5c0-.1-2.7,7.6-22.6,22.2"/><path class="cls-14" d="M331.8,590.6s-1.6,6.4-19.7,16.7"/><path class="cls-15" d="M393.5,522.3c37,16.5,101,40.4,137.3,26.3,15.2-5.9,19.4-17,18.6-28.5"/><path class="cls-14" d="M263.2,467.6S277.8,478,296,489.2"/><path class="cls-14" d="M254.4,475.6s25.6,20.5,33.3,24.3"/><path class="cls-14" d="M248.6,484.8s21.2,18.8,31.2,26"/><path class="cls-16" d="M202.9,443.1a34.31,34.31,0,0,1-12.3-5.4"/><path class="cls-8" d="M295.1,204.6c3.9,13.2,7.9,28,10.6,37.7a9.17,9.17,0,0,0,12.9,5.9l7.1-3.3"/><path class="cls-17" d="M285.3,202.2a23.47,23.47,0,0,0-11.5.3"/><path class="cls-17" d="M316.2,190.8a18.79,18.79,0,0,1,11.5-11.1"/><path class="cls-18" d="M324.3,261.3s18.6-2.7,27.7-24.8"/><path class="cls-18" d="M290.4,220.4s-7.8-4.4-11.6,3.1"/><path class="cls-18" d="M339.6,199.2s-10.7-3.3-13.2,7.1"/><path class="cls-6" d="M101.8,622.2c3.6,5.7,5.2-5.7,5.2-5.7s-1.2,12.6,2.9,10.1,5.3-10.5,5.3-10.5-1.2,7.2,1.8,7.3,4.3-5,4.3-5-.2,4.6,3,2.9,5-18.1,10.4-31.2c-11.6-.9-23.1-3.1-34.1-7.8C97.2,604.4,100,619.3,101.8,622.2Z"/><path class="cls-2" d="M216.9,483.7l-15-31.1s-48.1,4.9-79,59c-12.1,21.2-19,48.3-22.3,70.5a105.55,105.55,0,0,0,34.1,7.8C153.6,528.7,216.9,483.7,216.9,483.7Z"/><path class="cls-12" d="M106.9,616.5s.9-8.5,1.2-10.9"/><path class="cls-12" d="M115.2,616s1-8,1.6-9.9"/><path class="cls-12" d="M121.2,618.2s1.9-10.6,2.9-11.7"/><path class="cls-6" d="M134.7,590s-1.1,4.5,1.5,13.4c2.3,7.6-1.5,8.9-7.4.1S131.2,590.1,134.7,590Z"/><path class="cls-13" d="M180.4,460.6s-4.3,14.7-8.6,35.1c-3.8,17.9-7.6,40.1-8.7,60.9"/><path class="cls-3" d="M240.9,433.9c-12.1,9.4-23.8,9.8-32.2,7.8-6.8-5.3-13.6-10.6-21.4-14.3-18.1-8.3-32.6-27.4-35.1-51a.31.31,0,0,1-.1-.2c-5.2-42.9,40.6-75.1,83.4-61.7,21.6,10.8,9.3,41.7,10.5,55.5S258.2,420.4,240.9,433.9Z"/><path class="cls-6" d="M286,383.3c-1.6,12.6-5.6,22.2-11.7,29.6v.1a24.86,24.86,0,0,0-.5,4.3,22.51,22.51,0,0,1-5.8,14.1c-13.5,14.6-40.5,24.9-58,11.3a11.32,11.32,0,0,1-1.3-1c8.4,1.9,20.1,1.6,32.2-7.8,17.4-13.6,6.2-50.3,5-63.9s11.1-44.6-10.5-55.5c2.5.8,4.8,1.7,7.3,2.7,18.2,8.2,36.9,33.9,38.4,37.3C285.3,364.1,287.1,374,286,383.3Z"/><path class="cls-9" d="M278,354.4c2,4.4,1,9.1-2.5,10.5s-7.8-1.1-9.9-5.5-1-9.1,2.5-10.5S276,350,278,354.4Z"/><path class="cls-6" d="M261.6,375.4a13,13,0,0,1-13.7,12.4,13.31,13.31,0,0,1-13.1-13.3,12.9,12.9,0,0,1,13.7-12.4A13.12,13.12,0,0,1,261.6,375.4Z"/><path class="cls-19" d="M242.6,377.1s-.9-6.3,4.7-6.8,4.1,7.1,4.1,7.1,1.5,3,5.3,1"/><path class="cls-3" d="M151.8,367s3.1,29.4-13.3,70.3c-8.7,21.7-7,62.8,41.2,78.6,55.2,18,100.7-25.8,91.2-68.8-9.7-43.6-23-59.3-23-59.3s-28.1,9.7-46.5-7.4C182.9,363.1,156,354.6,151.8,367Z"/><path class="cls-20" d="M385.5,264.2c-1.3,7.6-5.3,20.8-17.2,30.9-20.2,3.4-40.4,1.7-58.1-6.3a9.82,9.82,0,0,1,.8-1.8s19.7,10.6,46,1.5C364.3,285.8,376.3,278.3,385.5,264.2Z"/></svg>