<svg id="Fathers_day_illustration" data-name="Fathers day illustration" xmlns="http://www.w3.org/2000/svg" viewBox="0 0 745.19 745.19"><defs><style>.cls-1{fill:#313163;}.cls-2{fill:#28284f;}.cls-3{fill:#fff;}.cls-4{fill:#ffcfae;}.cls-5{fill:#3793c9;}.cls-10,.cls-11,.cls-15,.cls-17,.cls-20,.cls-21,.cls-23,.cls-6,.cls-7{fill:none;stroke-linecap:round;stroke-linejoin:round;}.cls-10,.cls-20,.cls-23,.cls-6,.cls-7{stroke:#dda992;}.cls-11,.cls-15,.cls-6{stroke-width:4.89px;}.cls-7{stroke-width:3.26px;}.cls-8{fill:#f0998b;}.cls-9{fill:#564239;}.cls-10{stroke-width:5.23px;}.cls-11{stroke:#564239;}.cls-12{fill:#fcaba7;}.cls-13{fill:#cc4744;}.cls-14{fill:#f97d7c;}.cls-15{stroke:#1f1f3d;}.cls-16{fill:#1f1f3d;}.cls-17{stroke:#f0998b;stroke-width:1.71px;}.cls-18{fill:#f36b64;}.cls-19{fill:#d14747;}.cls-20,.cls-21{stroke-width:5.18px;}.cls-21{stroke:#473135;}.cls-22{fill:#473135;}.cls-23{stroke-width:3.78px;}</style></defs><path class="cls-1" d="M508.34,403.32c-89.28-80.9-174.57-52.87-174.57-52.87a179.15,179.15,0,0,0-43,20c-33.24-5-66.27,2.76-66.27,2.76S36.89,437.06,25.23,583.2c-6.95,87.34,74.45,117.4,166.08,108.3,22.4-.71,56.35-1.63,105.13-2.45,58.09-.82,113.82-3.38,161.38-8.49A596.33,596.33,0,0,0,520.2,671a220.52,220.52,0,0,0,32.32-8.8c.61-.2,1.33-.41,1.84-.61s.81-.31,1.22-.41a124,124,0,0,0,21.79-10.53,67.86,67.86,0,0,0,19.12-17.08C637.19,578.4,597.62,484.31,508.34,403.32Z"/><path class="cls-2" d="M149.18,551.4s-10.23-11,3.27-28.74,41.32,34.47,46.23,35.18S162.88,565.2,149.18,551.4Z"/><path class="cls-2" d="M491.36,505.69a438.92,438.92,0,0,1-47.55,76.8A449,449,0,0,1,346,676.16c-6.85,4.81-13,8.9-18.51,12.27-10.23.31-20.66.41-31.09.62-52.77.82-88.15,1.84-110.24,2.55,14.83-3,40.8-15.54,71.48-33C302,633.31,356.27,598,401.26,567.76,451.17,534.22,489.72,506.71,491.36,505.69Z"/><path class="cls-3" d="M548.53,596.6c-21.78-3.17-40.81-16.77-48.27-38.86C495,591,519.89,621.55,553.74,623.5c.51,0,1.23.1,1.74.1a57.57,57.57,0,0,0,60.24-50.42c.51-4.5.71-9.31.81-14.62C601.09,582,578.7,598.34,548.53,596.6Z"/><path class="cls-4" d="M604.16,438.8c-15.75-117.19,17.59-91.32,21.17-103.39s-11.86-13.91-33.44-12.47-55.94-3.38-74.45,6.34c-28.74,14.93-4.3,45.81-1.84,113.1,1.74,47.15-10,87-15.14,113.21l-.3,2.15c7.46,22,26.59,35.69,48.27,38.86,30.16,1.74,52.56-14.52,68-38.15C616.94,530.13,611,489.63,604.16,438.8Z"/><path class="cls-4" d="M437.88,309c-12.69,16.05-13.5,41.21-5.32,84.67,9.92,53.28,2.35,88.06,11.66,97.36s44.38-5.32,54.3-33.44c9-25.57-3.17-88.36,3.48-107.79C491.36,321.71,469,298.7,437.88,309Z"/><path class="cls-5" d="M632.59,322.42c16.06-6.44,35.08-7.15,46.74,5.22-5.12-31.29-25-40.91-38.15-60.13a54.59,54.59,0,0,1-4-6.75c-54.1,18.41-111.06,27.61-168,16.05-2.86,7.67-8.39,14.12-21,22.6a52.79,52.79,0,0,0-10.53,9.52c31.09-10.33,53.49,12.78,63.92,40.8a10.13,10.13,0,0,1,2.45-4.3c11.66-11.14,68.83-24.54,92.86-13.6a20.58,20.58,0,0,1,10.84,10.95A74.71,74.71,0,0,1,632.59,322.42Z"/><path class="cls-3" d="M198.68,557.94a214.69,214.69,0,0,1-34.47.51v.11c-28.94,33.23-39.57,95.92-21.06,134a312.77,312.77,0,0,0,40.19-.31C169.73,648,165.75,590.16,198.68,557.94Z"/><path class="cls-6" d="M559.06,328.46s-7.77.61-10.94,7.67"/><path class="cls-4" d="M507.62,446.27c.21-.82,2.15-18.41-4.09-20.25-6.75-2-11.15,19.12-12.07,21.58.41-2.87,6.14-28.53-.41-35-9.1-8.69-14.52,16.06-16.56,22.91,0,0,2.35-19.23-4.6-21.78-11.46-4.3-5.73,22.91-23.63,35.08-4.5,3.06-8.38-16.26-14.62-14.32-5.12,1.63-2.35,13.6-7.26,25.05-2.15,5.12-30.79,27.21-72.51,49.3-42.13,22.29-97.66,44.48-153,49.19-33,32.21-28.94,90.09-15.54,134.27,58.19-4.5,121.49-25.26,169.66-57.27,144.8-96.23,156.05-147.57,161.47-183.57C516.21,438.39,508.44,445.45,507.62,446.27Z"/><path class="cls-7" d="M503.43,426c-6.75-2-11.15,19.12-12.07,21.58.41-2.87,6.14-28.53-.41-35-9.1-8.69-14.52,16.06-16.57,22.91,0,0,2.36-19.23-4.6-21.78-11.45-4.3-5.72,22.91-23.62,35.08-4.5,3.06-8.39-16.26-14.62-14.32"/><path class="cls-7" d="M474.38,435.43s-3.57,16.16-10.94,26.79"/><path class="cls-7" d="M491.36,447.5s-3.48,17.59-10.53,25.56"/><path class="cls-7" d="M507.62,446.27s-4.09,20.76-10.12,33"/><path class="cls-4" d="M225.26,353.31l10.23,42.23c4.09,17.29,15.24,31.91,30.27,38.46,11.46,5,27.1,7.16,47.66,1.63,29-7.87,39.27-23.31,42.54-36a43.63,43.63,0,0,0-1.53-25.06l-17.49-49.39C336.84,325.08,238.46,308.82,225.26,353.31Z"/><path class="cls-8" d="M256.15,362.62c19.63,41.82,59.11,45.61,98.48,41.31a41,41,0,0,0-.1-29.55l-.1-.31A104.87,104.87,0,0,1,256.15,362.62Z"/><ellipse class="cls-9" cx="329.99" cy="238.46" rx="46.63" ry="60.64"/><path class="cls-4" d="M362.81,223.43c18.82,37,42.85,105.34,5.12,147.06C324.05,418.76,240.3,407.71,213.61,318c-29.05-97.77,2.76-124.66,40.08-136.43C291.84,169.64,343.89,186.21,362.81,223.43Z"/><path class="cls-9" d="M230.28,372s-1.95-29.65-9.62-46.53,28.13-26.28-.61-76.39c0,0,5.32-27.31,42.85-26.38s66.88-12.58,72.3-30.68c9.2-30.89-45.3-58.6-96.95-38.15-15.75,6.34-17.48,34.16-27.61,43.57-22.91,21.16-31.29,48.78-26,75.67C192.44,311.79,230.28,372,230.28,372Z"/><path class="cls-4" d="M227.11,309.33c5.21,14.53,2.25,28.84-6.55,32s-20-6-25.26-20.55-2.25-28.84,6.55-32S222,294.92,227.11,309.33Z"/><path class="cls-10" d="M202.15,312.2s-.51-9,4.81-8.08,6.95,11.15,5.93,15.54,4.7,6.65,7.67,5.83"/><path class="cls-6" d="M330,253.29l14.82,28.54c0,.1.11.1.11.2,4.5,8.9-3.69,19-13.5,17.49l-1.54-.21"/><path class="cls-11" d="M283.05,249.2s-10.85-3.88-20.15,4.09"/><path class="cls-11" d="M333.77,238.46s4.29-8.18,12.48-7.67"/><path class="cls-12" d="M279.47,311.18a12,12,0,0,1-12.58,11.45,11.76,11.76,0,0,1-11.46-12.27A12,12,0,0,1,268,298.9,11.83,11.83,0,0,1,279.47,311.18Z"/><path class="cls-11" d="M285.7,272.42s-8.38-8.59-14.72,4"/><path class="cls-9" d="M287.44,272.52a4.79,4.79,0,0,1-2,6.44,4.64,4.64,0,0,1-6.14-2.55,4.8,4.8,0,0,1,2.05-6.45A4.68,4.68,0,0,1,287.44,272.52Z"/><path class="cls-11" d="M353.1,252.07s-6.75-8.39-13.09,4.29"/><path class="cls-9" d="M354.53,252.47a4.8,4.8,0,0,1-2,6.45,4.63,4.63,0,0,1-6.13-2.56,4.79,4.79,0,0,1,2-6.44A4.68,4.68,0,0,1,354.53,252.47Z"/><path class="cls-13" d="M333.46,334.9a47,47,0,0,0-.82-14.11c-3.88,1.84-10.53,3-21.37,1-13.91-2.45-14.21,6.85-8.79,15.24C312.09,333,323.54,334.29,333.46,334.9Z"/><path class="cls-14" d="M302.37,337c4.81,7.26,13.81,13.7,22.5,10.73,5.83-2,8.08-7.36,8.69-12.68C323.54,334.29,312.09,333,302.37,337Z"/><path class="cls-12" d="M386.23,292.67a13.61,13.61,0,0,1-5.42,1.12,11.74,11.74,0,0,1-11.45-12.27,12.08,12.08,0,0,1,11.86-11.46A206.72,206.72,0,0,1,386.23,292.67Z"/><path class="cls-4" d="M679.43,327.64c-11.86-12.37-30.68-11.66-46.74-5.22a71.16,71.16,0,0,0-24.54,20.46c6.44,15.64-4.5,40.7-10.84,57.37-8.39,21.58-24.55,27.61-18.1,52.46s28.84,54.82,43.87,52.77,12.48-32.52,18.31-47.35,41.52-83.65,39.06-122C680.25,333.16,679.84,330.4,679.43,327.64Z"/><path class="cls-1" d="M585.24,421.21c-5.73,8.7-10,16.78-6,31.6,6.44,24.85,28.84,54.82,43.87,52.77,10.64-1.53,12.48-17.28,14.62-31.6-11.86,21.17-29.65-11.35-39.06-20.86C590.87,445.45,586,435.33,585.24,421.21Z"/><path class="cls-2" d="M577.47,650.39a126.67,126.67,0,0,1-21.78,10.54,3.55,3.55,0,0,1-1.23.4c-.51.21-1.23.41-1.84.62a243.29,243.29,0,0,1-32.32,8.79,598.84,598.84,0,0,1-62.38,9.62c.41-.72.72-1.54,1.12-2.25,14.83-30.68,6.14-71.59,5.53-74.56,1.22,2.77,18.71,43,52.77,53.59a72.38,72.38,0,0,0,42.85.41,64.08,64.08,0,0,0,17.28-7.87Z"/><path class="cls-15" d="M164.21,558.56s-14.62-2.87-18.2-11.76"/><line class="cls-15" x1="317.92" y1="435.43" x2="329.99" y2="479.3"/><path class="cls-15" d="M584.53,645.59s-82,58.9-126.71-57.48"/><path class="cls-16" d="M341.44,441.36a2.6,2.6,0,0,1-2.56,2.56,2.56,2.56,0,1,1,2.56-2.56Z"/><path class="cls-4" d="M508.54,135.89s-53.79,31.29-76.08,38.56C408,182.52,363.84,181,334.38,183c-29.65,2-33.34,14.82-29.55,17.38s11.14,0,11.14,0-4.7,5.63-1.53,7.16,12.27-1.23,12.27-1.23a4.71,4.71,0,0,0-1.33,5.93c1.84,3.58,10-1.73,15.65-3.27s9,1.84,5.62,4.5-1.84,8.59,9.62,5.52,15.64-1,38.14,2.15,51.24.82,69.34-4.91c31.19-10,48.58-28.12,52.87-39.47S508.54,135.89,508.54,135.89Z"/><path class="cls-17" d="M316,200.32a23.24,23.24,0,0,1,9.92-7.77,33.71,33.71,0,0,1,12.17-2.36"/><path class="cls-17" d="M326.71,206.46s3.48-5.42,7.06-6.75a46.17,46.17,0,0,1,9.51-1.85"/><path class="cls-17" d="M314.54,207.58c3.17,1.53,12.28-1.23,12.28-1.23a4.7,4.7,0,0,0-1.33,5.93c1.84,3.58,10-1.73,15.64-3.27s9,1.84,5.63,4.5-1.84,8.59,9.61,5.52"/><path class="cls-18" d="M637.4,260.66c-10.95-21.28-13.91-53-17.7-79.26-4.09-29.15-23.72-43.87-59.1-43.87S455.06,138,467,196.74c2.87,14.11,9.1,36,6.44,57.37-1.22,9.41-1.84,16.26-4,22.4C526.34,288.37,583.2,279.17,637.4,260.66Z"/><path class="cls-19" d="M619.7,181.6q-3.53-25-22.29-35.69c-.72-.41-7.26,1.84-9.1,4.3-31.09,40.29,35,79.87,13,101.75a131.12,131.12,0,0,1-35,26.49c24.14-3.58,47.76-9.82,71-17.69C626.45,239.38,623.39,207.78,619.7,181.6Z"/><path class="cls-4" d="M557.83,132.41c1.64,18.92-11.14,35.49-27.71,38.15-15.85,2.45-30.78-8.69-34.05-25.87-3.48-18.1,7.26-37,24.74-41.32C539.12,98.87,556.2,112.37,557.83,132.41Z"/><path class="cls-8" d="M542.19,134c-8.9,16.16-26.18,22.91-43,19.94a31.9,31.9,0,0,0,7.46,9.61C520.92,159.82,534.21,150.82,542.19,134Z"/><path class="cls-4" d="M567.45,73.2c5.83,38.35-6.34,76.29-44.18,85.7-26.28,6.65-61.67-6.65-61.67-51.34,0-54.61,3.48-65.14,36.2-72.2C539.73,26.57,563.25,45.49,567.45,73.2Z"/><path class="cls-20" d="M485.12,114.82a6.54,6.54,0,0,0,5.93,4"/><path class="cls-14" d="M507.62,140.19c2.76,2.76,6.55,4.5,10.94,2.76a11.52,11.52,0,0,0,7.16-8.18A40,40,0,0,0,507.62,140.19Z"/><path class="cls-13" d="M505.37,129.24c-1.74-.1-2,2.87-1.63,4.5a14.4,14.4,0,0,0,3.78,6.55,40.42,40.42,0,0,1,18.1-5.42c1.43-4.81,1.33-8.08-.72-9.2C519.59,122.39,519.18,130.37,505.37,129.24Z"/><path class="cls-21" d="M479.4,102.25s-4.09-3.79-6.65,0"/><circle class="cls-22" cx="475.31" cy="102.55" r="3.17"/><path class="cls-21" d="M480.32,84.66s-4-3.48-8.59-2"/><path class="cls-21" d="M523.06,81.49s-4.7-2.25-9.3,2.35"/><path class="cls-21" d="M522,101.73s-4.09-3.78-6.65,0"/><circle class="cls-22" cx="518.05" cy="102.04" r="3.17"/><path class="cls-9" d="M527.56,56.64s.41,5.82,15.85,14.82c9.82,5.73,0,10.84,8.29,23.63,5.62,8.79,5.42,11.66,6.44,39.68,0,0,16.77-13.2,22.91-31.71,7.16-21.47,3-69.33-43.46-78.13-14.63-2.76-80.79-.3-77.11,34.36C462.83,82.1,499.75,56.23,527.56,56.64Z"/><path class="cls-4" d="M572,106c-2.15,7.47-9.82,12-16.78,9.92-7.15-2-11-9.92-8.89-17.39s9.82-12,16.77-9.92S574.09,98.56,572,106Z"/><path class="cls-9" d="M537.48,25.14a77.69,77.69,0,0,1-15.64-3.48c-9-3-21.79-8.59-39-.72-18.3,8.39-30.17,35.29-20,45.1C470.6,73.2,537.48,25.14,537.48,25.14Z"/><path class="cls-23" d="M565,98.36s-1.94-3.78-4.7-1.43.31,6.34,0,7.26c-.31,1.12-3.27,3.17-4.6,2.35"/><path class="cls-4" d="M726.06,262s3.38,3.68,1.74,6.34c-1.43,2.25-7.77-.62-9-1.23.72.51,3.38,2.45.72,4.6s-8.49-1.74-9.41-2.35c.41.41,1.84,1.94-.51,3.07-2.76,1.33-14.12-7.88-16.47-8.08s4.09,3.37,1.23,6c-1.84,1.74-10.53-1.74-16.57-10.43s-51.44-41.21-69.85-50-27-21.17-27.3-38.14c-.31-16.67,7-26.49,17.79-25.47,9.11,3.48,26.39,15.44,39.17,24.44,35.18,24.75,73.33,60.44,88.67,79.26C741.4,268.63,728,263.52,726.06,262Z"/><path class="cls-17" d="M710.11,269.14s-6.55-8.48-9.21-10.43"/><path class="cls-17" d="M718.8,267s-8.59-11.35-10.23-12.48"/><path class="cls-17" d="M726.06,262s-7.26-10.64-9.82-12.89"/></svg>