<svg id="_ëîé_1" data-name="‘ëîé_1" xmlns="http://www.w3.org/2000/svg" xmlns:xlink="http://www.w3.org/1999/xlink" viewBox="0 0 2706.01 1894.21"><defs><style>.cls-1,.cls-10,.cls-13,.cls-14,.cls-15,.cls-17,.cls-19,.cls-20,.cls-21,.cls-22,.cls-23,.cls-7,.cls-8{fill:none;}.cls-2{fill:#d9af00;}.cls-3{fill:#ede0c4;}.cls-4{fill:#56303c;}.cls-5{clip-path:url(#clip-path);}.cls-6{fill:#a0d6ff;}.cls-7,.cls-8{stroke:#ede0c4;stroke-linejoin:round;}.cls-10,.cls-22,.cls-7{stroke-width:3.79px;}.cls-13,.cls-14,.cls-15,.cls-17,.cls-21,.cls-8{stroke-width:4.33px;}.cls-9{fill:#f5efd9;}.cls-10,.cls-17,.cls-20{stroke:#56303c;}.cls-10,.cls-15,.cls-17,.cls-20,.cls-21,.cls-22,.cls-23{stroke-linecap:round;}.cls-10,.cls-13,.cls-14,.cls-15,.cls-17,.cls-19,.cls-20,.cls-21,.cls-22,.cls-23{stroke-miterlimit:10;}.cls-11{fill:#fff;}.cls-12{fill:#ffafb1;}.cls-13{stroke:#d0b000;}.cls-14,.cls-15{stroke:#8cd6ff;}.cls-16{fill:#b4702f;}.cls-18{clip-path:url(#clip-path-2);}.cls-19,.cls-22,.cls-23{stroke:#fff;}.cls-19{stroke-width:3.05px;}.cls-20{stroke-width:3.52px;}.cls-21{stroke:#ffafb1;}.cls-23{stroke-width:3.8px;}</style><clipPath id="clip-path"><path class="cls-1" d="M1659.83,270.21l461.7,743.33V325.82a55.61,55.61,0,0,0-55.61-55.61Z"/></clipPath><clipPath id="clip-path-2"><polygon class="cls-2" points="1657.19 1253.84 1706.21 1274.45 1733.68 1512.74 1515.71 1512.74 1582.25 1262.81 1657.19 1253.84"/></clipPath></defs><g id="INTERIOR"><rect id="WALL" class="cls-3" x="1261.62" y="270.21" width="859.91" height="1353.78" rx="55.1"/><g id="CURTAINS"><circle class="cls-4" cx="1918.74" cy="731.88" r="7.19" transform="translate(109.64 1703.67) rotate(-49.12)"/><circle class="cls-4" cx="1775.09" cy="496.15" r="7.19" transform="translate(874.25 2104.12) rotate(-76.36)"/><circle class="cls-4" cx="1803.82" cy="543.29" r="7.19" transform="translate(850.38 2168.07) rotate(-76.36)"/><circle class="cls-4" cx="1832.55" cy="590.44" r="7.19" transform="translate(826.52 2232.01) rotate(-76.36)"/><circle class="cls-4" cx="1861.28" cy="637.58" r="7.19" transform="translate(802.66 2295.96) rotate(-76.36)"/><circle class="cls-4" cx="1890.01" cy="684.73" r="7.19" transform="translate(-114.19 529.27) rotate(-15.48)"/><path class="cls-4" d="M1656.43,301.42a7.19,7.19,0,1,0,9.88,2.4A7.2,7.2,0,0,0,1656.43,301.42Z"/><path class="cls-4" d="M1685.16,348.57A7.19,7.19,0,1,0,1695,351,7.2,7.2,0,0,0,1685.16,348.57Z"/><circle class="cls-4" cx="1717.63" cy="401.85" r="7.19" transform="translate(921.97 1976.23) rotate(-76.36)"/><circle class="cls-4" cx="1746.36" cy="449" r="7.19" transform="translate(898.11 2040.18) rotate(-76.36)"/><path class="cls-4" d="M2029.92,914.33a7.18,7.18,0,1,0,9.87,2.39A7.17,7.17,0,0,0,2029.92,914.33Z"/><path class="cls-4" d="M2058.65,961.47a7.18,7.18,0,1,0,9.87,2.4A7.19,7.19,0,0,0,2058.65,961.47Z"/><circle class="cls-4" cx="1947.47" cy="779.02" r="7.19" transform="translate(83.92 1741.68) rotate(-49.12)"/><circle class="cls-4" cx="1976.2" cy="826.17" r="7.19" transform="translate(58.2 1779.69) rotate(-49.12)"/><path class="cls-4" d="M2001.19,867.18a7.19,7.19,0,1,0,9.87,2.4A7.18,7.18,0,0,0,2001.19,867.18Z"/><path class="cls-2" d="M1577.94,270.21,1261.62,687.44V325.66a55.45,55.45,0,0,1,55.44-55.45Z"/><g class="cls-5"><path class="cls-2" d="M1659.83,270.21l461.7,743.33V325.82a55.61,55.61,0,0,0-55.61-55.61Z"/></g><circle class="cls-4" cx="1439.46" cy="488.57" r="7.19" transform="translate(-7.85 23.77) rotate(-0.94)"/><circle class="cls-4" cx="1406.24" cy="532.67" r="7.19" transform="translate(472.33 1711.25) rotate(-72.35)"/><circle class="cls-4" cx="1373.03" cy="576.77" r="7.19" transform="translate(-109.98 713.02) rotate(-28.04)"/><circle class="cls-4" cx="1339.81" cy="620.87" r="7.19" transform="translate(-73.47 192.85) rotate(-8.01)"/><circle class="cls-4" cx="1306.59" cy="664.97" r="7.19" transform="matrix(0.91, -0.41, 0.41, 0.91, -157.7, 592.75)"/><circle class="cls-4" cx="1572.32" cy="312.16" r="7.19" transform="translate(145.17 1042.15) rotate(-38.32)"/><circle class="cls-4" cx="1539.1" cy="356.26" r="7.19" transform="translate(28.03 817.14) rotate(-29.99)"/><circle class="cls-4" cx="1505.89" cy="400.36" r="7.19" transform="translate(43.49 938.31) rotate(-35.08)"/><circle class="cls-4" cx="1472.67" cy="444.47" r="7.19" transform="translate(-52.95 641.39) rotate(-24.15)"/></g><g id="COMMODE"><rect class="cls-6" x="1261.62" y="949.54" width="341.9" height="29.64"/><rect class="cls-6" x="1261.62" y="992.49" width="323.7" height="527.93"/><rect class="cls-7" x="1302.48" y="1026.96" width="230.1" height="111.14"/><rect class="cls-7" x="1302.48" y="1179.6" width="230.1" height="111.14"/><rect class="cls-7" x="1302.48" y="1332.24" width="230.1" height="111.14"/><circle class="cls-8" cx="1418.25" cy="1081.31" r="12.18"/></g><path class="cls-9" d="M2121.53,1512.74H1261.62v55a56.24,56.24,0,0,0,56.24,56.24h747.43a56.24,56.24,0,0,0,56.24-56.24Z"/><g id="FLOWERS"><circle class="cls-10" cx="1422.3" cy="810.16" r="21.47" transform="translate(394.78 2084.32) rotate(-80.78)"/><path class="cls-10" d="M1443.78,807.32l30,97.37a31.63,31.63,0,0,1-30.22,40.95H1401a31.63,31.63,0,0,1-30.22-40.95l30-97.37"/><path class="cls-11" d="M1396.37,742.37c-1.21,2.88-12.67,15.49-12.67,15.49s1-17,2.25-19.89a5.66,5.66,0,0,1,10.42,4.4Z"/><path class="cls-11" d="M1367.44,781.85c1.21-2.88,12.67-15.49,12.67-15.49s-1,17-2.25,19.88a5.65,5.65,0,0,1-10.42-4.39Z"/><path class="cls-11" d="M1358,757.07c3.12-.08,19.33,5.16,19.33,5.16s-15.92,6.06-19,6.14a5.65,5.65,0,1,1-.29-11.3Z"/><path class="cls-11" d="M1405.85,767.15c-3.12.08-19.33-5.16-19.33-5.16s15.92-6.07,19-6.15a5.66,5.66,0,0,1,.29,11.31Z"/><path class="cls-11" d="M1362.42,747.3c2,2.42,16.56,11.24,16.56,11.24s-5.84-16-7.83-18.42a5.65,5.65,0,1,0-8.73,7.18Z"/><path class="cls-11" d="M1401.39,776.91c-2-2.41-16.55-11.24-16.55-11.24s5.83,16,7.82,18.42a5.65,5.65,0,1,0,8.73-7.18Z"/><circle class="cls-12" cx="1381.87" cy="762.2" r="8.63"/><line class="cls-13" x1="1409.66" y1="778.28" x2="1442.96" y2="915.37"/><line class="cls-13" x1="1404.85" y1="888.04" x2="1433.05" y2="767.05"/><path class="cls-11" d="M1450.75,689c-.34,2.72-4.69,12.18-7.84,18.78a2.54,2.54,0,0,1-4.79-.6c-1.43-7.17-3.31-17.41-3-20.13a7.86,7.86,0,0,1,15.6,2Z"/><path class="cls-11" d="M1426.92,752.73c.34-2.72,4.69-12.18,7.85-18.78a2.54,2.54,0,0,1,4.78.6c1.43,7.17,3.31,17.41,3,20.14a7.86,7.86,0,0,1-15.6-2Z"/><path class="cls-11" d="M1407,709c2.72.34,12.18,4.69,18.78,7.84a2.55,2.55,0,0,1-.6,4.79c-7.18,1.43-17.42,3.31-20.14,3a7.86,7.86,0,1,1,2-15.59Z"/><path class="cls-11" d="M1470.7,732.78c-2.73-.34-12.19-4.68-18.78-7.84a2.54,2.54,0,0,1,.6-4.78c7.17-1.43,17.41-3.31,20.13-3a7.86,7.86,0,1,1-2,15.59Z"/><path class="cls-11" d="M1407.88,735c2.17-1.69,11.93-5.3,18.83-7.74a2.54,2.54,0,0,1,3,3.81c-4.06,6.08-10,14.65-12.14,16.34a7.86,7.86,0,0,1-9.65-12.41Z"/><path class="cls-11" d="M1469.79,706.77c-2.17,1.68-11.93,5.3-18.83,7.73a2.54,2.54,0,0,1-3-3.81c4.06-6.08,10-14.65,12.14-16.33a7.86,7.86,0,1,1,9.65,12.41Z"/><path class="cls-11" d="M1412.32,699.57c1.68,2.16,10.25,8.07,16.34,12.13a2.54,2.54,0,0,0,3.8-3c-2.43-6.89-6-16.66-7.73-18.82a7.86,7.86,0,0,0-12.41,9.65Z"/><path class="cls-11" d="M1465.35,742.18C1463.67,740,1455.1,734.1,1449,730a2.54,2.54,0,0,0-3.81,3c2.43,6.89,6,16.66,7.73,18.82a7.86,7.86,0,1,0,12.41-9.64Z"/><circle class="cls-12" cx="1438.84" cy="720.87" r="9.45" transform="translate(150.6 1685.42) rotate(-63.44)"/><path class="cls-10" d="M1443.78,810.16a21.48,21.48,0,0,1-43,0"/></g><g id="LAMP"><line class="cls-14" x1="1620.12" y1="270.21" x2="1620.12" y2="408.66"/><rect class="cls-12" x="1534.95" y="406.98" width="170.34" height="95.39" rx="30.72"/><rect class="cls-12" x="1562.39" y="510.02" width="115.46" height="11.91"/></g></g><g id="WOMAN"><g id="BLOUSE"><path class="cls-11" d="M1897.45,847.88,1799,861.77l1.53,13.91a8.93,8.93,0,0,1-5.67,9.22L1723,912.55A59.43,59.43,0,0,0,1684.91,968v62h48.61l-18,61.15,36.38,33.08,8.15,100,179.11-.6,2.62-176.4H2028v-25.14l12.17-26.34a69.88,69.88,0,0,0-43-96.17l-79.77-24.38L1909.54,855A11.28,11.28,0,0,0,1897.45,847.88Z"/><polyline class="cls-15" points="2029.54 1022.16 1941.1 1022.16 1933.2 990.55"/><path class="cls-15" d="M2010.58,970.41c0,2.15-6.66,33.76-6.66,33.76"/><line class="cls-15" x1="1979.59" y1="1004.17" x2="1970.26" y2="970.41"/><line class="cls-15" x1="1941.1" y1="1022.16" x2="1941.1" y2="1045.76"/><path class="cls-15" d="M1919.48,874.72c0,19.57-20.41,35.43-43.71,35.43s-42.17-12.79-42.17-32.36"/><path class="cls-15" d="M1833.6,877.79c0,16.39-12.45,29.68-27.81,29.68a27.27,27.27,0,0,1-22.47-12.19"/><path class="cls-15" d="M1801.7,1085.94a68,68,0,0,0,52.28,24.54"/></g><g id="HEAD"><path class="cls-16" d="M1896.91,848,1799,861.77l-4.08-32.83H1780A28.09,28.09,0,0,1,1752,799.69l3-74.24a48.62,48.62,0,0,0,9.88-22.16c9.29,23.9,35.44,42.51,68.3,48.33a21.82,21.82,0,0,1,17.53,17l1.55,7.38.26-3.47a18.88,18.88,0,0,1,37.71,1.38v2a18.88,18.88,0,0,1-18.88,18.88,2.06,2.06,0,0,0-2.09,2.12,2,2,0,0,0,1.32,1.91l15.48,6.14Z"/><path class="cls-4" d="M1907.77,698.76a64.57,64.57,0,0,1-18.92,105l-2.78,1.24-15.48-6.14a2.09,2.09,0,0,1,.77-4A18.88,18.88,0,0,0,1890.24,776v-2a18.88,18.88,0,0,0-37.71-1.38l-.26,3.47-1.55-7.38a21.82,21.82,0,0,0-17.53-17c-32.86-5.82-59-24.43-68.3-48.33a48.62,48.62,0,0,1-9.88,22.16l.21-5.14a42,42,0,0,1,7.79-22.76,42.63,42.63,0,0,1,2.72-3.43,42.17,42.17,0,0,1,31.71-14.32h44a54.11,54.11,0,1,1,66.31,19Z"/><path class="cls-4" d="M1844.72,813.37,1804.64,861l-5.64.8-4.08-32.83h.49c18.77-.92,34.24-6.12,47.58-17.29a1.26,1.26,0,0,1,.79-.31A1.24,1.24,0,0,1,1844.72,813.37Z"/><path class="cls-11" d="M1850.37,773.89a1.9,1.9,0,1,1,0,3.79h-19.89v38L1852,804.75a1.89,1.89,0,1,1,1.72,3.37l-23.21,12c-10.33,5.45-21.89,8.21-35.07,8.86H1780A28.09,28.09,0,0,1,1752,799.69l1.06-25.82Z"/><path class="cls-17" d="M1753.48,748.54l5.14-.89A17.42,17.42,0,0,1,1779,764.81v23.62"/><ellipse class="cls-4" cx="1763.26" cy="762.26" rx="3.58" ry="5.14"/><ellipse class="cls-4" cx="1800.08" cy="762.26" rx="4.33" ry="5.68"/><path class="cls-17" d="M1875.77,767.22s-11.64-2.43-14.86,13.33"/><line class="cls-17" x1="1873.5" y1="777.67" x2="1866.75" y2="770.79"/><circle class="cls-2" cx="1866.73" cy="799.21" r="8.89"/></g><g id="SKIRT"><path class="cls-6" d="M1939.2,1223.7l42,52.81A238.4,238.4,0,0,1,2032.76,1417l3.15,95.79H1691.14l68.95-288.44Z"/><polygon class="cls-4" points="1835.24 1346.3 1954.64 1243.13 1970.22 1262.75 1835.24 1346.3"/></g><g id="HAND"><path class="cls-16" d="M1656.06,1212.94l95.88-88.65-31.87-29.18a13.13,13.13,0,0,1-2.47-12.2l15.92-52.85,37.64-2.34a32.21,32.21,0,0,0,27.74-19.81l9.89-20.38a6.37,6.37,0,0,0-5.76-9.14l-85.87.38A63.7,63.7,0,0,0,1664.5,1007c-23.33,34.86-58.78,95.19-88.07,142a51.4,51.4,0,0,0-1.17,52.59h0A51.42,51.42,0,0,0,1656.06,1212.94Z"/><polyline class="cls-17" points="1730.64 1031.49 1707.04 1031.49 1691.15 1066.21"/><line class="cls-17" x1="1759.37" y1="988.82" x2="1805.1" y2="988.82"/><line class="cls-17" x1="1756.11" y1="1001.32" x2="1798.78" y2="1001.32"/><line class="cls-17" x1="1750.17" y1="1014.9" x2="1791.46" y2="1013.59"/><line class="cls-17" x1="1698.32" y1="1031.5" x2="1707.04" y2="1031.5"/></g></g><g id="CAT"><path class="cls-11" d="M1991,1491.46a54.81,54.81,0,0,1,4.15,21.17l-14.72,0-40.55,0-57.35.06a55.75,55.75,0,0,1,4.38-21.94l-6-29.72a7.93,7.93,0,0,1,11.07-7.41l22.49,9.46a61.45,61.45,0,0,1,53.4,2.52l17.75-7.47a7.93,7.93,0,0,1,11.07,7.41Z"/><path class="cls-2" d="M1983.31,1500.57a26.27,26.27,0,0,1-2.9,12.08l-40.55,0a26.29,26.29,0,0,1-2.92-12.12c0-13.77,10.38-24.93,23.19-24.93S1983.31,1486.8,1983.31,1500.57Z"/><path class="cls-10" d="M1898.48,1473.76c-3.65-7.13-11.28-10.23-16-9.28"/><path class="cls-10" d="M1895.13,1482.51a24.58,24.58,0,0,1,9.78-10.49"/><path class="cls-10" d="M1979.16,1473.76c3.65-7.13,11.27-10.23,16-9.28"/><path class="cls-10" d="M1984.51,1482.8c-2-3-6.07-7.9-12.08-9.83"/><path class="cls-11" d="M1896.68,1510.59c0,7.93-7.91,12.83-17.66,12.83s-17.65-4.9-17.65-12.83,7.9-14.37,17.65-14.37S1896.68,1502.65,1896.68,1510.59Z"/><path class="cls-10" d="M1888.32,1496.58c5.91,2.56,9.85,8.47,9.59,14.23"/><line class="cls-10" x1="1872.51" y1="1512.75" x2="1872.51" y2="1520.45"/><line class="cls-10" x1="1884.78" y1="1512.75" x2="1884.78" y2="1520.45"/><path class="cls-11" d="M2039.35,1510.59c0,7.93-7.91,12.83-17.65,12.83s-17.66-4.9-17.66-12.83,7.91-14.37,17.66-14.37S2039.35,1502.65,2039.35,1510.59Z"/><line class="cls-10" x1="2015.18" y1="1512.75" x2="2015.18" y2="1520.45"/><line class="cls-10" x1="2027.46" y1="1512.75" x2="2027.46" y2="1520.45"/><circle class="cls-4" cx="1918.69" cy="1503.1" r="4.06"/><circle class="cls-4" cx="1959.78" cy="1503.1" r="4.06"/></g><g id="GIRL"><g id="DRESS"><polygon class="cls-2" points="1657.19 1253.84 1706.21 1274.45 1733.68 1512.74 1515.71 1512.74 1582.25 1262.81 1657.19 1253.84"/><g class="cls-18"><line class="cls-19" x1="1655.36" y1="1514.66" x2="1655.36" y2="1252.97"/><line class="cls-19" x1="1624.51" y1="1514.66" x2="1624.51" y2="1252.97"/><line class="cls-19" x1="1687.16" y1="1514.66" x2="1687.16" y2="1252.97"/><line class="cls-19" x1="1718.95" y1="1514.66" x2="1718.95" y2="1252.97"/><line class="cls-19" x1="1529.57" y1="1514.66" x2="1529.57" y2="1252.97"/><line class="cls-19" x1="1561.36" y1="1514.66" x2="1561.36" y2="1252.97"/><line class="cls-19" x1="1593.16" y1="1514.66" x2="1593.16" y2="1252.97"/><line class="cls-19" x1="1731.27" y1="1490.95" x2="1518.75" y2="1490.95"/><line class="cls-19" x1="1726.66" y1="1459.16" x2="1518.75" y2="1459.16"/><line class="cls-19" x1="1726.66" y1="1427.36" x2="1518.75" y2="1427.36"/><line class="cls-19" x1="1726.66" y1="1395.57" x2="1518.75" y2="1395.57"/><line class="cls-19" x1="1726.66" y1="1363.78" x2="1518.75" y2="1363.78"/><line class="cls-19" x1="1726.66" y1="1331.99" x2="1518.75" y2="1331.99"/><line class="cls-19" x1="1726.66" y1="1300.19" x2="1520.55" y2="1300.19"/><line class="cls-19" x1="1726.66" y1="1268.4" x2="1518.75" y2="1268.4"/></g><polygon class="cls-4" points="1619.72 1512.74 1728.22 1465.37 1730.78 1487.6 1619.72 1512.74"/></g><path id="HAND-2" data-name="HAND" class="cls-16" d="M1582.25,1262.8l-66.54,249.94-8.85-59.55a140.8,140.8,0,0,1,7-68.86l31.66-86.95a51.81,51.81,0,0,1,26.68-29.78Z"/><g id="BEAR"><path class="cls-12" d="M1483.16,1531.77h-1.8c.59,0,1.18,0,1.76,0Z"/><path class="cls-12" d="M1483.16,1531.77h-1.8c.59,0,1.18,0,1.76,0Z"/><path class="cls-12" d="M1520.44,1496.29l39.08,18.45c9.19,4.34,5.81,17-4.53,17H1407.93c-10.25,0-13.6-12.69-4.49-17l38.83-18.51-1.74-18.24h-24.81c-9.16,0-12.15-11.34-4-15.22l35-16.69c-11-8.32-17.92-20.51-17.92-34.11a40.07,40.07,0,0,1,4.94-19.21,16.16,16.16,0,1,1,20.39-19.58,59.92,59.92,0,0,1,52.83-.81,16.16,16.16,0,1,1,21.69,19.82,40.08,40.08,0,0,1,5.26,19.78c0,13.61-7,25.82-18,34.13l35.29,16.67c8.22,3.88,5.2,15.22-4,15.22h-25Z"/><path class="cls-20" d="M1518.38,1380.19a11.81,11.81,0,0,1,11.15-8.15,11.53,11.53,0,0,1,5.71,1.51"/><path class="cls-20" d="M1442.89,1380.19a11.75,11.75,0,0,0-11.07-8.15,11.41,11.41,0,0,0-5.67,1.51"/><path class="cls-11" d="M1503.32,1430.5c0,10.78-9.83,19.52-22,19.52s-21.95-8.74-21.95-19.52,9.83-14.52,21.95-14.52S1503.32,1419.73,1503.32,1430.5Z"/><circle class="cls-4" cx="1501.62" cy="1414.95" r="2.93"/><circle class="cls-4" cx="1461.72" cy="1414.95" r="2.93"/><path class="cls-4" d="M1489.07,1424.6c0,2-2.54,5.22-6,6.09v3.36a1.76,1.76,0,0,1-3.52,0v-3.36c-3.41-.87-5.94-4.09-5.94-6.09,0-2.34,3.44-4.24,7.7-4.24S1489.07,1422.26,1489.07,1424.6Z"/></g><g id="HAND-3" data-name="HAND"><path class="cls-16" d="M1719,1471.08l-99.26,41.66h-80.36a4.67,4.67,0,0,1-3.11-8.15l10-8.95a25.94,25.94,0,0,1,17.29-6.6h23.59c34.69-26.22,87.06-64.84,87.06-64.84V1296.36a24.14,24.14,0,0,1,48.1-3l17.75,141.25A34.84,34.84,0,0,1,1719,1471.08Z"/><line class="cls-17" x1="1674.22" y1="1424.21" x2="1683.9" y2="1417.57"/><line class="cls-10" x1="1551.15" y1="1501.32" x2="1541.44" y2="1510.93"/><line class="cls-10" x1="1562.66" y1="1501.32" x2="1552.95" y2="1510.93"/><line class="cls-10" x1="1574.16" y1="1501.32" x2="1564.45" y2="1510.93"/><line class="cls-10" x1="1587.87" y1="1487.52" x2="1596.22" y2="1487.52"/></g><g id="HEAD-2" data-name="HEAD"><g id="NECK"><path class="cls-16" d="M1657.19,1200.53v62.27c0,7.79-16.78,14.11-37.48,14.11s-37.46-6.32-37.46-14.11v-62.27Z"/><path class="cls-4" d="M1624.42,1237.93l-42.17,24.87v-26.64l40.77-2.74A2.43,2.43,0,0,1,1624.42,1237.93Z"/></g><g id="HEAD-3" data-name="HEAD"><path id="HEAD-4" data-name="HEAD" class="cls-16" d="M1554.62,1129.35l-10.9,73.54a29.15,29.15,0,0,0,29.35,33.43l37-.65a35.75,35.75,0,0,0,27.43-13.61l24.88-31.56a51.42,51.42,0,0,0,10.58-25l.8-5.9a51.47,51.47,0,0,0-52.33-58.35l-36.13.92A31.83,31.83,0,0,0,1554.62,1129.35Z"/><g id="HAIR"><circle class="cls-4" cx="1555.67" cy="1083.69" r="22.19"/><path class="cls-4" d="M1669.32,1130.81a51,51,0,0,1,4.44,28.82l-.81,5.9a51.33,51.33,0,0,1-10.58,25l-6.65,8.44-10-10.86c0-21.19-28.27-23.83-28.27-23.83-28.59-6.47-50.93-23.58-60.23-43.55a31.86,31.86,0,0,1,28.09-18.5l36.14-.92a51.09,51.09,0,0,1,12.88,1.28,35.18,35.18,0,1,1,35,28.25Z"/><line class="cls-21" x1="1633.62" y1="1103.05" x2="1646.73" y2="1117.91"/></g><g id="MASK"><path class="cls-11" d="M1623.76,1189.75v42.92a35.83,35.83,0,0,1-13.71,3l-37,.65h-.52a29.16,29.16,0,0,1-28.83-33.44l2.82-19Z"/><line class="cls-22" x1="1619.72" y1="1191.67" x2="1643.06" y2="1191.67"/><line class="cls-22" x1="1622.23" y1="1231.13" x2="1648.75" y2="1214.58"/></g><g id="EAR"><path class="cls-16" d="M1661.47,1178.41h.67a16.84,16.84,0,0,1,16.84,16.84v.67a16.84,16.84,0,0,1-16.84,16.84h-17.51a0,0,0,0,1,0,0v-17.51a16.84,16.84,0,0,1,16.84-16.84Z"/><path class="cls-10" d="M1654.11,1199.26s-.26-11,11.67-9.91"/><line class="cls-10" x1="1662.95" y1="1198.22" x2="1659.46" y2="1192.18"/></g><g id="FACE"><path class="cls-17" d="M1550.78,1155.28h5.56A18.4,18.4,0,0,1,1574.6,1176l-2.89,23"/><ellipse class="cls-4" cx="1560.36" cy="1173.14" rx="3.39" ry="4.87"/><ellipse class="cls-4" cx="1596.13" cy="1177.11" rx="3.96" ry="5.68"/></g></g></g></g><g id="WOMAN_S_HAND" data-name="WOMAN&apos;S HAND"><path class="cls-16" d="M2028,1047.3v114a40.28,40.28,0,0,1-13.93,30.46L1835.25,1346.3a17,17,0,0,1-11.06,4.11h-31.72a16,16,0,0,0-12.2,5.62l-26.91,31.43a13.1,13.1,0,0,1-17.33,2.31l-21.91-14.94,13.53-41.86a22.52,22.52,0,0,1,15.32-14.76l58.26-16.45,139-148.83,1.57-105.63Z"/><line class="cls-17" x1="1722.7" y1="1379.4" x2="1732.89" y2="1347.86"/><line class="cls-17" x1="1733.44" y1="1385.54" x2="1743.63" y2="1354"/><line class="cls-17" x1="1744.18" y1="1390.14" x2="1753.32" y2="1361.85"/><line class="cls-17" x1="1724.68" y1="1333.23" x2="1718.46" y2="1351.67"/></g><g id="FRAME"><rect class="cls-23" x="1277.82" y="284.13" width="827.5" height="1325.95" rx="39.8"/><line class="cls-23" x1="1277.82" y1="559.39" x2="2105.32" y2="559.39"/></g><g id="MAN"><g id="HAND-4" data-name="HAND"><path class="cls-12" d="M1138.68,1042.27l95.53,119.66,178.13,4.6v79l-206.57,4.1a59.66,59.66,0,0,1-43.53-17.62l-121.61-122.49Z"/><polygon class="cls-4" points="1138.68 1042.27 1040.63 1109.53 1049.35 1118.31 1138.68 1042.27"/></g><g id="MEDICINE_BAG" data-name="MEDICINE BAG"><rect class="cls-4" x="1093.43" y="1106.89" width="318.91" height="226.28" rx="35.41"/><path class="cls-13" d="M1220.42,1124.08v-20.73a33.25,33.25,0,0,1,33.25-33.26h0a33.26,33.26,0,0,1,33.26,33.26v20.73"/><polygon class="cls-2" points="1321.33 1189.46 1321.33 1251.7 1284.79 1251.7 1284.79 1288.23 1222.56 1288.23 1222.56 1251.7 1186.02 1251.7 1186.02 1189.46 1222.56 1189.46 1222.56 1152.93 1284.79 1152.93 1284.79 1189.46 1321.33 1189.46"/></g><g id="FINGERS"><path class="cls-12" d="M1405.25,1149.37l13.31,4.47a20.92,20.92,0,0,1,14.25,19.83v55.65a23.33,23.33,0,0,1-5.67,15.25l-14.8,17.13v-29.64a8.85,8.85,0,0,0-5.92-8.34l-5.91-2a8.06,8.06,0,0,1-5.41-7.61v-57.39A7.7,7.7,0,0,1,1405.25,1149.37Z"/><path class="cls-10" d="M1392,1173.54c0-5.26,6-9,11.75-7.29l15.4,4.47a23.84,23.84,0,0,1,12.91,8.86"/><path class="cls-10" d="M1392,1190.42c0-5.26,6-9,11.75-7.3l15.4,4.47a23.75,23.75,0,0,1,13.1,9.14"/><path class="cls-10" d="M1392,1207.29c0-5.26,6-9,11.75-7.29l15.4,4.47a24,24,0,0,1,12.58,8.4"/></g><g id="LEGS"><path class="cls-2" d="M949.05,1624,887.28,1338.2l-206.86-14.37L614.53,1414a155.91,155.91,0,0,0-30,93l.72,117Z"/><polygon class="cls-4" points="682.05 1323.7 887.28 1338.2 898.48 1390.03 676.55 1329.13 682.05 1323.7"/><polyline class="cls-17" points="776.03 1620.93 795.26 1524.18 832.62 1517.39"/><circle class="cls-13" cx="828.51" cy="1351.49" r="7.9" transform="translate(-712.98 981.69) rotate(-45)"/><line class="cls-17" x1="842.72" y1="1368.22" x2="842.72" y2="1443.79"/></g><g id="T-SHIRT"><path class="cls-6" d="M810.07,896.82l15.08-21.39,142.68,14.92v17.24h30.36a86,86,0,0,1,70,36l70.48,98.65-98,67.26-21.55-20.93L916.93,1322a27.38,27.38,0,0,1-27,16.34l-207.88-14.58a21.55,21.55,0,0,1-20-21.5V1021.88a117,117,0,0,1,95-114.93Z"/><rect class="cls-11" x="949.97" y="1025.59" width="59.38" height="37.35" rx="7.74"/><line class="cls-13" x1="981.2" y1="1013.51" x2="981.2" y2="1031.77"/><circle class="cls-22" cx="924.15" cy="926.66" r="5.75"/><circle class="cls-22" cx="924.15" cy="969.76" r="5.75"/><path class="cls-22" d="M895,919.15l25.29-26.22a7,7,0,0,1,10.45.48l22.92,28.65"/><line class="cls-22" x1="969.79" y1="907.59" x2="969.79" y2="920.52"/><line class="cls-22" x1="899.99" y1="1100.6" x2="823.42" y2="984.71"/><line class="cls-22" x1="1020.62" y1="1090.13" x2="1042.17" y2="1039.85"/><line class="cls-22" x1="754.58" y1="1121.16" x2="884.65" y2="1077.59"/><line class="cls-22" x1="1023.76" y1="1091.12" x2="1097.61" y2="1040.45"/></g><g id="HAND-5" data-name="HAND"><path class="cls-12" d="M896.93,1102.13l74.73,94.81,246.44,113.51a18,18,0,0,1,6.09,4.57l15.76,18.15h42l-6,11.29a19.22,19.22,0,0,1-11.32,9.37L1220,1367.61a47.32,47.32,0,0,1-25.18.77l-255.57-62.12a89.3,89.3,0,0,1-43.56-25.19L766.85,1145.7Z"/><line class="cls-10" x1="1239.95" y1="1333.17" x2="1206.55" y2="1333.17"/><polygon class="cls-4" points="896.93 1102.13 766.85 1145.7 781.69 1161.29 896.93 1102.13"/></g><g id="HEAD-5" data-name="HEAD"><path id="HEAD-6" data-name="HEAD" class="cls-12" d="M1015.89,710.14v113.3a28.61,28.61,0,0,1-28.61,28.62H967.83v38.29L954,888.91,832.88,876.24,866,815.44a19,19,0,0,1-11.91-17.59v-4A18.93,18.93,0,0,1,873,775h4a18.88,18.88,0,0,1,6.31,1.08c20.38-6.35,35.33-27.23,35.33-52a60.14,60.14,0,0,0-.93-10.57,116.56,116.56,0,0,0,45.65,8.88C983.34,722.35,1001.67,717.76,1015.89,710.14Z"/><g id="SHADOW"><path class="cls-4" d="M967.83,852.06v38.29L954,888.91l-46.75-42.18c4.54,4,13.75,5.33,19.81,5.33Z"/><path class="cls-10" d="M925.13,852.06a32.56,32.56,0,0,1-30-20l-6.28-15"/></g><path id="MASK-2" data-name="MASK" class="cls-6" d="M1015.89,787.64v35.67a28.75,28.75,0,0,1-28.75,28.75h-62.3a13.5,13.5,0,0,1-13.5-13.49V791.14l-35-17.46a1.89,1.89,0,1,1,1.69-3.39l34.74,17.35Z"/><g id="FACE-2" data-name="FACE"><line class="cls-10" x1="983.98" y1="804.66" x2="983.98" y2="755.04"/><path class="cls-4" d="M955.71,758.55H924.05l2.43-6.63a9,9,0,0,1,8.45-5.9h32.9l-.92,3.74A11.53,11.53,0,0,1,955.71,758.55Z"/><path class="cls-4" d="M991.62,746h24.27a0,0,0,0,1,0,0v12.53a0,0,0,0,1,0,0h-33.8a0,0,0,0,1,0,0v-3A9.53,9.53,0,0,1,991.62,746Z"/><path class="cls-17" d="M940,773.92a13.89,13.89,0,0,1,19.26,0"/><path class="cls-17" d="M990.63,773.92a10.43,10.43,0,0,1,16.23,0"/></g><g id="EAR-2" data-name="EAR"><path class="cls-17" d="M870.37,786.72s11.76-1.69,14,14.24"/><line class="cls-17" x1="870.37" y1="797.34" x2="880.34" y2="790.85"/></g><g id="HAIR-2" data-name="HAIR"><path class="cls-4" d="M1015.89,702.18V746c-3.24-5.79-5.23-13.6-5.23-22.21a52,52,0,0,1,1.3-11.69c-13.6,6.43-30.42,10.23-48.63,10.23a116.56,116.56,0,0,1-45.65-8.88,60.14,60.14,0,0,1,.93,10.57c0,24.77-15,45.65-35.33,52A18.88,18.88,0,0,0,877,775h-4a18.94,18.94,0,0,0-7.2,1.42l-6.91-24.64a63.1,63.1,0,0,1,13.7-59.3h-13a2.71,2.71,0,1,1,0-5.41h14.65V674.27a2.71,2.71,0,1,1,5.41,0v11.38c1.34-1.11,2.73-2.17,4.16-3.16h0A62.79,62.79,0,0,1,920,671.2h64.94a31,31,0,0,1,31,30.41h0Z"/><path class="cls-12" d="M922.81,720a1.87,1.87,0,0,1-1.1-.35l-13.61-9.7a1.9,1.9,0,0,1,2.2-3.09l13.61,9.71a1.89,1.89,0,0,1-1.1,3.43Z"/></g></g></g></svg>