<svg xmlns="http://www.w3.org/2000/svg" xmlns:xlink="http://www.w3.org/1999/xlink" viewBox="0 0 2707.33 1895.13"><defs><style>.cls-1,.cls-10,.cls-16,.cls-17,.cls-18,.cls-21,.cls-22,.cls-23,.cls-24,.cls-25,.cls-26,.cls-27,.cls-28,.cls-6,.cls-8{fill:none;}.cls-2{isolation:isolate;}.cls-3{fill:#ede0c4;}.cls-11,.cls-4{fill:#f5efd9;}.cls-5{clip-path:url(#clip-path);}.cls-6{stroke:#f6eed6;stroke-width:2.71px;}.cls-10,.cls-16,.cls-17,.cls-18,.cls-21,.cls-22,.cls-23,.cls-24,.cls-25,.cls-26,.cls-27,.cls-28,.cls-6,.cls-8{stroke-miterlimit:10;}.cls-7{fill:#a0d6ff;}.cls-16,.cls-22,.cls-24,.cls-8{stroke:#fff;}.cls-16,.cls-17,.cls-18,.cls-21,.cls-22,.cls-23,.cls-24,.cls-25,.cls-8{stroke-linecap:round;}.cls-8{stroke-width:3.58px;}.cls-9{fill:#56303c;}.cls-10,.cls-17,.cls-18,.cls-21,.cls-26,.cls-27{stroke:#56303c;}.cls-10,.cls-18,.cls-28{stroke-width:4.33px;}.cls-11{mix-blend-mode:multiply;}.cls-12{fill:#e3d5b7;}.cls-13{fill:#d9af00;}.cls-14{fill:#b4702f;}.cls-15{fill:#e2ad00;}.cls-16{stroke-width:5.52px;}.cls-17,.cls-24,.cls-25{stroke-width:5.42px;}.cls-19{fill:#ffafb1;}.cls-20{fill:#fff;}.cls-21{stroke-width:3.79px;}.cls-22,.cls-23{stroke-width:2.24px;}.cls-23{stroke:#d9af00;}.cls-25{stroke:#a0d6ff;}.cls-26{stroke-width:10.83px;}.cls-27{stroke-width:5.96px;}.cls-28{stroke:#b4702f;}</style><clipPath id="clip-path"><rect class="cls-1" x="426.33" y="622.08" width="906.88" height="339.06"/></clipPath></defs><g class="cls-2"><g id="_ëîé_1" data-name="‘ëîé_1"><g id="WINDOW"><rect id="BACKGROUND" class="cls-3" x="426.33" y="495.5" width="906.88" height="855.4" rx="95.04"/><path id="CLOUD" class="cls-4" d="M788.4,594.71H560.24c0-20.23,20.79-36.63,46.42-36.63a57.42,57.42,0,0,1,16.5,2.38C631.66,548,644.71,540,659.34,540c22,0,40.38,18,45.2,42.14,8.44-5.94,22.07-10.64,37.44-10.64C767.61,571.53,788.4,584.6,788.4,594.71Z"/><g id="FENCE"><g class="cls-5"><line class="cls-6" x1="1484.72" y1="1107.43" x2="999.32" y2="622.02"/><line class="cls-6" x1="1464.38" y1="1127.77" x2="1047.07" y2="710.47"/><line class="cls-6" x1="1505.68" y1="1086.47" x2="1041.93" y2="622.71"/><line class="cls-6" x1="1526.64" y1="1065.51" x2="1083.37" y2="622.23"/><line class="cls-6" x1="1547.61" y1="1044.55" x2="1125.14" y2="622.08"/><line class="cls-6" x1="1568.57" y1="1023.59" x2="1151.26" y2="606.28"/><line class="cls-6" x1="1589.53" y1="1002.62" x2="1172.22" y2="585.32"/><line class="cls-6" x1="1610.49" y1="981.66" x2="1193.18" y2="564.36"/><line class="cls-6" x1="1401.79" y1="1190.36" x2="984.48" y2="773.06"/><line class="cls-6" x1="1422.75" y1="1169.4" x2="1005.44" y2="752.1"/><line class="cls-6" x1="1443.71" y1="1148.44" x2="1026.41" y2="731.14"/><line class="cls-6" x1="1416.08" y1="705.27" x2="1145.1" y2="976.26"/><line class="cls-6" x1="1395.12" y1="684.31" x2="1124.13" y2="955.3"/><line class="cls-6" x1="1374.16" y1="663.35" x2="1103.17" y2="934.34"/><line class="cls-6" x1="1353.2" y1="642.39" x2="1082.21" y2="913.38"/><line class="cls-6" x1="1332.24" y1="621.43" x2="1061.25" y2="892.41"/><line class="cls-6" x1="1311.28" y1="600.47" x2="1040.29" y2="871.45"/><line class="cls-6" x1="1290.32" y1="579.51" x2="1019.33" y2="850.49"/><line class="cls-6" x1="1269.35" y1="558.55" x2="999.55" y2="828.35"/><line class="cls-6" x1="1248.39" y1="537.58" x2="977.41" y2="808.57"/><line class="cls-6" x1="1583.89" y1="873.09" x2="1312.91" y2="1144.07"/><line class="cls-6" x1="1605.07" y1="894.27" x2="1334.09" y2="1165.25"/><line class="cls-6" x1="1562.93" y1="852.12" x2="1291.95" y2="1123.11"/><line class="cls-6" x1="1541.97" y1="831.16" x2="1270.99" y2="1102.15"/><line class="cls-6" x1="1521.01" y1="810.2" x2="1250.03" y2="1081.19"/><line class="cls-6" x1="1500.05" y1="789.24" x2="1229.06" y2="1060.23"/><line class="cls-6" x1="1479.09" y1="768.28" x2="1208.1" y2="1039.27"/><line class="cls-6" x1="1458.13" y1="747.32" x2="1187.14" y2="1018.31"/><line class="cls-6" x1="1437.17" y1="726.36" x2="1167.36" y2="996.16"/><line class="cls-6" x1="1632.4" y1="959.75" x2="1215.1" y2="542.45"/><line class="cls-6" x1="1150.04" y1="1107.43" x2="664.6" y2="621.99"/><line class="cls-6" x1="1129.69" y1="1127.77" x2="623.94" y2="622.02"/><line class="cls-6" x1="1171" y1="1086.47" x2="706.48" y2="621.95"/><line class="cls-6" x1="1191.96" y1="1065.51" x2="749.27" y2="622.82"/><line class="cls-6" x1="1212.92" y1="1044.55" x2="789.85" y2="621.47"/><line class="cls-6" x1="1233.88" y1="1023.59" x2="816.58" y2="606.28"/><line class="cls-6" x1="1254.84" y1="1002.62" x2="837.54" y2="585.32"/><line class="cls-6" x1="1275.8" y1="981.66" x2="858.5" y2="564.36"/><line class="cls-6" x1="1067.1" y1="1190.36" x2="498.99" y2="622.25"/><line class="cls-6" x1="1088.06" y1="1169.4" x2="540.98" y2="622.32"/><line class="cls-6" x1="1109.02" y1="1148.44" x2="582.61" y2="622.02"/><line class="cls-6" x1="963.89" y1="1127.77" x2="458.13" y2="622.02"/><line class="cls-6" x1="901.3" y1="1190.36" x2="333.19" y2="622.25"/><line class="cls-6" x1="922.26" y1="1169.4" x2="375.17" y2="622.32"/><line class="cls-6" x1="943.22" y1="1148.44" x2="416.8" y2="622.02"/><line class="cls-6" x1="838" y1="1127.77" x2="332.24" y2="622.02"/><line class="cls-6" x1="775.4" y1="1190.36" x2="207.3" y2="622.25"/><line class="cls-6" x1="796.37" y1="1169.4" x2="249.28" y2="622.32"/><line class="cls-6" x1="817.33" y1="1148.44" x2="290.91" y2="622.02"/><line class="cls-6" x1="672.19" y1="1127.77" x2="166.44" y2="622.02"/><line class="cls-6" x1="609.6" y1="1190.36" x2="41.49" y2="622.25"/><line class="cls-6" x1="630.56" y1="1169.4" x2="83.47" y2="622.32"/><line class="cls-6" x1="651.52" y1="1148.44" x2="125.1" y2="622.02"/><line class="cls-6" x1="1081.4" y1="705.27" x2="810.41" y2="976.26"/><line class="cls-6" x1="1122.41" y1="622.33" x2="789.45" y2="955.3"/><line class="cls-6" x1="1081.98" y1="620.84" x2="741.61" y2="961.22"/><line class="cls-6" x1="1040.06" y1="620.84" x2="697.24" y2="963.66"/><line class="cls-6" x1="997.55" y1="621.43" x2="656.84" y2="962.14"/><line class="cls-6" x1="976.59" y1="600.47" x2="614.92" y2="962.14"/><line class="cls-6" x1="955.63" y1="579.51" x2="572.41" y2="962.73"/><line class="cls-6" x1="934.67" y1="558.55" x2="530.48" y2="962.73"/><line class="cls-6" x1="913.71" y1="537.58" x2="488.56" y2="962.73"/><line class="cls-6" x1="790.29" y1="621.43" x2="449.58" y2="962.14"/><line class="cls-6" x1="769.33" y1="600.47" x2="407.66" y2="962.14"/><line class="cls-6" x1="748.37" y1="579.51" x2="365.15" y2="962.73"/><line class="cls-6" x1="727.41" y1="558.55" x2="323.22" y2="962.73"/><line class="cls-6" x1="706.45" y1="537.58" x2="281.3" y2="962.73"/><line class="cls-6" x1="583.03" y1="621.43" x2="242.32" y2="962.14"/><line class="cls-6" x1="562.07" y1="600.47" x2="200.4" y2="962.14"/><line class="cls-6" x1="541.11" y1="579.51" x2="157.89" y2="962.73"/><line class="cls-6" x1="520.15" y1="558.55" x2="115.97" y2="962.73"/><line class="cls-6" x1="1249.21" y1="873.09" x2="978.22" y2="1144.07"/><line class="cls-6" x1="1270.39" y1="894.27" x2="999.4" y2="1165.25"/><line class="cls-6" x1="1228.25" y1="852.12" x2="957.26" y2="1123.11"/><line class="cls-6" x1="1207.29" y1="831.16" x2="936.3" y2="1102.15"/><line class="cls-6" x1="1186.33" y1="810.2" x2="915.34" y2="1081.19"/><line class="cls-6" x1="1165.37" y1="789.24" x2="894.38" y2="1060.23"/><line class="cls-6" x1="1144.4" y1="768.28" x2="873.42" y2="1039.27"/><line class="cls-6" x1="1123.44" y1="747.32" x2="852.46" y2="1018.31"/><line class="cls-6" x1="1102.48" y1="726.36" x2="832.68" y2="996.16"/><line class="cls-6" x1="1297.72" y1="959.75" x2="880.41" y2="542.45"/></g></g><g id="TENT"><polygon class="cls-4" points="578.09 797.58 498.18 963.24 426.33 963.24 426.33 797.58 578.09 797.58"/><polygon class="cls-7" points="660.41 963.23 498.18 963.23 578.09 797.58 578.75 797.58 660.41 963.23"/><line class="cls-8" x1="577.73" y1="797.58" x2="661.42" y2="963.23"/><path class="cls-9" d="M603.63,963.23H546.19a105.82,105.82,0,0,0,56.55-82l.89-7.75Z"/><line class="cls-10" x1="547.92" y1="963.23" x2="547.92" y2="877.4"/><path class="cls-8" d="M546.39,961.7c31.33-16.19,53-51.27,57-86.3"/><polygon class="cls-11" points="426.33 1070.61 660.41 964.77 426.33 962.68 426.33 1070.61"/></g></g><g id="HOUSE"><path id="PLANT" class="cls-12" d="M1973.14,1223.83l-6.46,26.65H1633l-6.46-26.65c-6.79-28,15.54-54.68,45.71-54.68a14.38,14.38,0,0,0,14.73-14,13.37,13.37,0,0,0-2-7L1658.31,1104c-14.89-24.63-2.14-56.06,26.28-64.77l38.18-11.71c9.26-2.84,13.12-13.29,7.76-21l-13.47-19.43c-17.35-25-4.36-58.9,25.86-67.4l14.81-4.17c7.46-2.1,11.91-9.36,10.16-16.57l-7.5-30.86c-5.86-24.14,12.79-47.22,38.49-48.33v0h1.94v0c25.7,1.11,44.36,24.19,38.49,48.33L1831.82,899c-1.75,7.21,2.7,14.47,10.15,16.57l14.81,4.17c30.22,8.5,43.22,42.37,25.87,67.4l-13.48,19.43c-5.35,7.73-1.49,18.18,7.76,21l38.18,11.71c28.43,8.71,41.18,40.14,26.28,64.77l-26.71,44.16a13.36,13.36,0,0,0-2,7,14.37,14.37,0,0,0,14.72,14C1957.59,1169.15,1979.92,1195.85,1973.14,1223.83Z"/><g id="HOUSE-2" data-name="HOUSE"><rect class="cls-4" x="1801.05" y="876.35" width="324.5" height="374.13"/><rect class="cls-13" x="2125.55" y="876.35" width="276.54" height="374.13"/><polygon class="cls-3" points="2258.43 742.9 1938.75 742.9 1801.05 876.35 2125.55 876.35 2258.43 742.9"/><polygon class="cls-14" points="2402.09 876.35 2125.55 876.35 2258.43 742.9 2259.56 742.9 2402.09 876.35"/><rect class="cls-9" x="2219.01" y="987.88" width="41.35" height="41.35"/><rect class="cls-9" x="2279.86" y="987.88" width="41.35" height="41.35"/><rect class="cls-9" x="2219.01" y="1048.73" width="41.35" height="41.35"/><rect class="cls-9" x="2279.86" y="1048.73" width="41.35" height="41.35"/><polygon class="cls-14" points="2040.84 713.02 2079.66 713.02 2079.66 742.9 2040.84 784.12 2040.84 713.02"/><rect class="cls-4" x="1968.18" y="713.02" width="72.65" height="71.1"/><rect class="cls-15" x="1962.88" y="697.26" width="121.93" height="15.76"/><polygon class="cls-9" points="2040.84 713.02 2079.66 713.02 2079.66 725.49 2040.84 713.02"/><rect class="cls-13" x="1919.91" y="987.88" width="96.55" height="262.6"/><rect class="cls-9" x="1899.95" y="987.88" width="19.96" height="262.6"/><polygon class="cls-14" points="2016.46 1002.84 1919.91 1000.49 1919.91 987.88 2016.46 987.88 2016.46 1002.84"/><circle class="cls-10" cx="1937.21" cy="1103.57" r="10.24"/></g><polygon id="WAY" class="cls-4" points="2356.18 1591.63 1987.69 1591.63 1669.13 1290.28 2113.29 1289.12 1901.48 1250.48 2016.46 1250.48 2394.92 1316.87 1856.91 1324.28 2356.18 1591.63"/><path id="PLANT-2" data-name="PLANT" class="cls-3" d="M2472.14,1250.48h-230.2c0-18.84,24.08-34.11,53.77-34.11a81.58,81.58,0,0,1,17.6,1.88,82.86,82.86,0,0,1,76.05-49.18C2435.08,1169.07,2472.14,1205.52,2472.14,1250.48Z"/></g><g id="SUN"><circle class="cls-13" cx="1714.42" cy="439.28" r="136.65"/><circle class="cls-13" cx="1583.15" cy="560.05" r="16.65"/></g><g id="WOMAN_CHILD" data-name="WOMAN &amp; CHILD"><g id="LEGS"><path class="cls-9" d="M1494.46,1156.84c14,.15,20.34,8.27,26.29,20.9l203.14,413H1560.8L1442.61,1393l-39,197.77H1268.85l-15.18-251.87a210.67,210.67,0,0,1,48.26-148l43.83-52.7Z"/><polyline class="cls-16" points="1444.17 1399.14 1459.32 1288.18 1486.42 1279.94"/></g><g id="HEAD"><path id="HAIR" class="cls-9" d="M1367,630a22.76,22.76,0,0,1,19-35.32h79.23a52,52,0,0,1,50.24,65.2l-8.68,32.94h21.13A52.17,52.17,0,0,1,1580.1,745v15.43h3.53a52.18,52.18,0,0,1,51.72,59L1627.49,879h-73a51.66,51.66,0,0,1-51.66-51.66V796h0a47.39,47.39,0,0,1-47.39-47.39Z"/><g id="HEAD-2" data-name="HEAD"><path class="cls-14" d="M1388.4,629.12c.66-10.4,6.49-17,15.46-22.25a56,56,0,0,0,24.26,41l8.09,5.51a43.8,43.8,0,0,1,18.46,28.47,19.75,19.75,0,0,1,19-14.34h2.61a19.74,19.74,0,0,1,14.52,33.13l21.45,73.9-86.11,0V733.82l-21.11.1c-12.49,1-21.41-7.83-20.6-20.33l.35-28.87-13.37-5.86a3.11,3.11,0,0,1-.33-5.53l.55-.32a31.7,31.7,0,0,0,15.56-25.26Z"/><path class="cls-17" d="M1467,692.35c0-7.77,4.74-12.51,12.52-12.51"/><line class="cls-17" x1="1476.74" y1="689.67" x2="1470.84" y2="684.27"/><polygon class="cls-9" points="1426.14 733.82 1456.66 729.05 1426.14 769.36 1426.14 733.82"/><path class="cls-18" d="M1462.76,718.19a13.53,13.53,0,0,1-10.84,13l-16.34,3.33"/><ellipse class="cls-9" cx="1403.85" cy="664.19" rx="3.65" ry="4.42"/><path class="cls-17" d="M1401.31,646.13s8.65.7,17.29,8.4"/><path class="cls-17" d="M1386.75,699.08c3.43,0,8.21-1.59,10.32-4.29"/></g></g><g id="BODY"><path class="cls-19" d="M1255.47,1097.6a56.2,56.2,0,0,1-28.77-73l69.4-204.64a67,67,0,0,1,63.15-45.47l155.76.08a11.58,11.58,0,0,1,12.78,7.34l10.32,27.44L1586,819a53.45,53.45,0,0,1,41.38,51.42l2.06,177.13,177.51,107.62-35.36,42.6-180.23-66.18a47.15,47.15,0,0,1-30.61-38.94l-11.19-98.59-26.37,133.35a36.43,36.43,0,0,1-36.14,29.36l-80.8-.9c-4.29,4.24-12.4,5.48-18,2.84Z"/><polyline class="cls-16" points="1442.1 1110.57 1317.29 1025.19 1369.03 894.98"/><line class="cls-16" x1="1317.29" y1="1025.19" x2="1304.86" y2="1016.22"/></g><g id="CHILD"><path class="cls-13" d="M1541.59,797a14,14,0,0,1,6.42,11.15l11.87,270.56c1.87,41.78-31.7,58.15-73.52,57.77l-96.75-65.21Z"/><line class="cls-16" x1="1539.47" y1="798.96" x2="1494.63" y2="880.59"/><g id="CHILD-2" data-name="CHILD"><path class="cls-20" d="M1422.63,972.85l1.22,14.68-7.88-11a12.17,12.17,0,0,0-19-1.06l-5.29,5.89a14.58,14.58,0,0,0-1.77,17l19.76,34.16,52.8-92.88-18.68,4.28A27.38,27.38,0,0,0,1422.63,972.85Z"/><path class="cls-14" d="M1453.87,869l-17.74-.67a34.17,34.17,0,0,0-35.44,35l.5,19.73a26.28,26.28,0,0,0,33.55,24.58l27.76-8a36,36,0,0,0,26-36.13h0A36,36,0,0,0,1453.87,869Z"/><path class="cls-14" d="M1405.58,962.54l-8.69-17a3.07,3.07,0,0,0-4-1.4h0a3.07,3.07,0,0,0-1.71,3.52l2.17,8.89a1.87,1.87,0,0,1-2.84,2L1370,945.32a4.66,4.66,0,0,0-6.44,1.41l-1.83,2.85a17.77,17.77,0,0,0,3.06,22.73l13.77,12.44a15.43,15.43,0,0,0,20.65.1,27.74,27.74,0,0,0,6.9-9.53A15,15,0,0,0,1405.58,962.54Z"/><polygon class="cls-7" points="1434.74 947.62 1462.5 939.61 1452.54 957.13 1434.74 947.62"/></g></g><g id="HANDS"><path class="cls-14" d="M1405.94,1156.12l36.65-47.57c8.79-9.06,26.79-6.46,38.17-4.84l34.22,5.2-.49,3.3a9.62,9.62,0,0,1-7.36,6.62c-5.34,1-13.35,3.07-19,4.11a.89.89,0,0,0,.08,1.76l27.07,2.67a5.34,5.34,0,0,0,3.77-1.14l19.22-14.4a10.73,10.73,0,0,1,11.84-1l.1,0a1.74,1.74,0,0,1,.54,2.6c-.5.63-1.09,1.39-1.76,2.27a10.72,10.72,0,0,1,7,1.92l.1.07a1.73,1.73,0,0,1,.24,2.63c-4.93,5-22.94,21.12-34.21,32a17.05,17.05,0,0,1-11.47,4.78Z"/><line class="cls-21" x1="1547.43" y1="1117.7" x2="1528.38" y2="1142.75"/><path class="cls-14" d="M1860.72,1143a7.46,7.46,0,0,1,4,6.46l.49,21.68a2.78,2.78,0,0,1-2.93,2.85l-27.46-1.47-12.1,19a29.71,29.71,0,0,1-35,12l-16.14-5.77,34.26-53.26a15.52,15.52,0,0,1,15.14-7Z"/><path class="cls-21" d="M1833.4,1171.08a10.08,10.08,0,0,0-11,1.57l-11.66,10.3"/></g></g><g id="FLOWERS"><path class="cls-3" d="M1764.68,1551.33c-11.22,25.6-34.16,40.3-34.16,40.3s-4.74-26.82,6.48-52.43,34.15-40.3,34.15-40.3S1775.9,1525.72,1764.68,1551.33Z"/><path class="cls-3" d="M1688.79,1551.33c11.22,25.6,34.15,40.3,34.15,40.3s4.75-26.82-6.47-52.43-34.16-40.3-34.16-40.3S1677.57,1525.72,1688.79,1551.33Z"/><path class="cls-3" d="M1764.68,1473c-11.22,25.61-34.16,40.3-34.16,40.3s-4.74-26.82,6.48-52.43,34.15-40.3,34.15-40.3S1775.9,1447.42,1764.68,1473Z"/><path class="cls-3" d="M1688.79,1473c11.22,25.61,34.15,40.3,34.15,40.3s4.75-26.82-6.47-52.43-34.16-40.3-34.16-40.3S1677.57,1447.42,1688.79,1473Z"/><circle class="cls-7" cx="1726.73" cy="1412.48" r="16.65"/><path class="cls-3" d="M1139.09,1519.25c16.18,34.67,10.57,71.52,10.57,71.52s-31.86-19.36-48-54-10.57-71.52-10.57-71.52S1122.91,1484.58,1139.09,1519.25Z"/><line class="cls-10" x1="1150.6" y1="1456.92" x2="1150.6" y2="1589.43"/><line class="cls-10" x1="1181.69" y1="1512.89" x2="1150.6" y2="1550.76"/><circle class="cls-19" cx="1150.6" cy="1418.29" r="28.02" transform="translate(-665.88 1229.01) rotate(-45)"/><line class="cls-22" x1="1150.6" y1="1390.27" x2="1150.6" y2="1446.31"/><line class="cls-22" x1="1122.58" y1="1418.29" x2="1178.62" y2="1418.29"/><line class="cls-22" x1="1130.79" y1="1398.48" x2="1170.41" y2="1438.11"/><line class="cls-22" x1="1130.79" y1="1438.11" x2="1170.41" y2="1398.48"/><circle class="cls-19" cx="1150.6" cy="1418.29" r="10.37"/><circle class="cls-20" cx="1150.6" cy="1418.29" r="5.6"/><circle class="cls-19" cx="1205.36" cy="1487.1" r="28.02" transform="translate(-698.49 1287.88) rotate(-45)"/><line class="cls-22" x1="1205.36" y1="1459.08" x2="1205.36" y2="1515.12"/><line class="cls-22" x1="1177.34" y1="1487.1" x2="1233.39" y2="1487.1"/><line class="cls-22" x1="1185.55" y1="1467.28" x2="1225.18" y2="1506.91"/><line class="cls-22" x1="1185.55" y1="1506.91" x2="1225.18" y2="1467.28"/><circle class="cls-19" cx="1205.36" cy="1487.1" r="10.37" transform="translate(-455.61 2438.69) rotate(-80.78)"/><circle class="cls-20" cx="1205.36" cy="1487.1" r="5.6" transform="translate(-477.34 574.47) rotate(-22.5)"/><path class="cls-3" d="M1226.18,1566.69c-20.2,19.32-47,24.08-47,24.08s5.93-26.59,26.13-45.92,47-24.08,47-24.08S1246.38,1547.36,1226.18,1566.69Z"/><circle class="cls-13" cx="344.01" cy="1331.52" r="16.65"/><path class="cls-3" d="M382,1551.73c-11.22,25.61-34.16,40.3-34.16,40.3s-4.74-26.82,6.48-52.43,34.16-40.3,34.16-40.3S393.17,1526.12,382,1551.73Z"/><path class="cls-3" d="M306.06,1551.73c11.22,25.61,34.16,40.3,34.16,40.3s4.74-26.82-6.48-52.43-34.15-40.3-34.15-40.3S294.84,1526.12,306.06,1551.73Z"/><path class="cls-3" d="M382,1473.43c-11.22,25.61-34.16,40.3-34.16,40.3s-4.74-26.82,6.48-52.43,34.16-40.3,34.16-40.3S393.17,1447.82,382,1473.43Z"/><path class="cls-3" d="M306.06,1473.43c11.22,25.61,34.16,40.3,34.16,40.3s4.74-26.82-6.48-52.43-34.15-40.3-34.15-40.3S294.84,1447.82,306.06,1473.43Z"/><path class="cls-3" d="M382,1395.13c-11.22,25.61-34.16,40.3-34.16,40.3s-4.74-26.82,6.48-52.42,34.16-40.31,34.16-40.31S393.17,1369.53,382,1395.13Z"/><path class="cls-3" d="M306.06,1395.13c11.22,25.61,34.16,40.3,34.16,40.3s4.74-26.82-6.48-52.42-34.15-40.31-34.15-40.31S294.84,1369.53,306.06,1395.13Z"/><path class="cls-9" d="M1960.35,1568c-20.2,19.33-47,24.08-47,24.08s5.93-26.58,26.13-45.91,47-24.08,47-24.08S1980.55,1548.62,1960.35,1568Z"/><polyline class="cls-10" points="1898.74 1434.07 1898.74 1591.14 1845.52 1539.79"/><line class="cls-10" x1="1926.77" y1="1482.36" x2="1898.74" y2="1518.7"/><circle class="cls-13" cx="1898.74" cy="1395.44" r="28.02" transform="translate(-430.6 1751.33) rotate(-45)"/><line class="cls-22" x1="1898.74" y1="1367.42" x2="1898.74" y2="1423.46"/><line class="cls-22" x1="1870.72" y1="1395.44" x2="1926.77" y2="1395.44"/><line class="cls-22" x1="1878.93" y1="1375.63" x2="1918.56" y2="1415.26"/><line class="cls-22" x1="1878.93" y1="1415.26" x2="1918.56" y2="1375.63"/><circle class="cls-15" cx="1898.74" cy="1395.44" r="10.37"/><circle class="cls-20" cx="1898.74" cy="1395.44" r="5.6"/><circle class="cls-13" cx="1950.44" cy="1456.57" r="28.02"/><line class="cls-22" x1="1950.44" y1="1428.55" x2="1950.44" y2="1484.59"/><line class="cls-22" x1="1922.42" y1="1456.57" x2="1978.46" y2="1456.57"/><line class="cls-22" x1="1930.62" y1="1436.76" x2="1970.25" y2="1476.38"/><line class="cls-22" x1="1930.62" y1="1476.38" x2="1970.25" y2="1436.76"/><circle class="cls-15" cx="1950.44" cy="1456.57" r="10.37"/><circle class="cls-20" cx="1950.44" cy="1456.57" r="5.6"/><circle class="cls-3" cx="1820.86" cy="1514.84" r="28.02" transform="translate(-71.8 2938.95) rotate(-76.72)"/><line class="cls-23" x1="1820.86" y1="1486.82" x2="1820.86" y2="1542.86"/><line class="cls-23" x1="1792.83" y1="1514.84" x2="1848.88" y2="1514.84"/><line class="cls-23" x1="1801.04" y1="1495.02" x2="1840.67" y2="1534.65"/><line class="cls-23" x1="1801.04" y1="1534.65" x2="1840.67" y2="1495.02"/><circle class="cls-20" cx="1820.86" cy="1514.84" r="10.37"/><circle class="cls-13" cx="1820.86" cy="1514.84" r="5.6"/><ellipse class="cls-7" cx="2263.44" cy="1381.2" rx="15.23" ry="21.45" transform="translate(-111.73 202.45) rotate(-5)"/><ellipse class="cls-7" cx="2240.88" cy="1407.51" rx="9.87" ry="14.55" transform="translate(642.28 3516.33) rotate(-84.97)"/><path class="cls-9" d="M2267.41,1417.05c-6.15,4.31-12.26,6.21-13.63,4.25s2.5-7,8.66-11.36,12.26-6.21,13.64-4.25S2273.57,1412.74,2267.41,1417.05Z"/><path class="cls-9" d="M2281.53,1404.32a3.12,3.12,0,1,1,.55-4.18A3,3,0,0,1,2281.53,1404.32Z"/></g><g id="MAN"><g id="LEGS-2" data-name="LEGS"><path class="cls-14" d="M1128.32,1350.89H783.6l33.65-131.83A138,138,0,0,1,879.7,1135l9.1-5.49,174.91,44.35Z"/><path class="cls-9" d="M1027.8,1164.75l-139-35.24-10.66,6.16c-19.46,11.24-33.86,27.28-44.94,46.31Z"/><path class="cls-24" d="M985.08,1350.89l25.52-74.78,13.89-.44a19.66,19.66,0,0,0,18.25-14.84"/></g><g id="BODY-2" data-name="BODY"><path class="cls-20" d="M1295.76,820.8,1020,713.68c-51-19.78-94.57-14.16-140.77,15.15L693.6,837.77a74.6,74.6,0,0,0-34.34,69.59l15.46,173.89,75.47,17.46,23.9-176.22L922,862.05l-58.16,216.73a41.37,41.37,0,0,0,29.49,51.86l169.84,43.07a49,49,0,0,0,57.13-28.35L1196,966.8a16.8,16.8,0,0,1,21.49-9.14l28.86,9Z"/><line class="cls-25" x1="918.5" y1="866.28" x2="948.62" y2="854.74"/><polyline class="cls-25" points="756.66 910.17 772.55 920.96 775.62 908.63"/><line class="cls-25" x1="1202.32" y1="959.54" x2="1222.74" y2="910.17"/><polygon class="cls-7" points="1161.03 835.89 1180.92 775.76 1226.21 794.06 1161.03 835.89"/></g><g id="BACKPACK"><path class="cls-26" d="M622.71,1161.37l4.24-27.68a27.43,27.43,0,0,1,28.83-23.21l39.29,2.48a27.41,27.41,0,0,1,25.61,29.48l-2.06,26.63"/><path class="cls-13" d="M751.69,1209.77,690,1549.83a31,31,0,0,1-36,25l-176.53-32c-45.08-8.18-69.1-57.9-47.52-98.3l142.78-267.19Z"/><path class="cls-9" d="M751.69,1209.77,690,1549.83a31,31,0,0,1-36,25h0c-45.08-8.18-69.11-57.91-47.53-98.3L749.2,1209.32Z"/><path class="cls-26" d="M742.4,1216.37l6.34,280.44c2,54.06-28.61,84.48-73.68,76.3l-17.95-3.25"/><path class="cls-9" d="M604.87,1414.06,572.18,1483a13.45,13.45,0,0,1-14.51,7.38l-20.26-3.68a13.44,13.44,0,0,0,14.51-7.37l35.9-74.3a7.92,7.92,0,0,0-5.71-11.24L597,1396.5C604.28,1397.81,610,1404.37,604.87,1414.06Z"/><path class="cls-9" d="M604.87,1414.06,572.18,1483c-2.88,5.64-7.58,18.28-22.79,15.52l-85.08-15.44c-13.42-2.43-13.19-16.88-10.7-21.78L494,1393.75c2.88-5.64,9.5-8.7,16.21-7.49l88.11,16C604.08,1403.3,607.36,1409.18,604.87,1414.06Z"/><path class="cls-7" d="M587.82,1405l-35.9,74.3a13.44,13.44,0,0,1-14.51,7.37L462,1473c-5.16-.93-10.67-7-8.39-11.72l35.9-74.29a13.46,13.46,0,0,1,14.5-7.39l78.1,14.17A7.92,7.92,0,0,1,587.82,1405Z"/><path class="cls-13" d="M707.46,1240.24,568.09,1215a37.87,37.87,0,0,1-30.5-44h0a37.88,37.88,0,0,1,44-30.5L721,1165.72a37.87,37.87,0,0,1,30.5,44h0A37.87,37.87,0,0,1,707.46,1240.24Z"/><path class="cls-27" d="M720.52,1168.27a37.87,37.87,0,0,1,30.5,44h0a37.87,37.87,0,0,1-44,30.5l-139.37-25.28"/><circle class="cls-9" cx="714.44" cy="1203.02" r="37.87" transform="translate(-641.41 857.54) rotate(-45)"/><line class="cls-24" x1="576.32" y1="1428.84" x2="477.92" y2="1410.99"/></g><g id="HANDS-2" data-name="HANDS"><path class="cls-14" d="M1627.93,981.75l-.6-54.63a19.2,19.2,0,0,0-16.24-18.68l-3.77-.59a7.29,7.29,0,0,1-5.8-9.51l11.21-33.74a11.32,11.32,0,0,1,11.55-7.71l6.41.64a20.62,20.62,0,0,1,15.88,10.34l8.8,12.91a36.34,36.34,0,0,1,2.91,35.8Z"/><path class="cls-18" d="M1612.79,868.19l14.16,1.35a15.62,15.62,0,0,1,10.43,5.45l8.42,9.91"/><path class="cls-18" d="M1609.38,879.91l14.53,1.39a15.59,15.59,0,0,1,10,5l7.82,8.46"/><path class="cls-18" d="M1606,891.63l14.39,1.38a15.63,15.63,0,0,1,10.18,5.15l5.28,5.91"/><path class="cls-14" d="M733.89,1094.94l-11.27,39.14a26.37,26.37,0,0,1-31.33,18.38L665,1146.31a24.7,24.7,0,0,1-18.57-19.13l-1.22-6.06a4,4,0,0,1,4.09-4.79l4.85.22a19.08,19.08,0,0,0,19.9-18.3l.69-17Z"/><polygon class="cls-9" points="674.72 1081.25 733.89 1094.94 730.01 1108.44 674.72 1081.25"/></g><g id="HEAD-3" data-name="HEAD"><path id="NECK" class="cls-14" d="M1016.08,712.65a56.24,56.24,0,0,0,65.12-18.8l39.41-52.6,80.64,71.51L1161,835.89l-32.49-56.07a100.94,100.94,0,0,0-51.15-43.63Z"/><path id="HAIR-2" data-name="HAIR" class="cls-9" d="M1244.71,547.85a9,9,0,0,1,3.86,16.88l-22.84,12.84a53.26,53.26,0,0,1-55.55,6.74,19.68,19.68,0,0,1,8.42,16.15v20.61a26.7,26.7,0,0,1-6.39,17.33l-8,9.4v18.77a18.88,18.88,0,0,0,13.1,18l31,9c3.39-9.94,11.43-20.66,21.54-23.55l20.07-2.65-.93,33.8a19.81,19.81,0,0,1-24.36,18.72l-54.8-16.17a24.51,24.51,0,0,1-16.65-23V654.55a21.94,21.94,0,0,0-21.94-21.94h-4.43a21.94,21.94,0,0,0-2.41,43.74l2.29.62-11.56.31a27.75,27.75,0,0,1-28.45-26.75l-1.51-42.19c-.46-37.09,26.35-56.06,54.93-61.66C1149.36,544.05,1244.71,547.85,1244.71,547.85Z"/><g id="EAR"><path class="cls-14" d="M1153.19,654.55v22l-28.78-.18a21.94,21.94,0,0,1,2.41-43.74h4.43A21.94,21.94,0,0,1,1153.19,654.55Z"/><path class="cls-17" d="M1125.91,647.17a13.68,13.68,0,0,1,13.68,13.68"/><line class="cls-17" x1="1128.52" y1="658.15" x2="1135.28" y2="650.89"/></g><g id="FACE"><path class="cls-14" d="M1250.87,631.88c-.16,5.82,1.74,13,5.37,17.6l5.88,7.36a4.86,4.86,0,0,1-2.47,7.7l-9.72,2.77L1229.86,670c-10.11,2.89-18.15,13.61-21.54,23.55l-31-9a18.88,18.88,0,0,1-13.1-18V647.8l8-9.4a26.7,26.7,0,0,0,6.39-17.33V600.46a19.68,19.68,0,0,0-8.42-16.15,53.26,53.26,0,0,0,55.55-6.74l18.06-10.15a35.13,35.13,0,0,1,8,18.35Z"/><path class="cls-9" d="M1224.9,610.25h20.32a0,0,0,0,1,0,0v6.93a7.14,7.14,0,0,1-7.14,7.14h-22.81a0,0,0,0,1,0,0v-4.44A9.63,9.63,0,0,1,1224.9,610.25Z" transform="translate(-82.96 204.92) rotate(-9.21)"/><ellipse class="cls-9" cx="1230.24" cy="636" rx="4.03" ry="4.87"/><path class="cls-28" d="M1249.47,685.57c-4.57,0-10.1-4.58-9.91-8.35"/></g></g></g></g></g></svg>