<svg id="Fathers_day_illustration" data-name="Fathers day illustration" xmlns="http://www.w3.org/2000/svg" viewBox="0 0 745.19 745.19"><defs><style>.cls-1{fill:#3793c9;}.cls-11,.cls-12,.cls-14,.cls-15,.cls-2,.cls-3,.cls-7{fill:none;stroke-linecap:round;stroke-linejoin:round;}.cls-2{stroke:#3b7ab5;}.cls-14,.cls-2{stroke-width:3.33px;}.cls-3{stroke:#a58162;stroke-width:7.3px;}.cls-4{fill:#ffdf5a;}.cls-5{fill:#f36b64;}.cls-6{fill:#996e5c;}.cls-11,.cls-12,.cls-7{stroke:#473135;}.cls-7{stroke-width:3px;}.cls-8{fill:#d14747;}.cls-9{fill:#473135;}.cls-10{fill:#6d4131;}.cls-11{stroke-width:4.68px;}.cls-12,.cls-15{stroke-width:5px;}.cls-13{fill:#c1856b;}.cls-14{stroke:#e09c6e;}.cls-15{stroke:#992b2b;}</style></defs><path class="cls-1" d="M204.22,224.24s-25.73,27.57-70.56,81.28-39.2,81.07-16.84,76.37c25.93-5.51,27.46,33,49,25.32,41.35-14.49,55.24,40.74,92.3-8.27C274.26,377.4,253.43,177.58,204.22,224.24Z"/><path class="cls-2" d="M133.05,376.28s19.1-41.15,40.74-68.52"/><path class="cls-2" d="M187.47,404.66s3.37-16.23,6.74-22.26"/><line class="cls-3" x1="369.32" y1="63.22" x2="381.68" y2="70.98"/><path class="cls-4" d="M358.09,36.06c-3.57-1.84-7.35-3.88-10.92-5.72a79.18,79.18,0,0,1-14.81,28.29c2.35,1.73,4.7,3.67,6.94,5.31A88.38,88.38,0,0,0,358.09,36.06Z"/><path class="cls-1" d="M368.91,42.09c-2.85-1.64-6.73-3.78-10.82-6A88.38,88.38,0,0,1,339.3,63.94c5.31,4,10.21,7.45,13.18,9.49a16.27,16.27,0,0,0,1.42.82,10.08,10.08,0,0,0,11.44-1.63c1.74-1.74,10.11-14.81,10.93-17.26a10,10,0,0,0-4.7-12C370.85,43,369.94,42.6,368.91,42.09Z"/><path class="cls-5" d="M347.17,30.35c-4.19-2.15-8.27-4.09-11.85-5.52-14.8-6.12-19.09,4.39-19.09,4.39s-7.76,8.37,4.08,19.3c3.37,3.06,7.76,6.64,12.15,10.11A82.3,82.3,0,0,0,347.17,30.35Z"/><path class="cls-6" d="M412.21,91.2c-5.52,28.08-5.11,83.11-32.17,94.55a74.88,74.88,0,0,1-25.22-23.08c9.4-15.31,21.45-45.84,23.9-58.4.51-8.27-15.52-17.77-11.54-29.51.82-2.35,2.35-2.65,4-3.06,4-1.23,3.78-6.74,4.8-11a7.2,7.2,0,0,1,6.74-5.31C398.42,55.26,415.47,75,412.21,91.2Z"/><path class="cls-7" d="M372.49,71.7s6.74-1,10.92.81,2.45,4.8-1.53,6-6,.82-6,.82"/><path class="cls-7" d="M381.06,71.7s0-8,2.15-11.64A6.53,6.53,0,0,1,387,57"/><path class="cls-7" d="M394.75,60.67s-2.35,0-4.8,3.78c-1.43,2.35-3.07,10.31-3.07,10.31s0,6.94,5.42,5.82"/><path class="cls-7" d="M401,66.39s-2.25,1.22-4.7,5.31-5.82,8.47-2.76,10.92a7.14,7.14,0,0,0,9.4,0c2.55-2.24,1-5.2-1.33-4.8"/><path class="cls-5" d="M625.1,654.1c-8.07,21-17.36,30-33.49,34-13.18,3.48-30.74,3.37-55.86,3.88h-.3a896.25,896.25,0,0,0-93.94,6.13h-.1c-2,.21-4.19.41-6.33.82-81,9.39-143.15,6.74-172.87,8.47-1.32.1-2.65.21-3.88.21-.1,0-.2.1-.3.1a102.89,102.89,0,0,1-16.64,1.53c-61.06,1.63-107.21-48.7-91.59-160.61,17-122,108.23-149.58,108.23-149.58s61.47-20.83,136.61-15.73a618.36,618.36,0,0,1,113.55,19.1c4.08-5.52,19.29,7.14,34.71,8.16,22.06,1.43,12,27,24.71,46.67C580.17,477.05,646.33,599,625.1,654.1Z"/><path class="cls-8" d="M552.81,660.84c-5.11-11.74,0-83.21,0-83.21a52.52,52.52,0,0,0-13.38-31.86C526,530.66,489.4,447,472.76,432.33s-49.83-15.82-49.83-15.82,34.71-17.67,67.59-2.86,64.63,91.69,64.63,91.69,6.44,26.95,2.86,87.81-4.08,71.06,7.76,83c5.52,5.72,16.24,9.49,25.94,11.94-13.17,3.48-30.74,3.37-55.85,3.88C547.7,691.58,557.91,672.48,552.81,660.84Z"/><path class="cls-8" d="M228.83,413.65s23.58.92,58.2,15.41,59,28.08,75.86,96.49c17.05,68.31,20.73-81.78,20.73-81.78l-32.06-53L280,382.91C280.08,382.81,238.83,399.66,228.83,413.65Z"/><path class="cls-8" d="M249.86,590.7s-3.37-39.21,4.7-56,7.86,40.64,25.42,42.89S249.86,590.7,249.86,590.7Z"/><path class="cls-8" d="M441.31,698c-2.05.2-4.09.41-6.33.82-81,9.39-143.15,6.73-172.87,8.47a1.84,1.84,0,0,1-.1-.51s57.79-8.27,143.87-133.86c-3.07,5.31-52.18,90.26-55.65,98.84C343.18,688.92,387.7,696.58,441.31,698Z"/><path class="cls-9" d="M555.87,451.63C544.94,421.41,527,372.5,513.09,365c-18.59-10.1-67.9-13.17-67.9-13.17-34.92,11.75-55.65,63.82-55.65,63.82s79,1.33,82.81,4.39c1.63,1.43,11.53,17.77,23.48,37.17C516.46,447.55,534.83,435.4,555.87,451.63Z"/><path class="cls-4" d="M387.09,183.91c-3.88,19.3-24.1,69.64-52.18,82.6L296.32,255c-9.8,17.15-29.31,27.67-49.11,24.3-39.62-2.76-68-52.69-41.26-77.6a38.88,38.88,0,0,1,18.38-9c42.58-8.88,101.8,5.31,130.6-30.22a75.5,75.5,0,0,0,25.22,23.07Z"/><path class="cls-1" d="M300.3,205.86c-6.94,13.17-35.23,15.42-55.55,0-15.62-11.74-23.58-11.94-26.44-11.43a36.32,36.32,0,0,1,5.72-1.64c23-4.9,50.74-2.86,76.17-5.61h.1S307.35,192.59,300.3,205.86Z"/><path class="cls-4" d="M216.57,250.38S195.34,291,194.21,341.77c0,0,41.36,20.11,115.69,5.2,37.78-7.66,74.33-30.22,69.22-38.9s-31.85-96.8-50.33-107.92c-11.54-7-30,34.4-58.51,49C253.23,257.94,220.45,232,216.57,250.38Z"/><path class="cls-6" d="M422.72,396c6.54,25.12-10.51,50.65-36.14,53.2-.31,0-.82.1-1.23.1a87.41,87.41,0,0,1-23.58-1c-25.63-4.8-42.89-28.69-40.13-54.63v-.4a46,46,0,0,0-1-16.85,49.74,49.74,0,0,0,2.25-8.17l19.09-52,70.25,40Z"/><path class="cls-10" d="M419.35,383.53c-22.87,7.76-49.11-8.17-72.9-5.21C374.33,397,397.3,398.23,422.83,397c-.11-.3-.11-.71-.21-1Z"/><path class="cls-6" d="M431.4,229.76c8.48,15.31,19.71,47.58,24.71,79.54,7.66,48.39-26.14,93.52-81.58,81.27-47.68-10.52-77.5-67.08-84.85-100.06s-2.76-80.77,57.28-93.43C409.65,184.22,424,216.38,431.4,229.76Z"/><path class="cls-7" d="M408.53,273.76l14.09,32.78a20.76,20.76,0,0,1-9.7,26.65h0"/><path class="cls-7" d="M410.78,348.5S388,359.12,368.3,342.07"/><path class="cls-11" d="M371,267.23a21.89,21.89,0,0,0-15.42.71"/><path class="cls-11" d="M414.35,255a14.54,14.54,0,0,1,7.76-6.33"/><path class="cls-9" d="M294.68,326.14c-20.62-34-27.77-85.46,0-112.93,13.69-13.58,35.23-34.81,68.11-35.22,31.55-.31,45.43,7,56.67,21.34,17.15,21.95-18.48,28.28-34.31,32C334.61,242.72,319,243.44,322.76,270s-6.43,50.44-6.43,50.44S327.46,344.11,323,368a40.71,40.71,0,0,1-2.25,8.16C317.35,363.82,308.77,349.42,294.68,326.14Z"/><path class="cls-6" d="M329.5,308.68c6.94,10.62,4.7,24.61-5.31,31s-23.69,3.17-30.63-7.45-4.7-24.61,5.31-31C308.88,294.59,322.56,298.06,329.5,308.68Z"/><path class="cls-7" d="M300.3,317.87s1.12-8.37,9.5-7.55,6.53,11.33,4.79,13.78c0,0,.31,5.62,8.17,6"/><path class="cls-12" d="M374.94,285.4s-8.07-4.49-11.95,3.17"/><path class="cls-12" d="M429,269.07s-6.12-4.5-9,3.16"/><path class="cls-9" d="M372.79,288.36a3.89,3.89,0,1,1-3.88-4.18A4,4,0,0,1,372.79,288.36Z"/><path class="cls-9" d="M429.87,271.41a3.89,3.89,0,1,1-3.88-4.18A4,4,0,0,1,429.87,271.41Z"/><path class="cls-13" d="M374.33,320.94a11.49,11.49,0,0,1-11.95,10.82,11.14,11.14,0,0,1-10.82-11.64,11.63,11.63,0,0,1,11.94-10.93A11.37,11.37,0,0,1,374.33,320.94Z"/><path class="cls-13" d="M451.72,300.82c1.33,5.82-1.73,11.54-6.94,12.87s-10.62-2.45-11.95-8.27,1.74-11.64,6.95-12.87S450.29,295.1,451.72,300.82Z"/><path class="cls-9" d="M436.41,489.51c-7.05-28.89-21.75-98.22-30.64-113.23-10-16.75-42.06-27.67-62.08-33.19-10.21-2.75-32.87-5-43.29-4-2.45.2-9.19,6-23.89,7.86-53,6.64-82.2-5.2-82.2-5.2A163.15,163.15,0,0,0,195.44,366c7,61.47,106.09,53.1,139.27,45.24,0,0,38.7,62.79,52.38,90.26C403.83,503,420.78,500.23,436.41,489.51Z"/><path class="cls-6" d="M462.54,541.79c-9.18-23.38-18.27-23-24.3-44.93-.51-2-1.22-4.49-1.83-7.45-15.63,10.72-32.58,13.48-49.32,12,1,2,1.73,3.78,2.55,5.31,10.31,23.38,3.06,31.55,22.87,45.54C432.12,566.6,471.84,565.17,462.54,541.79Z"/><path class="cls-9" d="M412.31,552.41c-10.21-7.35-13.17-13-15.11-19.91,12.86,2.75,32.06,6.12,40.94,4.08,8.68-2,13.17-7.35,13.68-14.19a80.54,80.54,0,0,1,10.72,19.4C471.84,565.17,432.12,566.6,412.31,552.41Z"/><path class="cls-4" d="M280.08,577.63c-7.55,4.69-15.82,7-21.34,10.31,14.5,33,34.41,59.32,60.35,83.73,9-7.87,17.76-16.65,26.54-25.73C317.35,629.39,297,607.54,280.08,577.63Z"/><path class="cls-6" d="M440.39,488.59S443,478,437.22,472.66c0,0,3.78-23.38-4.8-32.87S425.58,456.74,415,469.4s-34.92,13.78-40.23-1.54S362,450.92,360.44,453.57,362.58,484.3,362,505c-.31,13.38-31.55,47.07-81.89,72.7C297,607.65,317.35,629.5,345.53,646c48.91-51.46,91.79-117.22,93.84-125,3.37-13.78,1.53-17.46,1.53-17.46S445.19,493.9,440.39,488.59Z"/><path class="cls-7" d="M437.22,472.66s-6.43,16-10.92,21"/><path class="cls-7" d="M440.39,488.59s-3.17,14-8.68,20.32"/><path class="cls-7" d="M441.31,505.34s-3.37,9.6-6.33,13.78"/><path class="cls-4" d="M628,603.77c-.51-9-1.53-18.28-2.85-27.78-22.47,2.86-45.24.72-67.19-10.51.2,6.12.41,13.17.41,20.83A149,149,0,0,0,628,603.77Z"/><path class="cls-5" d="M558.22,586.2a576,576,0,0,1-3.37,61.27c0,.41-.1.81-.1,1.22-3.37,34.41,41.45,50.75,61.77,22.67a51,51,0,0,0,6.64-11.84c5.2-13.38,6.22-33.19,4.69-55.75A148.35,148.35,0,0,1,558.22,586.2Z"/><path class="cls-6" d="M555.05,533.11s2,11.54,2.86,32.37c22,11.13,44.72,13.37,67.19,10.51-9.09-65.85-33-141.72-41.36-154.79-12.76-19.81-23.38-29-45.33-30.42a27.54,27.54,0,0,0-3-.11c-1.13,0-2.25.11-3.37.11s-2.15.2-3.07.3a22.94,22.94,0,0,0-3.77.82,16.62,16.62,0,0,0-2,.71,35.8,35.8,0,0,0-6.84,2.86,5.87,5.87,0,0,0-1.32.82c-.11.1-.21.1-.31.2-.41.31-.92.72-1.33,1a9.79,9.79,0,0,0-2.55,2.05,24.28,24.28,0,0,0-2.76,3H508c-1.73,2.35-2.25,4.29-1.43,5.41,2.76,3.57,10.21,2.86,10.21,2.86s-6.84,8-2.65,12.15c4,4,8.78,1.53,9.49,1.12-.2.72-4.49,9.09.51,11.64,4.8,2.45,7.36.41,7.87.1-.21.51-2.35,4.39,1.12,6.84a64.39,64.39,0,0,0,6.13,3.07c1.83,12.25,14.9,37.78,14.9,37.78Z"/><path class="cls-7" d="M516.86,410.58s12.77-8.47,26-6.43"/><path class="cls-7" d="M523.71,423.86s17.46-10.42,31.34-5.52"/><path class="cls-7" d="M532.18,435.5s10.72-4,16.75-3a38.61,38.61,0,0,1,10,3"/><path class="cls-9" d="M581,515.85c-4.8,14.4-38.7,5.82-57.28-14.29-7.36-8-11.13-15.11-18.18-27.47,4.29-.41,10.82-.51,14.4,2.86,5.41,5.52,19.09,18.07,38,16.75,9.19-.72,12-5.21,12.15-9.7C576.9,494.82,584.56,504.83,581,515.85Z"/><path class="cls-6" d="M570.06,483.9c-.2,4.49-3,9.08-12.15,9.7-18.79,1.32-32.37-11.13-38-16.75-3.58-3.47-10.11-3.47-14.4-2.86-2.65-4.7-5.82-10.21-9.8-16.74,20.83-9.81,39.31-22,60.34-5.72,3.68,10.11,6.44,18.07,8.17,21.75A63.17,63.17,0,0,0,570.06,483.9Z"/><path class="cls-14" d="M248,225.16A46,46,0,0,1,236.48,217"/><path class="cls-15" d="M258.74,587.94s-14.5,5.72-29.91,4.39"/><path class="cls-15" d="M558.22,586.2s-2.05,34.62-3.58,49.73-1.22,41.35,27.57,49"/><circle class="cls-9" cx="199.52" cy="88.34" r="32.06"/><path class="cls-6" d="M243.33,174.72s2.85,12.15,4.28,20.32c0,0,6.84,9.8,23.49,10.82,18.58,1.13,22.56-9.39,21.64-13.47-.51-2.76-6.43-25.53-6.43-25.53S243.94,150.22,243.33,174.72Z"/><path class="cls-10" d="M292.54,191.67c-.51-2.25-1.84-7.76-3.17-13.07C279.16,180,269.46,180,257.31,180,269.77,189.93,281.31,192.59,292.54,191.67Z"/><path class="cls-6" d="M280.29,44.74a51.22,51.22,0,0,1,39.92,47.17c.82,13,2.14,30.74,3.88,43.6,3.17,22.26-12.15,54.63-57.89,50.85-45.54-3.78-70.56-36-74.23-73.21s22.26-67.49,60.95-70C263.75,42.39,272.63,43,280.29,44.74Z"/><path class="cls-9" d="M318.17,80.27c-3,4.8-51.87,9.3-74.44,5.52-14.09-2.35-24.4,14.91-19.8,28.38,5.61,14.2-2.56,25.53-2.66,25.33a83.89,83.89,0,0,0,4,20.31c1.64,5-4.39,9.09-8.27,5.52-43.49-40-32.67-120.08,35.94-123.45C308,39.13,320.72,76.19,318.17,80.27Z"/><path class="cls-6" d="M225.15,133.88c3.37,8.47-.41,18.07-8.37,21.14s-17.16-1.23-20.63-9.7.41-18.08,8.38-21.14C212.69,120.91,221.88,125.4,225.15,133.88Z"/><path class="cls-7" d="M204.22,137.66s.71-5.31,6.13-4.8,4.18,7.15,3,8.88c0,0,.2,3.68,5.2,3.88"/><path class="cls-12" d="M297.65,116.73l4.39,9a10.2,10.2,0,0,1-4.39,13.48h0"/><path class="cls-10" d="M292.34,154.1a33.57,33.57,0,0,0-.72-10c-2.76,1.33-7.45,2-15.11.71-9.7-1.73-10.11,4.91-6.23,10.73C277.33,152.67,285.29,153.69,292.34,154.1Z"/><path class="cls-13" d="M270.38,155.53c3.37,5.1,9.7,9.59,15.83,7.55,4.19-1.43,5.62-5.21,6.23-9C285.29,153.69,277.33,152.67,270.38,155.53Z"/><path class="cls-12" d="M271,117.24s-2.45-5-8.68,1.53"/><path class="cls-9" d="M273.75,119a3.89,3.89,0,1,1-3.88-4.18C272.12,114.58,273.75,116.62,273.75,119Z"/><path class="cls-12" d="M312.25,113.05s-2.45-5-8.68,1.53"/><path class="cls-9" d="M315,114.58a3.89,3.89,0,1,1-3.88-4.18A4.08,4.08,0,0,1,315,114.58Z"/><path class="cls-12" d="M274.47,106.21a28.35,28.35,0,0,1-10.62-2.35"/><path class="cls-12" d="M303.87,102.43s2.35-.82,6-5"/><path class="cls-7" d="M535.55,443.67c6.64.2,13.38,2.45,20.42,7.86,3.68,10.11,6.43,18.07,8.17,21.75A95.55,95.55,0,0,0,570,483.79"/><path class="cls-6" d="M356.66,199.53c-2.86,2.76-37.27,22.06-42.58,24-10,3.78-13.78,52.58-55.44,56.36-8.07.71-23.59-.92-37.78-9.8,1.53-17.77,9.6-34.72,27.06-44.83a26.65,26.65,0,0,0,26.85-2c4.09-2.86,13.18-11.43,18-16.13,12.15-12.05,18.48-19.61,27.88-24.2a37.08,37.08,0,0,1,6.53-2.45c1-.2,2.05-.51,2.76-.72h1.43c9-.1,20.62,3.58,25.12,5.82,2.75,1.54,1.53,4.39,0,6.64a19.45,19.45,0,0,1-2.15,2.66S360.44,195.75,356.66,199.53Z"/><path class="cls-7" d="M354.52,194.94s-11.85-.1-14.91,0a10.74,10.74,0,0,0-5.1,1.43"/><path class="cls-7" d="M356.66,192.28s-11.84-3-16.34-3.57-6.43,0-6.43,0"/><path class="cls-7" d="M358.3,188.51a27.3,27.3,0,0,0-8.89-3.37c-5.92-1.33-12.05-2.25-12.05-2.25"/><path class="cls-4" d="M516.66,530.45c1.12,9.3-3.78,17.36-10.93,18.08s-14-6.33-15-15.62,3.77-17.36,10.92-18.08S515.54,521.16,516.66,530.45Z"/></svg>