<svg xmlns="http://www.w3.org/2000/svg" width="64" height="64" viewBox="0 0 64 64"><path style="line-height:normal;text-indent:0;text-align:start;text-decoration-line:none;text-decoration-style:solid;text-decoration-color:#000;text-transform:none;block-progression:tb;white-space:normal;isolation:auto;mix-blend-mode:normal;solid-color:#000;solid-opacity:1" d="m 8.5,994.36216 c -0.8223489,0 -1.5,0.67765 -1.5,1.5 0,0.82235 0.6776571,1.5 1.5,1.5 l 0.5449219,0 0,29.00004 -0.044922,0 c -0.8223489,0 -1.5,0.6777 -1.5,1.5 0,0.8223 0.6776511,1.5 1.5,1.5 l 6.074219,0 -3.316407,15.9043 a 0.50004997,0.50004997 0 0 0 0.490235,0.6015 l 4,0 a 0.50004997,0.50004997 0 0 0 0.490234,-0.3984 l 3.357422,-16.1074 7.404297,0 0,13.0058 a 0.50005,0.50005 0 0 0 0.5,0.5 l 4,0 a 0.50005,0.50005 0 0 0 0.5,-0.5 l 0,-13.0058 7.404297,0 3.357422,16.1074 A 0.50004997,0.50004997 0 0 0 43.75,1045.868 l 4,0 a 0.50004997,0.50004997 0 0 0 0.490234,-0.6015 l -3.314453,-15.9043 6.074219,0 c 0.822349,0 1.5,-0.6777 1.5,-1.5 0,-0.807 -0.653544,-1.4715 -1.455078,-1.4961 l 0,-14.0039 1.18164,0 0.898438,1.3164 a 0.50005,0.50005 0 1 0 0.826172,-0.5625 l -0.513672,-0.7539 0.787109,0 0.898438,1.3164 a 0.50005,0.50005 0 1 0 0.826172,-0.5625 l -0.603516,-0.8868 a 0.50005,0.50005 0 0 0 0,-0.7343 l 0.603516,-0.8848 a 0.50005,0.50005 0 0 0 -0.416016,-0.7871 0.50005,0.50005 0 0 0 -0.410156,0.2246 l -0.896485,1.3145 -0.787109,0 0.511719,-0.752 a 0.50005,0.50005 0 0 0 -0.417969,-0.7871 0.50005,0.50005 0 0 0 -0.408203,0.2246 l -0.896484,1.3145 -1.183594,0 0,-14.00004 0.453125,0 c 0.822343,0 1.5,-0.67765 1.5,-1.5 0,-0.82235 -0.677651,-1.5 -1.5,-1.5 l -42.998047,0 z m 0,1 42.998047,0 c 0.285643,0 0.5,0.21436 0.5,0.5 0,0.28565 -0.214351,0.5 -0.5,0.5 l -42.998047,0 c -0.2856475,0 -0.5,-0.21435 -0.5,-0.5 0,-0.28564 0.2143585,-0.5 0.5,-0.5 z m 1.544922,2 40,0 0,14.00004 -1.070313,0 c -0.263497,-5.8361 -5.074151,-10.5 -10.974609,-10.5 -6.069046,0 -10.999994,4.931 -11,11 6e-6,6.0691 4.930954,11 11,11 5.900165,0 10.710672,-4.6643 10.974609,-10.5 l 1.070313,0 0,14 -40,0 0,-29.00004 z m 5.455078,2.5 a 0.50005,0.50005 0 0 0 -0.5,0.50004 l 0,2 a 0.50005,0.50005 0 0 0 0.5,0.5 l 7.998047,0 a 0.50005,0.50005 0 0 0 0.5,-0.5 l 0,-2 a 0.50005,0.50005 0 0 0 -0.5,-0.50004 l -7.998047,0 z m 0.5,1.00004 6.998047,0 0,1 -6.998047,0 0,-1 z m 22,1 c 5.359784,0 9.712952,4.2059 9.974609,9.5 l -2,0 c -0.259657,-4.1792 -3.730861,-7.4981 -7.974609,-7.4981 -4.41224,0 -8.000022,3.5859 -8,7.9981 -2.2e-5,4.4123 3.58776,8 8,8 4.243346,0 7.714367,-3.3212 7.974609,-7.5 l 2,0 c -0.261657,5.2941 -4.614825,9.5 -9.974609,9.5 -5.528606,0 -9.999995,-4.4714 -10,-10 5e-6,-5.5286 4.471394,-10 10,-10 z m -24.5,3 c -0.277,0 -0.5,0.223 -0.5,0.5 0,0.277 0.223,0.5 0.5,0.5 l 12,0 c 0.277,0 0.5,-0.223 0.5,-0.5 0,-0.277 -0.223,-0.5 -0.5,-0.5 l -12,0 z m 24.5,0 c 3.702986,0 6.718072,2.8616 6.974609,6.4981 l -2,0 c -0.251386,-2.5224 -2.387593,-4.5 -4.974609,-4.5 -2.755288,0 -4.999966,2.2447 -5,5 -2.7e-5,2.7554 2.244669,5 5,5 2.586413,0 4.722397,-1.9785 4.974609,-4.5 l 2,0 c -0.257192,3.636 -3.272083,6.5 -6.974609,6.5 -3.871798,0 -7.00002,-3.1282 -7,-7 -2e-5,-3.8718 3.128202,-6.9981 7,-6.9981 z m -24.5,1.9981 c -0.277,0 -0.5,0.223 -0.5,0.5 0,0.277 0.223,0.5 0.5,0.5 l 12,0 c 0.277,0 0.5,-0.223 0.5,-0.5 0,-0.277 -0.223,-0.5 -0.5,-0.5 l -12,0 z m 24.5,1 c 2.043679,0 3.704021,1.5251 3.951172,3.5 l -2.023438,0 c -0.224659,-0.8583 -1.002396,-1.5 -1.927734,-1.5 -1.098482,0 -1.999993,0.9015 -2,2 7e-6,1.0985 0.901518,2 2,2 0.924686,0 1.702444,-0.6427 1.927734,-1.5 l 2.023438,0 c -0.247639,1.9743 -1.907871,3.5 -3.951172,3.5 -2.214887,0 -4.000022,-1.7851 -4,-4 2.8e-5,-2.2148 1.785148,-4 4,-4 z m -24.5,1 c -0.277,0 -0.5,0.223 -0.5,0.5 0,0.277 0.223,0.5 0.5,0.5 l 12,0 c 0.277,0 0.5,-0.223 0.5,-0.5 0,-0.277 -0.223,-0.5 -0.5,-0.5 l -12,0 z m 0,2 c -0.277,0 -0.5,0.223 -0.5,0.5 0,0.277 0.223,0.5 0.5,0.5 l 12,0 c 0.277,0 0.5,-0.223 0.5,-0.5 0,-0.277 -0.223,-0.5 -0.5,-0.5 l -12,0 z m 24.5,0 c 0.371371,0 0.677105,0.2045 0.849609,0.5 l -0.849609,0 a 0.50005,0.50005 0 1 0 0,1 l 0.849609,0 c -0.172698,0.2946 -0.478829,0.5 -0.849609,0.5 -0.558044,0 -0.999997,-0.4419 -1,-1 3e-6,-0.558 0.441956,-1 1,-1 z m -24.5,2 c -0.277,0 -0.5,0.223 -0.5,0.5 0,0.277 0.223,0.5 0.5,0.5 l 12,0 c 0.277,0 0.5,-0.223 0.5,-0.5 0,-0.277 -0.223,-0.5 -0.5,-0.5 l -12,0 z m 0,2 c -0.277,0 -0.5,0.223 -0.5,0.5 0,0.277 0.223,0.5 0.5,0.5 l 12,0 c 0.277,0 0.5,-0.223 0.5,-0.5 0,-0.277 -0.223,-0.5 -0.5,-0.5 l -12,0 z m 0,2 c -0.277,0 -0.5,0.223 -0.5,0.5 0,0.277 0.223,0.5 0.5,0.5 l 12,0 c 0.277,0 0.5,-0.223 0.5,-0.5 0,-0.277 -0.223,-0.5 -0.5,-0.5 l -12,0 z m 0,2 c -0.277,0 -0.5,0.223 -0.5,0.5 0,0.277 0.223,0.5 0.5,0.5 l 12,0 c 0.277,0 0.5,-0.223 0.5,-0.5 0,-0.277 -0.223,-0.5 -0.5,-0.5 l -12,0 z m -4.5,8.5 42,0 c 0.285641,0 0.5,0.2144 0.5,0.5 0,0.2855 -0.214359,0.5 -0.5,0.5 l -10.591797,0 a 0.50004997,0.50004997 0 0 0 -0.109375,-0.01 0.50004997,0.50004997 0 0 0 -0.08984,0.01 l -8.117187,0 a 0.50005,0.50005 0 0 0 -0.173828,0 l -3.839844,0 a 0.50005,0.50005 0 0 0 -0.08594,-0.01 0.50005,0.50005 0 0 0 -0.07422,0.01 L 9,1028.3622 c -0.2856415,0 -0.5,-0.2145 -0.5,-0.5 0,-0.2856 0.2143585,-0.5 0.5,-0.5 z m 7.095703,2 2.976563,0 -3.230469,15.5058 -2.978516,0 3.232422,-15.5058 z m 12.404297,0 3,0 0,12.5058 -3,0 0,-12.5058 z m 12.425781,0 2.978516,0 3.232422,15.5058 -2.978516,0 -3.232422,-15.5058 z" color="#000" enable-background="accumulate" font-family="sans-serif" font-weight="400" overflow="visible" transform="translate(0 -988.362)"/></svg>