<svg xmlns="http://www.w3.org/2000/svg" xmlns:xlink="http://www.w3.org/1999/xlink" viewBox="0 0 1200 900"><defs><style>.cls-1,.cls-11,.cls-4{fill:none;}.cls-2{fill:#d9e0f9;}.cls-3,.cls-8{fill:#553ef9;}.cls-11,.cls-4,.cls-8{stroke:#f4d34d;stroke-miterlimit:10;}.cls-4,.cls-8{stroke-width:4px;}.cls-5{fill:#fc543d;}.cls-6{fill:#fff;}.cls-7{fill:#f4d34d;}.cls-9{clip-path:url(#clip-path);}.cls-10{fill:#edb2a2;}.cls-11{stroke-width:21px;}</style><clipPath id="clip-path"><circle class="cls-1" cx="658.95" cy="413.19" r="154.36"/></clipPath></defs><g id="bg"><path class="cls-2" d="M97.43,250.57c6.41,45.13,51,87.76,44.56,132.9-3.86,27.2-34.92,50.24-51.56,72-36.4,47.7-47.81,105.89-4.12,177,25.2,41.05,28.3,47.92,37.69,82.46,3.74,13.75,10.49,41.08,13.14,55.08C150,838,204.73,860.46,249,865c89,9.13,140.46-44,185.69-70.43,42.9-25,75.25-55.47,143-54.46,46.57.7,57.89,5.61,100.09,25.37,60.67,28.42,123.47,67.77,185,80.17,53.14,10.71,116.93-9.51,163.49-37.35s79.28-81.67,73.41-135.75c-3.94-36.32-22.18-65.37-33.11-100.22-33.93-108.24-5.63-158,8.53-177.25,24.45-33.3,70.6-78.47,78.86-142.07,6.07-46.69,2-80-64.13-158.66-27.3-32.47-77.42-41.14-108.19-45.66-41.45-6.09-77.85,5.3-107,18.49s-71.92,51.44-102.26,61.68c-49.74,16.78-89.06,15.41-135.48-9.14C615.45,108.38,593.45,79.6,571.18,70c-41.51-17.89-77.07-17.11-119.31-1-22.64,8.63-61.41,23.13-85.42,26.28-32.38,4.26-56.48-5-88.72-10.16-1.34-.21-2.69-.42-4-.61-68.56-9.73-134.83,29.64-160.44,94.2C102.8,205,94.85,232.45,97.43,250.57Z"/><path class="cls-3" d="M281.38,273.9c-5.86-33.62-8.23-63-24.08-92.6-18.1-33.83-51.72-66.83-83.45-85.82-1.35-.81-2.74,1-1.8,2.26,6.22,8.6,9.2,20.09,11.57,30.93C191.55,165,196.45,211,226.51,234.41a115.31,115.31,0,0,1,32.34,38.85,280.41,280.41,0,0,0-28.53-21.94c-29.72-19.9-64.19-41.53-97.53-52.8-17.33-5.86-31.21-10.62-51.14-9.48a1,1,0,0,0-.38,1.91c10.52,5.77,18.13,16.73,24,27.84,6.52,12.27,11.6,25.24,19.18,36.79,13.27,20.2,34.86,33.89,57.79,36.64,20.33,2.45,42.29-3,60.49,7,10,5.52,18.41,15.54,29.64,16.81,6.16.7,9.15-1.22,10.16-4.41a3.8,3.8,0,0,0,1.07-2.53A164.85,164.85,0,0,0,281.38,273.9Z"/><path class="cls-4" d="M87.83,404a99.47,99.47,0,0,1,73.75-19.32c7.23,1,14.52,3,20.47,7.21S192.4,403,192.12,410.3c-.26,7-4.88,13.44-11.08,16.67s-13.72,3.46-20.4,1.41a22.21,22.21,0,0,1-9.76-5.7c-7.82-8.31-5.11-22.11,1-31.73,8.47-13.28,22.29-22.74,37.38-27.23s31.37-4.23,46.72-.71"/><path class="cls-3" d="M911.05,285.89c25-51.7,19.87-109.45-7-159.46-4.44-8.28,1.56-20.16,15.65-20.65,11-.38,19.25,11.49,24.21,19,23.06,34.91,20.4,97.17-.41,133.46,33.26-24.18,51.54-72.27,49.28-113.32-1.31-23.71-7.67-44.44-10.6-68a10,10,0,0,1,5.23-10.24c4.37-2.13,11.71-4.47,17.72.51,22.33,18.53,29.23,48,26.83,73.84s-15.7,46.56-30.65,69.88c27.28-27.46,50.35-56,77.63-83.46,8-8.09,13.83-15.51,28.39-17.88,5.81-.94,15.06.67,22.56,9.6,8.46,10.09,3.92,22.74-3.49,30.06-11.07,10.93-34.93,22.29-48.28,30.26-21.62,12.92-49.53,31.88-71.16,44.8,24.67-10.86,62.49-26.1,89-21.26,29,5.3,54,17,59.92,52.31,1.79,10.68-6,17.62-10.93,19.74-7,3-15.65-7.69-20.32-12.72-28.34-30.59-53.4-27.91-82.66-26.37-31,1.63-63.92,10.51-85.25,30.59,28.45-9.91,73.73-11.45,101.15,1.05,18.33,8.35,41.47,30.52,41.49,46.49,0,2.16-3,7.42-4.6,8.88-11.11,10.16-23.67-1.85-30.26-5.81-50.49-30.37-95.15-50.13-168.38,2.34-2.14,1.53-4.83-1.09-3.5-3.36Z"/><circle class="cls-5" cx="214.49" cy="709.36" r="7.32"/><circle class="cls-5" cx="238.89" cy="737.01" r="7.32"/><circle class="cls-5" cx="201.49" cy="745.95" r="7.32"/><circle class="cls-3" cx="462.86" cy="306.46" r="12.67"/><circle class="cls-4" cx="778.64" cy="250.9" r="17.18"/><circle class="cls-6" cx="482.9" cy="274.65" r="6.89"/><path class="cls-6" d="M652.27,623.05a20.42,20.42,0,0,1-11.4,16.31.19.19,0,0,0,0,.33c1.7.85,9.64,4.75,10.55,16.06a.18.18,0,0,0,.36,0c.85-3.84,3.85-13.11,12.06-15.75a.19.19,0,0,0,0-.35c-2-.77-9.77-3.36-11.22-16.6C652.61,622.87,652.29,622.85,652.27,623.05Z"/><path class="cls-7" d="M997.21,636c-1.74,14.31-9.42,47.58-45.27,64.81a.72.72,0,0,0,0,1.29c6.77,3.38,38.31,18.88,41.92,63.8a.73.73,0,0,0,1.44.11c3.38-15.29,15.3-52.11,47.89-62.59a.73.73,0,0,0,0-1.38c-8-3.08-38.82-13.34-44.61-66C998.55,635.3,997.3,635.24,997.21,636Z"/><path class="cls-6" d="M566.25,218a11.14,11.14,0,0,1-3,1.06,10.77,10.77,0,0,1-12.68-8.42c-1.55-7.69-10.36-14-17.77-12.65a41.58,41.58,0,0,0-8.38,2.93,62,62,0,0,1-12.37,4.2c-13.68,2.68-28.7-3.07-37.38-14.32-6.31-8.19-8.63-17.81-10.68-26.31-.29-1.2-.58-2.4-.88-3.59-1.47-5.84-4-14-9-17.28-2.6-1.71-6.46-2.53-11.79-2.51a10.76,10.76,0,1,1-.11-21.52c9.71,0,17.47,1.93,23.73,6,11.16,7.35,15.52,19.9,18.06,30,.32,1.26.63,2.54.94,3.81,1.69,7,3.29,13.66,6.8,18.21A17.11,17.11,0,0,0,507.94,184a43.7,43.7,0,0,0,8.11-2.89,58.94,58.94,0,0,1,13.07-4.32c18.84-3.31,38.74,10.51,42.6,29.59A10.77,10.77,0,0,1,566.25,218Z"/><polygon class="cls-7" points="578.61 659.31 587.67 677.66 607.92 680.61 593.27 694.89 596.73 715.07 578.61 705.54 560.49 715.07 563.95 694.89 549.29 680.61 569.55 677.66 578.61 659.31"/><polygon class="cls-6" points="963.08 328.7 969.79 342.98 985.36 345.55 973.86 356.35 976.23 371.94 962.41 364.34 948.3 371.41 951.27 355.92 940.18 344.69 955.83 342.72 963.08 328.7"/><circle class="cls-5" cx="990.38" cy="418.83" r="8.84"/></g><g id="right"><line class="cls-8" x1="836.55" y1="324.11" x2="836.55" y2="47.16"/><path class="cls-5" d="M946.22,553.83c0-77-29-142.92-70-170a54.6,54.6,0,0,1-23-32.56l-4.71-19.2a12.85,12.85,0,0,0-10.14-9.74,12.55,12.55,0,0,0-14.23,9.07l-5.23,19.21a54.35,54.35,0,0,1-23.76,31.89C753,408.7,723,475.52,723,553.83c0,79.06,30.54,146.41,73.32,172a42,42,0,0,1,19.11,26l8.34,34a12.84,12.84,0,0,0,10.14,9.74,12.54,12.54,0,0,0,14.22-9.06L858.66,748a41.43,41.43,0,0,1,17.14-23.93C917.05,697.17,946.22,631.09,946.22,553.83Z"/><path class="cls-7" d="M935.47,630.78c2.19-.54-6.76,22.53-10.91,31.11,0,0-73.59,28.6-178.93.35a3.48,3.48,0,0,1-2.38-2c-2.76-6.57-4.94-10.36-10.58-30.64C732.67,629.65,826.19,657.82,935.47,630.78Z"/><path class="cls-7" d="M725.91,597c-1.64-.59-3.6-21.08-3.41-32.35a1,1,0,0,1,1.38-1c12.21,4.34,106,35.11,220.25.43a1,1,0,0,1,1.34.95,201.86,201.86,0,0,1-2.24,32.75,1,1,0,0,1-.65.82C934.47,601.82,839.37,637.41,725.91,597Z"/><path class="cls-7" d="M768.87,468.71C763.7,476,746,504.6,759.09,536.28a1.18,1.18,0,0,0,2,.27C766,530.25,783,504.84,771,469A1.18,1.18,0,0,0,768.87,468.71Z"/><path class="cls-7" d="M835.77,477c-4.86,7.83-21.53,38.9-1.67,69.69a1.36,1.36,0,0,0,2.26,0c4.73-6.86,21.2-34.93,1.77-69.64A1.37,1.37,0,0,0,835.77,477Z"/><path class="cls-7" d="M913.67,534.12c2.89-8.32,9.32-35.08-13.29-65.88a1.67,1.67,0,0,0-3,.54c-2.59,9.65-8.1,39.53,13.37,65.84A1.67,1.67,0,0,0,913.67,534.12Z"/><path class="cls-7" d="M767.87,407.81c4.36,1.84,62.36,25.18,134.93.08,0,0-6.5-8.29-12.26-12.69,0,0-67.29,20.28-111.67.1,0,0-10.83,11.26-11.17,12.13A.29.29,0,0,0,767.87,407.81Z"/></g><g id="central"><path class="cls-7" d="M660.24,226.42h.83A14.93,14.93,0,0,1,676,241.36v18.33a0,0,0,0,1,0,0h-30.7a0,0,0,0,1,0,0V241.36A14.93,14.93,0,0,1,660.24,226.42Z"/><line class="cls-8" x1="659.81" y1="107.06" x2="659.81" y2="275.03"/><g class="cls-9"><circle class="cls-10" cx="659.81" cy="412.34" r="154.36"/><path class="cls-11" d="M650,252.43c106.6,40.94,122.8,103.2,122,167.16C771,491.24,714.81,572.24,621,597"/><path class="cls-11" d="M651.71,239.64c39.22,36.67,70.27,113.29,69.07,178.24C719.66,478.8,692.64,546.66,649.15,591"/><line class="cls-11" x1="661.94" y1="225.57" x2="661.94" y2="596.55"/><path class="cls-11" d="M684.93,239c-109.56,32.19-139,118.49-135.56,179.73,4.26,75.9,45.13,133.79,136.63,166"/><path class="cls-11" d="M684.27,226.11C642.2,259.49,605.07,333.35,601,398.19c-3.81,60.8,17.64,130.62,57.41,178.34"/></g></g><g id="left"><path class="cls-7" d="M355,287.72h0a17.67,17.67,0,0,1,17.67,17.67V326a0,0,0,0,1,0,0H337.29a0,0,0,0,1,0,0V305.39A17.67,17.67,0,0,1,355,287.72Z"/><line class="cls-8" x1="354.96" y1="110.98" x2="354.96" y2="348.59"/><path class="cls-3" d="M567,557.26c0-57.2-54.41-106.2-131.7-126.7a29.31,29.31,0,0,1-20.49-19.38,310.64,310.64,0,0,1-11.35-50.73A49,49,0,0,0,355,318.16H355a49,49,0,0,0-48.55,42.17,312.32,312.32,0,0,1-11.08,50.44,29.34,29.34,0,0,1-20.65,19.51c-77.86,20.33-132.77,69.52-132.77,127,0,59.46,58.8,110.06,141,129a29.12,29.12,0,0,1,21.93,22.42c1.6,7.66,2.83,15,3.78,21.75a49.07,49.07,0,0,0,48.58,42.33h0a49,49,0,0,0,48.55-42.37c1-7.16,2.29-14.92,4-23A29.19,29.19,0,0,1,431.16,685C510.66,665.21,567,615.48,567,557.26Z"/><path class="cls-7" d="M361.92,586.26c-32.83,0-62.8-1.8-88.36-4.23-74.66-7.12-125.5-20.17-132.74-22.1a1.13,1.13,0,0,1-.85-1.15l.4-9a1.14,1.14,0,0,1,1.43-1c8.94,2.4,60.61,15.68,133.05,22.57,72.93,6.93,183.92,7.87,291.84-23.39.53-.15.86.45,1,1l.33,9a1,1,0,0,1-.68,1.15C495.53,579.8,424.11,586.26,361.92,586.26Z"/><path class="cls-5" d="M361.08,612.77c-32.7,0-62.56-1.8-88-4.23-74.38-7.12-120.12-19.18-127.33-21.11a1.15,1.15,0,0,1-.85-1.15l-2.55-10a1.14,1.14,0,0,1,1.43-1c8.9,2.4,58.42,15.68,130.58,22.57,72.66,6.93,183.24,7.87,290.74-23.39.53-.15.86.45,1,1l-1.63,9a1,1,0,0,1-.68,1.15C492.23,606.31,423,612.77,361.08,612.77Z"/><path class="cls-4" d="M323.88,456a156.29,156.29,0,0,0-52.76,85.21"/><circle class="cls-10" cx="273.96" cy="534.66" r="14.24"/><path class="cls-4" d="M391.4,455.51a161.45,161.45,0,0,1,51.41,78.86"/><circle class="cls-10" cx="442.84" cy="537.6" r="14.24"/><path class="cls-4" d="M358.24,455.63,355.43,535"/><path class="cls-4" d="M283.63,449.06a185.09,185.09,0,0,0-86.84,75.34"/><circle class="cls-5" cx="200.32" cy="527.78" r="14.24"/><path class="cls-4" d="M435.94,450.86a196.48,196.48,0,0,1,74.84,68.45"/><circle class="cls-5" cx="513.53" cy="526.8" r="14.24"/><circle class="cls-5" cx="355.45" cy="543.49" r="14.24"/></g></svg>