<svg xmlns="http://www.w3.org/2000/svg" viewBox="0 0 1007.5 856"><defs><style>.cls-1{fill:#553ef9;}.cls-2{fill:#edb2a2;}.cls-3,.cls-5{fill:#f4d34d;}.cls-4{fill:#d9e0f9;}.cls-5{stroke:#fff;}.cls-5,.cls-6,.cls-9{stroke-miterlimit:10;}.cls-6,.cls-9{fill:none;}.cls-6{stroke:#d9e0f9;stroke-width:3px;}.cls-7{fill:#f2e4a7;}.cls-8{fill:#fff;}.cls-9{stroke:#f4d34d;stroke-width:26px;}.cls-10{fill:#fc543d;}</style></defs><g id="background"><path class="cls-1" d="M784.78,168.49C715.45,80.06,608,23,487.11,22,277.55,20.34,105,189,102,398.56,99.07,612,271.22,786,484,786h2.82c48.36-.35,95.5,14.15,135.94,40.67A314.52,314.52,0,0,0,1109.5,564.39c.36-128.95-76.9-239.9-187.69-288.77C867.93,251.85,821.12,214.83,784.78,168.49Z" transform="translate(-102 -22)"/></g><g id="scroll"><circle class="cls-2" cx="817.56" cy="547.05" r="11.27"/><rect class="cls-3" x="813.42" y="455.5" width="50.7" height="225.32" transform="translate(1393.16 -225.51) rotate(96.27)"/><rect class="cls-4" x="916.12" y="566.39" width="69.47" height="26.29" rx="12.83" transform="translate(1528.8 -324.31) rotate(96.27)"/><rect class="cls-4" x="698.58" y="543.42" width="69.47" height="26.29" rx="12.83" transform="translate(1264.67 -133.55) rotate(96.27)"/><path class="cls-4" d="M957.6,586.89,959,573.82l53.84.24a12.25,12.25,0,0,1,11.7,13.58h0a12.25,12.25,0,0,1-14.37,10.71Z" transform="translate(-102 -22)"/><path class="cls-4" d="M735.8,551.17l-1.44,13.07L680.52,564a12.24,12.24,0,0,1-11.7-13.58h0a12.25,12.25,0,0,1,14.37-10.71Z" transform="translate(-102 -22)"/></g><g id="elements"><line class="cls-5" x1="201.16" y1="276.1" x2="201.16" y2="293.52"/><line class="cls-5" x1="193.35" y1="284.51" x2="208.97" y2="284.51"/><line class="cls-6" x1="419.83" y1="77.71" x2="380.31" y2="89.75"/><line class="cls-6" x1="402.12" y1="63.38" x2="398.46" y2="103.53"/><line class="cls-6" x1="386.02" y1="71.93" x2="413.74" y2="95.41"/><circle class="cls-4" cx="401.92" cy="63.55" r="4.73"/><circle class="cls-4" cx="386.04" cy="72.28" r="4.73"/><circle class="cls-4" cx="419.71" cy="77.97" r="4.73"/><circle class="cls-4" cx="414.85" cy="96.03" r="4.73"/><circle class="cls-4" cx="398.1" cy="102.71" r="4.73"/><circle class="cls-4" cx="381.45" cy="89.26" r="4.73"/><path class="cls-4" d="M410.69,659c-14.16,21.37-35.5,38.56-63.71,19.86-28.44-18.85-21.38-44.51-7.22-65.88s39.81-23.89,58.51-11.5S424.86,637.67,410.69,659Z" transform="translate(-102 -22)"/><path class="cls-4" d="M408.33,557.67h.42a8.49,8.49,0,0,1,8.49,8.49v46.21a0,0,0,0,1,0,0H399.84a0,0,0,0,1,0,0V566.16a8.49,8.49,0,0,1,8.49-8.49Z" transform="translate(289.25 -150.32) rotate(33.54)"/><path class="cls-3" d="M343.31,646.2h0c-9.8-6.5-10.36-22.9-1.26-36.63L365,575l43.73,11.09-31.14,47C368.43,646.82,353.11,652.69,343.31,646.2Z" transform="translate(-102 -22)"/><path class="cls-7" d="M377.84,670.08h0c-9.8-6.49-10.36-22.89-1.26-36.63l31.15-47,30,31.81L412.07,657C403,670.71,387.64,676.58,377.84,670.08Z" transform="translate(-102 -22)"/><path class="cls-4" d="M312.29,454c11.5,22.91,15.8,50-14.45,65.16-30.5,15.3-49.25-3.59-60.75-26.51s-.93-46.41,19.12-56.47S300.79,431,312.29,454Z" transform="translate(-102 -22)"/><path class="cls-4" d="M246.79,391.66h.42a8.49,8.49,0,0,1,8.49,8.49v46.21a0,0,0,0,1,0,0H238.3a0,0,0,0,1,0,0V400.15A8.49,8.49,0,0,1,246.79,391.66Z" transform="translate(-263.67 133.26) rotate(-26.64)"/><path class="cls-3" d="M267.64,506h0c-10.51,5.27-25-2.4-32.4-17.13l-18.59-37L248,419.43l25.27,50.38C280.67,484.54,278.15,500.75,267.64,506Z" transform="translate(-102 -22)"/><path class="cls-7" d="M305.53,487.94h0c-10.5,5.27-25-2.39-32.4-17.12l-25.28-50.38,42.51-10.2,20.82,41.49C318.57,466.46,316,482.67,305.53,487.94Z" transform="translate(-102 -22)"/><rect class="cls-2" x="297.7" y="147.38" width="18.44" height="51.77" transform="matrix(0.25, 0.97, -0.97, 0.25, 295.09, -189.46)"/><path class="cls-4" d="M982.78,459.79l-113.28-.45a1.59,1.59,0,0,1-1.33-2.46l55.85-86a1.59,1.59,0,0,1,2.66,0l57.43,86.49A1.59,1.59,0,0,1,982.78,459.79Zm-97.62-9.13,81.66.32a1.58,1.58,0,0,0,1.33-2.47l-41.39-62.35a1.59,1.59,0,0,0-2.66,0l-40.26,62A1.59,1.59,0,0,0,885.16,450.66Z" transform="translate(-102 -22)"/><path class="cls-4" d="M923.6,489.8l-56.3-86.49a1.59,1.59,0,0,1,1.34-2.46l113.28.45a1.59,1.59,0,0,1,1.32,2.47l-57,86A1.59,1.59,0,0,1,923.6,489.8Zm-40.52-77.68,40.58,62.34a1.59,1.59,0,0,0,2.66,0l41.08-62a1.59,1.59,0,0,0-1.32-2.47l-81.66-.32A1.59,1.59,0,0,0,883.08,412.12Z" transform="translate(-102 -22)"/><path class="cls-8" d="M209.16,252.48,222.23,258a1.48,1.48,0,0,0,1.7-.4l9.2-10.79a1.48,1.48,0,0,1,2.59.78l1.76,14.07a1.47,1.47,0,0,0,1.2,1.27l13.94,2.57a1.48,1.48,0,0,1,.62,2.63l-11.3,8.56a1.47,1.47,0,0,0-.5,1.67l4.74,13.37a1.48,1.48,0,0,1-2,1.85l-13.06-5.51a1.48,1.48,0,0,0-1.7.4l-9.2,10.79a1.48,1.48,0,0,1-2.59-.77L215.9,284.4a1.46,1.46,0,0,0-1.2-1.26l-13.94-2.58a1.48,1.48,0,0,1-.63-2.63l11.31-8.56a1.47,1.47,0,0,0,.5-1.67l-4.74-13.36A1.48,1.48,0,0,1,209.16,252.48Z" transform="translate(-102 -22)"/><path class="cls-8" d="M839.05,315.42l3.59-7.33a.84.84,0,0,0-.17-1l-5.9-5.63a.85.85,0,0,1,.52-1.46l8.15-.56a.84.84,0,0,0,.76-.65l1.93-7.93a.86.86,0,0,1,1.54-.27l4.55,6.77a.83.83,0,0,0,.94.34l7.83-2.29a.86.86,0,0,1,1,1.19l-3.59,7.33a.85.85,0,0,0,.17,1l5.9,5.63a.85.85,0,0,1-.52,1.47l-8.15.55a.84.84,0,0,0-.76.65l-1.93,7.93a.85.85,0,0,1-1.54.27l-4.55-6.77a.83.83,0,0,0-.94-.34l-7.83,2.29A.86.86,0,0,1,839.05,315.42Z" transform="translate(-102 -22)"/><circle class="cls-4" cx="150.51" cy="554.22" r="10.25"/><path class="cls-6" d="M201.22,398.83c-13.9,11.46-23,28.84-23.49,46.85s7.93,36.24,22.55,46.76" transform="translate(-102 -22)"/><path class="cls-6" d="M170.84,418.76a55.36,55.36,0,0,0-6.1,46.08" transform="translate(-102 -22)"/></g><g id="money"><path class="cls-3" d="M669.74,808.83c0,9.17,26.41,16.59,59,16.59s59-7.42,59-16.59V803.3h-118Z" transform="translate(-102 -22)"/><ellipse class="cls-7" cx="626.73" cy="779.46" rx="58.99" ry="16.59"/><path class="cls-3" d="M685.41,794.09c0,9.16,26.41,16.59,59,16.59s59-7.43,59-16.59v-5.53h-118Z" transform="translate(-102 -22)"/><ellipse class="cls-7" cx="642.4" cy="764.71" rx="58.99" ry="16.59"/><path class="cls-3" d="M660.53,779.34c0,9.16,26.4,16.59,59,16.59s59-7.43,59-16.59v-5.53h-118Z" transform="translate(-102 -22)"/><ellipse class="cls-7" cx="617.51" cy="749.97" rx="58.99" ry="16.59"/></g><g id="Слой_2" data-name="Слой 2"><rect class="cls-1" x="462.28" y="162.59" width="5.2" height="25.14"/><path class="cls-3" d="M566.88,158.58l-9.71,22a10.9,10.9,0,0,0,10,15.3h0A10.89,10.89,0,0,0,577,180.37Z" transform="translate(-102 -22)"/><rect class="cls-4" x="453.61" y="183.39" width="24.27" height="104.89"/><rect class="cls-1" x="399" y="199.86" width="5.2" height="25.14"/><path class="cls-3" d="M503.6,195.86l-9.71,22a10.9,10.9,0,0,0,10,15.3h0a10.89,10.89,0,0,0,9.87-15.49Z" transform="translate(-102 -22)"/><rect class="cls-4" x="390.33" y="220.67" width="24.27" height="104.89"/><rect class="cls-1" x="337.45" y="200.73" width="5.2" height="25.14"/><path class="cls-3" d="M442.06,196.72l-9.72,22a10.9,10.9,0,0,0,10,15.3h0a10.9,10.9,0,0,0,9.88-15.49Z" transform="translate(-102 -22)"/><rect class="cls-4" x="328.79" y="221.53" width="24.27" height="104.89"/><rect class="cls-1" x="276.78" y="201.6" width="5.2" height="25.14"/><path class="cls-3" d="M381.38,197.59l-9.71,22a10.89,10.89,0,0,0,10,15.29h0a10.89,10.89,0,0,0,9.88-15.48Z" transform="translate(-102 -22)"/><rect class="cls-4" x="268.11" y="222.4" width="24.27" height="104.89"/><rect class="cls-1" x="644.32" y="196.39" width="5.2" height="25.14"/><path class="cls-3" d="M748.92,192.39l-9.71,22a10.89,10.89,0,0,0,10,15.29h0a10.89,10.89,0,0,0,9.88-15.49Z" transform="translate(-102 -22)"/><rect class="cls-4" x="635.65" y="217.2" width="24.27" height="104.89"/><rect class="cls-1" x="582.77" y="193.79" width="5.2" height="25.14"/><path class="cls-3" d="M687.37,189.79l-9.71,22a10.89,10.89,0,0,0,10,15.29h0a10.89,10.89,0,0,0,9.87-15.49Z" transform="translate(-102 -22)"/><rect class="cls-4" x="574.1" y="214.6" width="24.27" height="104.89"/><rect class="cls-1" x="522.09" y="194.66" width="5.2" height="25.14"/><path class="cls-3" d="M626.69,190.66l-9.71,22a10.9,10.9,0,0,0,10,15.3h0a10.9,10.9,0,0,0,9.88-15.49Z" transform="translate(-102 -22)"/><rect class="cls-4" x="513.42" y="215.46" width="24.27" height="104.89"/><rect class="cls-3" x="452.79" y="290.66" width="23.45" height="304.79"/><path class="cls-3" d="M437.94,275h53.92a0,0,0,0,1,0,0v1a26.31,26.31,0,0,1-26.31,26.31h-1.3a26.31,26.31,0,0,1-26.31-26.31v-1A0,0,0,0,1,437.94,275Z"/><path class="cls-3" d="M539.16,609.63h53.92a0,0,0,0,1,0,0v1A26.31,26.31,0,0,1,566.77,637h-1.3a26.31,26.31,0,0,1-26.31-26.31v-1a0,0,0,0,1,0,0Z" transform="translate(1030.25 1224.62) rotate(180)"/><path class="cls-3" d="M497.34,310.19h53.92a0,0,0,0,1,0,0v1a26.31,26.31,0,0,1-26.31,26.31h-1.3a26.31,26.31,0,0,1-26.31-26.31v-1a0,0,0,0,1,0,0Z"/><path class="cls-3" d="M377,311.76h53.92a0,0,0,0,1,0,0v1a26.31,26.31,0,0,1-26.31,26.31h-1.3A26.31,26.31,0,0,1,377,312.8v-1A0,0,0,0,1,377,311.76Z"/><path class="cls-3" d="M312.55,311.76h53.52a0,0,0,0,1,0,0V313a26.12,26.12,0,0,1-26.12,26.12h-1.29A26.12,26.12,0,0,1,312.55,313v-1.24A0,0,0,0,1,312.55,311.76Z"/><path class="cls-3" d="M561,309.41h53.52a0,0,0,0,1,0,0v1.24a26.12,26.12,0,0,1-26.12,26.12h-1.29A26.12,26.12,0,0,1,561,310.65v-1.24A0,0,0,0,1,561,309.41Z"/><path class="cls-3" d="M622,309.41h53.52a0,0,0,0,1,0,0v1.24a26.12,26.12,0,0,1-26.12,26.12h-1.29A26.12,26.12,0,0,1,622,310.65v-1.24A0,0,0,0,1,622,309.41Z"/><path class="cls-3" d="M249.9,312.54h53.52a0,0,0,0,1,0,0v1.24a26.12,26.12,0,0,1-26.12,26.12H276a26.12,26.12,0,0,1-26.12-26.12v-1.24A0,0,0,0,1,249.9,312.54Z"/><path class="cls-9" d="M629,340.79c0,30.64-27.65,55.49-61.74,55.49s-61.74-24.85-61.74-55.49" transform="translate(-102 -22)"/><path class="cls-9" d="M688.43,335.32c0,59.13-55.54,114.88-124,114.88S440.32,394.45,440.32,335.32" transform="translate(-102 -22)"/><path class="cls-9" d="M750.65,354.86c0,77.23-82.86,150.05-185.07,150.05s-185.07-72.82-185.07-150" transform="translate(-102 -22)"/><rect class="cls-3" x="407.46" y="613.42" width="111.76" height="27.35" rx="13.35"/><rect class="cls-3" x="371.51" y="637.48" width="180.53" height="30.48" rx="14.87"/><path class="cls-4" d="M381.38,197.59" transform="translate(-102 -22)"/></g><g id="cookies"><path class="cls-2" d="M918.48,699c0,21.16-31.53,38.31-70.43,38.31S777.62,720.19,777.62,699s-3.73-37.57,70.43-38.31C916.62,660,918.48,677.87,918.48,699Z" transform="translate(-102 -22)"/><ellipse class="cls-4" cx="746.05" cy="664.76" rx="70.43" ry="37.19"/><path class="cls-2" d="M837.43,655c5.68-4.87,6.86-8.56,7.59-15.18.06-.54,1-.65,1.22-.16,1.46,2.69,5.51,6.87,7.84,9.14,3.73,3.63,7.93,5.8,11.1,9.74s4.76,9.6,1.11,13.28a24,24,0,0,1-12.21,6.2c-13.32,1.77-20.6-1.21-24.11-6C825.21,665.66,833.46,658.44,837.43,655Z" transform="translate(-102 -22)"/><path class="cls-7" d="M993.51,725.8c0,20.56-31.54,37.23-70.45,37.23s-70.45-16.67-70.45-37.23-3.73-36.5,70.45-37.22C991.64,687.91,993.51,705.25,993.51,725.8Z" transform="translate(-102 -22)"/><ellipse class="cls-3" cx="821.06" cy="691.88" rx="70.45" ry="36.14"/><path class="cls-10" d="M912.43,683.06c5.68-4.73,6.87-8.32,7.6-14.75.06-.52,1-.63,1.22-.15,1.46,2.61,5.51,6.68,7.84,8.88,3.72,3.52,7.93,5.63,11.1,9.46s4.76,9.33,1.11,12.9a24.19,24.19,0,0,1-12.21,6c-13.33,1.72-20.6-1.16-24.12-5.78C900.22,693.38,908.46,686.36,912.43,683.06Z" transform="translate(-102 -22)"/></g></svg>