<svg xmlns="http://www.w3.org/2000/svg" viewBox="0 0 935.54 828.03"><defs><style>.cls-1{fill:#553ef9;}.cls-2{fill:#edb2a2;}.cls-3{fill:#fff;}.cls-4,.cls-7,.cls-9{fill:none;}.cls-4,.cls-6,.cls-7{stroke:#fff;}.cls-4,.cls-6,.cls-7,.cls-9{stroke-miterlimit:10;}.cls-4{stroke-width:5px;}.cls-5,.cls-6{fill:#f4d34d;}.cls-8{fill:#fc543d;}.cls-9{stroke:#d9e0f9;stroke-width:8px;}.cls-10{fill:#d9e0f9;}</style></defs><g id="BG"><path class="cls-1" d="M96.62,468.84c15.54-56.62,53.63-112.66,103.31-145.23C239.16,297.89,292.24,291.22,328,261c39.24-33.16,79.37-103.21,114-141,38.46-42,57-55.1,112.16-71C607.86,33.45,678.59,39.44,731,59,788.52,80.46,857.34,132,858.33,215.93c.57,48.44-4.19,74.62,4.93,93C898,379,970,381.9,1005.53,468.84c27.72,67.75,26.14,146.88-4.54,213.4-19.41,42.08-44.62,70.2-83,96.76-65,45-111.13,46.25-170,50-72.17,4.6-137-27-203-56-47.14-20.69-90.48-41.47-141-52-50.35-10.5-70,29-162.13,13.56-2.72-.45-5.55-.59-8.39-1-72.58-10.83-123-64.14-138.83-142.19C87.3,555.08,88.21,499.5,96.62,468.84Z" transform="translate(-89.67 -40.16)"/></g><g id="chimney"><path class="cls-2" d="M367.74,497.9H712.07a0,0,0,0,1,0,0V798.47a6.54,6.54,0,0,1-6.54,6.54H374.27a6.54,6.54,0,0,1-6.54-6.54V497.9A0,0,0,0,1,367.74,497.9Z"/><rect class="cls-2" x="334.5" y="420.79" width="408.15" height="132.95" rx="15.46"/><ellipse class="cls-3" cx="379.62" cy="425.7" rx="66.99" ry="47.72"/><ellipse class="cls-3" cx="444.45" cy="425.7" rx="66.99" ry="47.72"/><ellipse class="cls-3" cx="529.8" cy="424.46" rx="66.99" ry="47.72"/><ellipse class="cls-3" cx="615.16" cy="423.22" rx="66.99" ry="47.72"/><ellipse class="cls-3" cx="700.51" cy="421.98" rx="66.99" ry="47.72"/><line class="cls-4" x1="571.69" y1="732.84" x2="474.48" y2="732.84"/><line class="cls-4" x1="523.09" y1="731.73" x2="523.09" y2="772.84"/><line class="cls-4" x1="457.39" y1="632.85" x2="542.85" y2="632.85"/><line class="cls-4" x1="499.59" y1="633.96" x2="499.59" y2="600.33"/><line class="cls-4" x1="515.07" y1="692.84" x2="602.67" y2="692.84"/><line class="cls-4" x1="557.53" y1="692.64" x2="557.53" y2="731.73"/><line class="cls-4" x1="587.71" y1="633.44" x2="667.83" y2="633.44"/><path class="cls-4" d="M717.44,711V673.59" transform="translate(-89.67 -40.16)"/><path class="cls-2" d="M661.27,374.3c-1.63-.9-3.29-1.75-4.94-2.61a97,97,0,0,1-14.44-8.57c-7.8-5.91-12.63-13.4-13.6-21.11-1.32-10.4,5-20.28,14.43-22.49a21.11,21.11,0,0,1,15.42,2.68,35.32,35.32,0,0,1,10.15,9.39,63.62,63.62,0,0,1,12.91,33.05l-11.1.94a52.34,52.34,0,0,0-10.64-27.19,24.64,24.64,0,0,0-6.93-6.56,10.19,10.19,0,0,0-7.26-1.46c-4.14,1-6.44,6.18-5.93,10.24.81,6.35,6.16,11.26,9.28,13.63a88.44,88.44,0,0,0,12.83,7.56c1.73.89,3.45,1.78,5.16,2.71Z" transform="translate(-89.67 -40.16)"/><path class="cls-2" d="M690.42,374.3l-5.34-9.79c1.7-.93,3.43-1.82,5.15-2.71a88.56,88.56,0,0,0,12.84-7.56c3.12-2.37,8.47-7.28,9.28-13.63.51-4.06-1.8-9.27-5.93-10.24a10.18,10.18,0,0,0-7.26,1.46,24.8,24.8,0,0,0-6.94,6.56,52.3,52.3,0,0,0-10.63,27.19l-11.1-.94a63.51,63.51,0,0,1,12.91-33.05,35.33,35.33,0,0,1,10.15-9.39A21.09,21.09,0,0,1,709,319.52c9.41,2.21,15.75,12.09,14.43,22.49-1,7.71-5.81,15.2-13.61,21.11a96.93,96.93,0,0,1-14.43,8.57C693.7,372.55,692.05,373.4,690.42,374.3Z" transform="translate(-89.67 -40.16)"/><circle class="cls-2" cx="622.83" cy="362.34" r="11.5"/><ellipse class="cls-2" cx="586.47" cy="321.54" rx="14.49" ry="7.24"/><rect class="cls-5" x="520.73" y="322.1" width="133.71" height="73.54" rx="6.92"/><circle class="cls-2" cx="549.83" cy="371.34" r="11.5"/><circle class="cls-2" cx="589.83" cy="344.34" r="11.5"/><circle class="cls-2" cx="623.83" cy="369.34" r="11.5"/></g><g id="stars"><circle class="cls-2" cx="157.83" cy="467.34" r="5.5"/><circle class="cls-5" cx="795.83" cy="651.34" r="5.5"/><circle class="cls-5" cx="717.41" cy="183.02" r="6.92"/><path class="cls-5" d="M755.92,220.3h0a2.57,2.57,0,0,1,0-.27v.53c-.33,2.7-3.76,25.88-24.76,34.43,0,0,20.66,9.09,24,38l0-.26c3.94-28.84,24.79-37.47,24.79-37.47C759.12,246.26,756.19,223,755.92,220.3Z" transform="translate(-89.67 -40.16)"/><path class="cls-5" d="M954.84,562.21h0a1.53,1.53,0,0,1,0-.21v.42c-.26,2.14-3,20.57-19.68,27.37,0,0,16.42,7.23,19,30.21l0-.21c3.13-22.92,19.71-29.78,19.71-29.78C957.38,582.85,955.05,564.37,954.84,562.21Z" transform="translate(-89.67 -40.16)"/><path class="cls-5" d="M172.84,494.21h0a1.53,1.53,0,0,1,0-.21v.42c-.26,2.14-3,20.57-19.68,27.37,0,0,16.42,7.23,19.05,30.21l0-.21c3.13-22.92,19.71-29.78,19.71-29.78C175.38,514.85,173.05,496.37,172.84,494.21Z" transform="translate(-89.67 -40.16)"/><line class="cls-6" x1="99.33" y1="396.84" x2="99.33" y2="419.84"/><line class="cls-6" x1="89.02" y1="407.95" x2="109.64" y2="407.95"/><line class="cls-6" x1="620.64" y1="139.84" x2="620.64" y2="156.84"/><line class="cls-6" x1="613.02" y1="148.05" x2="628.26" y2="148.05"/><line class="cls-6" x1="811.33" y1="481.84" x2="811.33" y2="504.84"/><line class="cls-6" x1="801.02" y1="492.95" x2="821.64" y2="492.95"/><circle class="cls-3" cx="500.83" cy="91.34" r="6.5"/><circle class="cls-7" cx="540.83" cy="64.34" r="12"/><rect class="cls-8" x="610" y="482" width="28" height="15" rx="7.5" transform="translate(-179.46 103.67) rotate(-12.27)"/><path class="cls-9" d="M788,437c19-3,43.34,3.82,49,29" transform="translate(-89.67 -40.16)"/></g><g id="santa"><polygon class="cls-2" points="465.27 275.63 449.05 290.64 431.63 272.45 449.51 256.39 465.27 275.63"/><path class="cls-2" d="M592.78,259.8a38.05,38.05,0,0,1-1.54,56.76,6.28,6.28,0,0,0-1.88,2.82L585.23,332a.94.94,0,0,1-1.62.31l-5.74-7.77a39.84,39.84,0,0,1-37.11-9.15,38.06,38.06,0,1,1,52-55.57Z" transform="translate(-89.67 -40.16)"/><path class="cls-3" d="M586,310.79c.36-4.13.43-20-19-22.75a.82.82,0,0,0-.94.76c-.24,3.57.14,17.24,18.85,22.71A.82.82,0,0,0,586,310.79Z" transform="translate(-89.67 -40.16)"/><circle class="cls-1" cx="486.74" cy="259.23" r="6.62"/><path class="cls-10" d="M593.76,302.9c1.36,5.25,9.81,9.43,15.09,8.18s9.17-6.47,9.41-11.89a16,16,0,0,0-7.4-13.68c1.23-6.05,1.07-12.63-1.9-18s-9.22-9.27-15.3-8.16c-1.37-6.09-5.13-11.86-10.77-14.5s-13.17-1.5-17,3.45a17.26,17.26,0,0,0-19.08-2.21c-6,3.23-9.42,10.9-8.47,17.65-7.17,3.08-15,8.75-15.9,16.5s6.57,16.36,14.38,16.17c7.08-.18,12.42-6.78,14.66-13.5-1.08,3.24,10.46,8.76,13.23,9.07,9.72,1.08,12.5-4.94,12.5-4.94S579.72,302.74,593.76,302.9Z" transform="translate(-89.67 -40.16)"/><path class="cls-5" d="M440.3,291.87c-41.3-.41-83.5,1.38-122.11,16S244.64,352.14,233,391.76a73.57,73.57,0,0,0-3.25,25.88c1.74,24.68,20.35,46.38,43.41,55.36s49.57,6.37,72.3-3.41,42.06-26.2,58.72-44.49a298.11,298.11,0,0,0,63.32-109.38Z" transform="translate(-89.67 -40.16)"/><path class="cls-5" d="M421.44,297.42l19-30.18a4.35,4.35,0,0,1,7.25-.18l45.84,65.33a7.18,7.18,0,0,1-4.43,11.15l-30.91,6.35Z" transform="translate(-89.67 -40.16)"/><path class="cls-8" d="M486.12,293.82S353.8,302.64,307.41,453.13l157.57,70s38.7-119.81,88.75-168.56Z" transform="translate(-89.67 -40.16)"/><path class="cls-8" d="M398.09,726.46l-33.44,55.62a15.09,15.09,0,0,0,4.17,20.06l73.27,52.3a21.46,21.46,0,0,0,30.17-4.13h0a21.45,21.45,0,0,0-4.2-30l-22.24-16.81a21.16,21.16,0,0,1-5.54-27.5l10.21-17.6Z" transform="translate(-89.67 -40.16)"/><path class="cls-8" d="M461.6,760.21c29-51.8,42.08-102.82,33.6-161.56S443.48,485,394.66,451.2L337.1,522.66s116.37,59.67,44.71,201.45Z" transform="translate(-89.67 -40.16)"/><rect class="cls-3" x="401.65" y="673.05" width="44.08" height="116.58" rx="17.67" transform="translate(-508.83 754.36) rotate(-64.2)"/><path class="cls-8" d="M415.48,455c19.16,88.63-18.87,156-52.4,186.47s-103.7,45.87-102.75,44.79l-23.93-89.6s109.65-3.87,108.12-142.89Z" transform="translate(-89.67 -40.16)"/><path class="cls-8" d="M243.73,611l-65.4,11.22a15.42,15.42,0,0,0-12.75,16.61L174,730.51a21.94,21.94,0,0,0,23.34,20.61h0a21.94,21.94,0,0,0,20.47-23.3l-1.83-28.44a21.64,21.64,0,0,1,17.6-22.65L254,672.89Z" transform="translate(-89.67 -40.16)"/><rect class="cls-3" x="234.5" y="574.52" width="45.07" height="119.19" rx="17.67" transform="translate(-244.53 47.59) rotate(-14.95)"/><rect class="cls-3" x="288.92" y="448.42" width="197.54" height="58.29" rx="21.48" transform="translate(160.76 -162.2) rotate(26.18)"/><circle class="cls-8" cx="513.25" cy="473.6" r="30.26"/><path class="cls-8" d="M487.72,324.68a30.76,30.76,0,0,0-30.31,27.53,152,152,0,0,0,97.11,158l43.76-42.58s-69.74-54.53-79.76-116.77a30.9,30.9,0,0,0-30.8-26.13Z" transform="translate(-89.67 -40.16)"/><rect class="cls-10" x="550.28" y="448.89" width="49.01" height="83.61" rx="15.02" transform="translate(389.75 -299.17) rotate(42.26)"/><rect class="cls-3" x="462.34" y="311.93" width="120.83" height="29.15" rx="14.58" transform="translate(388.91 -328.41) rotate(53.9)"/><path class="cls-8" d="M619.45,277.91a78.51,78.51,0,0,0-53-67.3c-16.34-5.61-34.47-5.8-51.2-2.86s-32.27,13.66-47.38,20c57.3-.53,64.28,8.45,76.73,32.4Z" transform="translate(-89.67 -40.16)"/><ellipse class="cls-3" cx="548.25" cy="258.23" rx="16.3" ry="22.23" transform="translate(179.51 756.02) rotate(-87.8)"/><ellipse class="cls-3" cx="575.89" cy="259.29" rx="16.3" ry="22.23" transform="translate(100.65 719.36) rotate(-76.61)"/><ellipse class="cls-3" cx="607.11" cy="270.38" rx="16.3" ry="22.23" transform="translate(-72.35 536.56) rotate(-51.45)"/><circle class="cls-3" cx="383.15" cy="188.68" r="16.8"/><path class="cls-10" d="M529,283a128.07,128.07,0,0,0-17,27c-6,13-1,25,1,30,1.49,3.71,9,22,12,33,4.1,15.08,7.19,23.77,19,34,5.29,4.58,17.36,8.21,24,6,12-4,15.88-10.4,17.09-18.32s-2.56-16.19-8.84-21.17c6.17-3.39,9.41-11,8.32-18-1.15-7.43-6.76-12.17-12.62-16.18,7-5.34,7-14.34,6-15.34l-10.78-11.68a1.09,1.09,0,0,0-1.83.38l-.1,2A11.91,11.91,0,0,1,562,323s-1-.71-1-1c-.57-3.08-3.08-10.27-12-20C536.6,288.47,529,283,529,283Z" transform="translate(-89.67 -40.16)"/><path class="cls-8" d="M556.11,315.5a20.74,20.74,0,0,0,7.83,9.91,4,4,0,0,0,5.43-1.15h0a4,4,0,0,0-1.3-5.7c-2.88-1.69-6.75-4-9-5.46a2,2,0,0,0-2.42.16h0A2,2,0,0,0,556.11,315.5Z" transform="translate(-89.67 -40.16)"/><rect class="cls-5" x="342.5" y="815.23" width="136.93" height="22.97" rx="11.49" transform="translate(406.98 -132.68) rotate(31.76)"/><rect class="cls-5" x="105.5" y="676.23" width="136.93" height="22.97" rx="11.49" transform="translate(753.32 411.72) rotate(84.78)"/></g></svg>