<svg xmlns="http://www.w3.org/2000/svg" viewBox="0 0 1062.55 722.65"><defs><style>.cls-1,.cls-2{fill:#e0d6e2;}.cls-1{opacity:0.4;}.cls-3{fill:#f4d34d;}.cls-14,.cls-15,.cls-4,.cls-9{fill:none;}.cls-4{stroke:#e0d6e2;}.cls-13,.cls-14,.cls-15,.cls-4,.cls-9{stroke-miterlimit:10;}.cls-13,.cls-5{fill:#fc543d;}.cls-6{fill:#edb2a2;}.cls-7{fill:#fff;}.cls-8{fill:#5a3b8f;}.cls-9{stroke:#5a3b8f;}.cls-10{fill:#967cf2;}.cls-11{fill:#a6b5ff;}.cls-12{fill:#553ef9;}.cls-13{stroke:#9595fc;stroke-width:23px;}.cls-14{stroke:#553ef9;}.cls-15{stroke:#fff;stroke-width:3px;}</style></defs><g id="BG"><path class="cls-1" d="M1117,628s-61.89-362.17-302.43-340.47c-116.89,10.55-195.91,88-246.26,164.91A317.36,317.36,0,0,0,411,419.16C190,428.69,72.19,614.9,72.19,614.9l620.44,3.89Z" transform="translate(-54.47 -84.91)"/><ellipse class="cls-1" cx="518.47" cy="648.17" rx="518.47" ry="74.48"/><circle class="cls-2" cx="997.4" cy="47.07" r="7.2"/><circle class="cls-2" cx="854.27" cy="124.33" r="7.2"/><circle class="cls-2" cx="383.19" cy="103.81" r="9.72"/><circle class="cls-2" cx="766.6" cy="9.72" r="9.72"/><circle class="cls-2" cx="252.44" cy="8.4" r="6.73"/><polygon class="cls-3" points="490.14 206 474.38 206 474.38 185.39 470.75 185.39 470.75 206 456 206 456 209.63 470.75 209.63 470.75 231.33 474.38 231.33 474.38 209.63 490.14 209.63 490.14 206"/><polygon class="cls-3" points="621.93 58.24 614.79 30.48 614.78 29.89 613.46 32.27 606.38 58.24 581.61 63.84 605.9 71.12 613.68 98.36 614.16 96.66 621.72 71.12 647.4 63.14 621.93 58.24"/><polygon class="cls-3" points="74.53 66.13 68.75 43.61 68.74 43.14 67.67 45.07 61.93 66.13 41.84 70.67 61.53 76.57 67.84 98.66 68.23 97.28 74.36 76.57 95.19 70.1 74.53 66.13"/><path class="cls-4" d="M1056.07,155.15" transform="translate(-54.47 -84.91)"/></g><g id="boy"><rect class="cls-5" x="687.48" y="276.96" width="140.58" height="128.98" rx="7.32"/><rect class="cls-3" x="750.05" y="275.19" width="18.55" height="131.63"/><polygon class="cls-6" points="929.36 307.53 923.64 326.44 950.82 334.91 956.22 314.9 929.36 307.53"/><circle class="cls-6" cx="949.5" cy="280.5" r="38.43"/><path class="cls-6" d="M971.71,354.63,956,373.8a.94.94,0,0,0,.61,1.54l18.91,2.13Z" transform="translate(-54.47 -84.91)"/><path class="cls-7" d="M974,360.27c3.32-2.55,16.75-11.21,29.67,3.77a.83.83,0,0,1-.13,1.21c-2.92,2.15-14.75,9.26-29.58-3.7A.83.83,0,0,1,974,360.27Z" transform="translate(-54.47 -84.91)"/><circle class="cls-8" cx="934.41" cy="277.3" r="6.69"/><path class="cls-9" d="M975.48,391.2c2.47-.5,5.63-1.63,7.28-3.53" transform="translate(-54.47 -84.91)"/><path class="cls-5" d="M991.2,320c-1.89-4.24-10.05-8.73-17.35-7.73-3.45.48-6.27,3.35-7.82,6.47-2,4.09-1.63,9.08.18,13.27s4.89,7.7,8.17,10.87c10.19,9.8,26.07,13.92,40.2,14.06-4.68,6.27-5.12,16.87-2.75,23.29A28.6,28.6,0,0,0,1025,395.35a5.29,5.29,0,0,0,2.44.79,5.45,5.45,0,0,0,2.7-1,35.93,35.93,0,0,0,16.43-25.47c1.52-11.62-3-23.59-10.77-32.36s-14.43-12.21-25.44-16.22A36.57,36.57,0,0,0,991.2,320Z" transform="translate(-54.47 -84.91)"/><path class="cls-10" d="M939.9,435.45,878,545.86l107.85,41.45,37-146.93a18,18,0,0,0-11.1-21.25l-25.26-9.54a28,28,0,0,0-27.71,4.64C950.72,420.86,942.53,430.18,939.9,435.45Z" transform="translate(-54.47 -84.91)"/><path class="cls-11" d="M707.76,577.76l-66.14-46.08c-2.71-1.89-7.07-1.48-10.65,1h0c-4.4,3-6.15,8.12-3.92,11.36L687,630.74c.88,1.27,3,1.33,4.71.14l35.72-24.69Z" transform="translate(-54.47 -84.91)"/><path class="cls-12" d="M819.9,472.15,693.78,568.33l41.65,55.52,88.48-76.06a16.44,16.44,0,0,1,20.14-2.39l72.84,56.74a34.38,34.38,0,0,0,47.25-7.45h0a34.38,34.38,0,0,0-8.2-49.14L841.78,469.37C835.21,465.33,827.79,465.79,819.9,472.15Z" transform="translate(-54.47 -84.91)"/><circle class="cls-6" cx="739.97" cy="339.56" r="24.15"/><path class="cls-5" d="M623.07,540l62.37,88.95a6.61,6.61,0,0,0,9.46,1.44l2.15-1.65a6.63,6.63,0,0,0,1.28-9.18l-64.52-87.3a6.62,6.62,0,0,0-9.54-1.16h0A6.62,6.62,0,0,0,623.07,540Z" transform="translate(-54.47 -84.91)"/><path class="cls-10" d="M947.76,418.27l-60,37L826,419l-26.33,40.36L890,516.91a16.15,16.15,0,0,0,18.18-.47l71-51.08a28.31,28.31,0,0,0,7-38.68h0A28.32,28.32,0,0,0,947.76,418.27Z" transform="translate(-54.47 -84.91)"/><path class="cls-12" d="M991,319.88s32.24-28.33,53.88-13.7c20.26,13.7,8.88,45.07,2,57.85C1046.87,364,1001.45,336,991,319.88Z" transform="translate(-54.47 -84.91)"/><circle class="cls-10" cx="996.78" cy="213.35" r="11.86"/><path class="cls-11" d="M823.24,416.06l-27.6,41.69a7.18,7.18,0,0,0,1.69,9.72l15.56,11.61A7.18,7.18,0,0,0,823.35,477l26.09-43.69a7.2,7.2,0,0,0-2.11-9.62l-14.05-9.6A7.17,7.17,0,0,0,823.24,416.06Z" transform="translate(-54.47 -84.91)"/><path class="cls-11" d="M939.16,423.52l75.35-.83a4,4,0,0,0,3.75-4.49l-1.42-12.95a3.85,3.85,0,0,0-4-3.52l-48.32,1.6a5.68,5.68,0,0,0-3.18,1.1l-22.89,16.78A1.28,1.28,0,0,0,939.16,423.52Z" transform="translate(-54.47 -84.91)"/><path class="cls-13" d="M519.28,729" transform="translate(-54.47 -84.91)"/><path class="cls-5" d="M683.61,640.64l-32.23,83.63a8.54,8.54,0,0,0,8,11.62h0a8.55,8.55,0,0,0,8-5.52l34-89.73Z" transform="translate(-54.47 -84.91)"/><path class="cls-5" d="M937.26,641.83l27.68,85.24a8.54,8.54,0,0,0,13.51,4h0a8.54,8.54,0,0,0,2.73-9.32L951,630.67Z" transform="translate(-54.47 -84.91)"/><path class="cls-5" d="M521.36,589.8a10.13,10.13,0,0,1-1,12.62,52.54,52.54,0,0,0-7.89,11.37,69.88,69.88,0,0,0,60.13,102.49H1094a10.37,10.37,0,0,1,10.46,9.46,10.14,10.14,0,0,1-10.11,10.82h-522c-30.52-.68-60.24-18.13-75.71-44.45s-16.25-60.77-2-87.77a73,73,0,0,1,11-15.76,10.14,10.14,0,0,1,15.77,1.23Z" transform="translate(-54.47 -84.91)"/><path class="cls-5" d="M493,643.54" transform="translate(-54.47 -84.91)"/><path class="cls-3" d="M617.73,617.49l23.34,42.07a21.93,21.93,0,0,0,19.17,11.28H989.59A47.5,47.5,0,0,0,1035.38,636l38.82-140a55,55,0,0,0-52.49-69.68h0a55,55,0,0,0-53.24,39.43L926.08,609.44a11.48,11.48,0,0,1-11,8.21l-237,1-17.76-28.08a23.9,23.9,0,0,0-20.19-11.12h0A25.63,25.63,0,0,0,617.73,617.49Z" transform="translate(-54.47 -84.91)"/><path class="cls-14" d="M981,877.8" transform="translate(-54.47 -84.91)"/><polygon class="cls-3" points="763.28 276.96 707.88 239.78 707.88 276.96 763.28 276.96"/><polygon class="cls-3" points="755.6 276.59 811 239.41 811 276.59 755.6 276.59"/></g><g id="deer"><path class="cls-3" d="M403.7,458.65a57.16,57.16,0,0,0,31.72-19.79c3.53-4.41,6.45-9.48,7.33-15.06l0-.17a5.59,5.59,0,0,1,10.36-2.14A50.37,50.37,0,0,1,459.43,440c1.46,10.44.48,21.4-4.07,30.9s-12.93,17.39-23.1,20.14Z" transform="translate(-54.47 -84.91)"/><path class="cls-2" d="M248.68,206.57a7.59,7.59,0,0,0-5.73,9.08,75.36,75.36,0,0,1,.26,31.38,97.25,97.25,0,0,0-26.53-23.67,7.59,7.59,0,1,0-7.87,13,82.29,82.29,0,0,1,22.51,20.13c2.17,2.81,4.75,6.53,5.4,10.29,0,.12.06.24.08.36a122.91,122.91,0,0,1-8,15.15,7.61,7.61,0,0,0-1.84,2.89,149.7,149.7,0,0,1-24.65,29.05,7.59,7.59,0,0,0,9.83,11.57,136.44,136.44,0,0,0,11.4-11.27,168.38,168.38,0,0,0,14.9-18.91A65.71,65.71,0,0,0,277,284.7a7.32,7.32,0,0,0,1.39-1.2,7.59,7.59,0,0,0-9.84-11.41A50.06,50.06,0,0,1,247.69,280c9.56-18.82,15.83-42.18,10.07-67.68A7.61,7.61,0,0,0,248.68,206.57Z" transform="translate(-54.47 -84.91)"/><path class="cls-3" d="M413.55,453.13a93.1,93.1,0,0,0-32.25-11.79c-48.95-8.16-122.26-11.95-134.59-22.17-8.82-7.3-11.07-22-11.63-29.78,4.65-5.48,8.32-13.36,10.72-24.39,8.38-38.47-13.69-52-35-56.32-23-4.64-46.13,22.77-54.49,26.73s-21.2,2.17-21.2,2.17l-5.31,7.82.61,1c3.83,6.51,15.24,11.15,22.61,12.82,0,0-4.36,5.24,1.55,14.4,2,3.12,10.75,7.62,19.78,11.83a31.21,31.21,0,0,1,17.89,31.06c-1.59,18-5.06,39-5.06,50.47,0,19.61-33.93,194.25-43.25,241.83a10,10,0,0,0,9.82,11.92h14a10,10,0,0,0,9.78-7.85L215,531.69c.33-1.6,3.1-1.61,2.94,0-2.07,20.83-2.79,94.75-2.79,94.75a20.81,20.81,0,0,0,1.31,7.89L247,715.83a8.81,8.81,0,0,0,11.8,5.2l15.8-6.77a8.81,8.81,0,0,0,5-10.58l-24.92-77.09a20.74,20.74,0,0,1-1-7l2.8-86.44a3.79,3.79,0,0,1,4-3.67L375,534.12s3.5,41.28,30.23,60.73a14.17,14.17,0,0,1,4.87,16.68L378.5,706.74c-2.8,7.08.4,12.72,8,12.72h13.63c4.43,0,8.41-.68,10-4.81l27.06-86.18c10.88-27.61,18.17-56.81,19.6-86.45l.36-7.54C456.54,501.17,442.21,470.1,413.55,453.13Z" transform="translate(-54.47 -84.91)"/><path class="cls-3" d="M338.59,502s-29.5,75.16,13,115.63a9.83,9.83,0,0,1,2.76,10.45L327,707.21c-2.59,7.19,1.58,9.85,9.22,9.85h12.06c4.66,0,8.82,2.13,10.39-2.26L403.7,588.72l-5.43-78.87Z" transform="translate(-54.47 -84.91)"/><path class="cls-7" d="M175.5,338.92c4.49-3.44,22.63-15.14,40.09,5.11a1.12,1.12,0,0,1-.17,1.63c-3.94,2.9-19.94,12.51-40-5A1.12,1.12,0,0,1,175.5,338.92Z" transform="translate(-54.47 -84.91)"/><circle class="cls-8" cx="141.18" cy="256.64" r="9.04"/><path class="cls-3" d="M225.87,327.76S240.7,298,269.33,298c0,0,2.49,32.22-32.3,38.71Z" transform="translate(-54.47 -84.91)"/><path class="cls-3" d="M210.1,324.09s-10.53-31.5,9.72-51.75c0,0,24.55,21,4.54,50.22Z" transform="translate(-54.47 -84.91)"/><path class="cls-2" d="M344.11,266.71a7.6,7.6,0,0,0-9.9,4.17,75.13,75.13,0,0,1-17.73,25.88,97.49,97.49,0,0,0-8.22-34.59,7.59,7.59,0,1,0-13.88,6.14,82.14,82.14,0,0,1,6.95,29.38c.17,3.56.16,8.08-1.46,11.53l-.14.35a124.41,124.41,0,0,1-15.22,7.85,7.52,7.52,0,0,0-3.16,1.32,149.77,149.77,0,0,1-36.84,9.72A7.59,7.59,0,0,0,246,343.57a133.66,133.66,0,0,0,15.8-2.71,170,170,0,0,0,23-7A65.75,65.75,0,0,0,322.65,347a7.87,7.87,0,0,0,1.82-.19,7.59,7.59,0,0,0-1.54-15,50.17,50.17,0,0,1-21.63-5.47c18.6-10,37.11-25.54,47-49.74A7.6,7.6,0,0,0,344.11,266.71Z" transform="translate(-54.47 -84.91)"/><path class="cls-10" d="M147.76,689.4,142.17,718a2.35,2.35,0,0,0,2.31,2.8h29.69a2.35,2.35,0,0,0,2.3-1.86l6-28.33Z" transform="translate(-54.47 -84.91)"/><path class="cls-10" d="M239.51,695.86l33.14-13.59,10.08,27.52a4.71,4.71,0,0,1-2.8,6.05l-24.51,9a4.71,4.71,0,0,1-6-2.76Z" transform="translate(-54.47 -84.91)"/><path class="cls-10" d="M334.3,685.3l-11.6,32.36a1.81,1.81,0,0,0,1.71,2.42h32a1.81,1.81,0,0,0,1.71-1.22l11-32.14Z" transform="translate(-54.47 -84.91)"/><path class="cls-10" d="M385.19,686.3l-11.6,32.36a1.81,1.81,0,0,0,1.71,2.42h32a1.81,1.81,0,0,0,1.71-1.22l11-32.14Z" transform="translate(-54.47 -84.91)"/><path class="cls-5" d="M237.1,402s-15.32,8.66-44.75,9.87l-2.59,24.27s39.62,4.92,59.14-15.55Z" transform="translate(-54.47 -84.91)"/><circle class="cls-5" cx="75.34" cy="254.62" r="10.71"/><path class="cls-15" d="M379,532.57c-1.05,30.85,10.49,48.85,29.14,68.15" transform="translate(-54.47 -84.91)"/><path class="cls-15" d="M147,359.36a55.32,55.32,0,0,0,20.5,2.88" transform="translate(-54.47 -84.91)"/></g></svg>