<svg xmlns="http://www.w3.org/2000/svg" viewBox="0 0 1131.42 829.3"><defs><style>.cls-1{fill:#f4d34d;}.cls-2,.cls-7{fill:#fff;}.cls-3{fill:#fc543d;}.cls-4{fill:#f7e8a6;}.cls-5{fill:#553ef9;}.cls-11,.cls-6{fill:#a6b5ff;}.cls-7{stroke:#fff;stroke-width:6px;}.cls-7,.cls-9{stroke-miterlimit:10;}.cls-8{fill:#fcbdb6;}.cls-9{fill:none;stroke:#f2f2f2;stroke-width:7px;}.cls-10{fill:#edb2a2;}.cls-11{opacity:0.17;}.cls-12{fill:#9e8b7b;}.cls-13{fill:#222433;}</style></defs><g id="fireplace"><rect class="cls-1" x="623.97" y="397.16" width="415.77" height="318.27"/><path class="cls-2" d="M830.72,545.82h0A117.69,117.69,0,0,1,948.41,663.51v55.08a0,0,0,0,1,0,0H713a0,0,0,0,1,0,0V663.51A117.69,117.69,0,0,1,830.72,545.82Z"/><path class="cls-3" d="M774.82,712.24c-2.8-15.09-6.86-27.81-14.63-41a.61.61,0,0,1,.71-.87c22.07,6.06,37,20.09,47.94,37.43-6.19-13.08.19-28.51,7.48-41.33,6.92-12.18,12.94-27.45,11.82-41.22a.63.63,0,0,1,1.13-.42c15.14,19.42,24.3,46.82,21.43,71,3.2-8.23,11-13.83,17.75-19.86,6.37-5.72,12.35-13.37,11.58-21.45a.24.24,0,0,1,.45-.14,58.09,58.09,0,0,1,0,53.54c13.22-5.35,25.92-18.41,32.82-30.59a.21.21,0,0,1,.4,0c4.44,23,.66,54-19.37,67.76-7.35,5.07-16.18,10-25,11.72C828.61,764.59,783.39,758.46,774.82,712.24Z" transform="translate(-13.51 -44.7)"/><rect class="cls-1" x="606.83" y="331.05" width="451.74" height="60.23" rx="7.95"/><path class="cls-4" d="M815.9,755a90.67,90.67,0,0,1-9.27-21.42.14.14,0,0,1,.2-.15c4.73,2.34,16.64,6.28,21.27,8.48.68-7.42.1-19,4.31-25.12,5.69,4.51,12.85,16.33,15.79,23l12.92-20.1c2.15,7.18,2.15,12.92,1.89,23.27,5-2.68,13.14-6.66,17.49-10.35.34,7.72-5.64,16.3-10.53,22.28Z" transform="translate(-13.51 -44.7)"/><rect class="cls-1" x="600.49" y="721.72" width="469.17" height="38.04" rx="2.11"/><path class="cls-5" d="M680.27,520.86l-3.47,6.75a6.76,6.76,0,0,0,2.92,9.11l2.94,1.52,33.4,17.19a15.89,15.89,0,0,0,21.39-6.85h0a15.88,15.88,0,0,0-6.85-21.39l-11.34-5.84a2.06,2.06,0,0,1-.9-2.78l12.38-24.05-29.18-15-21.29,41.37" transform="translate(-13.51 -44.7)"/><rect class="cls-6" x="693.01" y="477.77" width="48.21" height="15.88" rx="4.47" transform="translate(288.28 -319.04) rotate(27.24)"/><path class="cls-7" d="M1068.77,439" transform="translate(-13.51 -44.7)"/><path class="cls-7" d="M629.28,439" transform="translate(-13.51 -44.7)"/><path class="cls-7" d="M1068.57,815.1" transform="translate(-13.51 -44.7)"/><path class="cls-7" d="M533,846" transform="translate(-13.51 -44.7)"/><path class="cls-6" d="M953.24,496.56l14.15,55.89a7.21,7.21,0,0,0,8.76,5.21L1018.37,547a16.91,16.91,0,0,0,12.24-20.55h0a16.91,16.91,0,0,0-20.55-12.25l-13.18,3.34a2.21,2.21,0,0,1-2.67-1.6L987.13,488Z" transform="translate(-13.51 -44.7)"/><rect class="cls-3" x="944.36" y="482.1" width="51.36" height="16.92" rx="4.47" transform="translate(-104.26 208.45) rotate(-14.21)"/><path class="cls-3" d="M962.65,533.77s18.24-.18,25.16,21l-13.22,3.67c-3.35.86-6.73-1.84-7.5-5.21Z" transform="translate(-13.51 -44.7)"/><circle class="cls-2" cx="709.86" cy="424.37" r="3.37"/><circle class="cls-2" cx="839.04" cy="425.95" r="3.37"/><circle class="cls-2" cx="956.33" cy="425.16" r="3.37"/><rect class="cls-2" x="754.72" y="710.11" width="145.39" height="9.75"/></g><g id="plant"><circle class="cls-3" cx="1048.19" cy="179.66" r="10.47"/><circle class="cls-3" cx="1056.5" cy="207.39" r="10.47"/><circle class="cls-3" cx="1074.62" cy="185.22" r="10.47"/><path class="cls-6" d="M1121,287c12.39-4.59,20.88-2.15,23.66-1.05a.17.17,0,0,0,.19-.28c-2.15-2.09-7.88-8.81-8.82-22,0,0-18.82-2.43-25.37-16.36,0,0-12.87,5.81-22.94,1.45a.23.23,0,0,0-.25.38c8.14,7.37,8.16,21.49,8.16,21.49C1111.05,270.86,1121,287,1121,287Z" transform="translate(-13.51 -44.7)"/><path class="cls-6" d="M1081.47,190.11c3.77,12.66.79,21-.49,23.68a.17.17,0,0,0,.27.2c2.22-2,9.3-7.29,22.51-7.37,0,0,3.64-18.62,18-24.25,0,0-5-13.23,0-23a.23.23,0,0,0-.36-.27c-7.88,7.64-22,6.75-22,6.75C1098.22,181.2,1081.47,190.11,1081.47,190.11Z" transform="translate(-13.51 -44.7)"/></g><g id="candles"><path class="cls-3" d="M978.3,335.88s-15.59-19.3,3.09-42.57c0,0,15.86,21,2.2,42.25Z" transform="translate(-13.51 -44.7)"/><path class="cls-3" d="M918.86,289.91s-15.59-19.29,3.09-42.57c0,0,15.86,21,2.2,42.25Z" transform="translate(-13.51 -44.7)"/><path class="cls-3" d="M852.29,351.73s-15.59-19.29,3.09-42.57c0,0,15.86,21,2.2,42.25Z" transform="translate(-13.51 -44.7)"/><rect class="cls-4" x="946.03" y="285.87" width="42" height="46.76"/><rect class="cls-4" x="896.1" y="241.49" width="24.57" height="89.56"/><rect class="cls-4" x="805.75" y="293.8" width="68.95" height="37.25"/></g><g id="lights"><circle class="cls-8" cx="700.68" cy="41.09" r="12.44"/><circle class="cls-1" cx="758.3" cy="89.85" r="12.44"/><circle class="cls-8" cx="854.21" cy="113.04" r="12.44"/><circle class="cls-1" cx="949.8" cy="91.62" r="12.44"/><path class="cls-9" d="M717.91,46.47c26.66,45.5,74.52,78,126.66,85.92s107.5-8.79,146.5-44.28" transform="translate(-13.51 -44.7)"/></g><g id="present"><path class="cls-3" d="M703,228.89h11.67a3.34,3.34,0,0,1,3.34,3.34v8.69a0,0,0,0,1,0,0H699.63a0,0,0,0,1,0,0v-8.69A3.34,3.34,0,0,1,703,228.89Z"/><path class="cls-3" d="M723.31,287.87l-9.58-11.35-25.51-22.34a.86.86,0,0,0-1.51.56v34.12Z" transform="translate(-13.51 -44.7)"/><path class="cls-3" d="M720.7,288.5,731.42,276l24.37-21.2a.86.86,0,0,1,1.51.56v34.11Z" transform="translate(-13.51 -44.7)"/><rect class="cls-8" x="662.31" y="241.38" width="92.37" height="89.67" rx="1.66"/><rect class="cls-3" x="701.82" y="240.9" width="13.36" height="90.15"/><rect class="cls-3" x="662.31" y="279.46" width="92.37" height="10.12"/><path class="cls-6" d="M1042.71,720.49C1029,712.15,1024.91,696,1028,685c2.59-9.26,10-15,19.44-15,22.43,0,33.15,36.41,34.3,40.56l-11.83,3.28h0c-2.87-10.3-12.13-31.55-22.47-31.55-3.93,0-6.5,2-7.63,6-1.88,6.74,1.07,16.69,9.29,21.69Z" transform="translate(-13.51 -44.7)"/><path class="cls-6" d="M1114.8,718.71c13.69-8.33,17.8-24.5,14.72-35.48-2.6-9.27-10-15-19.44-15-22.44,0-33.15,36.4-34.3,40.56l11.83,3.27h0c2.87-10.3,12.13-31.56,22.47-31.56,3.93,0,6.5,2,7.62,6.06,1.89,6.73-1.06,16.69-9.28,21.69Z" transform="translate(-13.51 -44.7)"/><rect class="cls-3" x="1002.46" y="661.25" width="122.76" height="109.93" rx="1.76"/><rect class="cls-6" x="1022.37" y="661.25" width="11.3" height="109.93"/><rect class="cls-6" x="1059.61" y="661.25" width="11.3" height="109.93"/><rect class="cls-6" x="1094.18" y="661.25" width="11.3" height="109.93"/></g><g id="TREE"><path class="cls-1" d="M290.87,695.76h42.69a0,0,0,0,1,0,0v67.36a7.78,7.78,0,0,1-7.78,7.78H298.65a7.78,7.78,0,0,1-7.78-7.78V695.76a0,0,0,0,1,0,0Z"/><path class="cls-6" d="M636.43,709.87c-84.53-58.2-171.53-91.2-244.53-181.2C449,544.3,536.22,553.82,598.3,558.28a3.81,3.81,0,0,0,2.58-6.84c-28.15-21.09-66.69-41.47-92-62.77-41.4-34.87-66.44-71.2-99.94-113.38A313.7,313.7,0,0,0,539.85,399.8C499,373.74,466.52,337.21,436,300.13q-58.84-71.4-110.8-147.87l.56-1.17q-51.79,76.42-110.64,148c-30.53,37.11-63,73.67-103.79,99.78a313.76,313.76,0,0,0,130.85-24.64c-33.45,42.21-58.86,82.55-100.23,117.46-28.33,23.91-68,48-101.24,66.6,63.12-4.47,143.63-8.55,204.54-25.3C175.51,612.4,96,653.37,13.51,720.11l94.48,19a1393.37,1393.37,0,0,0,393.91,3.66,516.43,516.43,0,0,0,74-15.49Z" transform="translate(-13.51 -44.7)"/><ellipse class="cls-6" cx="338.6" cy="663.51" rx="10.08" ry="9.83"/><path class="cls-1" d="M302.7,504.69a38.14,38.14,0,0,1-19,27.31s15.72,6.61,17.37,26.47c0,0,5.8-20.68,20.69-26.47C321.73,532,308.49,527.86,302.7,504.69Z" transform="translate(-13.51 -44.7)"/><path class="cls-1" d="M391.21,674.32a25.61,25.61,0,0,1-12.78,18.35s10.56,4.45,11.67,17.79c0,0,3.89-13.9,13.9-17.79C404,692.67,395.1,689.89,391.21,674.32Z" transform="translate(-13.51 -44.7)"/><path class="cls-8" d="M347.28,420.38" transform="translate(-13.51 -44.7)"/><rect class="cls-10" x="234.83" y="456.89" width="10.76" height="26.4" transform="translate(129.68 944.3) rotate(-142.34)"/><rect class="cls-3" x="375.54" y="424.8" width="10.76" height="26.4" transform="translate(937.45 502.8) rotate(141.89)"/><rect class="cls-5" x="299.99" y="418.3" width="10.76" height="26.4" transform="translate(185.64 -131.04) rotate(23.7)"/><path class="cls-3" d="M196.82,709.47h0a6.72,6.72,0,0,1-4.27-8.48l20.71-62.63a6.2,6.2,0,0,0-3.4-7.73,6.07,6.07,0,0,0-8.06,3.71l-1.71,5.16a6.72,6.72,0,0,1-8.48,4.27h0a6.72,6.72,0,0,1-4.27-8.48l1.58-4.77a19.76,19.76,0,0,1,24.2-13,19.52,19.52,0,0,1,13,24.81L205.3,705.21A6.7,6.7,0,0,1,196.82,709.47Z" transform="translate(-13.51 -44.7)"/><path class="cls-3" d="M432.25,418.47h0a6.72,6.72,0,0,0,4.27-8.48L415.8,347.36a6.21,6.21,0,0,1,3.41-7.73,6.07,6.07,0,0,1,8.06,3.71L429,348.5a6.72,6.72,0,0,0,8.48,4.27h0a6.72,6.72,0,0,0,4.27-8.48l-1.58-4.77a19.77,19.77,0,0,0-24.21-13A19.52,19.52,0,0,0,403,351.37l20.78,62.84A6.7,6.7,0,0,0,432.25,418.47Z" transform="translate(-13.51 -44.7)"/><circle class="cls-5" cx="275.1" cy="649.7" r="8.31"/><circle class="cls-1" cx="416.87" cy="446.42" r="8.31"/><path class="cls-1" d="M343.54,330.16a28,28,0,0,1-14,20.06s11.55,4.86,12.76,19.45c0,0,4.26-15.2,15.2-19.45C357.52,350.22,347.79,347.18,343.54,330.16Z" transform="translate(-13.51 -44.7)"/><path class="cls-1" d="M312.42,118.56l-26,4.15a1.8,1.8,0,0,0-.91,3.13l20.31,17.93a1.81,1.81,0,0,1,.48,2l-10,25.66a1.8,1.8,0,0,0,2.65,2.17l24.92-15.85a1.8,1.8,0,0,1,1.87,0l25.89,15a1.8,1.8,0,0,0,2.58-2.22l-9.81-24.85a1.8,1.8,0,0,1,.62-2.12l21.52-15.59a1.79,1.79,0,0,0-.71-3.22l-27.39-5.28a1.78,1.78,0,0,1-1.33-1.09l-9.23-23a1.8,1.8,0,0,0-3.29-.11l-10.82,22.31A1.8,1.8,0,0,1,312.42,118.56Z" transform="translate(-13.51 -44.7)"/><circle class="cls-5" cx="254.41" cy="270.14" r="5.41"/><path class="cls-4" d="M280.5,279.19h1.13a14.27,14.27,0,0,1,14.27,14.27v20.61a0,0,0,0,1,0,0H266.23a0,0,0,0,1,0,0V293.46a14.27,14.27,0,0,1,14.27-14.27Z" transform="translate(202.24 -151.46) rotate(34.26)"/><rect class="cls-4" x="248.53" y="307.07" width="45.3" height="8.82" rx="4.24" transform="translate(208.89 -143.32) rotate(34.26)"/><path class="cls-3" d="M294.13,279.58,282,260a.43.43,0,0,0-.72,0l-12.37,18.17a.42.42,0,0,0,.25.65L290.57,284Z" transform="translate(-13.51 -44.7)"/><path class="cls-3" d="M292.14,278.22l22.66,4.12a.43.43,0,0,1,.28.66L302.7,301.17a.42.42,0,0,1-.69,0l-12.63-18Z" transform="translate(-13.51 -44.7)"/><rect class="cls-3" x="287.33" y="275.02" width="8.02" height="11.63" rx="2.89" transform="translate(195.13 -159.98) rotate(34.26)"/><circle class="cls-5" cx="514.52" cy="663.32" r="5.11"/><path class="cls-4" d="M515.15,674.2h1.26a13.39,13.39,0,0,1,13.39,13.39v19.57a0,0,0,0,1,0,0h-28a0,0,0,0,1,0,0V687.59a13.39,13.39,0,0,1,13.39-13.39Z" transform="translate(-324.33 401.44) rotate(-36.77)"/><rect class="cls-4" x="504.62" y="699.91" width="42.81" height="8.33" rx="3.98" transform="translate(-330.31 410.24) rotate(-36.77)"/><path class="cls-3" d="M504.56,673.77l-21.22,4.82a.41.41,0,0,0-.24.64l12.44,16.64a.4.4,0,0,0,.66,0l11.17-17.55Z" transform="translate(-13.51 -44.7)"/><path class="cls-3" d="M502.74,675.13l10.64-19a.41.41,0,0,1,.68,0l12.43,16.64a.4.4,0,0,1-.21.62l-20,5.75Z" transform="translate(-13.51 -44.7)"/><rect class="cls-3" x="501.03" y="671.15" width="7.58" height="10.99" rx="2.89" transform="translate(-318.11 392.09) rotate(-36.77)"/></g><g id="girl"><ellipse class="cls-11" cx="451.47" cy="794.28" rx="196.98" ry="35.02"/><ellipse class="cls-12" cx="599.08" cy="310.47" rx="27.68" ry="27.68"/><path class="cls-12" d="M411.37,236.11c-1.88,21.43,14.21,40.09,35.64,42A38.54,38.54,0,0,0,489,242.9a38.94,38.94,0,0,0-77.59-6.79Z" transform="translate(-13.51 -44.7)"/><path class="cls-12" d="M484.55,242l7.2,24a1,1,0,0,1-1.17,1.2l-18.52-5.37Z" transform="translate(-13.51 -44.7)"/><path class="cls-2" d="M480.28,248.56c-1.09-3.43-6.31-16.16-22.82-11.94a.71.71,0,0,0-.5.92c1,3,5.86,13.8,22.71,12A.73.73,0,0,0,480.28,248.56Z" transform="translate(-13.51 -44.7)"/><circle class="cls-13" cx="455.27" cy="197.89" r="5.76"/><rect class="cls-12" x="529.06" y="778.22" width="31.63" height="24.71" transform="translate(-236.88 169.94) rotate(-18.57)"/><rect class="cls-12" x="320.47" y="779.21" width="31.63" height="24.71" transform="translate(254.26 -110.44) rotate(18.45)"/><rect class="cls-12" x="423.28" y="264.23" width="33.61" height="31.63" transform="translate(64.49 -140.15) rotate(13.57)"/><path class="cls-5" d="M319.05,790.28,312.37,808a74.93,74.93,0,0,0-4.81,26.91l.06,9.55,17.61.43.18-15.25h0a57.88,57.88,0,0,0,29,15.86,83.45,83.45,0,0,0,13,1.63l27.08,1.45c2.87.15,7.48-1.62,8.45-4.33v0a6.54,6.54,0,0,0-2.81-7.8c-11.79-7-41.06-16.66-49-37.41Z" transform="translate(-13.51 -44.7)"/><path class="cls-5" d="M532,800l-.75,7.47A73.63,73.63,0,0,0,534.73,839c.25.72.51,1.44.79,2.16l3.41,8.92,16.64-5.78-5.18-14.34h0a57.81,57.81,0,0,0,32.69,4.69,84.14,84.14,0,0,0,12.72-3l25.86-8.14c2.75-.88,6.45-4.14,6.4-7v0a6.53,6.53,0,0,0-5.35-6.31c-13.49-2.46-46.33-2.34-61-19Z" transform="translate(-13.51 -44.7)"/><path class="cls-8" d="M485.56,470.82,588.11,773.45a.85.85,0,0,1-.55,1.07l-77.44,21.23a.85.85,0,0,1-1.07-.58L450,588.44,380.44,796a2.13,2.13,0,0,1-2.63,1.36l-74.88-22.46a2.12,2.12,0,0,1-1.36-2.83l82.17-203.43s-2-56.34,23.72-86Z" transform="translate(-13.51 -44.7)"/><path class="cls-5" d="M491.89,481.44l-88.83,8.16s-6.14-112-4.14-133.45c1.8-19.35,0-54.35,41.53-54.35,27.08,0,21.46,22.15,58.68,53.43,15.35,12.9,8.12,44.22-13.54,47,0,0,0,2.77.9,12.9S491.89,481.44,491.89,481.44Z" transform="translate(-13.51 -44.7)"/><path class="cls-3" d="M597.3,445.44l52.26,24.43A22.52,22.52,0,0,0,679.49,459h0a22.52,22.52,0,0,0-10.86-29.93l-16.38-7.65a2.94,2.94,0,0,1-1.42-3.9l16.24-34.73-42.15-19.7-26.78,57.27" transform="translate(-13.51 -44.7)"/><path class="cls-6" d="M606.53,449.71l-9.47-4.38a9.59,9.59,0,0,1-4.63-12.75l5.71-12.21h0A19.57,19.57,0,0,1,607.88,447Z" transform="translate(-13.51 -44.7)"/><rect class="cls-6" x="613.12" y="359.81" width="68.34" height="22.51" rx="4.47" transform="translate(204.52 -283.89) rotate(25.05)"/><path class="cls-12" d="M419.05,359.2l95.27,74.43c3.47,2.72,5.84,2.59,9,.35l85.84-51.13-21.75-29.66L523.49,390a2.25,2.25,0,0,1-2.56-.21l-76.87-63.28A20.6,20.6,0,0,0,415.75,330h0A20.6,20.6,0,0,0,419.05,359.2Z" transform="translate(-13.51 -44.7)"/><polygon class="cls-5" points="386.04 298.61 434.48 347.04 470.07 303.55 410.76 268.96 386.04 298.61"/><path class="cls-5" d="M422.29,319.59l-9.38-14.86a7.67,7.67,0,0,0-7.11-3.54h0a5,5,0,0,1-5.51-3.52h0a5,5,0,0,1,4.25-6.42L465,284.51a5.17,5.17,0,0,1,5.65,4.12l0,.13a5.32,5.32,0,0,1-4.05,6.26h0a7.27,7.27,0,0,0-5.21,4.5l-6.52,17.1Z" transform="translate(-13.51 -44.7)"/><path class="cls-13" d="M455,228.84c7.94,1.3,16.11,2.33,24,.6s15.42-6.75,18.14-14.31c3.4-9.45-2.34-20.88-11.65-24.64s-20.77-.1-27,7.81a42.26,42.26,0,0,0-52.8,27.17c-3.92,12,0,35,16.54,32.31C437.38,255.32,451,243.69,455,228.84Z" transform="translate(-13.51 -44.7)"/><path class="cls-13" d="M416.36,227.18c-28.18-4.15-58.16,8.21-74.14,32.11C330.89,276.23,326.53,300.54,324,321a22.12,22.12,0,0,0,22.22,24.95h0c11.77-.17,23.09-9.59,21.75-21.28-4-34.72,8.42-67.78,44.53-83.52Z" transform="translate(-13.51 -44.7)"/><rect class="cls-3" x="392.63" y="220.74" width="17.79" height="36.57" rx="8.9" transform="translate(-47.08 23.88) rotate(-9.37)"/><path class="cls-3" d="M473.19,268.89a6.76,6.76,0,0,0-2.42-1.61,56.88,56.88,0,0,0-7.44-2.58,15.17,15.17,0,0,0-2.1-.32.69.69,0,0,0-.76.82c.44,2.25,1.69,8,3.3,10.5a3,3,0,0,0,5.45-2.49,7.11,7.11,0,0,0,2.56,0,2.82,2.82,0,0,0,2.07-1.63A2.79,2.79,0,0,0,473.19,268.89Z" transform="translate(-13.51 -44.7)"/><path class="cls-9" d="M476.77,498.69A39.38,39.38,0,0,1,457,535.59" transform="translate(-13.51 -44.7)"/></g></svg>