<svg xmlns="http://www.w3.org/2000/svg" viewBox="0 0 1063.57 764"><defs><style>.cls-1{opacity:0.33;}.cls-2{fill:#a6b5ff;}.cls-3{fill:#fc543d;}.cls-4{fill:#f4d34d;}.cls-5{fill:#d9e0f9;}.cls-6{fill:#fff;}.cls-10,.cls-11,.cls-12,.cls-7{fill:none;}.cls-7{stroke:#a6b5ff;stroke-width:4px;}.cls-10,.cls-12,.cls-7{stroke-miterlimit:10;}.cls-8{fill:#553ef9;}.cls-9{fill:#edb2a2;}.cls-10,.cls-12{stroke:#553ef9;}.cls-12{stroke-width:10px;}.cls-13{fill:#f7e8a6;}</style></defs><g id="decorative_elements" data-name="decorative elements"><g class="cls-1"><rect class="cls-2" x="135.95" y="743.47" width="90.32" height="6.2" rx="3.02"/><rect class="cls-2" x="187.79" y="757.8" width="90.32" height="6.2" rx="3.02"/></g><g class="cls-1"><rect class="cls-2" x="902.68" y="642.88" width="90.32" height="6.2" rx="3.02"/><rect class="cls-2" x="826.21" y="659.27" width="90.32" height="6.2" rx="3.02"/></g><rect class="cls-3" x="128.25" y="214.26" width="40.15" height="82.98" rx="20.08" transform="translate(254.36 -53.22) rotate(68.11)"/><path class="cls-3" d="M181,238.31l16.71-23.12a1.9,1.9,0,0,1,3.35,1l.93,9a1.9,1.9,0,0,0,1.08,1.52l8,3.81A1.9,1.9,0,0,1,212,233l-3.36,7a1.88,1.88,0,0,0,.27,2l5.42,6.39a1.9,1.9,0,0,1-1.77,3.1l-29.67-6.78Z" transform="translate(-76 -76)"/><path class="cls-3" d="M114,274.78,97.3,297.89a1.89,1.89,0,0,1-3.35-1l-.93-9a1.88,1.88,0,0,0-1.08-1.51l-8-3.81a1.9,1.9,0,0,1-.9-2.53l3.36-7a1.9,1.9,0,0,0-.27-2.05l-5.42-6.39a1.89,1.89,0,0,1,1.77-3.09l29.67,6.78Z" transform="translate(-76 -76)"/><circle class="cls-4" cx="54.79" cy="189.76" r="7.47"/><circle class="cls-4" cx="93.66" cy="166.22" r="7.47"/><path class="cls-4" d="M141.51,236.71a7.46,7.46,0,1,1-13.8,5.69Z" transform="translate(-76 -76)"/><path class="cls-4" d="M153.64,275.39a7.46,7.46,0,1,1,13.8-5.69Z" transform="translate(-76 -76)"/><rect class="cls-4" x="632" y="578" width="16" height="29" transform="translate(-286.51 323.38) rotate(-30)"/><rect class="cls-3" x="92" y="562" width="16" height="29" transform="translate(438.52 87.56) rotate(54.95)"/><polygon class="cls-5" points="392.56 114.04 400.62 142.28 421.32 122.54 392.56 114.04"/><circle class="cls-3" cx="969.77" cy="366.53" r="13.49"/><path class="cls-2" d="M1088.33,457.87s9-17.49,32.91-4.84c0,0,.63-12.29,16.82-18.35l1.49-.07h0l-.77-.19c.24-.09-.75-.18-.75-.18-16.72-4.38-18.61-16.54-18.61-16.54-22.54,15-33.23-1.46-33.23-1.46a29.09,29.09,0,0,1-17.85,21.61v.36A29.08,29.08,0,0,1,1088.33,457.87Z" transform="translate(-76 -76)"/><path class="cls-2" d="M1073.36,398.29s-17.83-8.26-6.13-32.7c0,0-12.3-.15-19-16.08l-.13-1.5h0c0,.27-.11.52-.16.77-.1-.24-.15.76-.15.76-3.72,16.88-15.8,19.24-15.8,19.24,15.9,21.93-.16,33.26-.16,33.26a29.07,29.07,0,0,1,22.28,17l.36,0A29.06,29.06,0,0,1,1073.36,398.29Z" transform="translate(-76 -76)"/><circle class="cls-4" cx="645.53" cy="690.95" r="14.25"/><circle class="cls-2" cx="625.48" cy="717.87" r="36.78"/><circle class="cls-4" cx="654.06" cy="678.4" r="8.28"/><circle class="cls-6" cx="654.49" cy="677.01" r="3.22"/><circle class="cls-6" cx="589.68" cy="716.35" r="6.9"/><circle class="cls-6" cx="660.17" cy="708.36" r="6.9"/><circle class="cls-6" cx="622.63" cy="695.94" r="6.9"/><circle class="cls-6" cx="624.45" cy="727.91" r="6.9"/><circle class="cls-6" cx="629.84" cy="753.38" r="6.9"/><polygon class="cls-4" points="268.14 53.86 262.48 72.49 274.62 87.71 255.15 88.08 244.43 104.33 238.06 85.93 219.29 80.75 234.82 69.01 233.95 49.56 249.91 60.7 268.14 53.86"/><polygon class="cls-4" points="960.03 168.74 951.67 167.66 946.05 173.94 944.49 165.66 936.78 162.24 944.18 158.2 945.04 149.82 951.17 155.6 959.41 153.83 955.8 161.45 960.03 168.74"/><path class="cls-7" d="M1122.58,83.45c-3.06,18.1-8,36.25-18,51.63s-25.75,27.78-43.92,30.45c-6.64,1-13.86.52-19.38-3.29s-8.58-11.68-5.37-17.57c2.28-4.18,7.14-6.48,11.9-6.74,7.52-.41,14.84,3.75,19.43,9.72s6.71,13.55,7.3,21.06c1.7,21.9-9.88,44.32-28.74,55.59" transform="translate(-76 -76)"/><path class="cls-7" d="M149.07,616.09a44,44,0,0,0-22.8,72.6" transform="translate(-76 -76)"/><circle class="cls-5" cx="10.5" cy="726.5" r="10.5"/><path class="cls-7" d="M1007.57,562.79c11.25-.48,22.12,6.14,28.35,15.53s8.17,21.16,7.1,32.37" transform="translate(-76 -76)"/><rect class="cls-8" x="162.96" y="390.05" width="20.84" height="5.96" rx="2.98" transform="translate(91.26 -112.5) rotate(22.99)"/><rect class="cls-8" x="159" y="400.17" width="20.84" height="5.96" rx="2.98" transform="translate(99.53 -110.11) rotate(23.59)"/><rect class="cls-8" x="156.43" y="412.09" width="20.84" height="5.96" rx="2.98" transform="translate(105.66 -108.04) rotate(23.8)"/></g><g id="boy"><rect class="cls-8" x="166.79" y="380" width="21.03" height="5.96" rx="2.98" transform="translate(139.24 -113.34) rotate(30)"/><rect class="cls-8" x="171.96" y="370.05" width="20.84" height="5.96" rx="2.98" transform="translate(175.71 -112.37) rotate(35.67)"/><circle class="cls-9" cx="141.18" cy="426.93" r="27.25"/><path class="cls-8" d="M333.58,366.83s-20.53,26.06-70.82,28.74c-40.81,2.17-66-17.15-74.89-22.59a2.89,2.89,0,0,0-4.27,1.6L170.08,416.9a2.88,2.88,0,0,0,1.4,3.43c10.72,5.7,60.2,35.24,105.65,26.56C328.45,437.08,377.72,398,377.72,398L333.58,369.5" transform="translate(-76 -76)"/><circle class="cls-9" cx="476.82" cy="440.27" r="27.25"/><polygon class="cls-9" points="324.11 276.48 325.57 299.39 299.49 301.51 298.26 276.57 324.11 276.48"/><path class="cls-9" d="M379.78,285.29a39.54,39.54,0,0,1,44.74,38.44,6.42,6.42,0,0,0,1,3.37L433,338.68a1,1,0,0,1-.8,1.51l-10.92,0a39.53,39.53,0,1,1-41.5-54.87Z" transform="translate(-76 -76)"/><path class="cls-6" d="M416.26,322.74c-3.09-3-15.8-13.42-30.76.38a.85.85,0,0,0,0,1.25c2.72,2.54,14,11.19,30.66-.31A.85.85,0,0,0,416.26,322.74Z" transform="translate(-76 -76)"/><circle class="cls-8" cx="324.79" cy="246.98" r="6.88"/><path class="cls-10" d="M411.87,353.64a10.11,10.11,0,0,1-5.2-5.75" transform="translate(-76 -76)"/><ellipse class="cls-9" cx="310.95" cy="306.22" rx="24.63" ry="14.37"/><path class="cls-2" d="M456.75,720.11v7.27A23.65,23.65,0,0,0,477,750.78l44.52,6.51a13.21,13.21,0,0,1,11.21,14.16h0a13.19,13.19,0,0,1-13.36,12.1L419.45,782a15.81,15.81,0,0,1-15.55-16.32l1.53-46.55Z" transform="translate(-76 -76)"/><rect class="cls-2" x="384.9" y="794.84" width="171.41" height="14.37" rx="7" transform="translate(-60.17 -85.08) rotate(1.12)"/><rect class="cls-2" x="343.8" y="696.26" width="12.32" height="29.77"/><rect class="cls-2" x="384.86" y="698.31" width="12.32" height="29.77"/><rect class="cls-2" x="425.91" y="700.36" width="12.32" height="29.77"/><path class="cls-2" d="M262.79,664.41l-5.89,4A23.09,23.09,0,0,0,249,697.49l19,39.6a12.87,12.87,0,0,1-5.36,16.78h0a12.87,12.87,0,0,1-17.07-4.24L192.4,667.87a15.43,15.43,0,0,1,4.76-21.48l38.53-24.1Z" transform="translate(-76 -76)"/><rect class="cls-2" x="120.36" y="713.21" width="167.27" height="14.02" rx="6.83" transform="translate(623.05 82.75) rotate(57.22)"/><rect class="cls-2" x="185.73" y="661.44" width="12.02" height="29.05" transform="translate(569.79 63.74) rotate(56.09)"/><rect class="cls-2" x="206.42" y="695.81" width="12.02" height="29.05" transform="translate(607.46 61.76) rotate(56.09)"/><rect class="cls-2" x="227.11" y="730.18" width="12.02" height="29.05" transform="translate(645.13 59.79) rotate(56.09)"/><path class="cls-8" d="M434,488.87l-94.93,2C312,575.08,217.81,634.1,217.81,634.1L255.57,689C335.63,648,365.82,587.58,384.43,543.52c17,77.6,13.66,189.73,13.66,189.73h71C475.09,609.06,434,488.87,434,488.87Z" transform="translate(-76 -76)"/><path class="cls-4" d="M432.12,394.54C427.41,382.73,406.46,374,406.46,374s-2.06,12.32-14.37,13.35C375.72,388.72,367.45,373,367.45,373s-21.54,26.49-25.66,43.1S328,447.29,326.4,464.34c-1.73,18.59-4.5,39.51-8.66,57.9a1.38,1.38,0,0,0,1.45,1.69c14.53-1.09,142.22,13.48,142.22,13.48s-7.19-56.66-12.59-74.92C442.7,441.82,440.09,414.56,432.12,394.54Z" transform="translate(-76 -76)"/><path class="cls-4" d="M367.45,373l-10,4c-7,2.81-17.44,4.37-23.88,8.32l-52.12,26.06a73.92,73.92,0,0,0-13.81,9l-46,37.73a12.68,12.68,0,0,0-4.52,16.86l18.6,22.66a12.69,12.69,0,0,0,17.93,4.69l42.68-40.06,86.47-39.95Z" transform="translate(-76 -76)"/><path class="cls-4" d="M380.58,412.36l83.36,58.43L517.12,518a5.41,5.41,0,0,0,7.85-.7l24.12-30.54a5.42,5.42,0,0,0-.59-7.35l-50-45.88-58.65-38.1a127.11,127.11,0,0,0-27.28-18.34h0Z" transform="translate(-76 -76)"/><path class="cls-4" d="M390,362.72" transform="translate(-76 -76)"/><path class="cls-4" d="M344.87,383.25" transform="translate(-76 -76)"/><circle class="cls-3" cx="310.95" cy="352.41" r="7.18"/><circle class="cls-3" cx="310.95" cy="389.36" r="7.18"/><circle class="cls-3" cx="313.01" cy="432.47" r="7.18"/><path class="cls-8" d="M431.27,298a.83.83,0,0,0-.33-1.35c-6.92-2.49-15-4.84-21.75-7.36a66.2,66.2,0,0,0-11.32-3.43c-8.92-1.57-18.15.64-26.38,4.43C361.78,294.73,352.73,302,349,312c-3.9,10.44-1.52,22.06.9,32.94,12.48-8.5,22-13.6,35-21.2C384.9,323.72,417.61,312.35,431.27,298Z" transform="translate(-76 -76)"/><path class="cls-4" d="M377.76,374.61c-5.68-30.42,5.48-64.65,28.32-85.56a1.64,1.64,0,0,0-.08-2.52c-4.88-3.65-11.47-3.94-17.75-4.22-14.56-.63-29.82,4.09-39.65,14.85-6.7,7.34-10.48,16.94-12.56,26.66-4.34,20.3-.33,41.83,8.83,60.46Z" transform="translate(-76 -76)"/><path class="cls-8" d="M330.5,351.43s-8.41,11.73-7,37.46a2.78,2.78,0,0,0,1.4,2.26c7.92,4.49,50.76,25.87,106.21-2.77,0,0-.09-11.44-15.4-39,0,0-10.26,15.39-81.08-3.08" transform="translate(-76 -76)"/><path class="cls-2" d="M525.45,443l-31.79-33.81a3.08,3.08,0,0,0-5.32,2l-1,32.47Z" transform="translate(-76 -76)"/><path class="cls-2" d="M521.24,444,553,410.22a3.07,3.07,0,0,1,5.31,2l1,32.47Z" transform="translate(-76 -76)"/><rect class="cls-2" x="435.15" y="353.44" width="25.66" height="14.37"/><rect class="cls-3" x="397.56" y="364.73" width="101.86" height="82.11" rx="7.73"/><rect class="cls-2" x="444.39" y="362.68" width="7.18" height="86.22" rx="3.5"/><rect class="cls-2" x="396.15" y="400.65" width="105.72" height="6.16" rx="3"/></g><g id="woman"><path class="cls-3" d="M830.06,128.32A40.5,40.5,0,1,1,905.79,157Z" transform="translate(-76 -76)"/><circle class="cls-5" cx="810.5" cy="19.5" r="13.5"/><rect class="cls-4" x="744" y="370" width="24" height="61" rx="12" transform="translate(-170.71 233.81) rotate(-21.83)"/><path class="cls-8" d="M646.06,93.21c-.16,17.55-4.86,69.65-29.66,107.08a1.57,1.57,0,0,0,1.88,2.34L660.53,186c1.21-.47,2.16.58,2.09,1.87-1.62,29.18-21,76.14-46.9,125a1.57,1.57,0,0,0,2.1,2.13l58.32-31.44a1.57,1.57,0,0,1,2.21,1.88C672.94,302.48,663,376,612.59,444c-.9,1.2.64,2.79,2,2.18l265.64-118c1.21-.54,1.35-2.47.08-2.84C813,306,778,282,753.36,256.9c-.91-.92-1-2.32.24-2.8l72.27-28.93a1.57,1.57,0,0,0,0-2.94c-15.77-5.72-82.83-12.23-126-45.71-1.14-.88-1.39-2.39-.06-2.93l46-19.47a1.58,1.58,0,0,0-.3-3c-17.09-3.19-70.93-15.33-96.56-58.68A1.57,1.57,0,0,0,646.06,93.21Z" transform="translate(-76 -76)"/><circle class="cls-9" cx="615" cy="196" r="26"/><polygon class="cls-9" points="774.37 123.51 775.64 145.34 800.55 144.33 798.82 120.6 774.37 123.51"/><path class="cls-9" d="M861.8,133.61a37.68,37.68,0,0,0-37.86,41.55,6.18,6.18,0,0,1-.59,3.3l-5.69,11.82a.92.92,0,0,0,.93,1.33l10.32-1.29a37.67,37.67,0,1,0,32.89-56.71Z" transform="translate(-76 -76)"/><path class="cls-6" d="M831.64,173.26c2.58-3.19,13.38-14.52,29.14-3.21a.81.81,0,0,1,.15,1.18c-2.28,2.72-11.93,12.21-29,3.27A.83.83,0,0,1,831.64,173.26Z" transform="translate(-76 -76)"/><circle class="cls-8" cx="770.3" cy="95.69" r="6.55"/><path class="cls-10" d="M839.37,202a9.71,9.71,0,0,0,4.26-6" transform="translate(-76 -76)"/><path class="cls-4" d="M861.08,208" transform="translate(-76 -76)"/><path class="cls-4" d="M906.17,222.21" transform="translate(-76 -76)"/><path class="cls-3" d="M828,394.89C810.49,452.35,798,464,790,524c-1.62,12.17-8.84,85.32,0,125.42L828,643s2.63-71.59,7-114c5.15-50,14.27-76.32,30-119.76,0,0-9.49,39.9,9,106.76,6.16,22.29,32.26,63.42,44,82l39-17s-30-43.2-39-72c-14.5-46.41-12.29-81.82-10.54-127.55Z" transform="translate(-76 -76)"/><path class="cls-11" d="M893.18,204.41a84.82,84.82,0,0,0-47.71,27.37c-7.76,8.91-13.55,19.35-20.91,28.59-25.4,31.9-66.29,46.33-105,59.25l10.68,46.16s90-13.69,120.29-40.1c0,0-74.33,73.35-72.37,204.4" transform="translate(-76 -76)"/><path class="cls-4" d="M776.24,537.9l169.19-19.55S909.14,372,918.05,316.88c10.76-66.5-33-89.46-57.46-84.13s-37.21,21.51-56,56.75-23.52,94.14-28.36,122.25S776.24,537.9,776.24,537.9Z" transform="translate(-76 -76)"/><rect class="cls-8" x="688.51" y="324.01" width="93.89" height="62.59" rx="11.57"/><path class="cls-12" d="M865.63,226.74c10,8.22,15.75,20.83,17.81,33.64s.77,25.91-1.18,38.74a380.13,380.13,0,0,1-41.18,123" transform="translate(-76 -76)"/><path class="cls-12" d="M781.45,423.34a184.72,184.72,0,0,1,25.95-135.1" transform="translate(-76 -76)"/><path class="cls-4" d="M871.58,271.87a24.7,24.7,0,0,1-9.49,32.29l-78.9,46.76a20.53,20.53,0,0,1-22.84-1.25L705.79,308.6c-11.34-8.54-5.11-18.84,4.93-28.88h0c8.18-8.19,13.73-15.44,23-8.54l40.54,30.05,62-39.2a24.7,24.7,0,0,1,35.29,9.84Z" transform="translate(-76 -76)"/><rect class="cls-5" x="760.39" y="490.14" width="198.08" height="53.79" rx="17.94" transform="translate(-127.14 20.55) rotate(-6.24)"/><path class="cls-8" d="M785,625l-.14,5.24a20.11,20.11,0,0,1-17.71,19.46l-38,4.57a11.22,11.22,0,0,0-9.84,11.79h0a11.23,11.23,0,0,0,11.1,10.59l85,.81A13.45,13.45,0,0,0,829,663.93l-.28-38.63a1,1,0,0,0-1-1L786,624.07A1,1,0,0,0,785,625Z" transform="translate(-76 -76)"/><rect class="cls-8" x="698.57" y="687.32" width="145.84" height="12.23" rx="6.11" transform="translate(1462.87 1315.4) rotate(-179.66)"/><rect class="cls-8" x="804.54" y="669.08" width="10.48" height="25.33" transform="translate(1525.91 1307.92) rotate(-178.54)"/><rect class="cls-8" x="769.58" y="669.93" width="10.48" height="25.33" transform="translate(1455.97 1308.74) rotate(-178.54)"/><rect class="cls-8" x="734.62" y="670.79" width="10.48" height="25.33" transform="matrix(-1, -0.03, 0.03, -1, 1386.03, 1309.56)"/><path class="cls-8" d="M913.44,596.28l3.43,3.8a21,21,0,0,1,.59,27.38l-25.4,30.7a11.69,11.69,0,0,0,1,16h0a11.71,11.71,0,0,0,16,0l64.71-60.32a14,14,0,0,0,.53-20l-24.33-25a1,1,0,0,0-1.34-.11l-35,25.77A1.19,1.19,0,0,0,913.44,596.28Z" transform="translate(-76 -76)"/><rect class="cls-8" x="876.15" y="651.01" width="151.8" height="12.73" rx="6.36" transform="translate(2020.07 408.9) rotate(136.8)"/><rect class="cls-8" x="967.12" y="607.91" width="10.91" height="26.36" transform="translate(2034.68 354.43) rotate(137.93)"/><rect class="cls-8" x="941.35" y="633.62" width="10.91" height="26.36" transform="translate(2007.01 416.49) rotate(137.93)"/><rect class="cls-8" x="915.58" y="659.33" width="10.91" height="26.36" transform="translate(1979.34 478.56) rotate(137.93)"/><path class="cls-5" d="M872.51,208.87A89.67,89.67,0,0,0,819,222.19c-15.77,10-28.07,25.59-33.5,43.46-1.92,6.28-2.66,14,2,18.62,3.28,3.26,8.49,4,13,2.74s8.29-4.08,11.71-7.19c12.48-11.35,21.4-27,36.32-34.89a43.7,43.7,0,0,1,28.58-4.21c6.06,1.19,12,3.69,18.16,3.29s10.38-5.42,12-11.39c2-7.67-3.87-14.06-7.74-17.45C891.64,208.33,880.92,209.41,872.51,208.87Z" transform="translate(-76 -76)"/><rect class="cls-5" x="687.25" y="270.92" width="70.41" height="38.14" rx="19.07" transform="translate(-9.53 633.17) rotate(-54.45)"/><path class="cls-13" d="M825.1,160a20.3,20.3,0,0,0,22.88.72c1.73,5,6.48,8.58,11.58,10.05s10.56,1.14,15.82.37c-2.7,12.95,5.82,27.26,18.5,31.07a29.29,29.29,0,0,0,15.57,40.31c5,2,10.72,2.48,15.74.56,3-1.15,7.25-3.07,9.49-5.38,6.08-6.3,7.66-15.58,6-24.17s-8.52-16.14-17.07-18A27.61,27.61,0,0,0,902.7,156.3a33.46,33.46,0,0,0-19.37-28c-10.92-4.86-24.94-4-34.72,6.72.68-.54-9-6.85-13.69-6.85-7.82,0-12,2.46-14.67,6.85C812.43,147.69,818.75,155.16,825.1,160Z" transform="translate(-76 -76)"/><path class="cls-11" d="M648,76s4,68-32,125" transform="translate(-76 -76)"/><rect class="cls-4" x="718" y="346" width="35" height="12" rx="6"/></g></svg>