<svg xmlns="http://www.w3.org/2000/svg" viewBox="0 0 916.93 761.85"><defs><style>.cls-1,.cls-4{fill:#e0d6e2;}.cls-1{opacity:0.4;}.cls-2{fill:#a6b5ff;}.cls-3{fill:#553ef9;}.cls-5{fill:#fc543d;}.cls-6{fill:#f4d34d;}.cls-14,.cls-7{fill:#9595fc;}.cls-7{stroke:#231f20;stroke-linecap:round;stroke-linejoin:round;stroke-width:3.06px;}.cls-8{fill:#edb2a2;}.cls-9{fill:#fff;}.cls-10{fill:#5a3b8f;}.cls-11,.cls-12{fill:none;}.cls-11{stroke:#5a3b8f;stroke-miterlimit:10;}.cls-13{fill:#ffbe69;}.cls-15{fill:#967cf2;}</style></defs><g id="BG"><path class="cls-1" d="M1056,708.66c-14.06,35.15-68.78,96.06-170.54,103.89-44.48,3.43-90.37-9.13-125-37.32-46.22-37.7-69.22-96.34-106-143.27s-88.26-82.08-145.58-98c-36.09-10-73.77-12.5-110.93-17.3-47.77-6.16-95.84-16.58-137.91-40s-77.84-61.44-89.88-108.07c-17.73-68.71,20.74-143.34,79.33-183.38s132.92-50.47,203.79-46.76C650,148.68,832.24,260.69,957.78,412.48c38.12,46.09,69.76,100.33,89.23,156.11C1073.23,643.68,1068.89,676.46,1056,708.66Z" transform="translate(-149.3 -51.26)"/></g><g id="tree"><path class="cls-2" d="M333.41,368.9h32a0,0,0,0,1,0,0V554.73a1,1,0,0,1-1,1H334.44a1,1,0,0,1-1-1V368.9a0,0,0,0,1,0,0Z"/><polygon class="cls-3" points="578.71 504.26 458.12 366.01 542.85 366.01 440.01 239.25 494.79 239.25 347.36 75.18 196.93 239.94 254.71 239.25 151.87 366.01 236.6 366.01 116 504.26 346.71 504.26 578.71 504.26"/><path class="cls-2" d="M496.73,51.31l11.84,24a.1.1,0,0,0,.06,0l26.47,3.84a.09.09,0,0,1,0,.15L516,98a.11.11,0,0,0,0,.08l4.52,26.36a.08.08,0,0,1-.12.09l-23.68-12.44a0,0,0,0,0-.07,0l-23.68,12.44a.08.08,0,0,1-.12-.09l4.52-26.36a.11.11,0,0,0,0-.08L458.16,79.33a.09.09,0,0,1,0-.15l26.47-3.84a.1.1,0,0,0,.06,0l11.84-24A.08.08,0,0,1,496.73,51.31Z" transform="translate(-149.3 -51.26)"/><circle class="cls-4" cx="314.28" cy="299.92" r="20.19"/><circle class="cls-5" cx="271.23" cy="173.92" r="20.19"/><circle class="cls-2" cx="372.26" cy="173.92" r="20.19"/><circle class="cls-5" cx="431.43" cy="258.59" r="20.19"/><circle class="cls-1" cx="407.98" cy="394.69" r="20.19"/><circle class="cls-5" cx="426.03" cy="500.06" r="20.19"/><circle class="cls-6" cx="294.3" cy="441.52" r="20.19"/><circle class="cls-2" cx="242.76" cy="368.9" r="20.19"/></g><g id="girl"><path class="cls-7" d="M344.59,398.76" transform="translate(-149.3 -51.26)"/><polygon class="cls-8" points="547.95 194.51 550.32 213.85 578.22 210.68 575.13 190.46 547.95 194.51"/><polygon class="cls-8" points="572.12 480.14 545.82 678.49 586.76 678.49 616.11 480.14 572.12 480.14"/><path class="cls-8" d="M767.47,525l9.94,43.6c7.26,31.88,10.73,51.77,25,81.21l32.5,63.54,36.36-12-30.89-68.28c-12.06-25.67-14.19-41.38-21-68.91l-11.64-46.91Z" transform="translate(-149.3 -51.26)"/><path class="cls-6" d="M712.42,386.63l-19.74,203a6.86,6.86,0,0,0,8.1,7.4l11.27-.43a468.75,468.75,0,0,0,132.38-24.42l14-4.73a6.87,6.87,0,0,0,4.92-9.71L775.18,373.83Z" transform="translate(-149.3 -51.26)"/><path class="cls-9" d="M702.59,414.34l-3.23-56.13A15.66,15.66,0,0,0,694.82,348c-5.94-5.95-16-18.23-15.12-32.44,1.25-20.05,12.88-20.86,15.76-29s-4.67-24.25,15.81-29.55c34.91-9,37.82,34.15,46.38,54.07,11.9,27.73,40.6,84.27,40.6,84.27Z" transform="translate(-149.3 -51.26)"/><path class="cls-8" d="M699.13,267.61a15.08,15.08,0,0,1,14.77,18.13c-4.45,21.54-17.58,55.83-56.32,65.66C596.72,366.85,547,319.64,547,319.64l20-20.25s37.48,36.56,84.77,23.09c20.09-5.73,29.54-24.94,33.25-39.26,1.71-6.63,7.33-15.61,14.17-15.61Z" transform="translate(-149.3 -51.26)"/><circle class="cls-8" cx="404.12" cy="255.91" r="23.83"/><path class="cls-9" d="M660.67,311.06s34.52-62.4,57.68-48.34c36.3,22-22,79.14-22,79.14Z" transform="translate(-149.3 -51.26)"/><circle class="cls-8" cx="555.37" cy="162.09" r="37.91"/><path class="cls-8" d="M671.25,216.47,664.74,240a.93.93,0,0,0,1.17,1.15l17.91-5.6Z" transform="translate(-149.3 -51.26)"/><path class="cls-9" d="M675.54,220.65c2-3.62,10.65-16.78,28.28-8.4a.81.81,0,0,1,.36,1.14c-1.77,3.1-9.62,14.23-28.16,8.44A.82.82,0,0,1,675.54,220.65Z" transform="translate(-149.3 -51.26)"/><circle class="cls-10" cx="540.48" cy="165.21" r="6.6"/><path class="cls-11" d="M689.21,248c2-1.43,4.45-3.71,5.17-6.09" transform="translate(-149.3 -51.26)"/><path class="cls-5" d="M675,177.42c-3.39-3.07-12.54-3.88-18.73-.06-2.92,1.8-4.33,5.51-4.48,8.95-.2,4.5,2.14,8.84,5.44,11.9s7.48,5,11.71,6.55c13.09,4.8,29.06,2.19,41.87-3.3-1.72,7.52,2.1,17.26,6.8,22.11A28.21,28.21,0,0,0,735.57,232a4.11,4.11,0,0,0,4.55-2.25,35.4,35.4,0,0,0,4.69-29.53c-3.25-11.1-12.08-20.11-22.6-24.92s-17.88-5.28-29.43-4.51A36.2,36.2,0,0,0,675,177.42Z" transform="translate(-149.3 -51.26)"/><path class="cls-5" d="M718.71,186.37c7.84-20.07,29.15-34.41,50.64-32.91,17.72,1.24,33.59,12.29,44.67,26.16,7.74,9.69,13.49,20.71,18.61,32a16.29,16.29,0,0,1-7.94,21.48h0a16.24,16.24,0,0,1-21-6.74c-9.76-17.32-27.19-46.76-43.77-48.43-24-2.41-28.77,18.59-28.77,18.59Z" transform="translate(-149.3 -51.26)"/><path class="cls-2" d="M698.55,707.7S643.59,754,642,761s5.22,7.07,21.14,4.32c14.61-2.53,61.59-25.56,61.59-25.56l3.47,23.71h20l-8.82-55.8Z" transform="translate(-149.3 -51.26)"/><path class="cls-2" d="M834.4,712.4S790.67,751,787.62,760c-2.31,6.88,3.81,8.06,17.6,5,14.48-3.2,57.52-19.51,57.52-19.51l3.86,17.64,18.21-.71-13.58-61.14Z" transform="translate(-149.3 -51.26)"/><path class="cls-3" d="M720.62,167.3a7,7,0,0,1,6.43-2.35c2.8.45,5.69,2.62,8,4.32a41.75,41.75,0,0,1,6.16,6.17c1.68,2,3.13,3.67,2.68,7.2-.31,2.39-2.67,5.82-5,6.34a52.41,52.41,0,0,0-8.71-7.61C725.4,178.18,715,174.21,720.62,167.3Z" transform="translate(-149.3 -51.26)"/><polygon class="cls-2" points="582.62 357.25 552.26 447.12 545.38 517.82 605.15 352.78 582.62 357.25"/><polygon class="cls-2" points="627.1 348.42 563.22 545.18 584.24 543.94 644.37 361.14 637.3 346.39 627.1 348.42"/><polygon class="cls-2" points="661.34 396.72 612.93 540.71 634.89 537.43 674.1 423.15 661.34 396.72"/><polygon class="cls-2" points="689.31 454.8 662.67 530.62 685.53 524.06 700.75 478.5 689.31 454.8"/></g><g id="presents"><path class="cls-6" d="M355.31,618.21l50.3-42.64a3.09,3.09,0,0,1,4.76,1l20.35,41.64Z" transform="translate(-149.3 -51.26)"/><path class="cls-6" d="M362.08,618.13l-50.29-42.64a3.08,3.08,0,0,0-4.76,1l-20.35,41.64Z" transform="translate(-149.3 -51.26)"/><rect class="cls-5" x="101.95" y="566.95" width="212.33" height="106.74"/><rect class="cls-6" x="195.48" y="566.95" width="26.63" height="106.74"/><rect class="cls-6" x="251.23" y="638.48" width="196.31" height="118.89"/><rect class="cls-2" x="331.39" y="617.14" width="25.28" height="21.34"/><path class="cls-2" d="M501.78,669.59l59.34-33.92a3.47,3.47,0,0,1,5.13,2.33c2.25,11.06,7.88,38.74,10.62,51.74l-73.08.45Z" transform="translate(-149.3 -51.26)"/><path class="cls-2" d="M492.76,669.59l-59.34-33.92a3.47,3.47,0,0,0-5.13,2.33c-2.25,11.06-7.88,38.74-10.62,51.74l73.08.45Z" transform="translate(-149.3 -51.26)"/><path class="cls-12" d="M480.17,677.78" transform="translate(-149.3 -51.26)"/><path class="cls-12" d="M453.31,663.37" transform="translate(-149.3 -51.26)"/><path class="cls-12" d="M443.59,656.34" transform="translate(-149.3 -51.26)"/><path class="cls-12" d="M421.45,657.39" transform="translate(-149.3 -51.26)"/><rect class="cls-3" x="58.69" y="652.52" width="105.75" height="105.75"/><rect class="cls-5" x="99.63" y="652.52" width="21.62" height="105.87"/><rect class="cls-5" x="58.69" y="693.96" width="105.75" height="18.67"/><path class="cls-13" d="M397.84,808.41" transform="translate(-149.3 -51.26)"/><rect class="cls-2" x="331.39" y="630.12" width="27.53" height="127.24"/><rect class="cls-2" x="251.23" y="679.3" width="196.31" height="28.64"/></g><g id="decorative_elements" data-name="decorative elements"><circle class="cls-5" cx="728.85" cy="347.5" r="9.75"/><path class="cls-14" d="M940.77,306.14l7.73-2.72a1.85,1.85,0,1,0-1.23-3.49l-8,2.83a.33.33,0,0,1-.1-.06l-.11,0-2.46-8.17a1.85,1.85,0,1,0-3.54,1.06l2.37,7.86-7.75,2.72a1.84,1.84,0,1,0,1.22,3.48l8.06-2.82.1.06h0l.09,0,2.44,8.16a1.85,1.85,0,0,0,2.3,1.24,1.85,1.85,0,0,0,1.24-2.29Z" transform="translate(-149.3 -51.26)"/><polygon class="cls-5" points="828.17 606.22 829.34 621.28 842.41 628.87 828.44 634.63 825.27 649.4 815.47 637.9 800.44 639.44 808.35 626.57 802.24 612.75 816.92 616.3 828.17 606.22"/><path class="cls-6" d="M972.12,498.88a5.54,5.54,0,0,0-7.45,3.09,40.13,40.13,0,0,1-10.4,14.6c-5.91,5.43-13,9.42-20.09,13.14s-14.6,7.42-19.76,13.61c-5.6,6.71-8.39,17-9.19,26.24a5.33,5.33,0,0,0,4.31,5.65h0a5.34,5.34,0,0,0,6.35-4.76c.74-8,3-15.26,8.24-21.6,4.78-5.73,11.54-9.31,18.17-12.78A96.8,96.8,0,0,0,963,521.63c4.55-4.18,9.46-9.52,12.09-15.35a5.52,5.52,0,0,0-2.73-7.3Z" transform="translate(-149.3 -51.26)"/><circle class="cls-15" cx="164.44" cy="177.33" r="8.33"/><polyline class="cls-6" points="123.16 314.74 131.92 324.78 118.62 325.62 111.77 337.06 106.86 324.67 93.87 321.7 104.13 313.19 102.94 299.92 114.2 307.05 126.46 301.82 123.16 314.74"/><path class="cls-4" d="M217.06,651.32a14.23,14.23,0,0,1-4.25,4.45,16.58,16.58,0,0,1-16.06,1.64c-7.56-3.54-11.26-11.4-12.43-18.74a77,77,0,0,0-29.94,15.42,3.09,3.09,0,1,1-4-4.73,83.21,83.21,0,0,1,33.49-17c.32-23.15,18.88-41.83,33-54a3.1,3.1,0,0,1,4,4.7c-12.92,11.11-29.8,27.95-30.81,48,1.1-.18,2.2-.34,3.31-.47,4.28-.52,9.86-.85,15,1.17,5.84,2.28,9.85,7.27,10.21,12.72A11.61,11.61,0,0,1,217.06,651.32Zm-26.68-14c.84,5.61,3.52,11.89,9,14.45a10.61,10.61,0,0,0,9.94-1.14c1.28-.88,3.4-2.79,3.2-5.71-.24-3.49-3.33-6.22-6.29-7.37-3.9-1.53-8.48-1.23-12-.8Q192.28,637,190.38,637.35Z" transform="translate(-149.3 -51.26)"/></g></svg>