<svg xmlns="http://www.w3.org/2000/svg" width="64" height="64" viewBox="0 0 64 64"><path style="line-height:normal;text-indent:0;text-align:start;text-decoration-line:none;text-decoration-style:solid;text-decoration-color:#000;text-transform:none;block-progression:tb;white-space:normal;isolation:auto;mix-blend-mode:normal;solid-color:#000;solid-opacity:1" fill-rule="evenodd" d="m 34.845703,998.36216 c -0.822516,0 -1.500016,0.67752 -1.5,1.5 0,0.0827 0.01225,0.16104 0.02539,0.24024 l -7.080078,4.3672 c -0.411036,-0.3072 -0.984382,-0.3625 -1.453125,-0.092 -0.14676,0.085 -0.269445,0.196 -0.369141,0.3223 l -6.492188,-1.0938 c -0.02834,-0.1716 -0.08427,-0.3415 -0.175781,-0.5 -0.411865,-0.7134 -1.339363,-0.9606 -2.052734,-0.5488 -0.618743,0.3572 -0.886046,1.1012 -0.677735,1.7578 l -5.5996089,3.1992 c -0.253799,-0.1604 -0.5512165,-0.2559 -0.8710937,-0.2559 -0.9034694,0 -1.6465224,0.743 -1.6464844,1.6465 1.57e-5,0.3477 0.111905,0.6705 0.2988281,0.9375 l -3.9550781,6.5391 C 2.5696804,1016.4829 2,1017.1091 2,1017.8622 c 0,0.7237 0.52462,1.3342 1.2109375,1.4707 l 4.5195313,5.5 c -0.075072,0.165 -0.1210784,0.3455 -0.1210938,0.5371 -1.44e-5,0.3443 0.1414983,0.6546 0.3613281,0.8906 l -3.1445312,5.8027 c -0.041299,-0 -0.081042,-0.012 -0.1230469,-0.012 -0.960576,0 -1.7499999,0.7894 -1.75,1.75 10e-8,0.9606 0.789424,1.75 1.75,1.75 0.3859841,0 0.7406494,-0.1328 1.03125,-0.3476 l 8.8125,2.0761 c 0.195993,0.8977 0.999588,1.5782 1.953125,1.5782 0.718278,0 1.34635,-0.3891 1.699219,-0.9629 l 12.376953,1.9043 c 0.191856,0.6078 0.756295,1.0586 1.423828,1.0586 0.666029,0 1.228743,-0.449 1.421875,-1.0547 l 12.691406,-1.8125 c 0.268048,0.7895 1.010481,1.3672 1.886719,1.3672 0.996792,0 1.822607,-0.745 1.96875,-1.7032 l 8.519531,-2.3808 c 0.261065,0.1744 0.573462,0.2773 0.908203,0.2773 0.903415,0 1.646444,-0.7431 1.646485,-1.6465 3.8e-5,-0.9035 -0.743015,-1.6465 -1.646485,-1.6465 -0.0054,0 -0.01028,0 -0.01563,0 l -2.169921,-5.9688 c 0.236178,-0.2387 0.38478,-0.5636 0.384765,-0.9218 -2.5e-5,-0.3185 -0.130389,-0.603 -0.322265,-0.8321 l 3.357421,-7.5918 c 0.890811,-0.015 1.619179,-0.7503 1.619141,-1.6445 3.6e-5,-0.858 -0.672383,-1.5632 -1.513672,-1.6328 l -1.78125,-8.7871 c 0.173968,-0.2149 0.294922,-0.4749 0.294922,-0.7695 0,-0.6844 -0.565566,-1.25 -1.25,-1.25 -0.536286,0 -0.994479,0.3485 -1.169922,0.8281 l -10.240234,-0.035 c -0.10127,-0.7271 -0.725456,-1.2968 -1.478516,-1.2968 -0.594026,0 -1.107446,0.3551 -1.349609,0.8613 l -7.445313,-3.084 c 0.01694,-0.089 0.0293,-0.17934 0.0293,-0.27344 1.6e-5,-0.82248 -0.677484,-1.5 -1.5,-1.5 z m 0,1 c 0.282069,0 0.500006,0.218 0.5,0.5 0,0.28214 -0.217935,0.50004 -0.5,0.50004 -0.282065,0 -0.5,-0.2179 -0.5,-0.50004 -5e-6,-0.282 0.217931,-0.5 0.5,-0.5 z m -0.988281,1.61524 c 0.265268,0.2354 0.609496,0.3848 0.988281,0.3848 0.363527,0 0.694177,-0.1387 0.955078,-0.3575 l 7.875,3.2618 c 0.171261,0.5912 0.696012,1.0335 1.328125,1.08 l 1.617188,4.3047 c -0.112365,0.082 -0.210985,0.1795 -0.296875,0.2891 l -8.873047,-3.0801 c 6.87e-4,-0.02 0.0059,-0.038 0.0059,-0.059 0,-0.9606 -0.789424,-1.75 -1.75,-1.75 -0.807527,0 -1.487264,0.5601 -1.685547,1.3086 l -7.226562,-0.873 c -9.32e-4,-0.053 0.01136,-0.1051 0.0039,-0.1582 l 7.058594,-4.3516 z m -17.417969,2.3809 c 0.194626,-0.026 0.38986,0.064 0.496094,0.248 0.141645,0.2453 0.05979,0.5458 -0.185547,0.6875 -0.245336,0.1416 -0.543902,0.062 -0.685547,-0.1836 -0.141645,-0.2453 -0.06174,-0.5439 0.183594,-0.6855 0.06133,-0.036 0.126531,-0.058 0.191406,-0.066 z m 28.671875,0 c 0.282065,0 0.5,0.218 0.5,0.5 0,0.2821 -0.217935,0.5 -0.5,0.5 -0.282065,0 -0.5,-0.2179 -0.5,-0.5 0,-0.282 0.217935,-0.5 0.5,-0.5 z M 58,1003.8622 c 0.143994,0 0.25,0.106 0.25,0.25 0,0.144 -0.106006,0.25 -0.25,0.25 -0.143994,0 -0.25,-0.106 -0.25,-0.25 0,-0.144 0.106006,-0.25 0.25,-0.25 z m -40.199219,0.7304 6.390625,1.0762 c 0.0119,0.1094 0.03783,0.2167 0.07813,0.3223 l -7.642578,4.8906 c -0.275969,-0.3178 -0.677459,-0.5234 -1.126953,-0.5234 -0.474839,0 -0.89615,0.2289 -1.171875,0.5781 l -4.087891,-1.9629 c 9.84e-4,-0.023 0.0059,-0.045 0.0059,-0.068 9e-6,-0.2159 -0.0461,-0.4216 -0.123047,-0.6113 l 5.566406,-3.1797 c 0.458753,0.2925 1.060717,0.3335 1.560547,0.045 0.240332,-0.1387 0.423232,-0.3385 0.550781,-0.5664 z m 28.574219,0.061 10.462891,0.037 -8.210938,5.1914 c -0.258351,-0.2975 -0.627678,-0.4918 -1.042969,-0.5156 l -1.611328,-4.2871 c 0.160702,-0.1142 0.296543,-0.2591 0.402344,-0.4258 z m -20.916016,0.5488 c 0.123623,-0.017 0.246173,0.04 0.314454,0.1582 0.09104,0.1577 0.0405,0.3446 -0.117188,0.4356 -0.157686,0.091 -0.344497,0.041 -0.435547,-0.1172 -0.09104,-0.1577 -0.0405,-0.3426 0.117188,-0.4336 0.03942,-0.023 0.07989,-0.037 0.121093,-0.043 z m 32.251954,0.1211 c 0.09334,0.023 0.189282,0.039 0.289062,0.039 0.01071,0 0.0206,-0 0.03125,-0 l 1.732422,8.5351 c -0.304362,0.1833 -0.54568,0.4594 -0.681641,0.791 l -7.349609,4.3203 -2.148438,-3.7207 a 0.50005,0.50005 0 0 0 -0.132812,-0.1504 l -0.882813,-3.2324 C 48.833604,1011.6301 49,1011.2635 49,1010.8583 c 0,-0.01 -0.0018,-0.018 -0.002,-0.027 l 8.712891,-5.5078 z m -22.003907,0.7285 c 0.420136,0 0.75,0.3299 0.75,0.75 0,0.4201 -0.329864,0.75 -0.75,0.75 -0.420136,0 -0.75,-0.3299 -0.75,-0.75 0,-0.4201 0.329864,-0.75 0.75,-0.75 z m -9.042969,0.4277 7.398438,0.8946 c 0.240265,0.6807 0.885512,1.1777 1.644531,1.1777 0.585575,0 1.103574,-0.2975 1.421875,-0.7441 l 8.646485,3.0019 -12.550782,2.9824 c -0.340169,-0.2673 -0.761764,-0.4335 -1.224609,-0.4335 -0.323645,0 -0.62508,0.084 -0.896484,0.2226 l -4.439454,-7.1016 z m -1.667968,0.2344 c 0.222574,0.092 0.459812,0.1418 0.701172,0.1055 l 4.642578,7.4277 c -0.12282,0.1827 -0.210133,0.3896 -0.267578,0.6074 l -0.03516,0 -13.058593,-2.7988 c 0.0091,-0.066 0.02148,-0.1307 0.02148,-0.1992 0,-0.01 -0.0018,-0.018 -0.002,-0.027 l 7.998047,-5.1172 z m -16.3964846,1.5449 c 0.1743266,0 0.3283018,0.066 0.4433594,0.1739 l 0.1679687,0.2968 c 0.015699,0.057 0.035159,0.1135 0.035156,0.1758 -1.64e-5,0.363 -0.2834937,0.6465 -0.6464844,0.6465 -0.3629907,0 -0.646468,-0.2835 -0.6464844,-0.6465 -1.53e-5,-0.363 0.28347,-0.6465 0.6464844,-0.6465 z m 1.2890625,1.6543 4.1152341,1.9747 c 0.01186,0.5861 0.364996,1.0925 0.869141,1.3281 l -0.28125,1.832 a 0.50005,0.50005 0 0 0 -0.310547,0.2363 l -4,6.9278 a 0.50005,0.50005 0 0 0 0.183594,0.6836 l 0.0918,0.053 -1.1445316,1.1992 c -0.1504068,-0.06 -0.3136264,-0.096 -0.484375,-0.096 -0.1664595,0 -0.3253816,0.034 -0.4726563,0.092 l -4.1308593,-5.0332 C 4.7295735,1018.8404 5,1018.3809 5,1017.8622 c 0,-0.5181 -0.2692843,-0.9781 -0.6738281,-1.2481 l 3.7265625,-6.164 c 0.1720527,0.062 0.3546991,0.1015 0.546875,0.1015 0.5230346,0 0.9866044,-0.2536 1.2890625,-0.6387 z M 47.5,1010.3583 c 0.282065,0 0.5,0.218 0.5,0.5 0,0.2821 -0.217935,0.5 -0.5,0.5 -0.282065,0 -0.5,-0.2179 -0.5,-0.5 0,-0.282 0.217935,-0.5 0.5,-0.5 z m -32,1 c 0.282065,0 0.5,0.218 0.5,0.5 0,0.2821 -0.217935,0.5 -0.5,0.5 -0.282065,0 -0.5,-0.2179 -0.5,-0.5 0,-0.282 0.217935,-0.5 0.5,-0.5 z m 30.777344,0.3593 c 0.272728,0.3852 0.719517,0.6407 1.222656,0.6407 0.05207,0 0.101574,-0.01 0.152344,-0.016 l 0.820312,3.0059 -1.535156,0.8848 a 0.50005,0.50005 0 0 0 -0.0098,0.01 l -4.595703,2.6524 -8.427734,-2.9571 c 0.05639,-0.184 0.0957,-0.3745 0.0957,-0.5761 0,-0.2432 -0.0502,-0.4753 -0.130859,-0.6915 l 12.408203,-2.9492 z m -29.791016,1.2578 13.476563,2.8868 0.107421,-0.01 c 0.151521,0.582 0.557708,1.0621 1.09375,1.3125 l -2.197265,5.8614 c -0.332643,0.079 -0.65191,0.2006 -0.953125,0.3652 l -1.392578,-0.8066 0.07813,-0.1348 a 0.50005,0.50005 0 0 0 -0.183594,-0.6836 l -1.185547,-0.6836 -0.611328,-0.3535 -9.175781,-5.2969 0.328125,-2.1289 c 0.231674,-0.06 0.440335,-0.1754 0.615234,-0.3301 z M 32,1014.3583 c 0.558207,0 1,0.4418 1,1 0,0.5582 -0.441793,1 -1,1 -0.0021,0 -0.0037,-0 -0.0059,-0 l -0.462891,-0.1719 -0.01367,0.035 C 31.212085,1016.0498 31,1015.7373 31,1015.3583 c 0,-0.5582 0.441793,-1 1,-1 z m 28.603516,0.2968 c 0.363014,0 0.646499,0.2835 0.646484,0.6465 1.5e-5,0.363 -0.28347,0.6465 -0.646484,0.6465 -0.363015,0 -0.6465,-0.2835 -0.646485,-0.6465 -1.5e-5,-0.363 0.28347,-0.6465 0.646485,-0.6465 z m -1.541016,1.2012 c 0.117706,0.3223 0.327973,0.6013 0.605469,0.7949 l -3.277344,7.4121 c -0.03867,-0 -0.07574,-0.012 -0.115234,-0.012 -0.356203,0 -0.679561,0.1455 -0.917969,0.3789 l -2.978516,-0.6347 1.15625,-0.6661 a 0.50005,0.50005 0 0 0 0.183594,-0.6836 l -1.486328,-2.5742 6.830078,-4.0156 z m -44.164062,0.3594 8.888671,5.1328 -3.185547,5.5195 a 0.50005,0.50005 0 0 0 -0.18164,0.3145 l -0.132813,0.2285 -8.888671,-5.1328 3.5,-6.0625 z m 34.070312,0 3.634766,6.295 -8.855469,5.1132 -3.634766,-6.2968 8.855469,-5.1114 z m -15.599609,0.5879 7.820312,2.7461 -3.837891,2.2149 a 0.50005,0.50005 0 0 0 -0.18164,0.6836 l 0.07813,0.1367 -1.390625,0.8008 c -0.382878,-0.2126 -0.795469,-0.3682 -1.22461,-0.4415 0,0 -0.002,0 -0.002,0 -0.36389,-0.062 -0.736338,-0.071 -1.107421,-0.025 -0.24739,0.03 -0.492675,0.083 -0.734376,0.164 -0.2417,0.081 -0.479816,0.188 -0.708984,0.3203 a 0.50005,0.50005 0 0 0 -0.002,0 l -0.138672,0.08 -0.162109,-0.088 c -0.461559,-0.2509 -0.952951,-0.4017 -1.447266,-0.459 -0.0865,-0.01 -0.173238,-0.01 -0.259766,-0.012 l 2.095704,-5.5859 c 0.46323,-0.039 0.88254,-0.2317 1.203125,-0.5352 z M 3.5,1017.3622 c 0.2820647,0 0.5,0.218 0.5,0.5 0,0.2821 -0.2179353,0.5 -0.5,0.5 -0.2820647,0 -0.5,-0.2179 -0.5,-0.5 0,-0.282 0.2179353,-0.5 0.5,-0.5 z m 35.746094,4.4668 2.269531,3.9296 a 0.5,0.5 0 0 0 -0.07617,0.6016 0.5,0.5 0 0 0 0.556641,0.2324 l 0.277344,0.4785 -0.962891,0.5547 -0.392578,-0.6797 a 0.50005,0.50005 0 0 0 -0.111328,-0.1933 l -2.521485,-4.3692 0.960938,-0.5546 z m -14.59375,0.019 0.177734,0.1035 0.751953,0.4336 -3.02539,5.2422 -0.931641,-0.5371 0.302734,-0.5235 a 0.5,0.5 0 0 0 0.63086,-0.207 0.5,0.5 0 0 0 -0.134766,-0.6523 l 2.228516,-3.8594 z m 13.095703,1.6035 2,3.4629 -1.03125,0.5957 c -0.07439,-0.2707 -0.173461,-0.5358 -0.310547,-0.793 a 0.50005,0.50005 0 0 0 -0.05469,-0.1191 l -1.02539,-1.7774 c -0.168899,-0.2925 -0.376536,-0.5476 -0.603516,-0.7773 l 1.025391,-0.5918 z m -11.626953,0 1.023437,0.5918 c -0.226244,0.228 -0.43248,0.4825 -0.601562,0.7753 l -1.027344,1.7774 c -0.169213,0.2931 -0.281741,0.6001 -0.367187,0.9121 l -1.027344,-0.5938 2,-3.4628 z m -14.675782,0.01 8.773438,5.0644 a 0.50005,0.50005 0 0 0 0.683594,-0.1836 l 0.222656,-0.3867 0.802734,0.4629 -5.1875,6.4629 c -0.07951,-0.01 -0.158232,-0.023 -0.240234,-0.023 -0.07665,0 -0.150115,0.013 -0.224609,0.021 l -6.203125,-8.8964 c 0.101528,-0.1864 0.173837,-0.3881 0.173828,-0.6133 -1.5e-5,-0.1876 -0.04312,-0.3651 -0.115235,-0.5274 l 1.314453,-1.3808 z m 22.753907,0.4316 c 0.906772,0.064 1.763295,0.5679 2.259765,1.4277 l 1.027344,1.7774 c 0.218754,0.3789 0.331776,0.7827 0.367188,1.1875 a 0.50005,0.50005 0 0 0 0.0098,0.1191 c 0.0082,0.1807 -0.0014,0.3601 -0.02734,0.5371 -0.05279,-0.042 -0.105834,-0.084 -0.166016,-0.1191 l -3.421875,-1.9766 c 0.01169,-0.2367 -0.03329,-0.4748 -0.138672,-0.6992 a 0.50005,0.50005 0 0 0 -0.0098,-0.031 0.50005,0.50005 0 0 0 0,-0 0.50005,0.50005 0 0 0 -0.01953,-0.043 0.50005,0.50005 0 0 0 0,-0 0.50005,0.50005 0 0 0 -0.02344,-0.043 0.50005,0.50005 0 0 0 0,-0 0.50005,0.50005 0 0 0 -0.0059,-0.01 c 0,0 0,-0 0,-0 -0.005,-0.01 -0.01242,-0.015 -0.01758,-0.024 a 0.50005,0.50005 0 0 0 -0.0293,-0.039 c -0.0049,-0.01 -0.01061,-0.014 -0.01563,-0.022 -0.03781,-0.056 -0.07317,-0.1134 -0.117187,-0.1621 0,0 0,-0 0,-0 -0.134343,-0.1486 -0.29774,-0.2657 -0.47461,-0.3476 0,0 -0.002,-0 -0.002,-0 -0.444541,-0.2051 -0.985384,-0.1937 -1.439453,0.068 a 0.50005,0.50005 0 0 0 -0.01953,0.014 l -0.02148,0.014 -1.886718,1.0898 a 0.5005087,0.5005087 0 0 0 -0.07227,0.049 l -0.03711,0.022 c -0.365501,0.211 -0.793435,0.082 -1.160157,-0.1954 l 1.033204,-0.5976 1.175781,-0.6797 a 0.50005,0.50005 0 0 0 0.0098,-0.01 l 1.226563,-0.707 a 0.50005,0.50005 0 0 0 0.002,0 0.50005,0.50005 0 0 0 0.04102,-0.025 l 0.333984,-0.1933 c 0.512423,-0.2959 1.075077,-0.4155 1.619141,-0.377 z m -4.53711,0.016 c 0.403699,-0.027 0.817115,0.04 1.21875,0.1875 l -0.404297,0.2344 a 0.50005,0.50005 0 0 0 -0.04297,0.025 l -1.142578,0.6602 a 0.50005,0.50005 0 0 0 -0.002,0 l -1.623046,0.9394 a 0.50005,0.50005 0 0 0 -0.117188,0.094 0.50005,0.50005 0 0 0 -0.03125,0.037 0.50005,0.50005 0 0 0 0,0 0.50005,0.50005 0 0 0 -0.02734,0.039 0.50005,0.50005 0 0 0 0,0 0.50005,0.50005 0 0 0 -0.02344,0.043 0.50005,0.50005 0 0 0 0,0 0.50005,0.50005 0 0 0 -0.03516,0.092 0.50005,0.50005 0 0 0 0,0 0.50005,0.50005 0 0 0 -0.0098,0.047 0.50005,0.50005 0 0 0 0,0 0.50005,0.50005 0 0 0 -0.0039,0.098 0.50005,0.50005 0 0 0 0,0 0.50005,0.50005 0 0 0 0.0059,0.049 0.50005,0.50005 0 0 0 0,0 0.50005,0.50005 0 0 0 0.0098,0.047 0.50005,0.50005 0 0 0 0,0 0.50005,0.50005 0 0 0 0.01563,0.045 0.50005,0.50005 0 0 0 0,0 0.50005,0.50005 0 0 0 0.03516,0.074 c 0.07578,0.1312 0.162008,0.2519 0.257813,0.3632 0,0 0,0 0,0 0.670633,0.78 1.784864,1.0534 2.675781,0.539 l 1.894531,-1.0957 a 0.50005,0.50005 0 0 0 0.07422,-0.049 l 0.0078,-0 a 0.50005,0.50005 0 0 0 0.002,-0 l 0.05859,-0.033 c 0.22903,-0.1322 0.470265,-0.096 0.628906,0.047 a 0.5005087,0.5005087 0 0 0 -0.05469,0.8946 l 0.400391,0.2304 a 0.50005,0.50005 0 0 0 0.04102,0.025 l 3.699219,2.1348 c 0.187754,0.1083 0.245074,0.324 0.136719,0.5117 -0.108175,0.1871 -0.32458,0.2448 -0.511719,0.1367 l -4.115234,-2.375 -0.431641,-0.25 a 0.5005087,0.5005087 0 0 0 -0.5,0.8672 l 0.431641,0.25 4.115234,2.375 0.402344,0.2344 a 0.50005,0.50005 0 0 0 0.158203,0.1406 c 0.07424,0.1124 0.08358,0.2555 0.0078,0.3867 -0.108309,0.1878 -0.323912,0.2451 -0.511719,0.1367 l -0.429687,-0.248 -0.002,0 -4.115234,-2.375 -0.431641,-0.25 a 0.5005087,0.5005087 0 1 0 -0.5,0.8672 l 0.431641,0.248 4.115234,2.377 c 0.187702,0.1083 0.245056,0.3241 0.136719,0.5117 -0.108344,0.1879 -0.324065,0.2451 -0.511719,0.1367 l -0.867188,-0.5 -3.679687,-2.125 -0.867188,-0.5 a 0.50005,0.50005 0 0 0 -0.5,0.8653 l 0.867188,0.5019 3.679687,2.1231 c 0.187777,0.1083 0.245038,0.324 0.136719,0.5117 -0.108279,0.1877 -0.324094,0.245 -0.511719,0.1367 l -4.273437,-2.4668 -0.0078,-0.01 a 0.50005,0.50005 0 0 0 -0.0059,0 l -0.259766,-0.1484 -1.34375,-0.7773 c -1.366353,-0.7889 -1.823639,-2.5091 -1.029297,-3.8848 l 1.025391,-1.7774 c 0.496436,-0.8598 1.345325,-1.3509 2.253906,-1.4121 z m 21.425782,0.6328 3.86914,0.8262 c 0,0 0,0 0,0 -1.1e-5,0.2697 0.102508,0.5068 0.244141,0.7168 l -7.013672,9.289 c -0.0625,-0.01 -0.123522,-0.017 -0.1875,-0.017 -0.392145,0 -0.756549,0.1168 -1.066406,0.3144 l -8.154297,-6.3418 c 0.05274,-0.2474 0.0865,-0.4994 0.08984,-0.7539 l 1.378906,-0.7949 0.447265,0.7754 a 0.50005,0.50005 0 0 0 0.683594,0.1836 l 1.394532,-0.8047 0.359374,0.6211 a 0.50005,0.50005 0 0 0 0.681641,0.1836 l 7.273438,-4.1993 z m -42.1601566,0.5098 c 0.1820706,0 0.3183448,0.1364 0.3183594,0.3184 7.5e-6,0.1821 -0.1362713,0.3183 -0.3183594,0.3183 -0.1820881,0 -0.318367,-0.1362 -0.3183594,-0.3183 1.46e-5,-0.182 0.1362887,-0.3184 0.3183594,-0.3184 z m 47.3476566,0 c 0.18207,0 0.320298,0.1364 0.320312,0.3184 8e-6,0.1821 -0.138224,0.3183 -0.320312,0.3183 -0.182088,0 -0.318367,-0.1362 -0.31836,-0.3183 1.5e-5,-0.182 0.136289,-0.3184 0.31836,-0.3184 z m -46.9746098,1.5742 6.0175778,8.6289 c -0.33647,0.2495 -0.587867,0.6008 -0.716797,1.0079 l -8.2382808,-1.9395 c 0.053037,-0.1663 0.089844,-0.3385 0.089844,-0.5215 -1e-7,-0.5582 -0.2717378,-1.0537 -0.6835938,-1.375 l 3.1113282,-5.7441 c 0.015961,6e-4 0.030783,0.01 0.046875,0.01 0.1302169,0 0.2538063,-0.026 0.3730468,-0.062 z m 46.7207028,0.035 c 0.08252,0.016 0.166898,0.027 0.253907,0.027 0.0047,0 0.009,-0 0.01367,-0 l 2.144532,5.8906 c -0.411532,0.3005 -0.683617,0.7842 -0.683594,1.3281 8e-6,0.1799 0.03746,0.3492 0.0918,0.5117 l -7.978516,2.2305 c -0.140866,-0.3661 -0.385831,-0.6792 -0.699219,-0.9062 l 6.857422,-9.0801 z m -32.402343,1.123 1.394531,0.8028 c 0.01626,0.9662 0.393781,1.8985 1.080078,2.6054 -0.186631,0.3959 -0.189651,0.8725 0.04297,1.2754 0.257759,0.4465 0.734817,0.5969 1.220703,0.5879 9.66e-4,0.2306 -0.03437,0.466 0.08789,0.6778 0.340183,0.5899 1.059764,0.7658 1.677735,0.5293 0.02439,0.1651 -0.02524,0.3342 0.0625,0.4863 0.376491,0.6526 1.226912,0.8783 1.878906,0.5019 l 0.435547,-0.2519 0,2.9512 c -0.400745,0.1442 -0.725132,0.4512 -0.886719,0.8437 l -12.121093,-1.8652 c 8.62e-4,-0.024 0.0078,-0.046 0.0078,-0.07 0,-0.6437 -0.313866,-1.2154 -0.791016,-1.5821 l 5.220704,-6.5058 a 0.50005,0.50005 0 0 0 0.242187,-0.211 l 0.447266,-0.7754 z m 14.796875,2.5332 7.835937,6.0938 c -0.09826,0.18 -0.175828,0.3727 -0.214844,0.5801 l -12.648437,1.8066 c -0.161033,-0.3943 -0.48658,-0.7029 -0.888672,-0.8476 l 0,-2.875 0.302734,0.1757 c 0.651976,0.3765 1.502386,0.1508 1.878907,-0.5019 0.08774,-0.1521 0.03811,-0.3212 0.0625,-0.4863 0.618271,0.2375 1.337298,0.061 1.677734,-0.5293 0.122322,-0.2118 0.08691,-0.4472 0.08789,-0.6778 0.485957,0.01 0.963031,-0.1412 1.220703,-0.5879 0.22782,-0.3945 0.162574,-0.8195 -0.02734,-1.2011 0.289874,-0.2823 0.529472,-0.6005 0.712891,-0.9493 z m -11.425782,1.5782 0.423828,0.2441 c -0.159401,0.042 -0.320663,-0.017 -0.410156,-0.1719 -0.01366,-0.024 -0.0054,-0.048 -0.01367,-0.072 z m 1.447266,0.8379 0.07813,0.045 a 0.50005,0.50005 0 0 0 0.0039,0 l 0.666016,0.3847 -0.361328,0.209 c -0.187625,0.1084 -0.405359,0.051 -0.513672,-0.1367 -0.105852,-0.1833 -0.05072,-0.3914 0.126953,-0.5019 z m -23.734375,0.3183 c 0.4201358,0 0.75,0.3299 0.75,0.75 0,0.4201 -0.3298642,0.75 -0.75,0.75 -0.4201358,0 -0.75,-0.3299 -0.75,-0.75 0,-0.4201 0.3298642,-0.75 0.75,-0.75 z m 54.693359,0.207 c 0.363015,0 0.6465,0.2835 0.646485,0.6465 -1.7e-5,0.363 -0.283494,0.6465 -0.646485,0.6465 -0.36299,0 -0.646468,-0.2835 -0.646484,-0.6465 -1.5e-5,-0.363 0.28347,-0.6465 0.646484,-0.6465 z m -29.210937,0.4825 0.748047,0.4316 -0.369141,0.2129 c -0.187806,0.1084 -0.403409,0.051 -0.511719,-0.1367 -0.107332,-0.186 -0.0509,-0.3986 0.132813,-0.5078 z M 16.5,1035.8583 c 0.558207,0 1,0.4418 1,1 0,0.5582 -0.441793,1 -1,1 -0.558207,0 -1,-0.4418 -1,-1 0,-0.5582 0.441793,-1 1,-1 z m 31.5,0.5 c 0.558207,0 1,0.4418 1,1 0,0.5582 -0.441793,1 -1,1 -0.558207,0 -1,-0.4418 -1,-1 0,-0.5582 0.441793,-1 1,-1 z m -16,2.5 c 0.282065,0 0.5,0.218 0.5,0.5 0,0.2821 -0.217935,0.5 -0.5,0.5 -0.282065,0 -0.5,-0.2179 -0.5,-0.5 0,-0.282 0.217935,-0.5 0.5,-0.5 z" color="#000" enable-background="accumulate" font-family="sans-serif" font-weight="400" overflow="visible" transform="translate(0 -988.362)"/></svg>